<?xml version="1.0" encoding="utf-8" standalone="no"?>
<!DOCTYPE svg PUBLIC "-//W3C//DTD SVG 1.1//EN"
  "http://www.w3.org/Graphics/SVG/1.1/DTD/svg11.dtd">
<svg height="891.22125pt" version="1.1" viewBox="0 0 929.176075 891.22125" width="929.176075pt" xmlns="http://www.w3.org/2000/svg" xmlns:xlink="http://www.w3.org/1999/xlink">
 <metadata>
  <rdf:RDF xmlns:cc="http://creativecommons.org/ns#" xmlns:dc="http://purl.org/dc/elements/1.1/" xmlns:rdf="http://www.w3.org/1999/02/22-rdf-syntax-ns#">
   <cc:Work>
    <dc:type rdf:resource="http://purl.org/dc/dcmitype/StillImage"/>
    <dc:date>2023-04-19T12:23:47.798886</dc:date>
    <dc:format>image/svg+xml</dc:format>
    <dc:creator>
     <cc:Agent>
      <dc:title>Matplotlib v3.4.3, https://matplotlib.org/</dc:title>
     </cc:Agent>
    </dc:creator>
   </cc:Work>
  </rdf:RDF>
 </metadata>
 <defs>
  <style type="text/css">*{stroke-linecap:butt;stroke-linejoin:round;}</style>
 </defs>
 <g id="figure_1">
  <g id="patch_1">
   <path d="M 0 891.22125 
L 929.176075 891.22125 
L 929.176075 0 
L 0 0 
z
" style="fill:#ffffff;"/>
  </g>
  <g id="axes_1">
   <g id="patch_2">
    <path d="M 79.433125 822.6 
L 916.433125 822.6 
L 916.433125 7.2 
L 79.433125 7.2 
z
" style="fill:#ffffff;"/>
   </g>
   <g id="matplotlib.axis_1">
    <g id="xtick_1">
     <g id="text_1">
      <!-- 0 -->
      <g style="fill:#262626;" transform="translate(110.971339 847.847187)scale(0.22 -0.22)">
       <defs>
        <path d="M 266 2259 
Q 266 3072 433 3567 
Q 600 4063 929 4331 
Q 1259 4600 1759 4600 
Q 2128 4600 2406 4451 
Q 2684 4303 2865 4023 
Q 3047 3744 3150 3342 
Q 3253 2941 3253 2259 
Q 3253 1453 3087 958 
Q 2922 463 2592 192 
Q 2263 -78 1759 -78 
Q 1097 -78 719 397 
Q 266 969 266 2259 
z
M 844 2259 
Q 844 1131 1108 757 
Q 1372 384 1759 384 
Q 2147 384 2411 759 
Q 2675 1134 2675 2259 
Q 2675 3391 2411 3762 
Q 2147 4134 1753 4134 
Q 1366 4134 1134 3806 
Q 844 3388 844 2259 
z
" id="ArialMT-30" transform="scale(0.015625)"/>
       </defs>
       <use xlink:href="#ArialMT-30"/>
      </g>
     </g>
    </g>
    <g id="xtick_2">
     <g id="text_2">
      <!-- 250 -->
      <g style="fill:#262626;" transform="translate(196.289724 847.847187)scale(0.22 -0.22)">
       <defs>
        <path d="M 3222 541 
L 3222 0 
L 194 0 
Q 188 203 259 391 
Q 375 700 629 1000 
Q 884 1300 1366 1694 
Q 2113 2306 2375 2664 
Q 2638 3022 2638 3341 
Q 2638 3675 2398 3904 
Q 2159 4134 1775 4134 
Q 1369 4134 1125 3890 
Q 881 3647 878 3216 
L 300 3275 
Q 359 3922 746 4261 
Q 1134 4600 1788 4600 
Q 2447 4600 2831 4234 
Q 3216 3869 3216 3328 
Q 3216 3053 3103 2787 
Q 2991 2522 2730 2228 
Q 2469 1934 1863 1422 
Q 1356 997 1212 845 
Q 1069 694 975 541 
L 3222 541 
z
" id="ArialMT-32" transform="scale(0.015625)"/>
        <path d="M 266 1200 
L 856 1250 
Q 922 819 1161 601 
Q 1400 384 1738 384 
Q 2144 384 2425 690 
Q 2706 997 2706 1503 
Q 2706 1984 2436 2262 
Q 2166 2541 1728 2541 
Q 1456 2541 1237 2417 
Q 1019 2294 894 2097 
L 366 2166 
L 809 4519 
L 3088 4519 
L 3088 3981 
L 1259 3981 
L 1013 2750 
Q 1425 3038 1878 3038 
Q 2478 3038 2890 2622 
Q 3303 2206 3303 1553 
Q 3303 931 2941 478 
Q 2500 -78 1738 -78 
Q 1113 -78 717 272 
Q 322 622 266 1200 
z
" id="ArialMT-35" transform="scale(0.015625)"/>
       </defs>
       <use xlink:href="#ArialMT-32"/>
       <use x="55.615234" xlink:href="#ArialMT-35"/>
       <use x="111.230469" xlink:href="#ArialMT-30"/>
      </g>
     </g>
    </g>
    <g id="xtick_3">
     <g id="text_3">
      <!-- 500 -->
      <g style="fill:#262626;" transform="translate(293.842171 847.847187)scale(0.22 -0.22)">
       <use xlink:href="#ArialMT-35"/>
       <use x="55.615234" xlink:href="#ArialMT-30"/>
       <use x="111.230469" xlink:href="#ArialMT-30"/>
      </g>
     </g>
    </g>
    <g id="xtick_4">
     <g id="text_4">
      <!-- 750 -->
      <g style="fill:#262626;" transform="translate(391.394619 847.847187)scale(0.22 -0.22)">
       <defs>
        <path d="M 303 3981 
L 303 4522 
L 3269 4522 
L 3269 4084 
Q 2831 3619 2401 2847 
Q 1972 2075 1738 1259 
Q 1569 684 1522 0 
L 944 0 
Q 953 541 1156 1306 
Q 1359 2072 1739 2783 
Q 2119 3494 2547 3981 
L 303 3981 
z
" id="ArialMT-37" transform="scale(0.015625)"/>
       </defs>
       <use xlink:href="#ArialMT-37"/>
       <use x="55.615234" xlink:href="#ArialMT-35"/>
       <use x="111.230469" xlink:href="#ArialMT-30"/>
      </g>
     </g>
    </g>
    <g id="xtick_5">
     <g id="text_5">
      <!-- 1000 -->
      <g style="fill:#262626;" transform="translate(482.830035 847.847187)scale(0.22 -0.22)">
       <defs>
        <path d="M 2384 0 
L 1822 0 
L 1822 3584 
Q 1619 3391 1289 3197 
Q 959 3003 697 2906 
L 697 3450 
Q 1169 3672 1522 3987 
Q 1875 4303 2022 4600 
L 2384 4600 
L 2384 0 
z
" id="ArialMT-31" transform="scale(0.015625)"/>
       </defs>
       <use xlink:href="#ArialMT-31"/>
       <use x="55.615234" xlink:href="#ArialMT-30"/>
       <use x="111.230469" xlink:href="#ArialMT-30"/>
       <use x="166.845703" xlink:href="#ArialMT-30"/>
      </g>
     </g>
    </g>
    <g id="xtick_6">
     <g id="text_6">
      <!-- 1250 -->
      <g style="fill:#262626;" transform="translate(580.382483 847.847187)scale(0.22 -0.22)">
       <use xlink:href="#ArialMT-31"/>
       <use x="55.615234" xlink:href="#ArialMT-32"/>
       <use x="111.230469" xlink:href="#ArialMT-35"/>
       <use x="166.845703" xlink:href="#ArialMT-30"/>
      </g>
     </g>
    </g>
    <g id="xtick_7">
     <g id="text_7">
      <!-- 1500 -->
      <g style="fill:#262626;" transform="translate(677.93493 847.847187)scale(0.22 -0.22)">
       <use xlink:href="#ArialMT-31"/>
       <use x="55.615234" xlink:href="#ArialMT-35"/>
       <use x="111.230469" xlink:href="#ArialMT-30"/>
       <use x="166.845703" xlink:href="#ArialMT-30"/>
      </g>
     </g>
    </g>
    <g id="xtick_8">
     <g id="text_8">
      <!-- 1750 -->
      <g style="fill:#262626;" transform="translate(775.487378 847.847187)scale(0.22 -0.22)">
       <use xlink:href="#ArialMT-31"/>
       <use x="55.615234" xlink:href="#ArialMT-37"/>
       <use x="111.230469" xlink:href="#ArialMT-35"/>
       <use x="166.845703" xlink:href="#ArialMT-30"/>
      </g>
     </g>
    </g>
    <g id="xtick_9">
     <g id="text_9">
      <!-- 2000 -->
      <g style="fill:#262626;" transform="translate(873.039825 847.847187)scale(0.22 -0.22)">
       <use xlink:href="#ArialMT-32"/>
       <use x="55.615234" xlink:href="#ArialMT-30"/>
       <use x="111.230469" xlink:href="#ArialMT-30"/>
       <use x="166.845703" xlink:href="#ArialMT-30"/>
      </g>
     </g>
    </g>
    <g id="text_10">
     <!-- Number of Epochs -->
     <g style="fill:#262626;" transform="translate(373.714375 878.05875)scale(0.3 -0.3)">
      <defs>
       <path d="M 488 0 
L 488 4581 
L 1109 4581 
L 3516 984 
L 3516 4581 
L 4097 4581 
L 4097 0 
L 3475 0 
L 1069 3600 
L 1069 0 
L 488 0 
z
" id="ArialMT-4e" transform="scale(0.015625)"/>
       <path d="M 2597 0 
L 2597 488 
Q 2209 -75 1544 -75 
Q 1250 -75 995 37 
Q 741 150 617 320 
Q 494 491 444 738 
Q 409 903 409 1263 
L 409 3319 
L 972 3319 
L 972 1478 
Q 972 1038 1006 884 
Q 1059 663 1231 536 
Q 1403 409 1656 409 
Q 1909 409 2131 539 
Q 2353 669 2445 892 
Q 2538 1116 2538 1541 
L 2538 3319 
L 3100 3319 
L 3100 0 
L 2597 0 
z
" id="ArialMT-75" transform="scale(0.015625)"/>
       <path d="M 422 0 
L 422 3319 
L 925 3319 
L 925 2853 
Q 1081 3097 1340 3245 
Q 1600 3394 1931 3394 
Q 2300 3394 2536 3241 
Q 2772 3088 2869 2813 
Q 3263 3394 3894 3394 
Q 4388 3394 4653 3120 
Q 4919 2847 4919 2278 
L 4919 0 
L 4359 0 
L 4359 2091 
Q 4359 2428 4304 2576 
Q 4250 2725 4106 2815 
Q 3963 2906 3769 2906 
Q 3419 2906 3187 2673 
Q 2956 2441 2956 1928 
L 2956 0 
L 2394 0 
L 2394 2156 
Q 2394 2531 2256 2718 
Q 2119 2906 1806 2906 
Q 1569 2906 1367 2781 
Q 1166 2656 1075 2415 
Q 984 2175 984 1722 
L 984 0 
L 422 0 
z
" id="ArialMT-6d" transform="scale(0.015625)"/>
       <path d="M 941 0 
L 419 0 
L 419 4581 
L 981 4581 
L 981 2947 
Q 1338 3394 1891 3394 
Q 2197 3394 2470 3270 
Q 2744 3147 2920 2923 
Q 3097 2700 3197 2384 
Q 3297 2069 3297 1709 
Q 3297 856 2875 390 
Q 2453 -75 1863 -75 
Q 1275 -75 941 416 
L 941 0 
z
M 934 1684 
Q 934 1088 1097 822 
Q 1363 388 1816 388 
Q 2184 388 2453 708 
Q 2722 1028 2722 1663 
Q 2722 2313 2464 2622 
Q 2206 2931 1841 2931 
Q 1472 2931 1203 2611 
Q 934 2291 934 1684 
z
" id="ArialMT-62" transform="scale(0.015625)"/>
       <path d="M 2694 1069 
L 3275 997 
Q 3138 488 2766 206 
Q 2394 -75 1816 -75 
Q 1088 -75 661 373 
Q 234 822 234 1631 
Q 234 2469 665 2931 
Q 1097 3394 1784 3394 
Q 2450 3394 2872 2941 
Q 3294 2488 3294 1666 
Q 3294 1616 3291 1516 
L 816 1516 
Q 847 969 1125 678 
Q 1403 388 1819 388 
Q 2128 388 2347 550 
Q 2566 713 2694 1069 
z
M 847 1978 
L 2700 1978 
Q 2663 2397 2488 2606 
Q 2219 2931 1791 2931 
Q 1403 2931 1139 2672 
Q 875 2413 847 1978 
z
" id="ArialMT-65" transform="scale(0.015625)"/>
       <path d="M 416 0 
L 416 3319 
L 922 3319 
L 922 2816 
Q 1116 3169 1280 3281 
Q 1444 3394 1641 3394 
Q 1925 3394 2219 3213 
L 2025 2691 
Q 1819 2813 1613 2813 
Q 1428 2813 1281 2702 
Q 1134 2591 1072 2394 
Q 978 2094 978 1738 
L 978 0 
L 416 0 
z
" id="ArialMT-72" transform="scale(0.015625)"/>
       <path id="ArialMT-20" transform="scale(0.015625)"/>
       <path d="M 213 1659 
Q 213 2581 725 3025 
Q 1153 3394 1769 3394 
Q 2453 3394 2887 2945 
Q 3322 2497 3322 1706 
Q 3322 1066 3130 698 
Q 2938 331 2570 128 
Q 2203 -75 1769 -75 
Q 1072 -75 642 372 
Q 213 819 213 1659 
z
M 791 1659 
Q 791 1022 1069 705 
Q 1347 388 1769 388 
Q 2188 388 2466 706 
Q 2744 1025 2744 1678 
Q 2744 2294 2464 2611 
Q 2184 2928 1769 2928 
Q 1347 2928 1069 2612 
Q 791 2297 791 1659 
z
" id="ArialMT-6f" transform="scale(0.015625)"/>
       <path d="M 556 0 
L 556 2881 
L 59 2881 
L 59 3319 
L 556 3319 
L 556 3672 
Q 556 4006 616 4169 
Q 697 4388 901 4523 
Q 1106 4659 1475 4659 
Q 1713 4659 2000 4603 
L 1916 4113 
Q 1741 4144 1584 4144 
Q 1328 4144 1222 4034 
Q 1116 3925 1116 3625 
L 1116 3319 
L 1763 3319 
L 1763 2881 
L 1116 2881 
L 1116 0 
L 556 0 
z
" id="ArialMT-66" transform="scale(0.015625)"/>
       <path d="M 506 0 
L 506 4581 
L 3819 4581 
L 3819 4041 
L 1113 4041 
L 1113 2638 
L 3647 2638 
L 3647 2100 
L 1113 2100 
L 1113 541 
L 3925 541 
L 3925 0 
L 506 0 
z
" id="ArialMT-45" transform="scale(0.015625)"/>
       <path d="M 422 -1272 
L 422 3319 
L 934 3319 
L 934 2888 
Q 1116 3141 1344 3267 
Q 1572 3394 1897 3394 
Q 2322 3394 2647 3175 
Q 2972 2956 3137 2557 
Q 3303 2159 3303 1684 
Q 3303 1175 3120 767 
Q 2938 359 2589 142 
Q 2241 -75 1856 -75 
Q 1575 -75 1351 44 
Q 1128 163 984 344 
L 984 -1272 
L 422 -1272 
z
M 931 1641 
Q 931 1000 1190 694 
Q 1450 388 1819 388 
Q 2194 388 2461 705 
Q 2728 1022 2728 1688 
Q 2728 2322 2467 2637 
Q 2206 2953 1844 2953 
Q 1484 2953 1207 2617 
Q 931 2281 931 1641 
z
" id="ArialMT-70" transform="scale(0.015625)"/>
       <path d="M 2588 1216 
L 3141 1144 
Q 3050 572 2676 248 
Q 2303 -75 1759 -75 
Q 1078 -75 664 370 
Q 250 816 250 1647 
Q 250 2184 428 2587 
Q 606 2991 970 3192 
Q 1334 3394 1763 3394 
Q 2303 3394 2647 3120 
Q 2991 2847 3088 2344 
L 2541 2259 
Q 2463 2594 2264 2762 
Q 2066 2931 1784 2931 
Q 1359 2931 1093 2626 
Q 828 2322 828 1663 
Q 828 994 1084 691 
Q 1341 388 1753 388 
Q 2084 388 2306 591 
Q 2528 794 2588 1216 
z
" id="ArialMT-63" transform="scale(0.015625)"/>
       <path d="M 422 0 
L 422 4581 
L 984 4581 
L 984 2938 
Q 1378 3394 1978 3394 
Q 2347 3394 2619 3248 
Q 2891 3103 3008 2847 
Q 3125 2591 3125 2103 
L 3125 0 
L 2563 0 
L 2563 2103 
Q 2563 2525 2380 2717 
Q 2197 2909 1863 2909 
Q 1613 2909 1392 2779 
Q 1172 2650 1078 2428 
Q 984 2206 984 1816 
L 984 0 
L 422 0 
z
" id="ArialMT-68" transform="scale(0.015625)"/>
       <path d="M 197 991 
L 753 1078 
Q 800 744 1014 566 
Q 1228 388 1613 388 
Q 2000 388 2187 545 
Q 2375 703 2375 916 
Q 2375 1106 2209 1216 
Q 2094 1291 1634 1406 
Q 1016 1563 777 1677 
Q 538 1791 414 1992 
Q 291 2194 291 2438 
Q 291 2659 392 2848 
Q 494 3038 669 3163 
Q 800 3259 1026 3326 
Q 1253 3394 1513 3394 
Q 1903 3394 2198 3281 
Q 2494 3169 2634 2976 
Q 2775 2784 2828 2463 
L 2278 2388 
Q 2241 2644 2061 2787 
Q 1881 2931 1553 2931 
Q 1166 2931 1000 2803 
Q 834 2675 834 2503 
Q 834 2394 903 2306 
Q 972 2216 1119 2156 
Q 1203 2125 1616 2013 
Q 2213 1853 2448 1751 
Q 2684 1650 2818 1456 
Q 2953 1263 2953 975 
Q 2953 694 2789 445 
Q 2625 197 2315 61 
Q 2006 -75 1616 -75 
Q 969 -75 630 194 
Q 291 463 197 991 
z
" id="ArialMT-73" transform="scale(0.015625)"/>
      </defs>
      <use xlink:href="#ArialMT-4e"/>
      <use x="72.216797" xlink:href="#ArialMT-75"/>
      <use x="127.832031" xlink:href="#ArialMT-6d"/>
      <use x="211.132812" xlink:href="#ArialMT-62"/>
      <use x="266.748047" xlink:href="#ArialMT-65"/>
      <use x="322.363281" xlink:href="#ArialMT-72"/>
      <use x="355.664062" xlink:href="#ArialMT-20"/>
      <use x="383.447266" xlink:href="#ArialMT-6f"/>
      <use x="439.0625" xlink:href="#ArialMT-66"/>
      <use x="466.845703" xlink:href="#ArialMT-20"/>
      <use x="494.628906" xlink:href="#ArialMT-45"/>
      <use x="561.328125" xlink:href="#ArialMT-70"/>
      <use x="616.943359" xlink:href="#ArialMT-6f"/>
      <use x="672.558594" xlink:href="#ArialMT-63"/>
      <use x="722.558594" xlink:href="#ArialMT-68"/>
      <use x="778.173828" xlink:href="#ArialMT-73"/>
     </g>
    </g>
   </g>
   <g id="matplotlib.axis_2">
    <g id="ytick_1">
     <g id="text_11">
      <!-- 0.2 -->
      <g style="fill:#262626;" transform="translate(39.353125 828.265844)scale(0.22 -0.22)">
       <defs>
        <path d="M 581 0 
L 581 641 
L 1222 641 
L 1222 0 
L 581 0 
z
" id="ArialMT-2e" transform="scale(0.015625)"/>
       </defs>
       <use xlink:href="#ArialMT-30"/>
       <use x="55.615234" xlink:href="#ArialMT-2e"/>
       <use x="83.398438" xlink:href="#ArialMT-32"/>
      </g>
     </g>
    </g>
    <g id="ytick_2">
     <g id="text_12">
      <!-- 0.3 -->
      <g style="fill:#262626;" transform="translate(39.353125 688.994826)scale(0.22 -0.22)">
       <defs>
        <path d="M 269 1209 
L 831 1284 
Q 928 806 1161 595 
Q 1394 384 1728 384 
Q 2125 384 2398 659 
Q 2672 934 2672 1341 
Q 2672 1728 2419 1979 
Q 2166 2231 1775 2231 
Q 1616 2231 1378 2169 
L 1441 2663 
Q 1497 2656 1531 2656 
Q 1891 2656 2178 2843 
Q 2466 3031 2466 3422 
Q 2466 3731 2256 3934 
Q 2047 4138 1716 4138 
Q 1388 4138 1169 3931 
Q 950 3725 888 3313 
L 325 3413 
Q 428 3978 793 4289 
Q 1159 4600 1703 4600 
Q 2078 4600 2393 4439 
Q 2709 4278 2876 4000 
Q 3044 3722 3044 3409 
Q 3044 3113 2884 2869 
Q 2725 2625 2413 2481 
Q 2819 2388 3044 2092 
Q 3269 1797 3269 1353 
Q 3269 753 2831 336 
Q 2394 -81 1725 -81 
Q 1122 -81 723 278 
Q 325 638 269 1209 
z
" id="ArialMT-33" transform="scale(0.015625)"/>
       </defs>
       <use xlink:href="#ArialMT-30"/>
       <use x="55.615234" xlink:href="#ArialMT-2e"/>
       <use x="83.398438" xlink:href="#ArialMT-33"/>
      </g>
     </g>
    </g>
    <g id="ytick_3">
     <g id="text_13">
      <!-- 0.4 -->
      <g style="fill:#262626;" transform="translate(39.353125 549.723807)scale(0.22 -0.22)">
       <defs>
        <path d="M 2069 0 
L 2069 1097 
L 81 1097 
L 81 1613 
L 2172 4581 
L 2631 4581 
L 2631 1613 
L 3250 1613 
L 3250 1097 
L 2631 1097 
L 2631 0 
L 2069 0 
z
M 2069 1613 
L 2069 3678 
L 634 1613 
L 2069 1613 
z
" id="ArialMT-34" transform="scale(0.015625)"/>
       </defs>
       <use xlink:href="#ArialMT-30"/>
       <use x="55.615234" xlink:href="#ArialMT-2e"/>
       <use x="83.398438" xlink:href="#ArialMT-34"/>
      </g>
     </g>
    </g>
    <g id="ytick_4">
     <g id="text_14">
      <!-- 0.5 -->
      <g style="fill:#262626;" transform="translate(39.353125 410.452788)scale(0.22 -0.22)">
       <use xlink:href="#ArialMT-30"/>
       <use x="55.615234" xlink:href="#ArialMT-2e"/>
       <use x="83.398438" xlink:href="#ArialMT-35"/>
      </g>
     </g>
    </g>
    <g id="ytick_5">
     <g id="text_15">
      <!-- 0.6 -->
      <g style="fill:#262626;" transform="translate(39.353125 271.181769)scale(0.22 -0.22)">
       <defs>
        <path d="M 3184 3459 
L 2625 3416 
Q 2550 3747 2413 3897 
Q 2184 4138 1850 4138 
Q 1581 4138 1378 3988 
Q 1113 3794 959 3422 
Q 806 3050 800 2363 
Q 1003 2672 1297 2822 
Q 1591 2972 1913 2972 
Q 2475 2972 2870 2558 
Q 3266 2144 3266 1488 
Q 3266 1056 3080 686 
Q 2894 316 2569 119 
Q 2244 -78 1831 -78 
Q 1128 -78 684 439 
Q 241 956 241 2144 
Q 241 3472 731 4075 
Q 1159 4600 1884 4600 
Q 2425 4600 2770 4297 
Q 3116 3994 3184 3459 
z
M 888 1484 
Q 888 1194 1011 928 
Q 1134 663 1356 523 
Q 1578 384 1822 384 
Q 2178 384 2434 671 
Q 2691 959 2691 1453 
Q 2691 1928 2437 2201 
Q 2184 2475 1800 2475 
Q 1419 2475 1153 2201 
Q 888 1928 888 1484 
z
" id="ArialMT-36" transform="scale(0.015625)"/>
       </defs>
       <use xlink:href="#ArialMT-30"/>
       <use x="55.615234" xlink:href="#ArialMT-2e"/>
       <use x="83.398438" xlink:href="#ArialMT-36"/>
      </g>
     </g>
    </g>
    <g id="ytick_6">
     <g id="text_16">
      <!-- 0.7 -->
      <g style="fill:#262626;" transform="translate(39.353125 131.91075)scale(0.22 -0.22)">
       <use xlink:href="#ArialMT-30"/>
       <use x="55.615234" xlink:href="#ArialMT-2e"/>
       <use x="83.398438" xlink:href="#ArialMT-37"/>
      </g>
     </g>
    </g>
    <g id="text_17">
     <!-- Mean Squared Error (MSE) -->
     <g style="fill:#262626;" transform="translate(29.039063 597.452344)rotate(-90)scale(0.3 -0.3)">
      <defs>
       <path d="M 475 0 
L 475 4581 
L 1388 4581 
L 2472 1338 
Q 2622 884 2691 659 
Q 2769 909 2934 1394 
L 4031 4581 
L 4847 4581 
L 4847 0 
L 4263 0 
L 4263 3834 
L 2931 0 
L 2384 0 
L 1059 3900 
L 1059 0 
L 475 0 
z
" id="ArialMT-4d" transform="scale(0.015625)"/>
       <path d="M 2588 409 
Q 2275 144 1986 34 
Q 1697 -75 1366 -75 
Q 819 -75 525 192 
Q 231 459 231 875 
Q 231 1119 342 1320 
Q 453 1522 633 1644 
Q 813 1766 1038 1828 
Q 1203 1872 1538 1913 
Q 2219 1994 2541 2106 
Q 2544 2222 2544 2253 
Q 2544 2597 2384 2738 
Q 2169 2928 1744 2928 
Q 1347 2928 1158 2789 
Q 969 2650 878 2297 
L 328 2372 
Q 403 2725 575 2942 
Q 747 3159 1072 3276 
Q 1397 3394 1825 3394 
Q 2250 3394 2515 3294 
Q 2781 3194 2906 3042 
Q 3031 2891 3081 2659 
Q 3109 2516 3109 2141 
L 3109 1391 
Q 3109 606 3145 398 
Q 3181 191 3288 0 
L 2700 0 
Q 2613 175 2588 409 
z
M 2541 1666 
Q 2234 1541 1622 1453 
Q 1275 1403 1131 1340 
Q 988 1278 909 1158 
Q 831 1038 831 891 
Q 831 666 1001 516 
Q 1172 366 1500 366 
Q 1825 366 2078 508 
Q 2331 650 2450 897 
Q 2541 1088 2541 1459 
L 2541 1666 
z
" id="ArialMT-61" transform="scale(0.015625)"/>
       <path d="M 422 0 
L 422 3319 
L 928 3319 
L 928 2847 
Q 1294 3394 1984 3394 
Q 2284 3394 2536 3286 
Q 2788 3178 2913 3003 
Q 3038 2828 3088 2588 
Q 3119 2431 3119 2041 
L 3119 0 
L 2556 0 
L 2556 2019 
Q 2556 2363 2490 2533 
Q 2425 2703 2258 2804 
Q 2091 2906 1866 2906 
Q 1506 2906 1245 2678 
Q 984 2450 984 1813 
L 984 0 
L 422 0 
z
" id="ArialMT-6e" transform="scale(0.015625)"/>
       <path d="M 288 1472 
L 859 1522 
Q 900 1178 1048 958 
Q 1197 738 1509 602 
Q 1822 466 2213 466 
Q 2559 466 2825 569 
Q 3091 672 3220 851 
Q 3350 1031 3350 1244 
Q 3350 1459 3225 1620 
Q 3100 1781 2813 1891 
Q 2628 1963 1997 2114 
Q 1366 2266 1113 2400 
Q 784 2572 623 2826 
Q 463 3081 463 3397 
Q 463 3744 659 4045 
Q 856 4347 1234 4503 
Q 1613 4659 2075 4659 
Q 2584 4659 2973 4495 
Q 3363 4331 3572 4012 
Q 3781 3694 3797 3291 
L 3216 3247 
Q 3169 3681 2898 3903 
Q 2628 4125 2100 4125 
Q 1550 4125 1298 3923 
Q 1047 3722 1047 3438 
Q 1047 3191 1225 3031 
Q 1400 2872 2139 2705 
Q 2878 2538 3153 2413 
Q 3553 2228 3743 1945 
Q 3934 1663 3934 1294 
Q 3934 928 3725 604 
Q 3516 281 3123 101 
Q 2731 -78 2241 -78 
Q 1619 -78 1198 103 
Q 778 284 539 648 
Q 300 1013 288 1472 
z
" id="ArialMT-53" transform="scale(0.015625)"/>
       <path d="M 2538 -1272 
L 2538 353 
Q 2406 169 2170 47 
Q 1934 -75 1669 -75 
Q 1078 -75 651 397 
Q 225 869 225 1691 
Q 225 2191 398 2587 
Q 572 2984 901 3189 
Q 1231 3394 1625 3394 
Q 2241 3394 2594 2875 
L 2594 3319 
L 3100 3319 
L 3100 -1272 
L 2538 -1272 
z
M 803 1669 
Q 803 1028 1072 708 
Q 1341 388 1716 388 
Q 2075 388 2334 692 
Q 2594 997 2594 1619 
Q 2594 2281 2320 2615 
Q 2047 2950 1678 2950 
Q 1313 2950 1058 2639 
Q 803 2328 803 1669 
z
" id="ArialMT-71" transform="scale(0.015625)"/>
       <path d="M 2575 0 
L 2575 419 
Q 2259 -75 1647 -75 
Q 1250 -75 917 144 
Q 584 363 401 755 
Q 219 1147 219 1656 
Q 219 2153 384 2558 
Q 550 2963 881 3178 
Q 1213 3394 1622 3394 
Q 1922 3394 2156 3267 
Q 2391 3141 2538 2938 
L 2538 4581 
L 3097 4581 
L 3097 0 
L 2575 0 
z
M 797 1656 
Q 797 1019 1065 703 
Q 1334 388 1700 388 
Q 2069 388 2326 689 
Q 2584 991 2584 1609 
Q 2584 2291 2321 2609 
Q 2059 2928 1675 2928 
Q 1300 2928 1048 2622 
Q 797 2316 797 1656 
z
" id="ArialMT-64" transform="scale(0.015625)"/>
       <path d="M 1497 -1347 
Q 1031 -759 709 28 
Q 388 816 388 1659 
Q 388 2403 628 3084 
Q 909 3875 1497 4659 
L 1900 4659 
Q 1522 4009 1400 3731 
Q 1209 3300 1100 2831 
Q 966 2247 966 1656 
Q 966 153 1900 -1347 
L 1497 -1347 
z
" id="ArialMT-28" transform="scale(0.015625)"/>
       <path d="M 791 -1347 
L 388 -1347 
Q 1322 153 1322 1656 
Q 1322 2244 1188 2822 
Q 1081 3291 891 3722 
Q 769 4003 388 4659 
L 791 4659 
Q 1378 3875 1659 3084 
Q 1900 2403 1900 1659 
Q 1900 816 1576 28 
Q 1253 -759 791 -1347 
z
" id="ArialMT-29" transform="scale(0.015625)"/>
      </defs>
      <use xlink:href="#ArialMT-4d"/>
      <use x="83.300781" xlink:href="#ArialMT-65"/>
      <use x="138.916016" xlink:href="#ArialMT-61"/>
      <use x="194.53125" xlink:href="#ArialMT-6e"/>
      <use x="250.146484" xlink:href="#ArialMT-20"/>
      <use x="277.929688" xlink:href="#ArialMT-53"/>
      <use x="344.628906" xlink:href="#ArialMT-71"/>
      <use x="400.244141" xlink:href="#ArialMT-75"/>
      <use x="455.859375" xlink:href="#ArialMT-61"/>
      <use x="511.474609" xlink:href="#ArialMT-72"/>
      <use x="544.775391" xlink:href="#ArialMT-65"/>
      <use x="600.390625" xlink:href="#ArialMT-64"/>
      <use x="656.005859" xlink:href="#ArialMT-20"/>
      <use x="683.789062" xlink:href="#ArialMT-45"/>
      <use x="750.488281" xlink:href="#ArialMT-72"/>
      <use x="783.789062" xlink:href="#ArialMT-72"/>
      <use x="817.089844" xlink:href="#ArialMT-6f"/>
      <use x="872.705078" xlink:href="#ArialMT-72"/>
      <use x="906.005859" xlink:href="#ArialMT-20"/>
      <use x="933.789062" xlink:href="#ArialMT-28"/>
      <use x="967.089844" xlink:href="#ArialMT-4d"/>
      <use x="1050.390625" xlink:href="#ArialMT-53"/>
      <use x="1117.089844" xlink:href="#ArialMT-45"/>
      <use x="1183.789062" xlink:href="#ArialMT-29"/>
     </g>
    </g>
   </g>
   <g id="line2d_1">
    <path clip-path="url(#pc8745df061)" d="M 117.47858 82.73745 
L 136.989069 510.714478 
L 156.499559 637.659245 
L 176.010048 695.425299 
L 195.520538 723.437868 
L 215.031027 732.559103 
L 234.541517 735.745512 
L 254.052006 742.808753 
L 273.562496 772.719099 
L 293.072985 769.85726 
L 312.583475 774.309796 
L 332.093964 775.865147 
L 351.604454 760.465825 
L 371.114943 768.397561 
L 390.625433 773.965463 
L 410.135922 774.893314 
L 429.646412 761.015862 
L 449.156901 778.45524 
L 468.667391 771.988664 
L 488.17788 776.145486 
L 507.68837 769.801399 
L 527.198859 761.605842 
L 546.709349 768.88973 
L 566.219838 778.315607 
L 585.730328 766.264959 
L 605.240817 772.416755 
L 624.751307 784.90172 
L 644.261796 774.933884 
L 663.772286 769.39488 
L 683.282775 780.783573 
L 702.793265 785.218157 
L 722.303754 768.035526 
L 741.814244 777.548753 
L 761.324733 777.490022 
L 780.835223 770.134827 
L 800.345712 778.179873 
L 819.856202 785.536364 
L 839.366691 778.085239 
L 858.877181 780.787055 
L 878.38767 778.112884 
" style="fill:none;stroke:#8dd3c7;stroke-linecap:round;stroke-width:4;"/>
    <defs>
     <path d="M -4 4 
L 4 4 
L 4 -4 
L -4 -4 
z
" id="ma519856387" style="stroke:#ffffff;stroke-linejoin:miter;stroke-width:0.75;"/>
    </defs>
    <g clip-path="url(#pc8745df061)">
     <use style="fill:#8dd3c7;stroke:#ffffff;stroke-linejoin:miter;stroke-width:0.75;" x="117.47858" xlink:href="#ma519856387" y="82.73745"/>
     <use style="fill:#8dd3c7;stroke:#ffffff;stroke-linejoin:miter;stroke-width:0.75;" x="136.989069" xlink:href="#ma519856387" y="510.714478"/>
     <use style="fill:#8dd3c7;stroke:#ffffff;stroke-linejoin:miter;stroke-width:0.75;" x="156.499559" xlink:href="#ma519856387" y="637.659245"/>
     <use style="fill:#8dd3c7;stroke:#ffffff;stroke-linejoin:miter;stroke-width:0.75;" x="176.010048" xlink:href="#ma519856387" y="695.425299"/>
     <use style="fill:#8dd3c7;stroke:#ffffff;stroke-linejoin:miter;stroke-width:0.75;" x="195.520538" xlink:href="#ma519856387" y="723.437868"/>
     <use style="fill:#8dd3c7;stroke:#ffffff;stroke-linejoin:miter;stroke-width:0.75;" x="215.031027" xlink:href="#ma519856387" y="732.559103"/>
     <use style="fill:#8dd3c7;stroke:#ffffff;stroke-linejoin:miter;stroke-width:0.75;" x="234.541517" xlink:href="#ma519856387" y="735.745512"/>
     <use style="fill:#8dd3c7;stroke:#ffffff;stroke-linejoin:miter;stroke-width:0.75;" x="254.052006" xlink:href="#ma519856387" y="742.808753"/>
     <use style="fill:#8dd3c7;stroke:#ffffff;stroke-linejoin:miter;stroke-width:0.75;" x="273.562496" xlink:href="#ma519856387" y="772.719099"/>
     <use style="fill:#8dd3c7;stroke:#ffffff;stroke-linejoin:miter;stroke-width:0.75;" x="293.072985" xlink:href="#ma519856387" y="769.85726"/>
     <use style="fill:#8dd3c7;stroke:#ffffff;stroke-linejoin:miter;stroke-width:0.75;" x="312.583475" xlink:href="#ma519856387" y="774.309796"/>
     <use style="fill:#8dd3c7;stroke:#ffffff;stroke-linejoin:miter;stroke-width:0.75;" x="332.093964" xlink:href="#ma519856387" y="775.865147"/>
     <use style="fill:#8dd3c7;stroke:#ffffff;stroke-linejoin:miter;stroke-width:0.75;" x="351.604454" xlink:href="#ma519856387" y="760.465825"/>
     <use style="fill:#8dd3c7;stroke:#ffffff;stroke-linejoin:miter;stroke-width:0.75;" x="371.114943" xlink:href="#ma519856387" y="768.397561"/>
     <use style="fill:#8dd3c7;stroke:#ffffff;stroke-linejoin:miter;stroke-width:0.75;" x="390.625433" xlink:href="#ma519856387" y="773.965463"/>
     <use style="fill:#8dd3c7;stroke:#ffffff;stroke-linejoin:miter;stroke-width:0.75;" x="410.135922" xlink:href="#ma519856387" y="774.893314"/>
     <use style="fill:#8dd3c7;stroke:#ffffff;stroke-linejoin:miter;stroke-width:0.75;" x="429.646412" xlink:href="#ma519856387" y="761.015862"/>
     <use style="fill:#8dd3c7;stroke:#ffffff;stroke-linejoin:miter;stroke-width:0.75;" x="449.156901" xlink:href="#ma519856387" y="778.45524"/>
     <use style="fill:#8dd3c7;stroke:#ffffff;stroke-linejoin:miter;stroke-width:0.75;" x="468.667391" xlink:href="#ma519856387" y="771.988664"/>
     <use style="fill:#8dd3c7;stroke:#ffffff;stroke-linejoin:miter;stroke-width:0.75;" x="488.17788" xlink:href="#ma519856387" y="776.145486"/>
     <use style="fill:#8dd3c7;stroke:#ffffff;stroke-linejoin:miter;stroke-width:0.75;" x="507.68837" xlink:href="#ma519856387" y="769.801399"/>
     <use style="fill:#8dd3c7;stroke:#ffffff;stroke-linejoin:miter;stroke-width:0.75;" x="527.198859" xlink:href="#ma519856387" y="761.605842"/>
     <use style="fill:#8dd3c7;stroke:#ffffff;stroke-linejoin:miter;stroke-width:0.75;" x="546.709349" xlink:href="#ma519856387" y="768.88973"/>
     <use style="fill:#8dd3c7;stroke:#ffffff;stroke-linejoin:miter;stroke-width:0.75;" x="566.219838" xlink:href="#ma519856387" y="778.315607"/>
     <use style="fill:#8dd3c7;stroke:#ffffff;stroke-linejoin:miter;stroke-width:0.75;" x="585.730328" xlink:href="#ma519856387" y="766.264959"/>
     <use style="fill:#8dd3c7;stroke:#ffffff;stroke-linejoin:miter;stroke-width:0.75;" x="605.240817" xlink:href="#ma519856387" y="772.416755"/>
     <use style="fill:#8dd3c7;stroke:#ffffff;stroke-linejoin:miter;stroke-width:0.75;" x="624.751307" xlink:href="#ma519856387" y="784.90172"/>
     <use style="fill:#8dd3c7;stroke:#ffffff;stroke-linejoin:miter;stroke-width:0.75;" x="644.261796" xlink:href="#ma519856387" y="774.933884"/>
     <use style="fill:#8dd3c7;stroke:#ffffff;stroke-linejoin:miter;stroke-width:0.75;" x="663.772286" xlink:href="#ma519856387" y="769.39488"/>
     <use style="fill:#8dd3c7;stroke:#ffffff;stroke-linejoin:miter;stroke-width:0.75;" x="683.282775" xlink:href="#ma519856387" y="780.783573"/>
     <use style="fill:#8dd3c7;stroke:#ffffff;stroke-linejoin:miter;stroke-width:0.75;" x="702.793265" xlink:href="#ma519856387" y="785.218157"/>
     <use style="fill:#8dd3c7;stroke:#ffffff;stroke-linejoin:miter;stroke-width:0.75;" x="722.303754" xlink:href="#ma519856387" y="768.035526"/>
     <use style="fill:#8dd3c7;stroke:#ffffff;stroke-linejoin:miter;stroke-width:0.75;" x="741.814244" xlink:href="#ma519856387" y="777.548753"/>
     <use style="fill:#8dd3c7;stroke:#ffffff;stroke-linejoin:miter;stroke-width:0.75;" x="761.324733" xlink:href="#ma519856387" y="777.490022"/>
     <use style="fill:#8dd3c7;stroke:#ffffff;stroke-linejoin:miter;stroke-width:0.75;" x="780.835223" xlink:href="#ma519856387" y="770.134827"/>
     <use style="fill:#8dd3c7;stroke:#ffffff;stroke-linejoin:miter;stroke-width:0.75;" x="800.345712" xlink:href="#ma519856387" y="778.179873"/>
     <use style="fill:#8dd3c7;stroke:#ffffff;stroke-linejoin:miter;stroke-width:0.75;" x="819.856202" xlink:href="#ma519856387" y="785.536364"/>
     <use style="fill:#8dd3c7;stroke:#ffffff;stroke-linejoin:miter;stroke-width:0.75;" x="839.366691" xlink:href="#ma519856387" y="778.085239"/>
     <use style="fill:#8dd3c7;stroke:#ffffff;stroke-linejoin:miter;stroke-width:0.75;" x="858.877181" xlink:href="#ma519856387" y="780.787055"/>
     <use style="fill:#8dd3c7;stroke:#ffffff;stroke-linejoin:miter;stroke-width:0.75;" x="878.38767" xlink:href="#ma519856387" y="778.112884"/>
    </g>
   </g>
   <g id="line2d_2">
    <path clip-path="url(#pc8745df061)" d="M 117.47858 74.122841 
L 136.989069 526.198128 
L 156.499559 553.239936 
L 176.010048 670.878656 
L 195.520538 705.197681 
L 215.031027 719.379677 
L 234.541517 714.128241 
L 254.052006 739.971371 
L 273.562496 731.79697 
L 293.072985 745.737052 
L 312.583475 754.449693 
L 332.093964 749.593912 
L 351.604454 761.197555 
L 371.114943 759.09331 
L 390.625433 755.038754 
L 410.135922 759.114966 
L 429.646412 762.538512 
L 449.156901 758.226765 
L 468.667391 747.992114 
L 488.17788 768.056124 
L 507.68837 744.114405 
L 527.198859 753.327963 
L 546.709349 759.955717 
L 566.219838 773.203427 
L 585.730328 766.216744 
L 605.240817 753.227743 
L 624.751307 752.045736 
L 644.261796 750.073227 
L 663.772286 758.551364 
L 683.282775 765.679269 
L 702.793265 758.783028 
L 722.303754 768.355236 
L 741.814244 756.228338 
L 761.324733 756.903718 
L 780.835223 761.746311 
L 800.345712 758.76151 
L 819.856202 758.901673 
L 839.366691 761.724334 
L 858.877181 753.162453 
L 878.38767 750.682482 
" style="fill:none;stroke:#e5d8bd;stroke-dasharray:16,6;stroke-dashoffset:0;stroke-width:4;"/>
    <defs>
     <path d="M 4 0 
L -4 -4 
L -4 4 
z
" id="m858f4de24b" style="stroke:#ffffff;stroke-linejoin:miter;stroke-width:0.75;"/>
    </defs>
    <g clip-path="url(#pc8745df061)">
     <use style="fill:#e5d8bd;stroke:#ffffff;stroke-linejoin:miter;stroke-width:0.75;" x="117.47858" xlink:href="#m858f4de24b" y="74.122841"/>
     <use style="fill:#e5d8bd;stroke:#ffffff;stroke-linejoin:miter;stroke-width:0.75;" x="136.989069" xlink:href="#m858f4de24b" y="526.198128"/>
     <use style="fill:#e5d8bd;stroke:#ffffff;stroke-linejoin:miter;stroke-width:0.75;" x="156.499559" xlink:href="#m858f4de24b" y="553.239936"/>
     <use style="fill:#e5d8bd;stroke:#ffffff;stroke-linejoin:miter;stroke-width:0.75;" x="176.010048" xlink:href="#m858f4de24b" y="670.878656"/>
     <use style="fill:#e5d8bd;stroke:#ffffff;stroke-linejoin:miter;stroke-width:0.75;" x="195.520538" xlink:href="#m858f4de24b" y="705.197681"/>
     <use style="fill:#e5d8bd;stroke:#ffffff;stroke-linejoin:miter;stroke-width:0.75;" x="215.031027" xlink:href="#m858f4de24b" y="719.379677"/>
     <use style="fill:#e5d8bd;stroke:#ffffff;stroke-linejoin:miter;stroke-width:0.75;" x="234.541517" xlink:href="#m858f4de24b" y="714.128241"/>
     <use style="fill:#e5d8bd;stroke:#ffffff;stroke-linejoin:miter;stroke-width:0.75;" x="254.052006" xlink:href="#m858f4de24b" y="739.971371"/>
     <use style="fill:#e5d8bd;stroke:#ffffff;stroke-linejoin:miter;stroke-width:0.75;" x="273.562496" xlink:href="#m858f4de24b" y="731.79697"/>
     <use style="fill:#e5d8bd;stroke:#ffffff;stroke-linejoin:miter;stroke-width:0.75;" x="293.072985" xlink:href="#m858f4de24b" y="745.737052"/>
     <use style="fill:#e5d8bd;stroke:#ffffff;stroke-linejoin:miter;stroke-width:0.75;" x="312.583475" xlink:href="#m858f4de24b" y="754.449693"/>
     <use style="fill:#e5d8bd;stroke:#ffffff;stroke-linejoin:miter;stroke-width:0.75;" x="332.093964" xlink:href="#m858f4de24b" y="749.593912"/>
     <use style="fill:#e5d8bd;stroke:#ffffff;stroke-linejoin:miter;stroke-width:0.75;" x="351.604454" xlink:href="#m858f4de24b" y="761.197555"/>
     <use style="fill:#e5d8bd;stroke:#ffffff;stroke-linejoin:miter;stroke-width:0.75;" x="371.114943" xlink:href="#m858f4de24b" y="759.09331"/>
     <use style="fill:#e5d8bd;stroke:#ffffff;stroke-linejoin:miter;stroke-width:0.75;" x="390.625433" xlink:href="#m858f4de24b" y="755.038754"/>
     <use style="fill:#e5d8bd;stroke:#ffffff;stroke-linejoin:miter;stroke-width:0.75;" x="410.135922" xlink:href="#m858f4de24b" y="759.114966"/>
     <use style="fill:#e5d8bd;stroke:#ffffff;stroke-linejoin:miter;stroke-width:0.75;" x="429.646412" xlink:href="#m858f4de24b" y="762.538512"/>
     <use style="fill:#e5d8bd;stroke:#ffffff;stroke-linejoin:miter;stroke-width:0.75;" x="449.156901" xlink:href="#m858f4de24b" y="758.226765"/>
     <use style="fill:#e5d8bd;stroke:#ffffff;stroke-linejoin:miter;stroke-width:0.75;" x="468.667391" xlink:href="#m858f4de24b" y="747.992114"/>
     <use style="fill:#e5d8bd;stroke:#ffffff;stroke-linejoin:miter;stroke-width:0.75;" x="488.17788" xlink:href="#m858f4de24b" y="768.056124"/>
     <use style="fill:#e5d8bd;stroke:#ffffff;stroke-linejoin:miter;stroke-width:0.75;" x="507.68837" xlink:href="#m858f4de24b" y="744.114405"/>
     <use style="fill:#e5d8bd;stroke:#ffffff;stroke-linejoin:miter;stroke-width:0.75;" x="527.198859" xlink:href="#m858f4de24b" y="753.327963"/>
     <use style="fill:#e5d8bd;stroke:#ffffff;stroke-linejoin:miter;stroke-width:0.75;" x="546.709349" xlink:href="#m858f4de24b" y="759.955717"/>
     <use style="fill:#e5d8bd;stroke:#ffffff;stroke-linejoin:miter;stroke-width:0.75;" x="566.219838" xlink:href="#m858f4de24b" y="773.203427"/>
     <use style="fill:#e5d8bd;stroke:#ffffff;stroke-linejoin:miter;stroke-width:0.75;" x="585.730328" xlink:href="#m858f4de24b" y="766.216744"/>
     <use style="fill:#e5d8bd;stroke:#ffffff;stroke-linejoin:miter;stroke-width:0.75;" x="605.240817" xlink:href="#m858f4de24b" y="753.227743"/>
     <use style="fill:#e5d8bd;stroke:#ffffff;stroke-linejoin:miter;stroke-width:0.75;" x="624.751307" xlink:href="#m858f4de24b" y="752.045736"/>
     <use style="fill:#e5d8bd;stroke:#ffffff;stroke-linejoin:miter;stroke-width:0.75;" x="644.261796" xlink:href="#m858f4de24b" y="750.073227"/>
     <use style="fill:#e5d8bd;stroke:#ffffff;stroke-linejoin:miter;stroke-width:0.75;" x="663.772286" xlink:href="#m858f4de24b" y="758.551364"/>
     <use style="fill:#e5d8bd;stroke:#ffffff;stroke-linejoin:miter;stroke-width:0.75;" x="683.282775" xlink:href="#m858f4de24b" y="765.679269"/>
     <use style="fill:#e5d8bd;stroke:#ffffff;stroke-linejoin:miter;stroke-width:0.75;" x="702.793265" xlink:href="#m858f4de24b" y="758.783028"/>
     <use style="fill:#e5d8bd;stroke:#ffffff;stroke-linejoin:miter;stroke-width:0.75;" x="722.303754" xlink:href="#m858f4de24b" y="768.355236"/>
     <use style="fill:#e5d8bd;stroke:#ffffff;stroke-linejoin:miter;stroke-width:0.75;" x="741.814244" xlink:href="#m858f4de24b" y="756.228338"/>
     <use style="fill:#e5d8bd;stroke:#ffffff;stroke-linejoin:miter;stroke-width:0.75;" x="761.324733" xlink:href="#m858f4de24b" y="756.903718"/>
     <use style="fill:#e5d8bd;stroke:#ffffff;stroke-linejoin:miter;stroke-width:0.75;" x="780.835223" xlink:href="#m858f4de24b" y="761.746311"/>
     <use style="fill:#e5d8bd;stroke:#ffffff;stroke-linejoin:miter;stroke-width:0.75;" x="800.345712" xlink:href="#m858f4de24b" y="758.76151"/>
     <use style="fill:#e5d8bd;stroke:#ffffff;stroke-linejoin:miter;stroke-width:0.75;" x="819.856202" xlink:href="#m858f4de24b" y="758.901673"/>
     <use style="fill:#e5d8bd;stroke:#ffffff;stroke-linejoin:miter;stroke-width:0.75;" x="839.366691" xlink:href="#m858f4de24b" y="761.724334"/>
     <use style="fill:#e5d8bd;stroke:#ffffff;stroke-linejoin:miter;stroke-width:0.75;" x="858.877181" xlink:href="#m858f4de24b" y="753.162453"/>
     <use style="fill:#e5d8bd;stroke:#ffffff;stroke-linejoin:miter;stroke-width:0.75;" x="878.38767" xlink:href="#m858f4de24b" y="750.682482"/>
    </g>
   </g>
   <g id="line2d_3">
    <path clip-path="url(#pc8745df061)" d="M 117.47858 88.052729 
L 136.989069 482.808799 
L 156.499559 540.923337 
L 176.010048 637.096967 
L 195.520538 676.514634 
L 215.031027 626.107759 
L 234.541517 703.881403 
L 254.052006 716.609437 
L 273.562496 723.486891 
L 293.072985 734.128562 
L 312.583475 742.934362 
L 332.093964 729.430379 
L 351.604454 749.640804 
L 371.114943 750.438312 
L 390.625433 753.672645 
L 410.135922 745.164801 
L 429.646412 757.364204 
L 449.156901 750.195535 
L 468.667391 748.242482 
L 488.17788 752.932823 
L 507.68837 747.97302 
L 527.198859 753.878223 
L 546.709349 753.175586 
L 566.219838 760.002387 
L 585.730328 753.947496 
L 605.240817 747.821145 
L 624.751307 757.295571 
L 644.261796 758.464668 
L 663.772286 762.900158 
L 683.282775 755.580713 
L 702.793265 762.937273 
L 722.303754 768.106164 
L 741.814244 765.016255 
L 761.324733 760.872942 
L 780.835223 754.621986 
L 800.345712 762.165962 
L 819.856202 763.139704 
L 839.366691 755.688983 
L 858.877181 760.934862 
L 878.38767 769.812122 
" style="fill:none;stroke:#bc80bd;stroke-dasharray:4,4;stroke-dashoffset:0;stroke-width:4;"/>
    <defs>
     <path d="M -0 5.656854 
L 3.394113 0 
L 0 -5.656854 
L -3.394113 -0 
z
" id="mb63ce11282" style="stroke:#ffffff;stroke-linejoin:miter;stroke-width:0.75;"/>
    </defs>
    <g clip-path="url(#pc8745df061)">
     <use style="fill:#bc80bd;stroke:#ffffff;stroke-linejoin:miter;stroke-width:0.75;" x="117.47858" xlink:href="#mb63ce11282" y="88.052729"/>
     <use style="fill:#bc80bd;stroke:#ffffff;stroke-linejoin:miter;stroke-width:0.75;" x="136.989069" xlink:href="#mb63ce11282" y="482.808799"/>
     <use style="fill:#bc80bd;stroke:#ffffff;stroke-linejoin:miter;stroke-width:0.75;" x="156.499559" xlink:href="#mb63ce11282" y="540.923337"/>
     <use style="fill:#bc80bd;stroke:#ffffff;stroke-linejoin:miter;stroke-width:0.75;" x="176.010048" xlink:href="#mb63ce11282" y="637.096967"/>
     <use style="fill:#bc80bd;stroke:#ffffff;stroke-linejoin:miter;stroke-width:0.75;" x="195.520538" xlink:href="#mb63ce11282" y="676.514634"/>
     <use style="fill:#bc80bd;stroke:#ffffff;stroke-linejoin:miter;stroke-width:0.75;" x="215.031027" xlink:href="#mb63ce11282" y="626.107759"/>
     <use style="fill:#bc80bd;stroke:#ffffff;stroke-linejoin:miter;stroke-width:0.75;" x="234.541517" xlink:href="#mb63ce11282" y="703.881403"/>
     <use style="fill:#bc80bd;stroke:#ffffff;stroke-linejoin:miter;stroke-width:0.75;" x="254.052006" xlink:href="#mb63ce11282" y="716.609437"/>
     <use style="fill:#bc80bd;stroke:#ffffff;stroke-linejoin:miter;stroke-width:0.75;" x="273.562496" xlink:href="#mb63ce11282" y="723.486891"/>
     <use style="fill:#bc80bd;stroke:#ffffff;stroke-linejoin:miter;stroke-width:0.75;" x="293.072985" xlink:href="#mb63ce11282" y="734.128562"/>
     <use style="fill:#bc80bd;stroke:#ffffff;stroke-linejoin:miter;stroke-width:0.75;" x="312.583475" xlink:href="#mb63ce11282" y="742.934362"/>
     <use style="fill:#bc80bd;stroke:#ffffff;stroke-linejoin:miter;stroke-width:0.75;" x="332.093964" xlink:href="#mb63ce11282" y="729.430379"/>
     <use style="fill:#bc80bd;stroke:#ffffff;stroke-linejoin:miter;stroke-width:0.75;" x="351.604454" xlink:href="#mb63ce11282" y="749.640804"/>
     <use style="fill:#bc80bd;stroke:#ffffff;stroke-linejoin:miter;stroke-width:0.75;" x="371.114943" xlink:href="#mb63ce11282" y="750.438312"/>
     <use style="fill:#bc80bd;stroke:#ffffff;stroke-linejoin:miter;stroke-width:0.75;" x="390.625433" xlink:href="#mb63ce11282" y="753.672645"/>
     <use style="fill:#bc80bd;stroke:#ffffff;stroke-linejoin:miter;stroke-width:0.75;" x="410.135922" xlink:href="#mb63ce11282" y="745.164801"/>
     <use style="fill:#bc80bd;stroke:#ffffff;stroke-linejoin:miter;stroke-width:0.75;" x="429.646412" xlink:href="#mb63ce11282" y="757.364204"/>
     <use style="fill:#bc80bd;stroke:#ffffff;stroke-linejoin:miter;stroke-width:0.75;" x="449.156901" xlink:href="#mb63ce11282" y="750.195535"/>
     <use style="fill:#bc80bd;stroke:#ffffff;stroke-linejoin:miter;stroke-width:0.75;" x="468.667391" xlink:href="#mb63ce11282" y="748.242482"/>
     <use style="fill:#bc80bd;stroke:#ffffff;stroke-linejoin:miter;stroke-width:0.75;" x="488.17788" xlink:href="#mb63ce11282" y="752.932823"/>
     <use style="fill:#bc80bd;stroke:#ffffff;stroke-linejoin:miter;stroke-width:0.75;" x="507.68837" xlink:href="#mb63ce11282" y="747.97302"/>
     <use style="fill:#bc80bd;stroke:#ffffff;stroke-linejoin:miter;stroke-width:0.75;" x="527.198859" xlink:href="#mb63ce11282" y="753.878223"/>
     <use style="fill:#bc80bd;stroke:#ffffff;stroke-linejoin:miter;stroke-width:0.75;" x="546.709349" xlink:href="#mb63ce11282" y="753.175586"/>
     <use style="fill:#bc80bd;stroke:#ffffff;stroke-linejoin:miter;stroke-width:0.75;" x="566.219838" xlink:href="#mb63ce11282" y="760.002387"/>
     <use style="fill:#bc80bd;stroke:#ffffff;stroke-linejoin:miter;stroke-width:0.75;" x="585.730328" xlink:href="#mb63ce11282" y="753.947496"/>
     <use style="fill:#bc80bd;stroke:#ffffff;stroke-linejoin:miter;stroke-width:0.75;" x="605.240817" xlink:href="#mb63ce11282" y="747.821145"/>
     <use style="fill:#bc80bd;stroke:#ffffff;stroke-linejoin:miter;stroke-width:0.75;" x="624.751307" xlink:href="#mb63ce11282" y="757.295571"/>
     <use style="fill:#bc80bd;stroke:#ffffff;stroke-linejoin:miter;stroke-width:0.75;" x="644.261796" xlink:href="#mb63ce11282" y="758.464668"/>
     <use style="fill:#bc80bd;stroke:#ffffff;stroke-linejoin:miter;stroke-width:0.75;" x="663.772286" xlink:href="#mb63ce11282" y="762.900158"/>
     <use style="fill:#bc80bd;stroke:#ffffff;stroke-linejoin:miter;stroke-width:0.75;" x="683.282775" xlink:href="#mb63ce11282" y="755.580713"/>
     <use style="fill:#bc80bd;stroke:#ffffff;stroke-linejoin:miter;stroke-width:0.75;" x="702.793265" xlink:href="#mb63ce11282" y="762.937273"/>
     <use style="fill:#bc80bd;stroke:#ffffff;stroke-linejoin:miter;stroke-width:0.75;" x="722.303754" xlink:href="#mb63ce11282" y="768.106164"/>
     <use style="fill:#bc80bd;stroke:#ffffff;stroke-linejoin:miter;stroke-width:0.75;" x="741.814244" xlink:href="#mb63ce11282" y="765.016255"/>
     <use style="fill:#bc80bd;stroke:#ffffff;stroke-linejoin:miter;stroke-width:0.75;" x="761.324733" xlink:href="#mb63ce11282" y="760.872942"/>
     <use style="fill:#bc80bd;stroke:#ffffff;stroke-linejoin:miter;stroke-width:0.75;" x="780.835223" xlink:href="#mb63ce11282" y="754.621986"/>
     <use style="fill:#bc80bd;stroke:#ffffff;stroke-linejoin:miter;stroke-width:0.75;" x="800.345712" xlink:href="#mb63ce11282" y="762.165962"/>
     <use style="fill:#bc80bd;stroke:#ffffff;stroke-linejoin:miter;stroke-width:0.75;" x="819.856202" xlink:href="#mb63ce11282" y="763.139704"/>
     <use style="fill:#bc80bd;stroke:#ffffff;stroke-linejoin:miter;stroke-width:0.75;" x="839.366691" xlink:href="#mb63ce11282" y="755.688983"/>
     <use style="fill:#bc80bd;stroke:#ffffff;stroke-linejoin:miter;stroke-width:0.75;" x="858.877181" xlink:href="#mb63ce11282" y="760.934862"/>
     <use style="fill:#bc80bd;stroke:#ffffff;stroke-linejoin:miter;stroke-width:0.75;" x="878.38767" xlink:href="#mb63ce11282" y="769.812122"/>
    </g>
   </g>
   <g id="line2d_4">
    <path clip-path="url(#pc8745df061)" d="M 117.47858 44.263636 
L 136.989069 455.871361 
L 156.499559 478.51662 
L 176.010048 514.225807 
L 195.520538 539.824934 
L 215.031027 552.210097 
L 234.541517 533.544396 
L 254.052006 515.86057 
L 273.562496 506.202027 
L 293.072985 498.341042 
L 312.583475 474.171879 
L 332.093964 462.603917 
L 351.604454 465.219093 
L 371.114943 458.853739 
L 390.625433 446.066612 
L 410.135922 441.483216 
L 429.646412 404.838616 
L 449.156901 425.772693 
L 468.667391 377.123154 
L 488.17788 390.674029 
L 507.68837 410.817423 
L 527.198859 409.889391 
L 546.709349 383.701843 
L 566.219838 403.5948 
L 585.730328 408.504549 
L 605.240817 413.201952 
L 624.751307 381.00603 
L 644.261796 376.210678 
L 663.772286 382.289398 
L 683.282775 376.131154 
L 702.793265 386.870816 
L 722.303754 390.149256 
L 741.814244 374.321801 
L 761.324733 369.669508 
L 780.835223 362.324522 
L 800.345712 375.239694 
L 819.856202 324.793266 
L 839.366691 374.38322 
L 858.877181 352.796574 
L 878.38767 363.386101 
" style="fill:none;stroke:#d9d9d9;stroke-dasharray:12,5,6,5;stroke-dashoffset:0;stroke-width:4;"/>
    <defs>
     <path d="M -1.333333 4 
L 1.333333 4 
L 1.333333 1.333333 
L 4 1.333333 
L 4 -1.333333 
L 1.333333 -1.333333 
L 1.333333 -4 
L -1.333333 -4 
L -1.333333 -1.333333 
L -4 -1.333333 
L -4 1.333333 
L -1.333333 1.333333 
z
" id="m9d964e5464" style="stroke:#ffffff;stroke-linejoin:miter;stroke-width:0.75;"/>
    </defs>
    <g clip-path="url(#pc8745df061)">
     <use style="fill:#d9d9d9;stroke:#ffffff;stroke-linejoin:miter;stroke-width:0.75;" x="117.47858" xlink:href="#m9d964e5464" y="44.263636"/>
     <use style="fill:#d9d9d9;stroke:#ffffff;stroke-linejoin:miter;stroke-width:0.75;" x="136.989069" xlink:href="#m9d964e5464" y="455.871361"/>
     <use style="fill:#d9d9d9;stroke:#ffffff;stroke-linejoin:miter;stroke-width:0.75;" x="156.499559" xlink:href="#m9d964e5464" y="478.51662"/>
     <use style="fill:#d9d9d9;stroke:#ffffff;stroke-linejoin:miter;stroke-width:0.75;" x="176.010048" xlink:href="#m9d964e5464" y="514.225807"/>
     <use style="fill:#d9d9d9;stroke:#ffffff;stroke-linejoin:miter;stroke-width:0.75;" x="195.520538" xlink:href="#m9d964e5464" y="539.824934"/>
     <use style="fill:#d9d9d9;stroke:#ffffff;stroke-linejoin:miter;stroke-width:0.75;" x="215.031027" xlink:href="#m9d964e5464" y="552.210097"/>
     <use style="fill:#d9d9d9;stroke:#ffffff;stroke-linejoin:miter;stroke-width:0.75;" x="234.541517" xlink:href="#m9d964e5464" y="533.544396"/>
     <use style="fill:#d9d9d9;stroke:#ffffff;stroke-linejoin:miter;stroke-width:0.75;" x="254.052006" xlink:href="#m9d964e5464" y="515.86057"/>
     <use style="fill:#d9d9d9;stroke:#ffffff;stroke-linejoin:miter;stroke-width:0.75;" x="273.562496" xlink:href="#m9d964e5464" y="506.202027"/>
     <use style="fill:#d9d9d9;stroke:#ffffff;stroke-linejoin:miter;stroke-width:0.75;" x="293.072985" xlink:href="#m9d964e5464" y="498.341042"/>
     <use style="fill:#d9d9d9;stroke:#ffffff;stroke-linejoin:miter;stroke-width:0.75;" x="312.583475" xlink:href="#m9d964e5464" y="474.171879"/>
     <use style="fill:#d9d9d9;stroke:#ffffff;stroke-linejoin:miter;stroke-width:0.75;" x="332.093964" xlink:href="#m9d964e5464" y="462.603917"/>
     <use style="fill:#d9d9d9;stroke:#ffffff;stroke-linejoin:miter;stroke-width:0.75;" x="351.604454" xlink:href="#m9d964e5464" y="465.219093"/>
     <use style="fill:#d9d9d9;stroke:#ffffff;stroke-linejoin:miter;stroke-width:0.75;" x="371.114943" xlink:href="#m9d964e5464" y="458.853739"/>
     <use style="fill:#d9d9d9;stroke:#ffffff;stroke-linejoin:miter;stroke-width:0.75;" x="390.625433" xlink:href="#m9d964e5464" y="446.066612"/>
     <use style="fill:#d9d9d9;stroke:#ffffff;stroke-linejoin:miter;stroke-width:0.75;" x="410.135922" xlink:href="#m9d964e5464" y="441.483216"/>
     <use style="fill:#d9d9d9;stroke:#ffffff;stroke-linejoin:miter;stroke-width:0.75;" x="429.646412" xlink:href="#m9d964e5464" y="404.838616"/>
     <use style="fill:#d9d9d9;stroke:#ffffff;stroke-linejoin:miter;stroke-width:0.75;" x="449.156901" xlink:href="#m9d964e5464" y="425.772693"/>
     <use style="fill:#d9d9d9;stroke:#ffffff;stroke-linejoin:miter;stroke-width:0.75;" x="468.667391" xlink:href="#m9d964e5464" y="377.123154"/>
     <use style="fill:#d9d9d9;stroke:#ffffff;stroke-linejoin:miter;stroke-width:0.75;" x="488.17788" xlink:href="#m9d964e5464" y="390.674029"/>
     <use style="fill:#d9d9d9;stroke:#ffffff;stroke-linejoin:miter;stroke-width:0.75;" x="507.68837" xlink:href="#m9d964e5464" y="410.817423"/>
     <use style="fill:#d9d9d9;stroke:#ffffff;stroke-linejoin:miter;stroke-width:0.75;" x="527.198859" xlink:href="#m9d964e5464" y="409.889391"/>
     <use style="fill:#d9d9d9;stroke:#ffffff;stroke-linejoin:miter;stroke-width:0.75;" x="546.709349" xlink:href="#m9d964e5464" y="383.701843"/>
     <use style="fill:#d9d9d9;stroke:#ffffff;stroke-linejoin:miter;stroke-width:0.75;" x="566.219838" xlink:href="#m9d964e5464" y="403.5948"/>
     <use style="fill:#d9d9d9;stroke:#ffffff;stroke-linejoin:miter;stroke-width:0.75;" x="585.730328" xlink:href="#m9d964e5464" y="408.504549"/>
     <use style="fill:#d9d9d9;stroke:#ffffff;stroke-linejoin:miter;stroke-width:0.75;" x="605.240817" xlink:href="#m9d964e5464" y="413.201952"/>
     <use style="fill:#d9d9d9;stroke:#ffffff;stroke-linejoin:miter;stroke-width:0.75;" x="624.751307" xlink:href="#m9d964e5464" y="381.00603"/>
     <use style="fill:#d9d9d9;stroke:#ffffff;stroke-linejoin:miter;stroke-width:0.75;" x="644.261796" xlink:href="#m9d964e5464" y="376.210678"/>
     <use style="fill:#d9d9d9;stroke:#ffffff;stroke-linejoin:miter;stroke-width:0.75;" x="663.772286" xlink:href="#m9d964e5464" y="382.289398"/>
     <use style="fill:#d9d9d9;stroke:#ffffff;stroke-linejoin:miter;stroke-width:0.75;" x="683.282775" xlink:href="#m9d964e5464" y="376.131154"/>
     <use style="fill:#d9d9d9;stroke:#ffffff;stroke-linejoin:miter;stroke-width:0.75;" x="702.793265" xlink:href="#m9d964e5464" y="386.870816"/>
     <use style="fill:#d9d9d9;stroke:#ffffff;stroke-linejoin:miter;stroke-width:0.75;" x="722.303754" xlink:href="#m9d964e5464" y="390.149256"/>
     <use style="fill:#d9d9d9;stroke:#ffffff;stroke-linejoin:miter;stroke-width:0.75;" x="741.814244" xlink:href="#m9d964e5464" y="374.321801"/>
     <use style="fill:#d9d9d9;stroke:#ffffff;stroke-linejoin:miter;stroke-width:0.75;" x="761.324733" xlink:href="#m9d964e5464" y="369.669508"/>
     <use style="fill:#d9d9d9;stroke:#ffffff;stroke-linejoin:miter;stroke-width:0.75;" x="780.835223" xlink:href="#m9d964e5464" y="362.324522"/>
     <use style="fill:#d9d9d9;stroke:#ffffff;stroke-linejoin:miter;stroke-width:0.75;" x="800.345712" xlink:href="#m9d964e5464" y="375.239694"/>
     <use style="fill:#d9d9d9;stroke:#ffffff;stroke-linejoin:miter;stroke-width:0.75;" x="819.856202" xlink:href="#m9d964e5464" y="324.793266"/>
     <use style="fill:#d9d9d9;stroke:#ffffff;stroke-linejoin:miter;stroke-width:0.75;" x="839.366691" xlink:href="#m9d964e5464" y="374.38322"/>
     <use style="fill:#d9d9d9;stroke:#ffffff;stroke-linejoin:miter;stroke-width:0.75;" x="858.877181" xlink:href="#m9d964e5464" y="352.796574"/>
     <use style="fill:#d9d9d9;stroke:#ffffff;stroke-linejoin:miter;stroke-width:0.75;" x="878.38767" xlink:href="#m9d964e5464" y="363.386101"/>
    </g>
   </g>
   <g id="line2d_5"/>
   <g id="line2d_6"/>
   <g id="line2d_7"/>
   <g id="line2d_8"/>
   <g id="patch_3">
    <path d="M 79.433125 822.6 
L 79.433125 7.2 
" style="fill:none;stroke:#262626;stroke-linecap:square;stroke-linejoin:miter;stroke-width:1.25;"/>
   </g>
   <g id="patch_4">
    <path d="M 916.433125 822.6 
L 916.433125 7.2 
" style="fill:none;stroke:#262626;stroke-linecap:square;stroke-linejoin:miter;stroke-width:1.25;"/>
   </g>
   <g id="patch_5">
    <path d="M 79.433125 822.6 
L 916.433125 822.6 
" style="fill:none;stroke:#262626;stroke-linecap:square;stroke-linejoin:miter;stroke-width:1.25;"/>
   </g>
   <g id="patch_6">
    <path d="M 79.433125 7.2 
L 916.433125 7.2 
" style="fill:none;stroke:#262626;stroke-linecap:square;stroke-linejoin:miter;stroke-width:1.25;"/>
   </g>
   <g id="legend_1">
    <g id="patch_7">
     <path d="M 647.39 175.749062 
L 898.233125 175.749062 
Q 903.433125 175.749062 903.433125 170.549062 
L 903.433125 25.4 
Q 903.433125 20.2 898.233125 20.2 
L 647.39 20.2 
Q 642.19 20.2 642.19 25.4 
L 642.19 170.549062 
Q 642.19 175.749062 647.39 175.749062 
z
" style="fill:#ffffff;opacity:0.8;stroke:#cccccc;stroke-linejoin:miter;"/>
    </g>
    <g id="line2d_9">
     <path d="M 652.59 40.443437 
L 704.59 40.443437 
" style="fill:none;stroke:#8dd3c7;stroke-linecap:round;stroke-width:1.5;"/>
    </g>
    <g id="line2d_10">
     <defs>
      <path d="M -3 3 
L 3 3 
L 3 -3 
L -3 -3 
z
" id="m03de6e0a1a" style="stroke:#8dd3c7;stroke-linejoin:miter;"/>
     </defs>
     <g>
      <use style="fill:#8dd3c7;stroke:#8dd3c7;stroke-linejoin:miter;" x="678.59" xlink:href="#m03de6e0a1a" y="40.443437"/>
     </g>
    </g>
    <g id="text_18">
     <!-- Original -->
     <g style="fill:#262626;" transform="translate(725.39 49.543437)scale(0.26 -0.26)">
      <defs>
       <path d="M 309 2231 
Q 309 3372 921 4017 
Q 1534 4663 2503 4663 
Q 3138 4663 3647 4359 
Q 4156 4056 4423 3514 
Q 4691 2972 4691 2284 
Q 4691 1588 4409 1038 
Q 4128 488 3612 205 
Q 3097 -78 2500 -78 
Q 1853 -78 1343 234 
Q 834 547 571 1087 
Q 309 1628 309 2231 
z
M 934 2222 
Q 934 1394 1379 917 
Q 1825 441 2497 441 
Q 3181 441 3623 922 
Q 4066 1403 4066 2288 
Q 4066 2847 3877 3264 
Q 3688 3681 3323 3911 
Q 2959 4141 2506 4141 
Q 1863 4141 1398 3698 
Q 934 3256 934 2222 
z
" id="ArialMT-4f" transform="scale(0.015625)"/>
       <path d="M 425 3934 
L 425 4581 
L 988 4581 
L 988 3934 
L 425 3934 
z
M 425 0 
L 425 3319 
L 988 3319 
L 988 0 
L 425 0 
z
" id="ArialMT-69" transform="scale(0.015625)"/>
       <path d="M 319 -275 
L 866 -356 
Q 900 -609 1056 -725 
Q 1266 -881 1628 -881 
Q 2019 -881 2231 -725 
Q 2444 -569 2519 -288 
Q 2563 -116 2559 434 
Q 2191 0 1641 0 
Q 956 0 581 494 
Q 206 988 206 1678 
Q 206 2153 378 2554 
Q 550 2956 876 3175 
Q 1203 3394 1644 3394 
Q 2231 3394 2613 2919 
L 2613 3319 
L 3131 3319 
L 3131 450 
Q 3131 -325 2973 -648 
Q 2816 -972 2473 -1159 
Q 2131 -1347 1631 -1347 
Q 1038 -1347 672 -1080 
Q 306 -813 319 -275 
z
M 784 1719 
Q 784 1066 1043 766 
Q 1303 466 1694 466 
Q 2081 466 2343 764 
Q 2606 1063 2606 1700 
Q 2606 2309 2336 2618 
Q 2066 2928 1684 2928 
Q 1309 2928 1046 2623 
Q 784 2319 784 1719 
z
" id="ArialMT-67" transform="scale(0.015625)"/>
       <path d="M 409 0 
L 409 4581 
L 972 4581 
L 972 0 
L 409 0 
z
" id="ArialMT-6c" transform="scale(0.015625)"/>
      </defs>
      <use xlink:href="#ArialMT-4f"/>
      <use x="77.783203" xlink:href="#ArialMT-72"/>
      <use x="111.083984" xlink:href="#ArialMT-69"/>
      <use x="133.300781" xlink:href="#ArialMT-67"/>
      <use x="188.916016" xlink:href="#ArialMT-69"/>
      <use x="211.132812" xlink:href="#ArialMT-6e"/>
      <use x="266.748047" xlink:href="#ArialMT-61"/>
      <use x="322.363281" xlink:href="#ArialMT-6c"/>
     </g>
    </g>
    <g id="line2d_11">
     <path d="M 652.59 77.525937 
L 704.59 77.525937 
" style="fill:none;stroke:#e5d8bd;stroke-dasharray:6,2.25;stroke-dashoffset:0;stroke-width:1.5;"/>
    </g>
    <g id="line2d_12">
     <defs>
      <path d="M 3 0 
L -3 -3 
L -3 3 
z
" id="m26dbd23399" style="stroke:#e5d8bd;stroke-linejoin:miter;"/>
     </defs>
     <g>
      <use style="fill:#e5d8bd;stroke:#e5d8bd;stroke-linejoin:miter;" x="678.59" xlink:href="#m26dbd23399" y="77.525937"/>
     </g>
    </g>
    <g id="text_19">
     <!-- Point Random -->
     <g style="fill:#262626;" transform="translate(725.39 86.625937)scale(0.26 -0.26)">
      <defs>
       <path d="M 494 0 
L 494 4581 
L 2222 4581 
Q 2678 4581 2919 4538 
Q 3256 4481 3484 4323 
Q 3713 4166 3852 3881 
Q 3991 3597 3991 3256 
Q 3991 2672 3619 2267 
Q 3247 1863 2275 1863 
L 1100 1863 
L 1100 0 
L 494 0 
z
M 1100 2403 
L 2284 2403 
Q 2872 2403 3119 2622 
Q 3366 2841 3366 3238 
Q 3366 3525 3220 3729 
Q 3075 3934 2838 4000 
Q 2684 4041 2272 4041 
L 1100 4041 
L 1100 2403 
z
" id="ArialMT-50" transform="scale(0.015625)"/>
       <path d="M 1650 503 
L 1731 6 
Q 1494 -44 1306 -44 
Q 1000 -44 831 53 
Q 663 150 594 308 
Q 525 466 525 972 
L 525 2881 
L 113 2881 
L 113 3319 
L 525 3319 
L 525 4141 
L 1084 4478 
L 1084 3319 
L 1650 3319 
L 1650 2881 
L 1084 2881 
L 1084 941 
Q 1084 700 1114 631 
Q 1144 563 1211 522 
Q 1278 481 1403 481 
Q 1497 481 1650 503 
z
" id="ArialMT-74" transform="scale(0.015625)"/>
       <path d="M 503 0 
L 503 4581 
L 2534 4581 
Q 3147 4581 3465 4457 
Q 3784 4334 3975 4021 
Q 4166 3709 4166 3331 
Q 4166 2844 3850 2509 
Q 3534 2175 2875 2084 
Q 3116 1969 3241 1856 
Q 3506 1613 3744 1247 
L 4541 0 
L 3778 0 
L 3172 953 
Q 2906 1366 2734 1584 
Q 2563 1803 2427 1890 
Q 2291 1978 2150 2013 
Q 2047 2034 1813 2034 
L 1109 2034 
L 1109 0 
L 503 0 
z
M 1109 2559 
L 2413 2559 
Q 2828 2559 3062 2645 
Q 3297 2731 3419 2920 
Q 3541 3109 3541 3331 
Q 3541 3656 3305 3865 
Q 3069 4075 2559 4075 
L 1109 4075 
L 1109 2559 
z
" id="ArialMT-52" transform="scale(0.015625)"/>
      </defs>
      <use xlink:href="#ArialMT-50"/>
      <use x="66.699219" xlink:href="#ArialMT-6f"/>
      <use x="122.314453" xlink:href="#ArialMT-69"/>
      <use x="144.53125" xlink:href="#ArialMT-6e"/>
      <use x="200.146484" xlink:href="#ArialMT-74"/>
      <use x="227.929688" xlink:href="#ArialMT-20"/>
      <use x="255.712891" xlink:href="#ArialMT-52"/>
      <use x="327.929688" xlink:href="#ArialMT-61"/>
      <use x="383.544922" xlink:href="#ArialMT-6e"/>
      <use x="439.160156" xlink:href="#ArialMT-64"/>
      <use x="494.775391" xlink:href="#ArialMT-6f"/>
      <use x="550.390625" xlink:href="#ArialMT-6d"/>
     </g>
    </g>
    <g id="line2d_13">
     <path d="M 652.59 114.30375 
L 704.59 114.30375 
" style="fill:none;stroke:#bc80bd;stroke-dasharray:1.5,1.5;stroke-dashoffset:0;stroke-width:1.5;"/>
    </g>
    <g id="line2d_14">
     <defs>
      <path d="M -0 4.242641 
L 2.545584 0 
L 0 -4.242641 
L -2.545584 -0 
z
" id="mf2bb37205d" style="stroke:#bc80bd;stroke-linejoin:miter;"/>
     </defs>
     <g>
      <use style="fill:#bc80bd;stroke:#bc80bd;stroke-linejoin:miter;" x="678.59" xlink:href="#mf2bb37205d" y="114.30375"/>
     </g>
    </g>
    <g id="text_20">
     <!-- Random Node -->
     <g style="fill:#262626;" transform="translate(725.39 123.40375)scale(0.26 -0.26)">
      <use xlink:href="#ArialMT-52"/>
      <use x="72.216797" xlink:href="#ArialMT-61"/>
      <use x="127.832031" xlink:href="#ArialMT-6e"/>
      <use x="183.447266" xlink:href="#ArialMT-64"/>
      <use x="239.0625" xlink:href="#ArialMT-6f"/>
      <use x="294.677734" xlink:href="#ArialMT-6d"/>
      <use x="377.978516" xlink:href="#ArialMT-20"/>
      <use x="405.761719" xlink:href="#ArialMT-4e"/>
      <use x="477.978516" xlink:href="#ArialMT-6f"/>
      <use x="533.59375" xlink:href="#ArialMT-64"/>
      <use x="589.208984" xlink:href="#ArialMT-65"/>
     </g>
    </g>
    <g id="line2d_15">
     <path d="M 652.59 151.081562 
L 704.59 151.081562 
" style="fill:none;stroke:#d9d9d9;stroke-dasharray:4.5,1.875,2.25,1.875;stroke-dashoffset:0;stroke-width:1.5;"/>
    </g>
    <g id="line2d_16">
     <defs>
      <path d="M -1 3 
L 1 3 
L 1 1 
L 3 1 
L 3 -1 
L 1 -1 
L 1 -3 
L -1 -3 
L -1 -1 
L -3 -1 
L -3 1 
L -1 1 
z
" id="ma32a2b7028" style="stroke:#d9d9d9;stroke-linejoin:miter;"/>
     </defs>
     <g>
      <use style="fill:#d9d9d9;stroke:#d9d9d9;stroke-linejoin:miter;" x="678.59" xlink:href="#ma32a2b7028" y="151.081562"/>
     </g>
    </g>
    <g id="text_21">
     <!-- Random -->
     <g style="fill:#262626;" transform="translate(725.39 160.181562)scale(0.26 -0.26)">
      <use xlink:href="#ArialMT-52"/>
      <use x="72.216797" xlink:href="#ArialMT-61"/>
      <use x="127.832031" xlink:href="#ArialMT-6e"/>
      <use x="183.447266" xlink:href="#ArialMT-64"/>
      <use x="239.0625" xlink:href="#ArialMT-6f"/>
      <use x="294.677734" xlink:href="#ArialMT-6d"/>
     </g>
    </g>
   </g>
  </g>
 </g>
 <defs>
  <clipPath id="pc8745df061">
   <rect height="815.4" width="837" x="79.433125" y="7.2"/>
  </clipPath>
 </defs>
</svg>
