<?xml version="1.0" encoding="utf-8" standalone="no"?>
<!DOCTYPE svg PUBLIC "-//W3C//DTD SVG 1.1//EN"
  "http://www.w3.org/Graphics/SVG/1.1/DTD/svg11.dtd">
<svg xmlns:xlink="http://www.w3.org/1999/xlink" width="937.667969pt" height="898.949219pt" viewBox="0 0 937.667969 898.949219" xmlns="http://www.w3.org/2000/svg" version="1.1">
 <metadata>
  <rdf:RDF xmlns:dc="http://purl.org/dc/elements/1.1/" xmlns:cc="http://creativecommons.org/ns#" xmlns:rdf="http://www.w3.org/1999/02/22-rdf-syntax-ns#">
   <cc:Work>
    <dc:type rdf:resource="http://purl.org/dc/dcmitype/StillImage"/>
    <dc:date>2022-09-22T09:37:02.297478</dc:date>
    <dc:format>image/svg+xml</dc:format>
    <dc:creator>
     <cc:Agent>
      <dc:title>Matplotlib v3.5.1, https://matplotlib.org/</dc:title>
     </cc:Agent>
    </dc:creator>
   </cc:Work>
  </rdf:RDF>
 </metadata>
 <defs>
  <style type="text/css">*{stroke-linejoin: round; stroke-linecap: butt}</style>
 </defs>
 <g id="figure_1">
  <g id="patch_1">
   <path d="M 0 898.949219 
L 937.667969 898.949219 
L 937.667969 0 
L 0 0 
z
" style="fill: #ffffff"/>
  </g>
  <g id="axes_1">
   <g id="patch_2">
    <path d="M 93.467969 822.6 
L 930.467969 822.6 
L 930.467969 7.2 
L 93.467969 7.2 
z
" style="fill: #ffffff"/>
   </g>
   <g id="matplotlib.axis_1">
    <g id="xtick_1">
     <g id="text_1">
      <!-- CI -->
      <g style="fill: #262626" transform="translate(184.435352 852.995703)scale(0.275 -0.275)">
       <defs>
        <path id="DejaVuSans-43" d="M 4122 4306 
L 4122 3641 
Q 3803 3938 3442 4084 
Q 3081 4231 2675 4231 
Q 1875 4231 1450 3742 
Q 1025 3253 1025 2328 
Q 1025 1406 1450 917 
Q 1875 428 2675 428 
Q 3081 428 3442 575 
Q 3803 722 4122 1019 
L 4122 359 
Q 3791 134 3420 21 
Q 3050 -91 2638 -91 
Q 1578 -91 968 557 
Q 359 1206 359 2328 
Q 359 3453 968 4101 
Q 1578 4750 2638 4750 
Q 3056 4750 3426 4639 
Q 3797 4528 4122 4306 
z
" transform="scale(0.015625)"/>
        <path id="DejaVuSans-49" d="M 628 4666 
L 1259 4666 
L 1259 0 
L 628 0 
L 628 4666 
z
" transform="scale(0.015625)"/>
       </defs>
       <use xlink:href="#DejaVuSans-43"/>
       <use xlink:href="#DejaVuSans-49" x="69.824219"/>
      </g>
     </g>
    </g>
    <g id="xtick_2">
     <g id="text_2">
      <!-- Pearson -->
      <g style="fill: #262626" transform="translate(352.721094 852.995703)scale(0.275 -0.275)">
       <defs>
        <path id="DejaVuSans-50" d="M 1259 4147 
L 1259 2394 
L 2053 2394 
Q 2494 2394 2734 2622 
Q 2975 2850 2975 3272 
Q 2975 3691 2734 3919 
Q 2494 4147 2053 4147 
L 1259 4147 
z
M 628 4666 
L 2053 4666 
Q 2838 4666 3239 4311 
Q 3641 3956 3641 3272 
Q 3641 2581 3239 2228 
Q 2838 1875 2053 1875 
L 1259 1875 
L 1259 0 
L 628 0 
L 628 4666 
z
" transform="scale(0.015625)"/>
        <path id="DejaVuSans-65" d="M 3597 1894 
L 3597 1613 
L 953 1613 
Q 991 1019 1311 708 
Q 1631 397 2203 397 
Q 2534 397 2845 478 
Q 3156 559 3463 722 
L 3463 178 
Q 3153 47 2828 -22 
Q 2503 -91 2169 -91 
Q 1331 -91 842 396 
Q 353 884 353 1716 
Q 353 2575 817 3079 
Q 1281 3584 2069 3584 
Q 2775 3584 3186 3129 
Q 3597 2675 3597 1894 
z
M 3022 2063 
Q 3016 2534 2758 2815 
Q 2500 3097 2075 3097 
Q 1594 3097 1305 2825 
Q 1016 2553 972 2059 
L 3022 2063 
z
" transform="scale(0.015625)"/>
        <path id="DejaVuSans-61" d="M 2194 1759 
Q 1497 1759 1228 1600 
Q 959 1441 959 1056 
Q 959 750 1161 570 
Q 1363 391 1709 391 
Q 2188 391 2477 730 
Q 2766 1069 2766 1631 
L 2766 1759 
L 2194 1759 
z
M 3341 1997 
L 3341 0 
L 2766 0 
L 2766 531 
Q 2569 213 2275 61 
Q 1981 -91 1556 -91 
Q 1019 -91 701 211 
Q 384 513 384 1019 
Q 384 1609 779 1909 
Q 1175 2209 1959 2209 
L 2766 2209 
L 2766 2266 
Q 2766 2663 2505 2880 
Q 2244 3097 1772 3097 
Q 1472 3097 1187 3025 
Q 903 2953 641 2809 
L 641 3341 
Q 956 3463 1253 3523 
Q 1550 3584 1831 3584 
Q 2591 3584 2966 3190 
Q 3341 2797 3341 1997 
z
" transform="scale(0.015625)"/>
        <path id="DejaVuSans-72" d="M 2631 2963 
Q 2534 3019 2420 3045 
Q 2306 3072 2169 3072 
Q 1681 3072 1420 2755 
Q 1159 2438 1159 1844 
L 1159 0 
L 581 0 
L 581 3500 
L 1159 3500 
L 1159 2956 
Q 1341 3275 1631 3429 
Q 1922 3584 2338 3584 
Q 2397 3584 2469 3576 
Q 2541 3569 2628 3553 
L 2631 2963 
z
" transform="scale(0.015625)"/>
        <path id="DejaVuSans-73" d="M 2834 3397 
L 2834 2853 
Q 2591 2978 2328 3040 
Q 2066 3103 1784 3103 
Q 1356 3103 1142 2972 
Q 928 2841 928 2578 
Q 928 2378 1081 2264 
Q 1234 2150 1697 2047 
L 1894 2003 
Q 2506 1872 2764 1633 
Q 3022 1394 3022 966 
Q 3022 478 2636 193 
Q 2250 -91 1575 -91 
Q 1294 -91 989 -36 
Q 684 19 347 128 
L 347 722 
Q 666 556 975 473 
Q 1284 391 1588 391 
Q 1994 391 2212 530 
Q 2431 669 2431 922 
Q 2431 1156 2273 1281 
Q 2116 1406 1581 1522 
L 1381 1569 
Q 847 1681 609 1914 
Q 372 2147 372 2553 
Q 372 3047 722 3315 
Q 1072 3584 1716 3584 
Q 2034 3584 2315 3537 
Q 2597 3491 2834 3397 
z
" transform="scale(0.015625)"/>
        <path id="DejaVuSans-6f" d="M 1959 3097 
Q 1497 3097 1228 2736 
Q 959 2375 959 1747 
Q 959 1119 1226 758 
Q 1494 397 1959 397 
Q 2419 397 2687 759 
Q 2956 1122 2956 1747 
Q 2956 2369 2687 2733 
Q 2419 3097 1959 3097 
z
M 1959 3584 
Q 2709 3584 3137 3096 
Q 3566 2609 3566 1747 
Q 3566 888 3137 398 
Q 2709 -91 1959 -91 
Q 1206 -91 779 398 
Q 353 888 353 1747 
Q 353 2609 779 3096 
Q 1206 3584 1959 3584 
z
" transform="scale(0.015625)"/>
        <path id="DejaVuSans-6e" d="M 3513 2113 
L 3513 0 
L 2938 0 
L 2938 2094 
Q 2938 2591 2744 2837 
Q 2550 3084 2163 3084 
Q 1697 3084 1428 2787 
Q 1159 2491 1159 1978 
L 1159 0 
L 581 0 
L 581 3500 
L 1159 3500 
L 1159 2956 
Q 1366 3272 1645 3428 
Q 1925 3584 2291 3584 
Q 2894 3584 3203 3211 
Q 3513 2838 3513 2113 
z
" transform="scale(0.015625)"/>
       </defs>
       <use xlink:href="#DejaVuSans-50"/>
       <use xlink:href="#DejaVuSans-65" x="56.677734"/>
       <use xlink:href="#DejaVuSans-61" x="118.201172"/>
       <use xlink:href="#DejaVuSans-72" x="179.480469"/>
       <use xlink:href="#DejaVuSans-73" x="220.59375"/>
       <use xlink:href="#DejaVuSans-6f" x="272.693359"/>
       <use xlink:href="#DejaVuSans-6e" x="333.875"/>
      </g>
     </g>
    </g>
    <g id="xtick_3">
     <g id="text_3">
      <!-- RMSE -->
      <g style="fill: #262626" transform="translate(577.757812 852.995703)scale(0.275 -0.275)">
       <defs>
        <path id="DejaVuSans-52" d="M 2841 2188 
Q 3044 2119 3236 1894 
Q 3428 1669 3622 1275 
L 4263 0 
L 3584 0 
L 2988 1197 
Q 2756 1666 2539 1819 
Q 2322 1972 1947 1972 
L 1259 1972 
L 1259 0 
L 628 0 
L 628 4666 
L 2053 4666 
Q 2853 4666 3247 4331 
Q 3641 3997 3641 3322 
Q 3641 2881 3436 2590 
Q 3231 2300 2841 2188 
z
M 1259 4147 
L 1259 2491 
L 2053 2491 
Q 2509 2491 2742 2702 
Q 2975 2913 2975 3322 
Q 2975 3731 2742 3939 
Q 2509 4147 2053 4147 
L 1259 4147 
z
" transform="scale(0.015625)"/>
        <path id="DejaVuSans-4d" d="M 628 4666 
L 1569 4666 
L 2759 1491 
L 3956 4666 
L 4897 4666 
L 4897 0 
L 4281 0 
L 4281 4097 
L 3078 897 
L 2444 897 
L 1241 4097 
L 1241 0 
L 628 0 
L 628 4666 
z
" transform="scale(0.015625)"/>
        <path id="DejaVuSans-53" d="M 3425 4513 
L 3425 3897 
Q 3066 4069 2747 4153 
Q 2428 4238 2131 4238 
Q 1616 4238 1336 4038 
Q 1056 3838 1056 3469 
Q 1056 3159 1242 3001 
Q 1428 2844 1947 2747 
L 2328 2669 
Q 3034 2534 3370 2195 
Q 3706 1856 3706 1288 
Q 3706 609 3251 259 
Q 2797 -91 1919 -91 
Q 1588 -91 1214 -16 
Q 841 59 441 206 
L 441 856 
Q 825 641 1194 531 
Q 1563 422 1919 422 
Q 2459 422 2753 634 
Q 3047 847 3047 1241 
Q 3047 1584 2836 1778 
Q 2625 1972 2144 2069 
L 1759 2144 
Q 1053 2284 737 2584 
Q 422 2884 422 3419 
Q 422 4038 858 4394 
Q 1294 4750 2059 4750 
Q 2388 4750 2728 4690 
Q 3069 4631 3425 4513 
z
" transform="scale(0.015625)"/>
        <path id="DejaVuSans-45" d="M 628 4666 
L 3578 4666 
L 3578 4134 
L 1259 4134 
L 1259 2753 
L 3481 2753 
L 3481 2222 
L 1259 2222 
L 1259 531 
L 3634 531 
L 3634 0 
L 628 0 
L 628 4666 
z
" transform="scale(0.015625)"/>
       </defs>
       <use xlink:href="#DejaVuSans-52"/>
       <use xlink:href="#DejaVuSans-4d" x="69.482422"/>
       <use xlink:href="#DejaVuSans-53" x="155.761719"/>
       <use xlink:href="#DejaVuSans-45" x="219.238281"/>
      </g>
     </g>
    </g>
    <g id="xtick_4">
     <g id="text_4">
      <!-- Spearman -->
      <g style="fill: #262626" transform="translate(755.552539 852.995703)scale(0.275 -0.275)">
       <defs>
        <path id="DejaVuSans-70" d="M 1159 525 
L 1159 -1331 
L 581 -1331 
L 581 3500 
L 1159 3500 
L 1159 2969 
Q 1341 3281 1617 3432 
Q 1894 3584 2278 3584 
Q 2916 3584 3314 3078 
Q 3713 2572 3713 1747 
Q 3713 922 3314 415 
Q 2916 -91 2278 -91 
Q 1894 -91 1617 61 
Q 1341 213 1159 525 
z
M 3116 1747 
Q 3116 2381 2855 2742 
Q 2594 3103 2138 3103 
Q 1681 3103 1420 2742 
Q 1159 2381 1159 1747 
Q 1159 1113 1420 752 
Q 1681 391 2138 391 
Q 2594 391 2855 752 
Q 3116 1113 3116 1747 
z
" transform="scale(0.015625)"/>
        <path id="DejaVuSans-6d" d="M 3328 2828 
Q 3544 3216 3844 3400 
Q 4144 3584 4550 3584 
Q 5097 3584 5394 3201 
Q 5691 2819 5691 2113 
L 5691 0 
L 5113 0 
L 5113 2094 
Q 5113 2597 4934 2840 
Q 4756 3084 4391 3084 
Q 3944 3084 3684 2787 
Q 3425 2491 3425 1978 
L 3425 0 
L 2847 0 
L 2847 2094 
Q 2847 2600 2669 2842 
Q 2491 3084 2119 3084 
Q 1678 3084 1418 2786 
Q 1159 2488 1159 1978 
L 1159 0 
L 581 0 
L 581 3500 
L 1159 3500 
L 1159 2956 
Q 1356 3278 1631 3431 
Q 1906 3584 2284 3584 
Q 2666 3584 2933 3390 
Q 3200 3197 3328 2828 
z
" transform="scale(0.015625)"/>
       </defs>
       <use xlink:href="#DejaVuSans-53"/>
       <use xlink:href="#DejaVuSans-70" x="63.476562"/>
       <use xlink:href="#DejaVuSans-65" x="126.953125"/>
       <use xlink:href="#DejaVuSans-61" x="188.476562"/>
       <use xlink:href="#DejaVuSans-72" x="249.755859"/>
       <use xlink:href="#DejaVuSans-6d" x="289.119141"/>
       <use xlink:href="#DejaVuSans-61" x="386.53125"/>
       <use xlink:href="#DejaVuSans-6e" x="447.810547"/>
      </g>
     </g>
    </g>
    <g id="text_5">
     <!-- Metrics -->
     <g style="fill: #262626" transform="translate(457.520312 885.510156)scale(0.3 -0.3)">
      <defs>
       <path id="DejaVuSans-74" d="M 1172 4494 
L 1172 3500 
L 2356 3500 
L 2356 3053 
L 1172 3053 
L 1172 1153 
Q 1172 725 1289 603 
Q 1406 481 1766 481 
L 2356 481 
L 2356 0 
L 1766 0 
Q 1100 0 847 248 
Q 594 497 594 1153 
L 594 3053 
L 172 3053 
L 172 3500 
L 594 3500 
L 594 4494 
L 1172 4494 
z
" transform="scale(0.015625)"/>
       <path id="DejaVuSans-69" d="M 603 3500 
L 1178 3500 
L 1178 0 
L 603 0 
L 603 3500 
z
M 603 4863 
L 1178 4863 
L 1178 4134 
L 603 4134 
L 603 4863 
z
" transform="scale(0.015625)"/>
       <path id="DejaVuSans-63" d="M 3122 3366 
L 3122 2828 
Q 2878 2963 2633 3030 
Q 2388 3097 2138 3097 
Q 1578 3097 1268 2742 
Q 959 2388 959 1747 
Q 959 1106 1268 751 
Q 1578 397 2138 397 
Q 2388 397 2633 464 
Q 2878 531 3122 666 
L 3122 134 
Q 2881 22 2623 -34 
Q 2366 -91 2075 -91 
Q 1284 -91 818 406 
Q 353 903 353 1747 
Q 353 2603 823 3093 
Q 1294 3584 2113 3584 
Q 2378 3584 2631 3529 
Q 2884 3475 3122 3366 
z
" transform="scale(0.015625)"/>
      </defs>
      <use xlink:href="#DejaVuSans-4d"/>
      <use xlink:href="#DejaVuSans-65" x="86.279297"/>
      <use xlink:href="#DejaVuSans-74" x="147.802734"/>
      <use xlink:href="#DejaVuSans-72" x="187.011719"/>
      <use xlink:href="#DejaVuSans-69" x="228.125"/>
      <use xlink:href="#DejaVuSans-63" x="255.908203"/>
      <use xlink:href="#DejaVuSans-73" x="310.888672"/>
     </g>
    </g>
   </g>
   <g id="matplotlib.axis_2">
    <g id="ytick_1">
     <g id="text_6">
      <!-- 0.2 -->
      <g style="fill: #262626" transform="translate(40.234375 706.120133)scale(0.275 -0.275)">
       <defs>
        <path id="DejaVuSans-30" d="M 2034 4250 
Q 1547 4250 1301 3770 
Q 1056 3291 1056 2328 
Q 1056 1369 1301 889 
Q 1547 409 2034 409 
Q 2525 409 2770 889 
Q 3016 1369 3016 2328 
Q 3016 3291 2770 3770 
Q 2525 4250 2034 4250 
z
M 2034 4750 
Q 2819 4750 3233 4129 
Q 3647 3509 3647 2328 
Q 3647 1150 3233 529 
Q 2819 -91 2034 -91 
Q 1250 -91 836 529 
Q 422 1150 422 2328 
Q 422 3509 836 4129 
Q 1250 4750 2034 4750 
z
" transform="scale(0.015625)"/>
        <path id="DejaVuSans-2e" d="M 684 794 
L 1344 794 
L 1344 0 
L 684 0 
L 684 794 
z
" transform="scale(0.015625)"/>
        <path id="DejaVuSans-32" d="M 1228 531 
L 3431 531 
L 3431 0 
L 469 0 
L 469 531 
Q 828 903 1448 1529 
Q 2069 2156 2228 2338 
Q 2531 2678 2651 2914 
Q 2772 3150 2772 3378 
Q 2772 3750 2511 3984 
Q 2250 4219 1831 4219 
Q 1534 4219 1204 4116 
Q 875 4013 500 3803 
L 500 4441 
Q 881 4594 1212 4672 
Q 1544 4750 1819 4750 
Q 2544 4750 2975 4387 
Q 3406 4025 3406 3419 
Q 3406 3131 3298 2873 
Q 3191 2616 2906 2266 
Q 2828 2175 2409 1742 
Q 1991 1309 1228 531 
z
" transform="scale(0.015625)"/>
       </defs>
       <use xlink:href="#DejaVuSans-30"/>
       <use xlink:href="#DejaVuSans-2e" x="63.623047"/>
       <use xlink:href="#DejaVuSans-32" x="95.410156"/>
      </g>
     </g>
    </g>
    <g id="ytick_2">
     <g id="text_7">
      <!-- 0.4 -->
      <g style="fill: #262626" transform="translate(40.234375 546.28785)scale(0.275 -0.275)">
       <defs>
        <path id="DejaVuSans-34" d="M 2419 4116 
L 825 1625 
L 2419 1625 
L 2419 4116 
z
M 2253 4666 
L 3047 4666 
L 3047 1625 
L 3713 1625 
L 3713 1100 
L 3047 1100 
L 3047 0 
L 2419 0 
L 2419 1100 
L 313 1100 
L 313 1709 
L 2253 4666 
z
" transform="scale(0.015625)"/>
       </defs>
       <use xlink:href="#DejaVuSans-30"/>
       <use xlink:href="#DejaVuSans-2e" x="63.623047"/>
       <use xlink:href="#DejaVuSans-34" x="95.410156"/>
      </g>
     </g>
    </g>
    <g id="ytick_3">
     <g id="text_8">
      <!-- 0.6 -->
      <g style="fill: #262626" transform="translate(40.234375 386.455567)scale(0.275 -0.275)">
       <defs>
        <path id="DejaVuSans-36" d="M 2113 2584 
Q 1688 2584 1439 2293 
Q 1191 2003 1191 1497 
Q 1191 994 1439 701 
Q 1688 409 2113 409 
Q 2538 409 2786 701 
Q 3034 994 3034 1497 
Q 3034 2003 2786 2293 
Q 2538 2584 2113 2584 
z
M 3366 4563 
L 3366 3988 
Q 3128 4100 2886 4159 
Q 2644 4219 2406 4219 
Q 1781 4219 1451 3797 
Q 1122 3375 1075 2522 
Q 1259 2794 1537 2939 
Q 1816 3084 2150 3084 
Q 2853 3084 3261 2657 
Q 3669 2231 3669 1497 
Q 3669 778 3244 343 
Q 2819 -91 2113 -91 
Q 1303 -91 875 529 
Q 447 1150 447 2328 
Q 447 3434 972 4092 
Q 1497 4750 2381 4750 
Q 2619 4750 2861 4703 
Q 3103 4656 3366 4563 
z
" transform="scale(0.015625)"/>
       </defs>
       <use xlink:href="#DejaVuSans-30"/>
       <use xlink:href="#DejaVuSans-2e" x="63.623047"/>
       <use xlink:href="#DejaVuSans-36" x="95.410156"/>
      </g>
     </g>
    </g>
    <g id="ytick_4">
     <g id="text_9">
      <!-- 0.8 -->
      <g style="fill: #262626" transform="translate(40.234375 226.623284)scale(0.275 -0.275)">
       <defs>
        <path id="DejaVuSans-38" d="M 2034 2216 
Q 1584 2216 1326 1975 
Q 1069 1734 1069 1313 
Q 1069 891 1326 650 
Q 1584 409 2034 409 
Q 2484 409 2743 651 
Q 3003 894 3003 1313 
Q 3003 1734 2745 1975 
Q 2488 2216 2034 2216 
z
M 1403 2484 
Q 997 2584 770 2862 
Q 544 3141 544 3541 
Q 544 4100 942 4425 
Q 1341 4750 2034 4750 
Q 2731 4750 3128 4425 
Q 3525 4100 3525 3541 
Q 3525 3141 3298 2862 
Q 3072 2584 2669 2484 
Q 3125 2378 3379 2068 
Q 3634 1759 3634 1313 
Q 3634 634 3220 271 
Q 2806 -91 2034 -91 
Q 1263 -91 848 271 
Q 434 634 434 1313 
Q 434 1759 690 2068 
Q 947 2378 1403 2484 
z
M 1172 3481 
Q 1172 3119 1398 2916 
Q 1625 2713 2034 2713 
Q 2441 2713 2670 2916 
Q 2900 3119 2900 3481 
Q 2900 3844 2670 4047 
Q 2441 4250 2034 4250 
Q 1625 4250 1398 4047 
Q 1172 3844 1172 3481 
z
" transform="scale(0.015625)"/>
       </defs>
       <use xlink:href="#DejaVuSans-30"/>
       <use xlink:href="#DejaVuSans-2e" x="63.623047"/>
       <use xlink:href="#DejaVuSans-38" x="95.410156"/>
      </g>
     </g>
    </g>
    <g id="ytick_5">
     <g id="text_10">
      <!-- 1.0 -->
      <g style="fill: #262626" transform="translate(40.234375 66.791)scale(0.275 -0.275)">
       <defs>
        <path id="DejaVuSans-31" d="M 794 531 
L 1825 531 
L 1825 4091 
L 703 3866 
L 703 4441 
L 1819 4666 
L 2450 4666 
L 2450 531 
L 3481 531 
L 3481 0 
L 794 0 
L 794 531 
z
" transform="scale(0.015625)"/>
       </defs>
       <use xlink:href="#DejaVuSans-31"/>
       <use xlink:href="#DejaVuSans-2e" x="63.623047"/>
       <use xlink:href="#DejaVuSans-30" x="95.410156"/>
      </g>
     </g>
    </g>
    <g id="text_11">
     <!-- Scores -->
     <g style="fill: #262626" transform="translate(29.995313 464.721094)rotate(-90)scale(0.3 -0.3)">
      <use xlink:href="#DejaVuSans-53"/>
      <use xlink:href="#DejaVuSans-63" x="63.476562"/>
      <use xlink:href="#DejaVuSans-6f" x="118.457031"/>
      <use xlink:href="#DejaVuSans-72" x="179.638672"/>
      <use xlink:href="#DejaVuSans-65" x="218.501953"/>
      <use xlink:href="#DejaVuSans-73" x="280.025391"/>
     </g>
    </g>
   </g>
   <g id="patch_3">
    <path d="M 115.229969 154.266561 
L 197.255969 154.266561 
L 197.255969 147.045033 
L 115.229969 147.045033 
L 115.229969 154.266561 
z
" clip-path="url(#p7acfe63162)" style="fill: #5875a4; stroke: #4c4c4c; stroke-width: 1.5; stroke-linejoin: miter"/>
   </g>
   <g id="patch_4">
    <path d="M 198.929969 409.972968 
L 280.955969 409.972968 
L 280.955969 396.251504 
L 198.929969 396.251504 
L 198.929969 409.972968 
z
" clip-path="url(#p7acfe63162)" style="fill: #cc8963; stroke: #4c4c4c; stroke-width: 1.5; stroke-linejoin: miter"/>
   </g>
   <g id="patch_5">
    <path d="M 324.479969 208.337694 
L 406.505969 208.337694 
L 406.505969 188.924158 
L 324.479969 188.924158 
L 324.479969 208.337694 
z
" clip-path="url(#p7acfe63162)" style="fill: #5875a4; stroke: #4c4c4c; stroke-width: 1.5; stroke-linejoin: miter"/>
   </g>
   <g id="patch_6">
    <path d="M 408.179969 736.076726 
L 490.205969 736.076726 
L 490.205969 706.947619 
L 408.179969 706.947619 
L 408.179969 736.076726 
z
" clip-path="url(#p7acfe63162)" style="fill: #cc8963; stroke: #4c4c4c; stroke-width: 1.5; stroke-linejoin: miter"/>
   </g>
   <g id="patch_7">
    <path d="M 533.729969 478.162997 
L 615.755969 478.162997 
L 615.755969 453.970485 
L 533.729969 453.970485 
L 533.729969 478.162997 
z
" clip-path="url(#p7acfe63162)" style="fill: #5875a4; stroke: #4c4c4c; stroke-width: 1.5; stroke-linejoin: miter"/>
   </g>
   <g id="patch_8">
    <path d="M 617.429969 98.178051 
L 699.455969 98.178051 
L 699.455969 78.403436 
L 617.429969 78.403436 
L 617.429969 98.178051 
z
" clip-path="url(#p7acfe63162)" style="fill: #cc8963; stroke: #4c4c4c; stroke-width: 1.5; stroke-linejoin: miter"/>
   </g>
   <g id="patch_9">
    <path d="M 742.979969 314.066074 
L 825.005969 314.066074 
L 825.005969 299.52932 
L 742.979969 299.52932 
L 742.979969 314.066074 
z
" clip-path="url(#p7acfe63162)" style="fill: #5875a4; stroke: #4c4c4c; stroke-width: 1.5; stroke-linejoin: miter"/>
   </g>
   <g id="patch_10">
    <path d="M 826.679969 764.154862 
L 908.705969 764.154862 
L 908.705969 744.775576 
L 826.679969 744.775576 
L 826.679969 764.154862 
z
" clip-path="url(#p7acfe63162)" style="fill: #cc8963; stroke: #4c4c4c; stroke-width: 1.5; stroke-linejoin: miter"/>
   </g>
   <g id="patch_11">
    <path d="M 198.092969 855.504565 
L 198.092969 855.504565 
L 198.092969 855.504565 
L 198.092969 855.504565 
z
" clip-path="url(#p7acfe63162)" style="fill: #5875a4; stroke: #4c4c4c; stroke-width: 0.75; stroke-linejoin: miter"/>
   </g>
   <g id="patch_12">
    <path d="M 198.092969 855.504565 
L 198.092969 855.504565 
L 198.092969 855.504565 
L 198.092969 855.504565 
z
" clip-path="url(#p7acfe63162)" style="fill: #cc8963; stroke: #4c4c4c; stroke-width: 0.75; stroke-linejoin: miter"/>
   </g>
   <g id="line2d_1">
    <path d="M 156.242969 154.266561 
L 156.242969 161.388665 
" clip-path="url(#p7acfe63162)" style="fill: none; stroke: #4c4c4c; stroke-width: 1.5; stroke-linecap: round"/>
   </g>
   <g id="line2d_2">
    <path d="M 156.242969 147.045033 
L 156.242969 138.248133 
" clip-path="url(#p7acfe63162)" style="fill: none; stroke: #4c4c4c; stroke-width: 1.5; stroke-linecap: round"/>
   </g>
   <g id="line2d_3">
    <path d="M 135.736469 161.388665 
L 176.749469 161.388665 
" clip-path="url(#p7acfe63162)" style="fill: none; stroke: #4c4c4c; stroke-width: 1.5; stroke-linecap: round"/>
   </g>
   <g id="line2d_4">
    <path d="M 135.736469 138.248133 
L 176.749469 138.248133 
" clip-path="url(#p7acfe63162)" style="fill: none; stroke: #4c4c4c; stroke-width: 1.5; stroke-linecap: round"/>
   </g>
   <g id="line2d_5">
    <defs>
     <path id="mc6ba851c5d" d="M -0 3.535534 
L 2.12132 0 
L -0 -3.535534 
L -2.12132 -0 
z
" style="stroke: #4c4c4c; stroke-linejoin: miter"/>
    </defs>
    <g clip-path="url(#p7acfe63162)">
     <use xlink:href="#mc6ba851c5d" x="156.242969" y="174.643328" style="fill: #4c4c4c; stroke: #4c4c4c; stroke-linejoin: miter"/>
     <use xlink:href="#mc6ba851c5d" x="156.242969" y="133.640268" style="fill: #4c4c4c; stroke: #4c4c4c; stroke-linejoin: miter"/>
    </g>
   </g>
   <g id="line2d_6">
    <path d="M 239.942969 409.972968 
L 239.942969 417.510485 
" clip-path="url(#p7acfe63162)" style="fill: none; stroke: #4c4c4c; stroke-width: 1.5; stroke-linecap: round"/>
   </g>
   <g id="line2d_7">
    <path d="M 239.942969 396.251504 
L 239.942969 379.97239 
" clip-path="url(#p7acfe63162)" style="fill: none; stroke: #4c4c4c; stroke-width: 1.5; stroke-linecap: round"/>
   </g>
   <g id="line2d_8">
    <path d="M 219.436469 417.510485 
L 260.449469 417.510485 
" clip-path="url(#p7acfe63162)" style="fill: none; stroke: #4c4c4c; stroke-width: 1.5; stroke-linecap: round"/>
   </g>
   <g id="line2d_9">
    <path d="M 219.436469 379.97239 
L 260.449469 379.97239 
" clip-path="url(#p7acfe63162)" style="fill: none; stroke: #4c4c4c; stroke-width: 1.5; stroke-linecap: round"/>
   </g>
   <g id="line2d_10"/>
   <g id="line2d_11">
    <path d="M 365.492969 208.337694 
L 365.492969 227.93957 
" clip-path="url(#p7acfe63162)" style="fill: none; stroke: #4c4c4c; stroke-width: 1.5; stroke-linecap: round"/>
   </g>
   <g id="line2d_12">
    <path d="M 365.492969 188.924158 
L 365.492969 174.025322 
" clip-path="url(#p7acfe63162)" style="fill: none; stroke: #4c4c4c; stroke-width: 1.5; stroke-linecap: round"/>
   </g>
   <g id="line2d_13">
    <path d="M 344.986469 227.93957 
L 385.999469 227.93957 
" clip-path="url(#p7acfe63162)" style="fill: none; stroke: #4c4c4c; stroke-width: 1.5; stroke-linecap: round"/>
   </g>
   <g id="line2d_14">
    <path d="M 344.986469 174.025322 
L 385.999469 174.025322 
" clip-path="url(#p7acfe63162)" style="fill: none; stroke: #4c4c4c; stroke-width: 1.5; stroke-linecap: round"/>
   </g>
   <g id="line2d_15"/>
   <g id="line2d_16">
    <path d="M 449.192969 736.076726 
L 449.192969 757.808748 
" clip-path="url(#p7acfe63162)" style="fill: none; stroke: #4c4c4c; stroke-width: 1.5; stroke-linecap: round"/>
   </g>
   <g id="line2d_17">
    <path d="M 449.192969 706.947619 
L 449.192969 674.564857 
" clip-path="url(#p7acfe63162)" style="fill: none; stroke: #4c4c4c; stroke-width: 1.5; stroke-linecap: round"/>
   </g>
   <g id="line2d_18">
    <path d="M 428.686469 757.808748 
L 469.699469 757.808748 
" clip-path="url(#p7acfe63162)" style="fill: none; stroke: #4c4c4c; stroke-width: 1.5; stroke-linecap: round"/>
   </g>
   <g id="line2d_19">
    <path d="M 428.686469 674.564857 
L 469.699469 674.564857 
" clip-path="url(#p7acfe63162)" style="fill: none; stroke: #4c4c4c; stroke-width: 1.5; stroke-linecap: round"/>
   </g>
   <g id="line2d_20"/>
   <g id="line2d_21">
    <path d="M 574.742969 478.162997 
L 574.742969 495.352709 
" clip-path="url(#p7acfe63162)" style="fill: none; stroke: #4c4c4c; stroke-width: 1.5; stroke-linecap: round"/>
   </g>
   <g id="line2d_22">
    <path d="M 574.742969 453.970485 
L 574.742969 443.477964 
" clip-path="url(#p7acfe63162)" style="fill: none; stroke: #4c4c4c; stroke-width: 1.5; stroke-linecap: round"/>
   </g>
   <g id="line2d_23">
    <path d="M 554.236469 495.352709 
L 595.249469 495.352709 
" clip-path="url(#p7acfe63162)" style="fill: none; stroke: #4c4c4c; stroke-width: 1.5; stroke-linecap: round"/>
   </g>
   <g id="line2d_24">
    <path d="M 554.236469 443.477964 
L 595.249469 443.477964 
" clip-path="url(#p7acfe63162)" style="fill: none; stroke: #4c4c4c; stroke-width: 1.5; stroke-linecap: round"/>
   </g>
   <g id="line2d_25"/>
   <g id="line2d_26">
    <path d="M 658.442969 98.178051 
L 658.442969 122.825218 
" clip-path="url(#p7acfe63162)" style="fill: none; stroke: #4c4c4c; stroke-width: 1.5; stroke-linecap: round"/>
   </g>
   <g id="line2d_27">
    <path d="M 658.442969 78.403436 
L 658.442969 51.538469 
" clip-path="url(#p7acfe63162)" style="fill: none; stroke: #4c4c4c; stroke-width: 1.5; stroke-linecap: round"/>
   </g>
   <g id="line2d_28">
    <path d="M 637.936469 122.825218 
L 678.949469 122.825218 
" clip-path="url(#p7acfe63162)" style="fill: none; stroke: #4c4c4c; stroke-width: 1.5; stroke-linecap: round"/>
   </g>
   <g id="line2d_29">
    <path d="M 637.936469 51.538469 
L 678.949469 51.538469 
" clip-path="url(#p7acfe63162)" style="fill: none; stroke: #4c4c4c; stroke-width: 1.5; stroke-linecap: round"/>
   </g>
   <g id="line2d_30">
    <g clip-path="url(#p7acfe63162)">
     <use xlink:href="#mc6ba851c5d" x="658.442969" y="127.840528" style="fill: #4c4c4c; stroke: #4c4c4c; stroke-linejoin: miter"/>
     <use xlink:href="#mc6ba851c5d" x="658.442969" y="132.15088" style="fill: #4c4c4c; stroke: #4c4c4c; stroke-linejoin: miter"/>
     <use xlink:href="#mc6ba851c5d" x="658.442969" y="44.263636" style="fill: #4c4c4c; stroke: #4c4c4c; stroke-linejoin: miter"/>
    </g>
   </g>
   <g id="line2d_31">
    <path d="M 783.992969 314.066074 
L 783.992969 331.693137 
" clip-path="url(#p7acfe63162)" style="fill: none; stroke: #4c4c4c; stroke-width: 1.5; stroke-linecap: round"/>
   </g>
   <g id="line2d_32">
    <path d="M 783.992969 299.52932 
L 783.992969 281.040854 
" clip-path="url(#p7acfe63162)" style="fill: none; stroke: #4c4c4c; stroke-width: 1.5; stroke-linecap: round"/>
   </g>
   <g id="line2d_33">
    <path d="M 763.486469 331.693137 
L 804.499469 331.693137 
" clip-path="url(#p7acfe63162)" style="fill: none; stroke: #4c4c4c; stroke-width: 1.5; stroke-linecap: round"/>
   </g>
   <g id="line2d_34">
    <path d="M 763.486469 281.040854 
L 804.499469 281.040854 
" clip-path="url(#p7acfe63162)" style="fill: none; stroke: #4c4c4c; stroke-width: 1.5; stroke-linecap: round"/>
   </g>
   <g id="line2d_35">
    <g clip-path="url(#p7acfe63162)">
     <use xlink:href="#mc6ba851c5d" x="783.992969" y="347.550367" style="fill: #4c4c4c; stroke: #4c4c4c; stroke-linejoin: miter"/>
     <use xlink:href="#mc6ba851c5d" x="783.992969" y="340.109241" style="fill: #4c4c4c; stroke: #4c4c4c; stroke-linejoin: miter"/>
    </g>
   </g>
   <g id="line2d_36">
    <path d="M 867.692969 764.154862 
L 867.692969 785.536364 
" clip-path="url(#p7acfe63162)" style="fill: none; stroke: #4c4c4c; stroke-width: 1.5; stroke-linecap: round"/>
   </g>
   <g id="line2d_37">
    <path d="M 867.692969 744.775576 
L 867.692969 723.465747 
" clip-path="url(#p7acfe63162)" style="fill: none; stroke: #4c4c4c; stroke-width: 1.5; stroke-linecap: round"/>
   </g>
   <g id="line2d_38">
    <path d="M 847.186469 785.536364 
L 888.199469 785.536364 
" clip-path="url(#p7acfe63162)" style="fill: none; stroke: #4c4c4c; stroke-width: 1.5; stroke-linecap: round"/>
   </g>
   <g id="line2d_39">
    <path d="M 847.186469 723.465747 
L 888.199469 723.465747 
" clip-path="url(#p7acfe63162)" style="fill: none; stroke: #4c4c4c; stroke-width: 1.5; stroke-linecap: round"/>
   </g>
   <g id="line2d_40"/>
   <g id="line2d_41">
    <path d="M 115.229969 150.164505 
L 197.255969 150.164505 
" clip-path="url(#p7acfe63162)" style="fill: none; stroke: #4c4c4c; stroke-width: 1.5; stroke-linecap: round"/>
   </g>
   <g id="line2d_42">
    <path d="M 198.929969 401.895674 
L 280.955969 401.895674 
" clip-path="url(#p7acfe63162)" style="fill: none; stroke: #4c4c4c; stroke-width: 1.5; stroke-linecap: round"/>
   </g>
   <g id="line2d_43">
    <path d="M 324.479969 198.012813 
L 406.505969 198.012813 
" clip-path="url(#p7acfe63162)" style="fill: none; stroke: #4c4c4c; stroke-width: 1.5; stroke-linecap: round"/>
   </g>
   <g id="line2d_44">
    <path d="M 408.179969 725.134353 
L 490.205969 725.134353 
" clip-path="url(#p7acfe63162)" style="fill: none; stroke: #4c4c4c; stroke-width: 1.5; stroke-linecap: round"/>
   </g>
   <g id="line2d_45">
    <path d="M 533.729969 471.283207 
L 615.755969 471.283207 
" clip-path="url(#p7acfe63162)" style="fill: none; stroke: #4c4c4c; stroke-width: 1.5; stroke-linecap: round"/>
   </g>
   <g id="line2d_46">
    <path d="M 617.429969 88.00338 
L 699.455969 88.00338 
" clip-path="url(#p7acfe63162)" style="fill: none; stroke: #4c4c4c; stroke-width: 1.5; stroke-linecap: round"/>
   </g>
   <g id="line2d_47">
    <path d="M 742.979969 308.139772 
L 825.005969 308.139772 
" clip-path="url(#p7acfe63162)" style="fill: none; stroke: #4c4c4c; stroke-width: 1.5; stroke-linecap: round"/>
   </g>
   <g id="line2d_48">
    <path d="M 826.679969 755.311733 
L 908.705969 755.311733 
" clip-path="url(#p7acfe63162)" style="fill: none; stroke: #4c4c4c; stroke-width: 1.5; stroke-linecap: round"/>
   </g>
   <g id="patch_13">
    <path d="M 93.467969 822.6 
L 93.467969 7.2 
" style="fill: none; stroke: #262626; stroke-width: 1.25; stroke-linejoin: miter; stroke-linecap: square"/>
   </g>
   <g id="patch_14">
    <path d="M 930.467969 822.6 
L 930.467969 7.2 
" style="fill: none; stroke: #262626; stroke-width: 1.25; stroke-linejoin: miter; stroke-linecap: square"/>
   </g>
   <g id="patch_15">
    <path d="M 93.467969 822.6 
L 930.467969 822.6 
" style="fill: none; stroke: #262626; stroke-width: 1.25; stroke-linejoin: miter; stroke-linecap: square"/>
   </g>
   <g id="patch_16">
    <path d="M 93.467969 7.2 
L 930.467969 7.2 
" style="fill: none; stroke: #262626; stroke-width: 1.25; stroke-linejoin: miter; stroke-linecap: square"/>
   </g>
   <g id="legend_1">
    <g id="patch_17">
     <path d="M 110.267969 810.6 
L 455.721719 810.6 
Q 460.521719 810.6 460.521719 805.8 
L 460.521719 737.745 
Q 460.521719 732.945 455.721719 732.945 
L 110.267969 732.945 
Q 105.467969 732.945 105.467969 737.745 
L 105.467969 805.8 
Q 105.467969 810.6 110.267969 810.6 
z
" style="fill: #ffffff; opacity: 0.8; stroke: #cccccc; stroke-linejoin: miter"/>
    </g>
    <g id="patch_18">
     <path d="M 115.067969 760.78125 
L 163.067969 760.78125 
L 163.067969 743.98125 
L 115.067969 743.98125 
z
" style="fill: #5875a4; stroke: #4c4c4c; stroke-width: 0.75; stroke-linejoin: miter"/>
    </g>
    <g id="text_12">
     <!-- Original Ligand Graph -->
     <g style="fill: #262626" transform="translate(182.267969 760.78125)scale(0.24 -0.24)">
      <defs>
       <path id="DejaVuSans-4f" d="M 2522 4238 
Q 1834 4238 1429 3725 
Q 1025 3213 1025 2328 
Q 1025 1447 1429 934 
Q 1834 422 2522 422 
Q 3209 422 3611 934 
Q 4013 1447 4013 2328 
Q 4013 3213 3611 3725 
Q 3209 4238 2522 4238 
z
M 2522 4750 
Q 3503 4750 4090 4092 
Q 4678 3434 4678 2328 
Q 4678 1225 4090 567 
Q 3503 -91 2522 -91 
Q 1538 -91 948 565 
Q 359 1222 359 2328 
Q 359 3434 948 4092 
Q 1538 4750 2522 4750 
z
" transform="scale(0.015625)"/>
       <path id="DejaVuSans-67" d="M 2906 1791 
Q 2906 2416 2648 2759 
Q 2391 3103 1925 3103 
Q 1463 3103 1205 2759 
Q 947 2416 947 1791 
Q 947 1169 1205 825 
Q 1463 481 1925 481 
Q 2391 481 2648 825 
Q 2906 1169 2906 1791 
z
M 3481 434 
Q 3481 -459 3084 -895 
Q 2688 -1331 1869 -1331 
Q 1566 -1331 1297 -1286 
Q 1028 -1241 775 -1147 
L 775 -588 
Q 1028 -725 1275 -790 
Q 1522 -856 1778 -856 
Q 2344 -856 2625 -561 
Q 2906 -266 2906 331 
L 2906 616 
Q 2728 306 2450 153 
Q 2172 0 1784 0 
Q 1141 0 747 490 
Q 353 981 353 1791 
Q 353 2603 747 3093 
Q 1141 3584 1784 3584 
Q 2172 3584 2450 3431 
Q 2728 3278 2906 2969 
L 2906 3500 
L 3481 3500 
L 3481 434 
z
" transform="scale(0.015625)"/>
       <path id="DejaVuSans-6c" d="M 603 4863 
L 1178 4863 
L 1178 0 
L 603 0 
L 603 4863 
z
" transform="scale(0.015625)"/>
       <path id="DejaVuSans-20" transform="scale(0.015625)"/>
       <path id="DejaVuSans-4c" d="M 628 4666 
L 1259 4666 
L 1259 531 
L 3531 531 
L 3531 0 
L 628 0 
L 628 4666 
z
" transform="scale(0.015625)"/>
       <path id="DejaVuSans-64" d="M 2906 2969 
L 2906 4863 
L 3481 4863 
L 3481 0 
L 2906 0 
L 2906 525 
Q 2725 213 2448 61 
Q 2172 -91 1784 -91 
Q 1150 -91 751 415 
Q 353 922 353 1747 
Q 353 2572 751 3078 
Q 1150 3584 1784 3584 
Q 2172 3584 2448 3432 
Q 2725 3281 2906 2969 
z
M 947 1747 
Q 947 1113 1208 752 
Q 1469 391 1925 391 
Q 2381 391 2643 752 
Q 2906 1113 2906 1747 
Q 2906 2381 2643 2742 
Q 2381 3103 1925 3103 
Q 1469 3103 1208 2742 
Q 947 2381 947 1747 
z
" transform="scale(0.015625)"/>
       <path id="DejaVuSans-47" d="M 3809 666 
L 3809 1919 
L 2778 1919 
L 2778 2438 
L 4434 2438 
L 4434 434 
Q 4069 175 3628 42 
Q 3188 -91 2688 -91 
Q 1594 -91 976 548 
Q 359 1188 359 2328 
Q 359 3472 976 4111 
Q 1594 4750 2688 4750 
Q 3144 4750 3555 4637 
Q 3966 4525 4313 4306 
L 4313 3634 
Q 3963 3931 3569 4081 
Q 3175 4231 2741 4231 
Q 1884 4231 1454 3753 
Q 1025 3275 1025 2328 
Q 1025 1384 1454 906 
Q 1884 428 2741 428 
Q 3075 428 3337 486 
Q 3600 544 3809 666 
z
" transform="scale(0.015625)"/>
       <path id="DejaVuSans-68" d="M 3513 2113 
L 3513 0 
L 2938 0 
L 2938 2094 
Q 2938 2591 2744 2837 
Q 2550 3084 2163 3084 
Q 1697 3084 1428 2787 
Q 1159 2491 1159 1978 
L 1159 0 
L 581 0 
L 581 4863 
L 1159 4863 
L 1159 2956 
Q 1366 3272 1645 3428 
Q 1925 3584 2291 3584 
Q 2894 3584 3203 3211 
Q 3513 2838 3513 2113 
z
" transform="scale(0.015625)"/>
      </defs>
      <use xlink:href="#DejaVuSans-4f"/>
      <use xlink:href="#DejaVuSans-72" x="78.710938"/>
      <use xlink:href="#DejaVuSans-69" x="119.824219"/>
      <use xlink:href="#DejaVuSans-67" x="147.607422"/>
      <use xlink:href="#DejaVuSans-69" x="211.083984"/>
      <use xlink:href="#DejaVuSans-6e" x="238.867188"/>
      <use xlink:href="#DejaVuSans-61" x="302.246094"/>
      <use xlink:href="#DejaVuSans-6c" x="363.525391"/>
      <use xlink:href="#DejaVuSans-20" x="391.308594"/>
      <use xlink:href="#DejaVuSans-4c" x="423.095703"/>
      <use xlink:href="#DejaVuSans-69" x="478.808594"/>
      <use xlink:href="#DejaVuSans-67" x="506.591797"/>
      <use xlink:href="#DejaVuSans-61" x="570.068359"/>
      <use xlink:href="#DejaVuSans-6e" x="631.347656"/>
      <use xlink:href="#DejaVuSans-64" x="694.726562"/>
      <use xlink:href="#DejaVuSans-20" x="758.203125"/>
      <use xlink:href="#DejaVuSans-47" x="789.990234"/>
      <use xlink:href="#DejaVuSans-72" x="867.480469"/>
      <use xlink:href="#DejaVuSans-61" x="908.59375"/>
      <use xlink:href="#DejaVuSans-70" x="969.873047"/>
      <use xlink:href="#DejaVuSans-68" x="1033.349609"/>
     </g>
    </g>
    <g id="patch_19">
     <path d="M 115.067969 796.00875 
L 163.067969 796.00875 
L 163.067969 779.20875 
L 115.067969 779.20875 
z
" style="fill: #cc8963; stroke: #4c4c4c; stroke-width: 0.75; stroke-linejoin: miter"/>
    </g>
    <g id="text_13">
     <!-- Random Ligand Graph -->
     <g style="fill: #262626" transform="translate(182.267969 796.00875)scale(0.24 -0.24)">
      <use xlink:href="#DejaVuSans-52"/>
      <use xlink:href="#DejaVuSans-61" x="67.232422"/>
      <use xlink:href="#DejaVuSans-6e" x="128.511719"/>
      <use xlink:href="#DejaVuSans-64" x="191.890625"/>
      <use xlink:href="#DejaVuSans-6f" x="255.367188"/>
      <use xlink:href="#DejaVuSans-6d" x="316.548828"/>
      <use xlink:href="#DejaVuSans-20" x="413.960938"/>
      <use xlink:href="#DejaVuSans-4c" x="445.748047"/>
      <use xlink:href="#DejaVuSans-69" x="501.460938"/>
      <use xlink:href="#DejaVuSans-67" x="529.244141"/>
      <use xlink:href="#DejaVuSans-61" x="592.720703"/>
      <use xlink:href="#DejaVuSans-6e" x="654"/>
      <use xlink:href="#DejaVuSans-64" x="717.378906"/>
      <use xlink:href="#DejaVuSans-20" x="780.855469"/>
      <use xlink:href="#DejaVuSans-47" x="812.642578"/>
      <use xlink:href="#DejaVuSans-72" x="890.132812"/>
      <use xlink:href="#DejaVuSans-61" x="931.246094"/>
      <use xlink:href="#DejaVuSans-70" x="992.525391"/>
      <use xlink:href="#DejaVuSans-68" x="1056.001953"/>
     </g>
    </g>
   </g>
  </g>
 </g>
 <defs>
  <clipPath id="p7acfe63162">
   <rect x="93.467969" y="7.2" width="837" height="815.4"/>
  </clipPath>
 </defs>
</svg>
