<?xml version="1.0" encoding="utf-8" standalone="no"?>
<!DOCTYPE svg PUBLIC "-//W3C//DTD SVG 1.1//EN"
  "http://www.w3.org/Graphics/SVG/1.1/DTD/svg11.dtd">
<svg height="920.269922pt" version="1.1" viewBox="0 0 1042.635156 920.269922" width="1042.635156pt" xmlns="http://www.w3.org/2000/svg" xmlns:xlink="http://www.w3.org/1999/xlink">
 <metadata>
  <rdf:RDF xmlns:cc="http://creativecommons.org/ns#" xmlns:dc="http://purl.org/dc/elements/1.1/" xmlns:rdf="http://www.w3.org/1999/02/22-rdf-syntax-ns#">
   <cc:Work>
    <dc:type rdf:resource="http://purl.org/dc/dcmitype/StillImage"/>
    <dc:date>2023-04-13T14:33:25.431439</dc:date>
    <dc:format>image/svg+xml</dc:format>
    <dc:creator>
     <cc:Agent>
      <dc:title>Matplotlib v3.4.3, https://matplotlib.org/</dc:title>
     </cc:Agent>
    </dc:creator>
   </cc:Work>
  </rdf:RDF>
 </metadata>
 <defs>
  <style type="text/css">*{stroke-linecap:butt;stroke-linejoin:round;}</style>
 </defs>
 <g id="figure_1">
  <g id="patch_1">
   <path d="M 0 920.269922 
L 1042.635156 920.269922 
L 1042.635156 0 
L 0 0 
z
" style="fill:#ffffff;"/>
  </g>
  <g id="axes_1">
   <g id="patch_2">
    <path d="M 120.821875 835.126172 
L 957.821875 835.126172 
L 957.821875 19.726172 
L 120.821875 19.726172 
z
" style="fill:#ffffff;"/>
   </g>
   <g id="matplotlib.axis_1">
    <g id="xtick_1">
     <g id="text_1">
      <!-- CI -->
      <g style="fill:#262626;" transform="translate(207.946875 869.678516)scale(0.35 -0.35)">
       <defs>
        <path d="M 3763 1606 
L 4369 1453 
Q 4178 706 3683 314 
Q 3188 -78 2472 -78 
Q 1731 -78 1267 223 
Q 803 525 561 1097 
Q 319 1669 319 2325 
Q 319 3041 592 3573 
Q 866 4106 1370 4382 
Q 1875 4659 2481 4659 
Q 3169 4659 3637 4309 
Q 4106 3959 4291 3325 
L 3694 3184 
Q 3534 3684 3231 3912 
Q 2928 4141 2469 4141 
Q 1941 4141 1586 3887 
Q 1231 3634 1087 3207 
Q 944 2781 944 2328 
Q 944 1744 1114 1308 
Q 1284 872 1643 656 
Q 2003 441 2422 441 
Q 2931 441 3284 734 
Q 3638 1028 3763 1606 
z
" id="ArialMT-43" transform="scale(0.015625)"/>
        <path d="M 597 0 
L 597 4581 
L 1203 4581 
L 1203 0 
L 597 0 
z
" id="ArialMT-49" transform="scale(0.015625)"/>
       </defs>
       <use xlink:href="#ArialMT-43"/>
       <use x="72.216797" xlink:href="#ArialMT-49"/>
      </g>
     </g>
    </g>
    <g id="xtick_2">
     <g id="text_2">
      <!-- Pearson -->
      <g style="fill:#262626;" transform="translate(369.520312 869.678516)scale(0.35 -0.35)">
       <defs>
        <path d="M 494 0 
L 494 4581 
L 2222 4581 
Q 2678 4581 2919 4538 
Q 3256 4481 3484 4323 
Q 3713 4166 3852 3881 
Q 3991 3597 3991 3256 
Q 3991 2672 3619 2267 
Q 3247 1863 2275 1863 
L 1100 1863 
L 1100 0 
L 494 0 
z
M 1100 2403 
L 2284 2403 
Q 2872 2403 3119 2622 
Q 3366 2841 3366 3238 
Q 3366 3525 3220 3729 
Q 3075 3934 2838 4000 
Q 2684 4041 2272 4041 
L 1100 4041 
L 1100 2403 
z
" id="ArialMT-50" transform="scale(0.015625)"/>
        <path d="M 2694 1069 
L 3275 997 
Q 3138 488 2766 206 
Q 2394 -75 1816 -75 
Q 1088 -75 661 373 
Q 234 822 234 1631 
Q 234 2469 665 2931 
Q 1097 3394 1784 3394 
Q 2450 3394 2872 2941 
Q 3294 2488 3294 1666 
Q 3294 1616 3291 1516 
L 816 1516 
Q 847 969 1125 678 
Q 1403 388 1819 388 
Q 2128 388 2347 550 
Q 2566 713 2694 1069 
z
M 847 1978 
L 2700 1978 
Q 2663 2397 2488 2606 
Q 2219 2931 1791 2931 
Q 1403 2931 1139 2672 
Q 875 2413 847 1978 
z
" id="ArialMT-65" transform="scale(0.015625)"/>
        <path d="M 2588 409 
Q 2275 144 1986 34 
Q 1697 -75 1366 -75 
Q 819 -75 525 192 
Q 231 459 231 875 
Q 231 1119 342 1320 
Q 453 1522 633 1644 
Q 813 1766 1038 1828 
Q 1203 1872 1538 1913 
Q 2219 1994 2541 2106 
Q 2544 2222 2544 2253 
Q 2544 2597 2384 2738 
Q 2169 2928 1744 2928 
Q 1347 2928 1158 2789 
Q 969 2650 878 2297 
L 328 2372 
Q 403 2725 575 2942 
Q 747 3159 1072 3276 
Q 1397 3394 1825 3394 
Q 2250 3394 2515 3294 
Q 2781 3194 2906 3042 
Q 3031 2891 3081 2659 
Q 3109 2516 3109 2141 
L 3109 1391 
Q 3109 606 3145 398 
Q 3181 191 3288 0 
L 2700 0 
Q 2613 175 2588 409 
z
M 2541 1666 
Q 2234 1541 1622 1453 
Q 1275 1403 1131 1340 
Q 988 1278 909 1158 
Q 831 1038 831 891 
Q 831 666 1001 516 
Q 1172 366 1500 366 
Q 1825 366 2078 508 
Q 2331 650 2450 897 
Q 2541 1088 2541 1459 
L 2541 1666 
z
" id="ArialMT-61" transform="scale(0.015625)"/>
        <path d="M 416 0 
L 416 3319 
L 922 3319 
L 922 2816 
Q 1116 3169 1280 3281 
Q 1444 3394 1641 3394 
Q 1925 3394 2219 3213 
L 2025 2691 
Q 1819 2813 1613 2813 
Q 1428 2813 1281 2702 
Q 1134 2591 1072 2394 
Q 978 2094 978 1738 
L 978 0 
L 416 0 
z
" id="ArialMT-72" transform="scale(0.015625)"/>
        <path d="M 197 991 
L 753 1078 
Q 800 744 1014 566 
Q 1228 388 1613 388 
Q 2000 388 2187 545 
Q 2375 703 2375 916 
Q 2375 1106 2209 1216 
Q 2094 1291 1634 1406 
Q 1016 1563 777 1677 
Q 538 1791 414 1992 
Q 291 2194 291 2438 
Q 291 2659 392 2848 
Q 494 3038 669 3163 
Q 800 3259 1026 3326 
Q 1253 3394 1513 3394 
Q 1903 3394 2198 3281 
Q 2494 3169 2634 2976 
Q 2775 2784 2828 2463 
L 2278 2388 
Q 2241 2644 2061 2787 
Q 1881 2931 1553 2931 
Q 1166 2931 1000 2803 
Q 834 2675 834 2503 
Q 834 2394 903 2306 
Q 972 2216 1119 2156 
Q 1203 2125 1616 2013 
Q 2213 1853 2448 1751 
Q 2684 1650 2818 1456 
Q 2953 1263 2953 975 
Q 2953 694 2789 445 
Q 2625 197 2315 61 
Q 2006 -75 1616 -75 
Q 969 -75 630 194 
Q 291 463 197 991 
z
" id="ArialMT-73" transform="scale(0.015625)"/>
        <path d="M 213 1659 
Q 213 2581 725 3025 
Q 1153 3394 1769 3394 
Q 2453 3394 2887 2945 
Q 3322 2497 3322 1706 
Q 3322 1066 3130 698 
Q 2938 331 2570 128 
Q 2203 -75 1769 -75 
Q 1072 -75 642 372 
Q 213 819 213 1659 
z
M 791 1659 
Q 791 1022 1069 705 
Q 1347 388 1769 388 
Q 2188 388 2466 706 
Q 2744 1025 2744 1678 
Q 2744 2294 2464 2611 
Q 2184 2928 1769 2928 
Q 1347 2928 1069 2612 
Q 791 2297 791 1659 
z
" id="ArialMT-6f" transform="scale(0.015625)"/>
        <path d="M 422 0 
L 422 3319 
L 928 3319 
L 928 2847 
Q 1294 3394 1984 3394 
Q 2284 3394 2536 3286 
Q 2788 3178 2913 3003 
Q 3038 2828 3088 2588 
Q 3119 2431 3119 2041 
L 3119 0 
L 2556 0 
L 2556 2019 
Q 2556 2363 2490 2533 
Q 2425 2703 2258 2804 
Q 2091 2906 1866 2906 
Q 1506 2906 1245 2678 
Q 984 2450 984 1813 
L 984 0 
L 422 0 
z
" id="ArialMT-6e" transform="scale(0.015625)"/>
       </defs>
       <use xlink:href="#ArialMT-50"/>
       <use x="66.699219" xlink:href="#ArialMT-65"/>
       <use x="122.314453" xlink:href="#ArialMT-61"/>
       <use x="177.929688" xlink:href="#ArialMT-72"/>
       <use x="211.230469" xlink:href="#ArialMT-73"/>
       <use x="261.230469" xlink:href="#ArialMT-6f"/>
       <use x="316.845703" xlink:href="#ArialMT-6e"/>
      </g>
     </g>
    </g>
    <g id="xtick_3">
     <g id="text_3">
      <!-- Spearman -->
      <g style="fill:#262626;" transform="translate(563.211719 870.105078)scale(0.35 -0.35)">
       <defs>
        <path d="M 288 1472 
L 859 1522 
Q 900 1178 1048 958 
Q 1197 738 1509 602 
Q 1822 466 2213 466 
Q 2559 466 2825 569 
Q 3091 672 3220 851 
Q 3350 1031 3350 1244 
Q 3350 1459 3225 1620 
Q 3100 1781 2813 1891 
Q 2628 1963 1997 2114 
Q 1366 2266 1113 2400 
Q 784 2572 623 2826 
Q 463 3081 463 3397 
Q 463 3744 659 4045 
Q 856 4347 1234 4503 
Q 1613 4659 2075 4659 
Q 2584 4659 2973 4495 
Q 3363 4331 3572 4012 
Q 3781 3694 3797 3291 
L 3216 3247 
Q 3169 3681 2898 3903 
Q 2628 4125 2100 4125 
Q 1550 4125 1298 3923 
Q 1047 3722 1047 3438 
Q 1047 3191 1225 3031 
Q 1400 2872 2139 2705 
Q 2878 2538 3153 2413 
Q 3553 2228 3743 1945 
Q 3934 1663 3934 1294 
Q 3934 928 3725 604 
Q 3516 281 3123 101 
Q 2731 -78 2241 -78 
Q 1619 -78 1198 103 
Q 778 284 539 648 
Q 300 1013 288 1472 
z
" id="ArialMT-53" transform="scale(0.015625)"/>
        <path d="M 422 -1272 
L 422 3319 
L 934 3319 
L 934 2888 
Q 1116 3141 1344 3267 
Q 1572 3394 1897 3394 
Q 2322 3394 2647 3175 
Q 2972 2956 3137 2557 
Q 3303 2159 3303 1684 
Q 3303 1175 3120 767 
Q 2938 359 2589 142 
Q 2241 -75 1856 -75 
Q 1575 -75 1351 44 
Q 1128 163 984 344 
L 984 -1272 
L 422 -1272 
z
M 931 1641 
Q 931 1000 1190 694 
Q 1450 388 1819 388 
Q 2194 388 2461 705 
Q 2728 1022 2728 1688 
Q 2728 2322 2467 2637 
Q 2206 2953 1844 2953 
Q 1484 2953 1207 2617 
Q 931 2281 931 1641 
z
" id="ArialMT-70" transform="scale(0.015625)"/>
        <path d="M 422 0 
L 422 3319 
L 925 3319 
L 925 2853 
Q 1081 3097 1340 3245 
Q 1600 3394 1931 3394 
Q 2300 3394 2536 3241 
Q 2772 3088 2869 2813 
Q 3263 3394 3894 3394 
Q 4388 3394 4653 3120 
Q 4919 2847 4919 2278 
L 4919 0 
L 4359 0 
L 4359 2091 
Q 4359 2428 4304 2576 
Q 4250 2725 4106 2815 
Q 3963 2906 3769 2906 
Q 3419 2906 3187 2673 
Q 2956 2441 2956 1928 
L 2956 0 
L 2394 0 
L 2394 2156 
Q 2394 2531 2256 2718 
Q 2119 2906 1806 2906 
Q 1569 2906 1367 2781 
Q 1166 2656 1075 2415 
Q 984 2175 984 1722 
L 984 0 
L 422 0 
z
" id="ArialMT-6d" transform="scale(0.015625)"/>
       </defs>
       <use xlink:href="#ArialMT-53"/>
       <use x="66.699219" xlink:href="#ArialMT-70"/>
       <use x="122.314453" xlink:href="#ArialMT-65"/>
       <use x="177.929688" xlink:href="#ArialMT-61"/>
       <use x="233.544922" xlink:href="#ArialMT-72"/>
       <use x="266.845703" xlink:href="#ArialMT-6d"/>
       <use x="350.146484" xlink:href="#ArialMT-61"/>
       <use x="405.761719" xlink:href="#ArialMT-6e"/>
      </g>
     </g>
    </g>
    <g id="xtick_4">
     <g id="text_4">
      <!-- RMSE -->
      <g style="fill:#262626;" transform="translate(802.635547 869.678516)scale(0.35 -0.35)">
       <defs>
        <path d="M 503 0 
L 503 4581 
L 2534 4581 
Q 3147 4581 3465 4457 
Q 3784 4334 3975 4021 
Q 4166 3709 4166 3331 
Q 4166 2844 3850 2509 
Q 3534 2175 2875 2084 
Q 3116 1969 3241 1856 
Q 3506 1613 3744 1247 
L 4541 0 
L 3778 0 
L 3172 953 
Q 2906 1366 2734 1584 
Q 2563 1803 2427 1890 
Q 2291 1978 2150 2013 
Q 2047 2034 1813 2034 
L 1109 2034 
L 1109 0 
L 503 0 
z
M 1109 2559 
L 2413 2559 
Q 2828 2559 3062 2645 
Q 3297 2731 3419 2920 
Q 3541 3109 3541 3331 
Q 3541 3656 3305 3865 
Q 3069 4075 2559 4075 
L 1109 4075 
L 1109 2559 
z
" id="ArialMT-52" transform="scale(0.015625)"/>
        <path d="M 475 0 
L 475 4581 
L 1388 4581 
L 2472 1338 
Q 2622 884 2691 659 
Q 2769 909 2934 1394 
L 4031 4581 
L 4847 4581 
L 4847 0 
L 4263 0 
L 4263 3834 
L 2931 0 
L 2384 0 
L 1059 3900 
L 1059 0 
L 475 0 
z
" id="ArialMT-4d" transform="scale(0.015625)"/>
        <path d="M 506 0 
L 506 4581 
L 3819 4581 
L 3819 4041 
L 1113 4041 
L 1113 2638 
L 3647 2638 
L 3647 2100 
L 1113 2100 
L 1113 541 
L 3925 541 
L 3925 0 
L 506 0 
z
" id="ArialMT-45" transform="scale(0.015625)"/>
       </defs>
       <use xlink:href="#ArialMT-52"/>
       <use x="72.216797" xlink:href="#ArialMT-4d"/>
       <use x="155.517578" xlink:href="#ArialMT-53"/>
       <use x="222.216797" xlink:href="#ArialMT-45"/>
      </g>
     </g>
    </g>
    <g id="text_5">
     <!-- Metrics -->
     <g style="fill:#262626;" transform="translate(482.936328 906.113672)scale(0.35 -0.35)">
      <defs>
       <path d="M 1650 503 
L 1731 6 
Q 1494 -44 1306 -44 
Q 1000 -44 831 53 
Q 663 150 594 308 
Q 525 466 525 972 
L 525 2881 
L 113 2881 
L 113 3319 
L 525 3319 
L 525 4141 
L 1084 4478 
L 1084 3319 
L 1650 3319 
L 1650 2881 
L 1084 2881 
L 1084 941 
Q 1084 700 1114 631 
Q 1144 563 1211 522 
Q 1278 481 1403 481 
Q 1497 481 1650 503 
z
" id="ArialMT-74" transform="scale(0.015625)"/>
       <path d="M 425 3934 
L 425 4581 
L 988 4581 
L 988 3934 
L 425 3934 
z
M 425 0 
L 425 3319 
L 988 3319 
L 988 0 
L 425 0 
z
" id="ArialMT-69" transform="scale(0.015625)"/>
       <path d="M 2588 1216 
L 3141 1144 
Q 3050 572 2676 248 
Q 2303 -75 1759 -75 
Q 1078 -75 664 370 
Q 250 816 250 1647 
Q 250 2184 428 2587 
Q 606 2991 970 3192 
Q 1334 3394 1763 3394 
Q 2303 3394 2647 3120 
Q 2991 2847 3088 2344 
L 2541 2259 
Q 2463 2594 2264 2762 
Q 2066 2931 1784 2931 
Q 1359 2931 1093 2626 
Q 828 2322 828 1663 
Q 828 994 1084 691 
Q 1341 388 1753 388 
Q 2084 388 2306 591 
Q 2528 794 2588 1216 
z
" id="ArialMT-63" transform="scale(0.015625)"/>
      </defs>
      <use xlink:href="#ArialMT-4d"/>
      <use x="83.300781" xlink:href="#ArialMT-65"/>
      <use x="138.916016" xlink:href="#ArialMT-74"/>
      <use x="166.699219" xlink:href="#ArialMT-72"/>
      <use x="200" xlink:href="#ArialMT-69"/>
      <use x="222.216797" xlink:href="#ArialMT-63"/>
      <use x="272.216797" xlink:href="#ArialMT-73"/>
     </g>
    </g>
   </g>
   <g id="matplotlib.axis_2">
    <g id="ytick_1">
     <g id="line2d_1">
      <defs>
       <path d="M 0 0 
L -6 0 
" id="mf9b51a8acf" style="stroke:#262626;stroke-width:1.25;"/>
      </defs>
      <g>
       <use style="fill:#262626;stroke:#262626;stroke-width:1.25;" x="120.821875" xlink:href="#mf9b51a8acf" y="835.126172"/>
      </g>
     </g>
     <g id="text_6">
      <!-- 0.60 -->
      <g style="fill:#262626;" transform="translate(43.208594 847.652344)scale(0.35 -0.35)">
       <defs>
        <path d="M 266 2259 
Q 266 3072 433 3567 
Q 600 4063 929 4331 
Q 1259 4600 1759 4600 
Q 2128 4600 2406 4451 
Q 2684 4303 2865 4023 
Q 3047 3744 3150 3342 
Q 3253 2941 3253 2259 
Q 3253 1453 3087 958 
Q 2922 463 2592 192 
Q 2263 -78 1759 -78 
Q 1097 -78 719 397 
Q 266 969 266 2259 
z
M 844 2259 
Q 844 1131 1108 757 
Q 1372 384 1759 384 
Q 2147 384 2411 759 
Q 2675 1134 2675 2259 
Q 2675 3391 2411 3762 
Q 2147 4134 1753 4134 
Q 1366 4134 1134 3806 
Q 844 3388 844 2259 
z
" id="ArialMT-30" transform="scale(0.015625)"/>
        <path d="M 581 0 
L 581 641 
L 1222 641 
L 1222 0 
L 581 0 
z
" id="ArialMT-2e" transform="scale(0.015625)"/>
        <path d="M 3184 3459 
L 2625 3416 
Q 2550 3747 2413 3897 
Q 2184 4138 1850 4138 
Q 1581 4138 1378 3988 
Q 1113 3794 959 3422 
Q 806 3050 800 2363 
Q 1003 2672 1297 2822 
Q 1591 2972 1913 2972 
Q 2475 2972 2870 2558 
Q 3266 2144 3266 1488 
Q 3266 1056 3080 686 
Q 2894 316 2569 119 
Q 2244 -78 1831 -78 
Q 1128 -78 684 439 
Q 241 956 241 2144 
Q 241 3472 731 4075 
Q 1159 4600 1884 4600 
Q 2425 4600 2770 4297 
Q 3116 3994 3184 3459 
z
M 888 1484 
Q 888 1194 1011 928 
Q 1134 663 1356 523 
Q 1578 384 1822 384 
Q 2178 384 2434 671 
Q 2691 959 2691 1453 
Q 2691 1928 2437 2201 
Q 2184 2475 1800 2475 
Q 1419 2475 1153 2201 
Q 888 1928 888 1484 
z
" id="ArialMT-36" transform="scale(0.015625)"/>
       </defs>
       <use xlink:href="#ArialMT-30"/>
       <use x="55.615234" xlink:href="#ArialMT-2e"/>
       <use x="83.398438" xlink:href="#ArialMT-36"/>
       <use x="139.013672" xlink:href="#ArialMT-30"/>
      </g>
     </g>
    </g>
    <g id="ytick_2">
     <g id="line2d_2">
      <g>
       <use style="fill:#262626;stroke:#262626;stroke-width:1.25;" x="120.821875" xlink:href="#mf9b51a8acf" y="718.640458"/>
      </g>
     </g>
     <g id="text_7">
      <!-- 0.65 -->
      <g style="fill:#262626;" transform="translate(43.208594 731.166629)scale(0.35 -0.35)">
       <defs>
        <path d="M 266 1200 
L 856 1250 
Q 922 819 1161 601 
Q 1400 384 1738 384 
Q 2144 384 2425 690 
Q 2706 997 2706 1503 
Q 2706 1984 2436 2262 
Q 2166 2541 1728 2541 
Q 1456 2541 1237 2417 
Q 1019 2294 894 2097 
L 366 2166 
L 809 4519 
L 3088 4519 
L 3088 3981 
L 1259 3981 
L 1013 2750 
Q 1425 3038 1878 3038 
Q 2478 3038 2890 2622 
Q 3303 2206 3303 1553 
Q 3303 931 2941 478 
Q 2500 -78 1738 -78 
Q 1113 -78 717 272 
Q 322 622 266 1200 
z
" id="ArialMT-35" transform="scale(0.015625)"/>
       </defs>
       <use xlink:href="#ArialMT-30"/>
       <use x="55.615234" xlink:href="#ArialMT-2e"/>
       <use x="83.398438" xlink:href="#ArialMT-36"/>
       <use x="139.013672" xlink:href="#ArialMT-35"/>
      </g>
     </g>
    </g>
    <g id="ytick_3">
     <g id="line2d_3">
      <g>
       <use style="fill:#262626;stroke:#262626;stroke-width:1.25;" x="120.821875" xlink:href="#mf9b51a8acf" y="602.154743"/>
      </g>
     </g>
     <g id="text_8">
      <!-- 0.70 -->
      <g style="fill:#262626;" transform="translate(43.208594 614.680915)scale(0.35 -0.35)">
       <defs>
        <path d="M 303 3981 
L 303 4522 
L 3269 4522 
L 3269 4084 
Q 2831 3619 2401 2847 
Q 1972 2075 1738 1259 
Q 1569 684 1522 0 
L 944 0 
Q 953 541 1156 1306 
Q 1359 2072 1739 2783 
Q 2119 3494 2547 3981 
L 303 3981 
z
" id="ArialMT-37" transform="scale(0.015625)"/>
       </defs>
       <use xlink:href="#ArialMT-30"/>
       <use x="55.615234" xlink:href="#ArialMT-2e"/>
       <use x="83.398438" xlink:href="#ArialMT-37"/>
       <use x="139.013672" xlink:href="#ArialMT-30"/>
      </g>
     </g>
    </g>
    <g id="ytick_4">
     <g id="line2d_4">
      <g>
       <use style="fill:#262626;stroke:#262626;stroke-width:1.25;" x="120.821875" xlink:href="#mf9b51a8acf" y="485.669029"/>
      </g>
     </g>
     <g id="text_9">
      <!-- 0.75 -->
      <g style="fill:#262626;" transform="translate(43.208594 498.195201)scale(0.35 -0.35)">
       <use xlink:href="#ArialMT-30"/>
       <use x="55.615234" xlink:href="#ArialMT-2e"/>
       <use x="83.398438" xlink:href="#ArialMT-37"/>
       <use x="139.013672" xlink:href="#ArialMT-35"/>
      </g>
     </g>
    </g>
    <g id="ytick_5">
     <g id="line2d_5">
      <g>
       <use style="fill:#262626;stroke:#262626;stroke-width:1.25;" x="120.821875" xlink:href="#mf9b51a8acf" y="369.183315"/>
      </g>
     </g>
     <g id="text_10">
      <!-- 0.80 -->
      <g style="fill:#262626;" transform="translate(43.208594 381.709487)scale(0.35 -0.35)">
       <defs>
        <path d="M 1131 2484 
Q 781 2613 612 2850 
Q 444 3088 444 3419 
Q 444 3919 803 4259 
Q 1163 4600 1759 4600 
Q 2359 4600 2725 4251 
Q 3091 3903 3091 3403 
Q 3091 3084 2923 2848 
Q 2756 2613 2416 2484 
Q 2838 2347 3058 2040 
Q 3278 1734 3278 1309 
Q 3278 722 2862 322 
Q 2447 -78 1769 -78 
Q 1091 -78 675 323 
Q 259 725 259 1325 
Q 259 1772 486 2073 
Q 713 2375 1131 2484 
z
M 1019 3438 
Q 1019 3113 1228 2906 
Q 1438 2700 1772 2700 
Q 2097 2700 2305 2904 
Q 2513 3109 2513 3406 
Q 2513 3716 2298 3927 
Q 2084 4138 1766 4138 
Q 1444 4138 1231 3931 
Q 1019 3725 1019 3438 
z
M 838 1322 
Q 838 1081 952 856 
Q 1066 631 1291 507 
Q 1516 384 1775 384 
Q 2178 384 2440 643 
Q 2703 903 2703 1303 
Q 2703 1709 2433 1975 
Q 2163 2241 1756 2241 
Q 1359 2241 1098 1978 
Q 838 1716 838 1322 
z
" id="ArialMT-38" transform="scale(0.015625)"/>
       </defs>
       <use xlink:href="#ArialMT-30"/>
       <use x="55.615234" xlink:href="#ArialMT-2e"/>
       <use x="83.398438" xlink:href="#ArialMT-38"/>
       <use x="139.013672" xlink:href="#ArialMT-30"/>
      </g>
     </g>
    </g>
    <g id="ytick_6">
     <g id="line2d_6">
      <g>
       <use style="fill:#262626;stroke:#262626;stroke-width:1.25;" x="120.821875" xlink:href="#mf9b51a8acf" y="252.6976"/>
      </g>
     </g>
     <g id="text_11">
      <!-- 0.85 -->
      <g style="fill:#262626;" transform="translate(43.208594 265.223772)scale(0.35 -0.35)">
       <use xlink:href="#ArialMT-30"/>
       <use x="55.615234" xlink:href="#ArialMT-2e"/>
       <use x="83.398438" xlink:href="#ArialMT-38"/>
       <use x="139.013672" xlink:href="#ArialMT-35"/>
      </g>
     </g>
    </g>
    <g id="ytick_7">
     <g id="line2d_7">
      <g>
       <use style="fill:#262626;stroke:#262626;stroke-width:1.25;" x="120.821875" xlink:href="#mf9b51a8acf" y="136.211886"/>
      </g>
     </g>
     <g id="text_12">
      <!-- 0.90 -->
      <g style="fill:#262626;" transform="translate(43.208594 148.738058)scale(0.35 -0.35)">
       <defs>
        <path d="M 350 1059 
L 891 1109 
Q 959 728 1153 556 
Q 1347 384 1650 384 
Q 1909 384 2104 503 
Q 2300 622 2425 820 
Q 2550 1019 2634 1356 
Q 2719 1694 2719 2044 
Q 2719 2081 2716 2156 
Q 2547 1888 2255 1720 
Q 1963 1553 1622 1553 
Q 1053 1553 659 1965 
Q 266 2378 266 3053 
Q 266 3750 677 4175 
Q 1088 4600 1706 4600 
Q 2153 4600 2523 4359 
Q 2894 4119 3086 3673 
Q 3278 3228 3278 2384 
Q 3278 1506 3087 986 
Q 2897 466 2520 194 
Q 2144 -78 1638 -78 
Q 1100 -78 759 220 
Q 419 519 350 1059 
z
M 2653 3081 
Q 2653 3566 2395 3850 
Q 2138 4134 1775 4134 
Q 1400 4134 1122 3828 
Q 844 3522 844 3034 
Q 844 2597 1108 2323 
Q 1372 2050 1759 2050 
Q 2150 2050 2401 2323 
Q 2653 2597 2653 3081 
z
" id="ArialMT-39" transform="scale(0.015625)"/>
       </defs>
       <use xlink:href="#ArialMT-30"/>
       <use x="55.615234" xlink:href="#ArialMT-2e"/>
       <use x="83.398438" xlink:href="#ArialMT-39"/>
       <use x="139.013672" xlink:href="#ArialMT-30"/>
      </g>
     </g>
    </g>
    <g id="ytick_8">
     <g id="line2d_8">
      <g>
       <use style="fill:#262626;stroke:#262626;stroke-width:1.25;" x="120.821875" xlink:href="#mf9b51a8acf" y="19.726172"/>
      </g>
     </g>
     <g id="text_13">
      <!-- 0.95 -->
      <g style="fill:#262626;" transform="translate(43.208594 32.252344)scale(0.35 -0.35)">
       <use xlink:href="#ArialMT-30"/>
       <use x="55.615234" xlink:href="#ArialMT-2e"/>
       <use x="83.398438" xlink:href="#ArialMT-39"/>
       <use x="139.013672" xlink:href="#ArialMT-35"/>
      </g>
     </g>
    </g>
    <g id="text_14">
     <!-- Scores -->
     <g style="fill:#262626;" transform="translate(32.252344 481.889453)rotate(-90)scale(0.35 -0.35)">
      <use xlink:href="#ArialMT-53"/>
      <use x="66.699219" xlink:href="#ArialMT-63"/>
      <use x="116.699219" xlink:href="#ArialMT-6f"/>
      <use x="172.314453" xlink:href="#ArialMT-72"/>
      <use x="205.615234" xlink:href="#ArialMT-65"/>
      <use x="261.230469" xlink:href="#ArialMT-73"/>
     </g>
    </g>
   </g>
   <g id="patch_3">
    <path clip-path="url(#pbca78470a6)" d="M 142.165375 184.277071 
L 183.178375 184.277071 
L 183.178375 150.301017 
L 142.165375 150.301017 
L 142.165375 184.277071 
z
" style="fill:#96cac1;stroke:#6a6a6a;stroke-linejoin:miter;stroke-width:1.5;"/>
   </g>
   <g id="patch_4">
    <path clip-path="url(#pbca78470a6)" d="M 184.015375 178.573707 
L 225.028375 178.573707 
L 225.028375 157.606989 
L 184.015375 157.606989 
L 184.015375 178.573707 
z
" style="fill:#f6f6bc;stroke:#6a6a6a;stroke-linejoin:miter;stroke-width:1.5;"/>
   </g>
   <g id="patch_5">
    <path clip-path="url(#pbca78470a6)" d="M 225.865375 195.523259 
L 266.878375 195.523259 
L 266.878375 164.653183 
L 225.865375 164.653183 
L 225.865375 195.523259 
z
" style="fill:#c1bed6;stroke:#6a6a6a;stroke-linejoin:miter;stroke-width:1.5;"/>
   </g>
   <g id="patch_6">
    <path clip-path="url(#pbca78470a6)" d="M 267.715375 239.264156 
L 308.728375 239.264156 
L 308.728375 220.351439 
L 267.715375 220.351439 
L 267.715375 239.264156 
z
" style="fill:#ea8e83;stroke:#6a6a6a;stroke-linejoin:miter;stroke-width:1.5;"/>
   </g>
   <g id="patch_7">
    <path clip-path="url(#pbca78470a6)" d="M 351.415375 328.529323 
L 392.428375 328.529323 
L 392.428375 286.980311 
L 351.415375 286.980311 
L 351.415375 328.529323 
z
" style="fill:#96cac1;stroke:#6a6a6a;stroke-linejoin:miter;stroke-width:1.5;"/>
   </g>
   <g id="patch_8">
    <path clip-path="url(#pbca78470a6)" d="M 393.265375 337.740209 
L 434.278375 337.740209 
L 434.278375 298.404879 
L 393.265375 298.404879 
L 393.265375 337.740209 
z
" style="fill:#f6f6bc;stroke:#6a6a6a;stroke-linejoin:miter;stroke-width:1.5;"/>
   </g>
   <g id="patch_9">
    <path clip-path="url(#pbca78470a6)" d="M 435.115375 353.935009 
L 476.128375 353.935009 
L 476.128375 298.61508 
L 435.115375 298.61508 
L 435.115375 353.935009 
z
" style="fill:#c1bed6;stroke:#6a6a6a;stroke-linejoin:miter;stroke-width:1.5;"/>
   </g>
   <g id="patch_10">
    <path clip-path="url(#pbca78470a6)" d="M 476.965375 413.658532 
L 517.978375 413.658532 
L 517.978375 373.915509 
L 476.965375 373.915509 
L 476.965375 413.658532 
z
" style="fill:#ea8e83;stroke:#6a6a6a;stroke-linejoin:miter;stroke-width:1.5;"/>
   </g>
   <g id="patch_11">
    <path clip-path="url(#pbca78470a6)" d="M 560.665375 654.024682 
L 601.678375 654.024682 
L 601.678375 606.443544 
L 560.665375 606.443544 
L 560.665375 654.024682 
z
" style="fill:#96cac1;stroke:#6a6a6a;stroke-linejoin:miter;stroke-width:1.5;"/>
   </g>
   <g id="patch_12">
    <path clip-path="url(#pbca78470a6)" d="M 602.515375 663.638059 
L 643.528375 663.638059 
L 643.528375 627.371467 
L 602.515375 627.371467 
L 602.515375 663.638059 
z
" style="fill:#f6f6bc;stroke:#6a6a6a;stroke-linejoin:miter;stroke-width:1.5;"/>
   </g>
   <g id="patch_13">
    <path clip-path="url(#pbca78470a6)" d="M 644.365375 660.48008 
L 685.378375 660.48008 
L 685.378375 632.666104 
L 644.365375 632.666104 
L 644.365375 660.48008 
z
" style="fill:#c1bed6;stroke:#6a6a6a;stroke-linejoin:miter;stroke-width:1.5;"/>
   </g>
   <g id="patch_14">
    <path clip-path="url(#pbca78470a6)" d="M 686.215375 786.43721 
L 727.228375 786.43721 
L 727.228375 728.3847 
L 686.215375 728.3847 
L 686.215375 786.43721 
z
" style="fill:#ea8e83;stroke:#6a6a6a;stroke-linejoin:miter;stroke-width:1.5;"/>
   </g>
   <g id="patch_15">
    <path clip-path="url(#pbca78470a6)" d="M 225.446875 2232.954743 
L 225.446875 2232.954743 
L 225.446875 2232.954743 
L 225.446875 2232.954743 
z
" style="fill:#96cac1;stroke:#6a6a6a;stroke-linejoin:miter;stroke-width:0.75;"/>
   </g>
   <g id="patch_16">
    <path clip-path="url(#pbca78470a6)" d="M 225.446875 2232.954743 
L 225.446875 2232.954743 
L 225.446875 2232.954743 
L 225.446875 2232.954743 
z
" style="fill:#f6f6bc;stroke:#6a6a6a;stroke-linejoin:miter;stroke-width:0.75;"/>
   </g>
   <g id="patch_17">
    <path clip-path="url(#pbca78470a6)" d="M 225.446875 2232.954743 
L 225.446875 2232.954743 
L 225.446875 2232.954743 
L 225.446875 2232.954743 
z
" style="fill:#c1bed6;stroke:#6a6a6a;stroke-linejoin:miter;stroke-width:0.75;"/>
   </g>
   <g id="patch_18">
    <path clip-path="url(#pbca78470a6)" d="M 225.446875 2232.954743 
L 225.446875 2232.954743 
L 225.446875 2232.954743 
L 225.446875 2232.954743 
z
" style="fill:#ea8e83;stroke:#6a6a6a;stroke-linejoin:miter;stroke-width:0.75;"/>
   </g>
   <g id="line2d_9">
    <path clip-path="url(#pbca78470a6)" d="M 162.671875 184.277071 
L 162.671875 227.80784 
" style="fill:none;stroke:#6a6a6a;stroke-linecap:round;stroke-width:1.5;"/>
   </g>
   <g id="line2d_10">
    <path clip-path="url(#pbca78470a6)" d="M 162.671875 150.301017 
L 162.671875 118.814978 
" style="fill:none;stroke:#6a6a6a;stroke-linecap:round;stroke-width:1.5;"/>
   </g>
   <g id="line2d_11">
    <path clip-path="url(#pbca78470a6)" d="M 152.418625 227.80784 
L 172.925125 227.80784 
" style="fill:none;stroke:#6a6a6a;stroke-linecap:round;stroke-width:1.5;"/>
   </g>
   <g id="line2d_12">
    <path clip-path="url(#pbca78470a6)" d="M 152.418625 118.814978 
L 172.925125 118.814978 
" style="fill:none;stroke:#6a6a6a;stroke-linecap:round;stroke-width:1.5;"/>
   </g>
   <g id="line2d_13"/>
   <g id="line2d_14">
    <path clip-path="url(#pbca78470a6)" d="M 204.521875 178.573707 
L 204.521875 186.076453 
" style="fill:none;stroke:#6a6a6a;stroke-linecap:round;stroke-width:1.5;"/>
   </g>
   <g id="line2d_15">
    <path clip-path="url(#pbca78470a6)" d="M 204.521875 157.606989 
L 204.521875 127.143945 
" style="fill:none;stroke:#6a6a6a;stroke-linecap:round;stroke-width:1.5;"/>
   </g>
   <g id="line2d_16">
    <path clip-path="url(#pbca78470a6)" d="M 194.268625 186.076453 
L 214.775125 186.076453 
" style="fill:none;stroke:#6a6a6a;stroke-linecap:round;stroke-width:1.5;"/>
   </g>
   <g id="line2d_17">
    <path clip-path="url(#pbca78470a6)" d="M 194.268625 127.143945 
L 214.775125 127.143945 
" style="fill:none;stroke:#6a6a6a;stroke-linecap:round;stroke-width:1.5;"/>
   </g>
   <g id="line2d_18">
    <defs>
     <path d="M -0 3.535534 
L 2.12132 0 
L -0 -3.535534 
L -2.12132 -0 
z
" id="m3de442ac2c" style="stroke:#6a6a6a;stroke-linejoin:miter;"/>
    </defs>
    <g clip-path="url(#pbca78470a6)">
     <use style="fill:#6a6a6a;stroke:#6a6a6a;stroke-linejoin:miter;" x="204.521875" xlink:href="#m3de442ac2c" y="218.061507"/>
     <use style="fill:#6a6a6a;stroke:#6a6a6a;stroke-linejoin:miter;" x="204.521875" xlink:href="#m3de442ac2c" y="223.645064"/>
     <use style="fill:#6a6a6a;stroke:#6a6a6a;stroke-linejoin:miter;" x="204.521875" xlink:href="#m3de442ac2c" y="122.875344"/>
    </g>
   </g>
   <g id="line2d_19">
    <path clip-path="url(#pbca78470a6)" d="M 246.371875 195.523259 
L 246.371875 208.585877 
" style="fill:none;stroke:#6a6a6a;stroke-linecap:round;stroke-width:1.5;"/>
   </g>
   <g id="line2d_20">
    <path clip-path="url(#pbca78470a6)" d="M 246.371875 164.653183 
L 246.371875 120.230932 
" style="fill:none;stroke:#6a6a6a;stroke-linecap:round;stroke-width:1.5;"/>
   </g>
   <g id="line2d_21">
    <path clip-path="url(#pbca78470a6)" d="M 236.118625 208.585877 
L 256.625125 208.585877 
" style="fill:none;stroke:#6a6a6a;stroke-linecap:round;stroke-width:1.5;"/>
   </g>
   <g id="line2d_22">
    <path clip-path="url(#pbca78470a6)" d="M 236.118625 120.230932 
L 256.625125 120.230932 
" style="fill:none;stroke:#6a6a6a;stroke-linecap:round;stroke-width:1.5;"/>
   </g>
   <g id="line2d_23"/>
   <g id="line2d_24">
    <path clip-path="url(#pbca78470a6)" d="M 288.221875 239.264156 
L 288.221875 261.372114 
" style="fill:none;stroke:#6a6a6a;stroke-linecap:round;stroke-width:1.5;"/>
   </g>
   <g id="line2d_25">
    <path clip-path="url(#pbca78470a6)" d="M 288.221875 220.351439 
L 288.221875 195.452336 
" style="fill:none;stroke:#6a6a6a;stroke-linecap:round;stroke-width:1.5;"/>
   </g>
   <g id="line2d_26">
    <path clip-path="url(#pbca78470a6)" d="M 277.968625 261.372114 
L 298.475125 261.372114 
" style="fill:none;stroke:#6a6a6a;stroke-linecap:round;stroke-width:1.5;"/>
   </g>
   <g id="line2d_27">
    <path clip-path="url(#pbca78470a6)" d="M 277.968625 195.452336 
L 298.475125 195.452336 
" style="fill:none;stroke:#6a6a6a;stroke-linecap:round;stroke-width:1.5;"/>
   </g>
   <g id="line2d_28">
    <g clip-path="url(#pbca78470a6)">
     <use style="fill:#6a6a6a;stroke:#6a6a6a;stroke-linejoin:miter;" x="288.221875" xlink:href="#m3de442ac2c" y="174.818084"/>
    </g>
   </g>
   <g id="line2d_29">
    <path clip-path="url(#pbca78470a6)" d="M 371.921875 328.529323 
L 371.921875 382.73521 
" style="fill:none;stroke:#6a6a6a;stroke-linecap:round;stroke-width:1.5;"/>
   </g>
   <g id="line2d_30">
    <path clip-path="url(#pbca78470a6)" d="M 371.921875 286.980311 
L 371.921875 266.907803 
" style="fill:none;stroke:#6a6a6a;stroke-linecap:round;stroke-width:1.5;"/>
   </g>
   <g id="line2d_31">
    <path clip-path="url(#pbca78470a6)" d="M 361.668625 382.73521 
L 382.175125 382.73521 
" style="fill:none;stroke:#6a6a6a;stroke-linecap:round;stroke-width:1.5;"/>
   </g>
   <g id="line2d_32">
    <path clip-path="url(#pbca78470a6)" d="M 361.668625 266.907803 
L 382.175125 266.907803 
" style="fill:none;stroke:#6a6a6a;stroke-linecap:round;stroke-width:1.5;"/>
   </g>
   <g id="line2d_33"/>
   <g id="line2d_34">
    <path clip-path="url(#pbca78470a6)" d="M 413.771875 337.740209 
L 413.771875 385.025301 
" style="fill:none;stroke:#6a6a6a;stroke-linecap:round;stroke-width:1.5;"/>
   </g>
   <g id="line2d_35">
    <path clip-path="url(#pbca78470a6)" d="M 413.771875 298.404879 
L 413.771875 244.888993 
" style="fill:none;stroke:#6a6a6a;stroke-linecap:round;stroke-width:1.5;"/>
   </g>
   <g id="line2d_36">
    <path clip-path="url(#pbca78470a6)" d="M 403.518625 385.025301 
L 424.025125 385.025301 
" style="fill:none;stroke:#6a6a6a;stroke-linecap:round;stroke-width:1.5;"/>
   </g>
   <g id="line2d_37">
    <path clip-path="url(#pbca78470a6)" d="M 403.518625 244.888993 
L 424.025125 244.888993 
" style="fill:none;stroke:#6a6a6a;stroke-linecap:round;stroke-width:1.5;"/>
   </g>
   <g id="line2d_38"/>
   <g id="line2d_39">
    <path clip-path="url(#pbca78470a6)" d="M 455.621875 353.935009 
L 455.621875 401.679333 
" style="fill:none;stroke:#6a6a6a;stroke-linecap:round;stroke-width:1.5;"/>
   </g>
   <g id="line2d_40">
    <path clip-path="url(#pbca78470a6)" d="M 455.621875 298.61508 
L 455.621875 273.677841 
" style="fill:none;stroke:#6a6a6a;stroke-linecap:round;stroke-width:1.5;"/>
   </g>
   <g id="line2d_41">
    <path clip-path="url(#pbca78470a6)" d="M 445.368625 401.679333 
L 465.875125 401.679333 
" style="fill:none;stroke:#6a6a6a;stroke-linecap:round;stroke-width:1.5;"/>
   </g>
   <g id="line2d_42">
    <path clip-path="url(#pbca78470a6)" d="M 445.368625 273.677841 
L 465.875125 273.677841 
" style="fill:none;stroke:#6a6a6a;stroke-linecap:round;stroke-width:1.5;"/>
   </g>
   <g id="line2d_43"/>
   <g id="line2d_44">
    <path clip-path="url(#pbca78470a6)" d="M 497.471875 413.658532 
L 497.471875 457.493527 
" style="fill:none;stroke:#6a6a6a;stroke-linecap:round;stroke-width:1.5;"/>
   </g>
   <g id="line2d_45">
    <path clip-path="url(#pbca78470a6)" d="M 497.471875 373.915509 
L 497.471875 337.054339 
" style="fill:none;stroke:#6a6a6a;stroke-linecap:round;stroke-width:1.5;"/>
   </g>
   <g id="line2d_46">
    <path clip-path="url(#pbca78470a6)" d="M 487.218625 457.493527 
L 507.725125 457.493527 
" style="fill:none;stroke:#6a6a6a;stroke-linecap:round;stroke-width:1.5;"/>
   </g>
   <g id="line2d_47">
    <path clip-path="url(#pbca78470a6)" d="M 487.218625 337.054339 
L 507.725125 337.054339 
" style="fill:none;stroke:#6a6a6a;stroke-linecap:round;stroke-width:1.5;"/>
   </g>
   <g id="line2d_48">
    <g clip-path="url(#pbca78470a6)">
     <use style="fill:#6a6a6a;stroke:#6a6a6a;stroke-linejoin:miter;" x="497.471875" xlink:href="#m3de442ac2c" y="476.383207"/>
     <use style="fill:#6a6a6a;stroke:#6a6a6a;stroke-linejoin:miter;" x="497.471875" xlink:href="#m3de442ac2c" y="505.330534"/>
     <use style="fill:#6a6a6a;stroke:#6a6a6a;stroke-linejoin:miter;" x="497.471875" xlink:href="#m3de442ac2c" y="299.009871"/>
    </g>
   </g>
   <g id="line2d_49">
    <path clip-path="url(#pbca78470a6)" d="M 581.171875 654.024682 
L 581.171875 693.988835 
" style="fill:none;stroke:#6a6a6a;stroke-linecap:round;stroke-width:1.5;"/>
   </g>
   <g id="line2d_50">
    <path clip-path="url(#pbca78470a6)" d="M 581.171875 606.443544 
L 581.171875 580.048401 
" style="fill:none;stroke:#6a6a6a;stroke-linecap:round;stroke-width:1.5;"/>
   </g>
   <g id="line2d_51">
    <path clip-path="url(#pbca78470a6)" d="M 570.918625 693.988835 
L 591.425125 693.988835 
" style="fill:none;stroke:#6a6a6a;stroke-linecap:round;stroke-width:1.5;"/>
   </g>
   <g id="line2d_52">
    <path clip-path="url(#pbca78470a6)" d="M 570.918625 580.048401 
L 591.425125 580.048401 
" style="fill:none;stroke:#6a6a6a;stroke-linecap:round;stroke-width:1.5;"/>
   </g>
   <g id="line2d_53"/>
   <g id="line2d_54">
    <path clip-path="url(#pbca78470a6)" d="M 623.021875 663.638059 
L 623.021875 703.538936 
" style="fill:none;stroke:#6a6a6a;stroke-linecap:round;stroke-width:1.5;"/>
   </g>
   <g id="line2d_55">
    <path clip-path="url(#pbca78470a6)" d="M 623.021875 627.371467 
L 623.021875 591.10162 
" style="fill:none;stroke:#6a6a6a;stroke-linecap:round;stroke-width:1.5;"/>
   </g>
   <g id="line2d_56">
    <path clip-path="url(#pbca78470a6)" d="M 612.768625 703.538936 
L 633.275125 703.538936 
" style="fill:none;stroke:#6a6a6a;stroke-linecap:round;stroke-width:1.5;"/>
   </g>
   <g id="line2d_57">
    <path clip-path="url(#pbca78470a6)" d="M 612.768625 591.10162 
L 633.275125 591.10162 
" style="fill:none;stroke:#6a6a6a;stroke-linecap:round;stroke-width:1.5;"/>
   </g>
   <g id="line2d_58">
    <g clip-path="url(#pbca78470a6)">
     <use style="fill:#6a6a6a;stroke:#6a6a6a;stroke-linejoin:miter;" x="623.021875" xlink:href="#m3de442ac2c" y="719.426129"/>
    </g>
   </g>
   <g id="line2d_59">
    <path clip-path="url(#pbca78470a6)" d="M 664.871875 660.48008 
L 664.871875 702.107253 
" style="fill:none;stroke:#6a6a6a;stroke-linecap:round;stroke-width:1.5;"/>
   </g>
   <g id="line2d_60">
    <path clip-path="url(#pbca78470a6)" d="M 664.871875 632.666104 
L 664.871875 603.915524 
" style="fill:none;stroke:#6a6a6a;stroke-linecap:round;stroke-width:1.5;"/>
   </g>
   <g id="line2d_61">
    <path clip-path="url(#pbca78470a6)" d="M 654.618625 702.107253 
L 675.125125 702.107253 
" style="fill:none;stroke:#6a6a6a;stroke-linecap:round;stroke-width:1.5;"/>
   </g>
   <g id="line2d_62">
    <path clip-path="url(#pbca78470a6)" d="M 654.618625 603.915524 
L 675.125125 603.915524 
" style="fill:none;stroke:#6a6a6a;stroke-linecap:round;stroke-width:1.5;"/>
   </g>
   <g id="line2d_63">
    <g clip-path="url(#pbca78470a6)">
     <use style="fill:#6a6a6a;stroke:#6a6a6a;stroke-linejoin:miter;" x="664.871875" xlink:href="#m3de442ac2c" y="707.037334"/>
     <use style="fill:#6a6a6a;stroke:#6a6a6a;stroke-linejoin:miter;" x="664.871875" xlink:href="#m3de442ac2c" y="716.387805"/>
     <use style="fill:#6a6a6a;stroke:#6a6a6a;stroke-linejoin:miter;" x="664.871875" xlink:href="#m3de442ac2c" y="746.971676"/>
     <use style="fill:#6a6a6a;stroke:#6a6a6a;stroke-linejoin:miter;" x="664.871875" xlink:href="#m3de442ac2c" y="575.500535"/>
    </g>
   </g>
   <g id="line2d_64">
    <path clip-path="url(#pbca78470a6)" d="M 706.721875 786.43721 
L 706.721875 831.678728 
" style="fill:none;stroke:#6a6a6a;stroke-linecap:round;stroke-width:1.5;"/>
   </g>
   <g id="line2d_65">
    <path clip-path="url(#pbca78470a6)" d="M 706.721875 728.3847 
L 706.721875 676.267158 
" style="fill:none;stroke:#6a6a6a;stroke-linecap:round;stroke-width:1.5;"/>
   </g>
   <g id="line2d_66">
    <path clip-path="url(#pbca78470a6)" d="M 696.468625 831.678728 
L 716.975125 831.678728 
" style="fill:none;stroke:#6a6a6a;stroke-linecap:round;stroke-width:1.5;"/>
   </g>
   <g id="line2d_67">
    <path clip-path="url(#pbca78470a6)" d="M 696.468625 676.267158 
L 716.975125 676.267158 
" style="fill:none;stroke:#6a6a6a;stroke-linecap:round;stroke-width:1.5;"/>
   </g>
   <g id="line2d_68"/>
   <g id="line2d_69">
    <path clip-path="url(#pbca78470a6)" d="M 330.071875 835.126172 
L 330.071875 19.726172 
" style="fill:none;stroke:#000000;stroke-dasharray:7.4,3.2;stroke-dashoffset:0;stroke-width:2;"/>
   </g>
   <g id="line2d_70">
    <path clip-path="url(#pbca78470a6)" d="M 539.321875 835.126172 
L 539.321875 19.726172 
" style="fill:none;stroke:#000000;stroke-dasharray:7.4,3.2;stroke-dashoffset:0;stroke-width:2;"/>
   </g>
   <g id="line2d_71">
    <path clip-path="url(#pbca78470a6)" d="M 748.571875 835.126172 
L 748.571875 19.726172 
" style="fill:none;stroke:#000000;stroke-dasharray:7.4,3.2;stroke-dashoffset:0;stroke-width:2;"/>
   </g>
   <g id="line2d_72">
    <path clip-path="url(#pbca78470a6)" d="M 753.803125 835.126172 
L 753.803125 19.726172 
" style="fill:none;stroke:#000000;stroke-dasharray:7.4,3.2;stroke-dashoffset:0;stroke-width:2;"/>
   </g>
   <g id="line2d_73">
    <path clip-path="url(#pbca78470a6)" d="M 142.165375 164.511279 
L 183.178375 164.511279 
" style="fill:none;stroke:#6a6a6a;stroke-linecap:round;stroke-width:1.5;"/>
   </g>
   <g id="line2d_74">
    <path clip-path="url(#pbca78470a6)" d="M 184.015375 170.89852 
L 225.028375 170.89852 
" style="fill:none;stroke:#6a6a6a;stroke-linecap:round;stroke-width:1.5;"/>
   </g>
   <g id="line2d_75">
    <path clip-path="url(#pbca78470a6)" d="M 225.865375 174.459139 
L 266.878375 174.459139 
" style="fill:none;stroke:#6a6a6a;stroke-linecap:round;stroke-width:1.5;"/>
   </g>
   <g id="line2d_76">
    <path clip-path="url(#pbca78470a6)" d="M 267.715375 226.947416 
L 308.728375 226.947416 
" style="fill:none;stroke:#6a6a6a;stroke-linecap:round;stroke-width:1.5;"/>
   </g>
   <g id="line2d_77">
    <path clip-path="url(#pbca78470a6)" d="M 351.415375 310.329259 
L 392.428375 310.329259 
" style="fill:none;stroke:#6a6a6a;stroke-linecap:round;stroke-width:1.5;"/>
   </g>
   <g id="line2d_78">
    <path clip-path="url(#pbca78470a6)" d="M 393.265375 321.836143 
L 434.278375 321.836143 
" style="fill:none;stroke:#6a6a6a;stroke-linecap:round;stroke-width:1.5;"/>
   </g>
   <g id="line2d_79">
    <path clip-path="url(#pbca78470a6)" d="M 435.115375 321.451365 
L 476.128375 321.451365 
" style="fill:none;stroke:#6a6a6a;stroke-linecap:round;stroke-width:1.5;"/>
   </g>
   <g id="line2d_80">
    <path clip-path="url(#pbca78470a6)" d="M 476.965375 387.779221 
L 517.978375 387.779221 
" style="fill:none;stroke:#6a6a6a;stroke-linecap:round;stroke-width:1.5;"/>
   </g>
   <g id="line2d_81">
    <path clip-path="url(#pbca78470a6)" d="M 560.665375 636.666886 
L 601.678375 636.666886 
" style="fill:none;stroke:#6a6a6a;stroke-linecap:round;stroke-width:1.5;"/>
   </g>
   <g id="line2d_82">
    <path clip-path="url(#pbca78470a6)" d="M 602.515375 645.628861 
L 643.528375 645.628861 
" style="fill:none;stroke:#6a6a6a;stroke-linecap:round;stroke-width:1.5;"/>
   </g>
   <g id="line2d_83">
    <path clip-path="url(#pbca78470a6)" d="M 644.365375 645.784652 
L 685.378375 645.784652 
" style="fill:none;stroke:#6a6a6a;stroke-linecap:round;stroke-width:1.5;"/>
   </g>
   <g id="line2d_84">
    <path clip-path="url(#pbca78470a6)" d="M 686.215375 747.130319 
L 727.228375 747.130319 
" style="fill:none;stroke:#6a6a6a;stroke-linecap:round;stroke-width:1.5;"/>
   </g>
   <g id="patch_19">
    <path d="M 120.821875 835.126172 
L 120.821875 19.726172 
" style="fill:none;stroke:#262626;stroke-linecap:square;stroke-linejoin:miter;stroke-width:1.25;"/>
   </g>
   <g id="patch_20">
    <path d="M 957.821875 835.126172 
L 957.821875 19.726172 
" style="fill:none;stroke:#262626;stroke-linecap:square;stroke-linejoin:miter;stroke-width:1.25;"/>
   </g>
   <g id="patch_21">
    <path d="M 120.821875 835.126172 
L 957.821875 835.126172 
" style="fill:none;stroke:#262626;stroke-linecap:square;stroke-linejoin:miter;stroke-width:1.25;"/>
   </g>
   <g id="patch_22">
    <path d="M 120.821875 19.726172 
L 957.821875 19.726172 
" style="fill:none;stroke:#262626;stroke-linecap:square;stroke-linejoin:miter;stroke-width:1.25;"/>
   </g>
   <g id="legend_1">
    <g id="patch_23">
     <path d="M 141.821875 820.126172 
L 379.595312 820.126172 
Q 385.595312 820.126172 385.595312 814.126172 
L 385.595312 647.016797 
Q 385.595312 641.016797 379.595312 641.016797 
L 141.821875 641.016797 
Q 135.821875 641.016797 135.821875 647.016797 
L 135.821875 814.126172 
Q 135.821875 820.126172 141.821875 820.126172 
z
" style="fill:#ffffff;opacity:0.8;stroke:#cccccc;stroke-linejoin:miter;"/>
    </g>
    <g id="patch_24">
     <path d="M 147.821875 674.490234 
L 207.821875 674.490234 
L 207.821875 653.490234 
L 147.821875 653.490234 
z
" style="fill:#96cac1;stroke:#6a6a6a;stroke-linejoin:miter;stroke-width:0.75;"/>
    </g>
    <g id="text_15">
     <!-- Pconsc4 -->
     <g style="fill:#262626;" transform="translate(231.821875 674.490234)scale(0.3 -0.3)">
      <defs>
       <path d="M 2069 0 
L 2069 1097 
L 81 1097 
L 81 1613 
L 2172 4581 
L 2631 4581 
L 2631 1613 
L 3250 1613 
L 3250 1097 
L 2631 1097 
L 2631 0 
L 2069 0 
z
M 2069 1613 
L 2069 3678 
L 634 1613 
L 2069 1613 
z
" id="ArialMT-34" transform="scale(0.015625)"/>
      </defs>
      <use xlink:href="#ArialMT-50"/>
      <use x="66.699219" xlink:href="#ArialMT-63"/>
      <use x="116.699219" xlink:href="#ArialMT-6f"/>
      <use x="172.314453" xlink:href="#ArialMT-6e"/>
      <use x="227.929688" xlink:href="#ArialMT-73"/>
      <use x="277.929688" xlink:href="#ArialMT-63"/>
      <use x="327.929688" xlink:href="#ArialMT-34"/>
     </g>
    </g>
    <g id="patch_25">
     <path d="M 147.821875 716.926172 
L 207.821875 716.926172 
L 207.821875 695.926172 
L 147.821875 695.926172 
z
" style="fill:#f6f6bc;stroke:#6a6a6a;stroke-linejoin:miter;stroke-width:0.75;"/>
    </g>
    <g id="text_16">
     <!-- ESM -->
     <g style="fill:#262626;" transform="translate(231.821875 716.926172)scale(0.3 -0.3)">
      <use xlink:href="#ArialMT-45"/>
      <use x="66.699219" xlink:href="#ArialMT-53"/>
      <use x="133.398438" xlink:href="#ArialMT-4d"/>
     </g>
    </g>
    <g id="patch_26">
     <path d="M 147.821875 759.727734 
L 207.821875 759.727734 
L 207.821875 738.727734 
L 147.821875 738.727734 
z
" style="fill:#c1bed6;stroke:#6a6a6a;stroke-linejoin:miter;stroke-width:0.75;"/>
    </g>
    <g id="text_17">
     <!-- Alphafold2 -->
     <g style="fill:#262626;" transform="translate(231.821875 759.727734)scale(0.3 -0.3)">
      <defs>
       <path d="M -9 0 
L 1750 4581 
L 2403 4581 
L 4278 0 
L 3588 0 
L 3053 1388 
L 1138 1388 
L 634 0 
L -9 0 
z
M 1313 1881 
L 2866 1881 
L 2388 3150 
Q 2169 3728 2063 4100 
Q 1975 3659 1816 3225 
L 1313 1881 
z
" id="ArialMT-41" transform="scale(0.015625)"/>
       <path d="M 409 0 
L 409 4581 
L 972 4581 
L 972 0 
L 409 0 
z
" id="ArialMT-6c" transform="scale(0.015625)"/>
       <path d="M 422 0 
L 422 4581 
L 984 4581 
L 984 2938 
Q 1378 3394 1978 3394 
Q 2347 3394 2619 3248 
Q 2891 3103 3008 2847 
Q 3125 2591 3125 2103 
L 3125 0 
L 2563 0 
L 2563 2103 
Q 2563 2525 2380 2717 
Q 2197 2909 1863 2909 
Q 1613 2909 1392 2779 
Q 1172 2650 1078 2428 
Q 984 2206 984 1816 
L 984 0 
L 422 0 
z
" id="ArialMT-68" transform="scale(0.015625)"/>
       <path d="M 556 0 
L 556 2881 
L 59 2881 
L 59 3319 
L 556 3319 
L 556 3672 
Q 556 4006 616 4169 
Q 697 4388 901 4523 
Q 1106 4659 1475 4659 
Q 1713 4659 2000 4603 
L 1916 4113 
Q 1741 4144 1584 4144 
Q 1328 4144 1222 4034 
Q 1116 3925 1116 3625 
L 1116 3319 
L 1763 3319 
L 1763 2881 
L 1116 2881 
L 1116 0 
L 556 0 
z
" id="ArialMT-66" transform="scale(0.015625)"/>
       <path d="M 2575 0 
L 2575 419 
Q 2259 -75 1647 -75 
Q 1250 -75 917 144 
Q 584 363 401 755 
Q 219 1147 219 1656 
Q 219 2153 384 2558 
Q 550 2963 881 3178 
Q 1213 3394 1622 3394 
Q 1922 3394 2156 3267 
Q 2391 3141 2538 2938 
L 2538 4581 
L 3097 4581 
L 3097 0 
L 2575 0 
z
M 797 1656 
Q 797 1019 1065 703 
Q 1334 388 1700 388 
Q 2069 388 2326 689 
Q 2584 991 2584 1609 
Q 2584 2291 2321 2609 
Q 2059 2928 1675 2928 
Q 1300 2928 1048 2622 
Q 797 2316 797 1656 
z
" id="ArialMT-64" transform="scale(0.015625)"/>
       <path d="M 3222 541 
L 3222 0 
L 194 0 
Q 188 203 259 391 
Q 375 700 629 1000 
Q 884 1300 1366 1694 
Q 2113 2306 2375 2664 
Q 2638 3022 2638 3341 
Q 2638 3675 2398 3904 
Q 2159 4134 1775 4134 
Q 1369 4134 1125 3890 
Q 881 3647 878 3216 
L 300 3275 
Q 359 3922 746 4261 
Q 1134 4600 1788 4600 
Q 2447 4600 2831 4234 
Q 3216 3869 3216 3328 
Q 3216 3053 3103 2787 
Q 2991 2522 2730 2228 
Q 2469 1934 1863 1422 
Q 1356 997 1212 845 
Q 1069 694 975 541 
L 3222 541 
z
" id="ArialMT-32" transform="scale(0.015625)"/>
      </defs>
      <use xlink:href="#ArialMT-41"/>
      <use x="66.699219" xlink:href="#ArialMT-6c"/>
      <use x="88.916016" xlink:href="#ArialMT-70"/>
      <use x="144.53125" xlink:href="#ArialMT-68"/>
      <use x="200.146484" xlink:href="#ArialMT-61"/>
      <use x="255.761719" xlink:href="#ArialMT-66"/>
      <use x="283.544922" xlink:href="#ArialMT-6f"/>
      <use x="339.160156" xlink:href="#ArialMT-6c"/>
      <use x="361.376953" xlink:href="#ArialMT-64"/>
      <use x="416.992188" xlink:href="#ArialMT-32"/>
     </g>
    </g>
    <g id="patch_27">
     <path d="M 147.821875 802.163672 
L 207.821875 802.163672 
L 207.821875 781.163672 
L 147.821875 781.163672 
z
" style="fill:#ea8e83;stroke:#6a6a6a;stroke-linejoin:miter;stroke-width:0.75;"/>
    </g>
    <g id="text_18">
     <!-- Random -->
     <g style="fill:#262626;" transform="translate(231.821875 802.163672)scale(0.3 -0.3)">
      <use xlink:href="#ArialMT-52"/>
      <use x="72.216797" xlink:href="#ArialMT-61"/>
      <use x="127.832031" xlink:href="#ArialMT-6e"/>
      <use x="183.447266" xlink:href="#ArialMT-64"/>
      <use x="239.0625" xlink:href="#ArialMT-6f"/>
      <use x="294.677734" xlink:href="#ArialMT-6d"/>
     </g>
    </g>
   </g>
  </g>
  <g id="axes_2">
   <g id="matplotlib.axis_3">
    <g id="ytick_9">
     <g id="line2d_85">
      <defs>
       <path d="M 0 0 
L 6 0 
" id="ma0525ead29" style="stroke:#262626;stroke-width:1.25;"/>
      </defs>
      <g>
       <use style="fill:#262626;stroke:#262626;stroke-width:1.25;" x="957.821875" xlink:href="#ma0525ead29" y="835.126172"/>
      </g>
     </g>
     <g id="text_19">
      <!-- 0.30 -->
      <g style="fill:#262626;" transform="translate(967.321875 847.652344)scale(0.35 -0.35)">
       <defs>
        <path d="M 269 1209 
L 831 1284 
Q 928 806 1161 595 
Q 1394 384 1728 384 
Q 2125 384 2398 659 
Q 2672 934 2672 1341 
Q 2672 1728 2419 1979 
Q 2166 2231 1775 2231 
Q 1616 2231 1378 2169 
L 1441 2663 
Q 1497 2656 1531 2656 
Q 1891 2656 2178 2843 
Q 2466 3031 2466 3422 
Q 2466 3731 2256 3934 
Q 2047 4138 1716 4138 
Q 1388 4138 1169 3931 
Q 950 3725 888 3313 
L 325 3413 
Q 428 3978 793 4289 
Q 1159 4600 1703 4600 
Q 2078 4600 2393 4439 
Q 2709 4278 2876 4000 
Q 3044 3722 3044 3409 
Q 3044 3113 2884 2869 
Q 2725 2625 2413 2481 
Q 2819 2388 3044 2092 
Q 3269 1797 3269 1353 
Q 3269 753 2831 336 
Q 2394 -81 1725 -81 
Q 1122 -81 723 278 
Q 325 638 269 1209 
z
" id="ArialMT-33" transform="scale(0.015625)"/>
       </defs>
       <use xlink:href="#ArialMT-30"/>
       <use x="55.615234" xlink:href="#ArialMT-2e"/>
       <use x="83.398438" xlink:href="#ArialMT-33"/>
       <use x="139.013672" xlink:href="#ArialMT-30"/>
      </g>
     </g>
    </g>
    <g id="ytick_10">
     <g id="line2d_86">
      <g>
       <use style="fill:#262626;stroke:#262626;stroke-width:1.25;" x="957.821875" xlink:href="#ma0525ead29" y="718.640458"/>
      </g>
     </g>
     <g id="text_20">
      <!-- 0.35 -->
      <g style="fill:#262626;" transform="translate(967.321875 731.166629)scale(0.35 -0.35)">
       <use xlink:href="#ArialMT-30"/>
       <use x="55.615234" xlink:href="#ArialMT-2e"/>
       <use x="83.398438" xlink:href="#ArialMT-33"/>
       <use x="139.013672" xlink:href="#ArialMT-35"/>
      </g>
     </g>
    </g>
    <g id="ytick_11">
     <g id="line2d_87">
      <g>
       <use style="fill:#262626;stroke:#262626;stroke-width:1.25;" x="957.821875" xlink:href="#ma0525ead29" y="602.154743"/>
      </g>
     </g>
     <g id="text_21">
      <!-- 0.40 -->
      <g style="fill:#262626;" transform="translate(967.321875 614.680915)scale(0.35 -0.35)">
       <use xlink:href="#ArialMT-30"/>
       <use x="55.615234" xlink:href="#ArialMT-2e"/>
       <use x="83.398438" xlink:href="#ArialMT-34"/>
       <use x="139.013672" xlink:href="#ArialMT-30"/>
      </g>
     </g>
    </g>
    <g id="ytick_12">
     <g id="line2d_88">
      <g>
       <use style="fill:#262626;stroke:#262626;stroke-width:1.25;" x="957.821875" xlink:href="#ma0525ead29" y="485.669029"/>
      </g>
     </g>
     <g id="text_22">
      <!-- 0.45 -->
      <g style="fill:#262626;" transform="translate(967.321875 498.195201)scale(0.35 -0.35)">
       <use xlink:href="#ArialMT-30"/>
       <use x="55.615234" xlink:href="#ArialMT-2e"/>
       <use x="83.398438" xlink:href="#ArialMT-34"/>
       <use x="139.013672" xlink:href="#ArialMT-35"/>
      </g>
     </g>
    </g>
    <g id="ytick_13">
     <g id="line2d_89">
      <g>
       <use style="fill:#262626;stroke:#262626;stroke-width:1.25;" x="957.821875" xlink:href="#ma0525ead29" y="369.183315"/>
      </g>
     </g>
     <g id="text_23">
      <!-- 0.50 -->
      <g style="fill:#262626;" transform="translate(967.321875 381.709487)scale(0.35 -0.35)">
       <use xlink:href="#ArialMT-30"/>
       <use x="55.615234" xlink:href="#ArialMT-2e"/>
       <use x="83.398438" xlink:href="#ArialMT-35"/>
       <use x="139.013672" xlink:href="#ArialMT-30"/>
      </g>
     </g>
    </g>
    <g id="ytick_14">
     <g id="line2d_90">
      <g>
       <use style="fill:#262626;stroke:#262626;stroke-width:1.25;" x="957.821875" xlink:href="#ma0525ead29" y="252.6976"/>
      </g>
     </g>
     <g id="text_24">
      <!-- 0.55 -->
      <g style="fill:#262626;" transform="translate(967.321875 265.223772)scale(0.35 -0.35)">
       <use xlink:href="#ArialMT-30"/>
       <use x="55.615234" xlink:href="#ArialMT-2e"/>
       <use x="83.398438" xlink:href="#ArialMT-35"/>
       <use x="139.013672" xlink:href="#ArialMT-35"/>
      </g>
     </g>
    </g>
    <g id="ytick_15">
     <g id="line2d_91">
      <g>
       <use style="fill:#262626;stroke:#262626;stroke-width:1.25;" x="957.821875" xlink:href="#ma0525ead29" y="136.211886"/>
      </g>
     </g>
     <g id="text_25">
      <!-- 0.60 -->
      <g style="fill:#262626;" transform="translate(967.321875 148.738058)scale(0.35 -0.35)">
       <use xlink:href="#ArialMT-30"/>
       <use x="55.615234" xlink:href="#ArialMT-2e"/>
       <use x="83.398438" xlink:href="#ArialMT-36"/>
       <use x="139.013672" xlink:href="#ArialMT-30"/>
      </g>
     </g>
    </g>
    <g id="ytick_16">
     <g id="line2d_92">
      <g>
       <use style="fill:#262626;stroke:#262626;stroke-width:1.25;" x="957.821875" xlink:href="#ma0525ead29" y="19.726172"/>
      </g>
     </g>
     <g id="text_26">
      <!-- 0.65 -->
      <g style="fill:#262626;" transform="translate(967.321875 32.252344)scale(0.35 -0.35)">
       <use xlink:href="#ArialMT-30"/>
       <use x="55.615234" xlink:href="#ArialMT-2e"/>
       <use x="83.398438" xlink:href="#ArialMT-36"/>
       <use x="139.013672" xlink:href="#ArialMT-35"/>
      </g>
     </g>
    </g>
   </g>
   <g id="patch_28">
    <path clip-path="url(#pbca78470a6)" d="M 769.915375 464.645478 
L 810.928375 464.645478 
L 810.928375 383.746622 
L 769.915375 383.746622 
L 769.915375 464.645478 
z
" style="fill:#96cac1;stroke:#6a6a6a;stroke-linejoin:miter;stroke-width:1.5;"/>
   </g>
   <g id="patch_29">
    <path clip-path="url(#pbca78470a6)" d="M 811.765375 461.837154 
L 852.778375 461.837154 
L 852.778375 394.375841 
L 811.765375 394.375841 
L 811.765375 461.837154 
z
" style="fill:#f6f6bc;stroke:#6a6a6a;stroke-linejoin:miter;stroke-width:1.5;"/>
   </g>
   <g id="patch_30">
    <path clip-path="url(#pbca78470a6)" d="M 853.615375 429.939169 
L 894.628375 429.939169 
L 894.628375 356.766179 
L 853.615375 356.766179 
L 853.615375 429.939169 
z
" style="fill:#c1bed6;stroke:#6a6a6a;stroke-linejoin:miter;stroke-width:1.5;"/>
   </g>
   <g id="patch_31">
    <path clip-path="url(#pbca78470a6)" d="M 895.465375 371.772618 
L 936.478375 371.772618 
L 936.478375 304.303426 
L 895.465375 304.303426 
L 895.465375 371.772618 
z
" style="fill:#ea8e83;stroke:#6a6a6a;stroke-linejoin:miter;stroke-width:1.5;"/>
   </g>
   <g id="patch_32">
    <path clip-path="url(#pbca78470a6)" d="M 225.446875 1534.040458 
L 225.446875 1534.040458 
L 225.446875 1534.040458 
L 225.446875 1534.040458 
z
" style="fill:#96cac1;stroke:#6a6a6a;stroke-linejoin:miter;stroke-width:0.75;"/>
   </g>
   <g id="patch_33">
    <path clip-path="url(#pbca78470a6)" d="M 225.446875 1534.040458 
L 225.446875 1534.040458 
L 225.446875 1534.040458 
L 225.446875 1534.040458 
z
" style="fill:#f6f6bc;stroke:#6a6a6a;stroke-linejoin:miter;stroke-width:0.75;"/>
   </g>
   <g id="patch_34">
    <path clip-path="url(#pbca78470a6)" d="M 225.446875 1534.040458 
L 225.446875 1534.040458 
L 225.446875 1534.040458 
L 225.446875 1534.040458 
z
" style="fill:#c1bed6;stroke:#6a6a6a;stroke-linejoin:miter;stroke-width:0.75;"/>
   </g>
   <g id="patch_35">
    <path clip-path="url(#pbca78470a6)" d="M 225.446875 1534.040458 
L 225.446875 1534.040458 
L 225.446875 1534.040458 
L 225.446875 1534.040458 
z
" style="fill:#ea8e83;stroke:#6a6a6a;stroke-linejoin:miter;stroke-width:0.75;"/>
   </g>
   <g id="line2d_93">
    <path clip-path="url(#pbca78470a6)" d="M 790.421875 464.645478 
L 790.421875 522.161112 
" style="fill:none;stroke:#6a6a6a;stroke-linecap:round;stroke-width:1.5;"/>
   </g>
   <g id="line2d_94">
    <path clip-path="url(#pbca78470a6)" d="M 790.421875 383.746622 
L 790.421875 306.077095 
" style="fill:none;stroke:#6a6a6a;stroke-linecap:round;stroke-width:1.5;"/>
   </g>
   <g id="line2d_95">
    <path clip-path="url(#pbca78470a6)" d="M 780.168625 522.161112 
L 800.675125 522.161112 
" style="fill:none;stroke:#6a6a6a;stroke-linecap:round;stroke-width:1.5;"/>
   </g>
   <g id="line2d_96">
    <path clip-path="url(#pbca78470a6)" d="M 780.168625 306.077095 
L 800.675125 306.077095 
" style="fill:none;stroke:#6a6a6a;stroke-linecap:round;stroke-width:1.5;"/>
   </g>
   <g id="line2d_97"/>
   <g id="line2d_98">
    <path clip-path="url(#pbca78470a6)" d="M 832.271875 461.837154 
L 832.271875 518.533712 
" style="fill:none;stroke:#6a6a6a;stroke-linecap:round;stroke-width:1.5;"/>
   </g>
   <g id="line2d_99">
    <path clip-path="url(#pbca78470a6)" d="M 832.271875 394.375841 
L 832.271875 353.465348 
" style="fill:none;stroke:#6a6a6a;stroke-linecap:round;stroke-width:1.5;"/>
   </g>
   <g id="line2d_100">
    <path clip-path="url(#pbca78470a6)" d="M 822.018625 518.533712 
L 842.525125 518.533712 
" style="fill:none;stroke:#6a6a6a;stroke-linecap:round;stroke-width:1.5;"/>
   </g>
   <g id="line2d_101">
    <path clip-path="url(#pbca78470a6)" d="M 822.018625 353.465348 
L 842.525125 353.465348 
" style="fill:none;stroke:#6a6a6a;stroke-linecap:round;stroke-width:1.5;"/>
   </g>
   <g id="line2d_102"/>
   <g id="line2d_103">
    <path clip-path="url(#pbca78470a6)" d="M 874.121875 429.939169 
L 874.121875 489.580549 
" style="fill:none;stroke:#6a6a6a;stroke-linecap:round;stroke-width:1.5;"/>
   </g>
   <g id="line2d_104">
    <path clip-path="url(#pbca78470a6)" d="M 874.121875 356.766179 
L 874.121875 304.757859 
" style="fill:none;stroke:#6a6a6a;stroke-linecap:round;stroke-width:1.5;"/>
   </g>
   <g id="line2d_105">
    <path clip-path="url(#pbca78470a6)" d="M 863.868625 489.580549 
L 884.375125 489.580549 
" style="fill:none;stroke:#6a6a6a;stroke-linecap:round;stroke-width:1.5;"/>
   </g>
   <g id="line2d_106">
    <path clip-path="url(#pbca78470a6)" d="M 863.868625 304.757859 
L 884.375125 304.757859 
" style="fill:none;stroke:#6a6a6a;stroke-linecap:round;stroke-width:1.5;"/>
   </g>
   <g id="line2d_107"/>
   <g id="line2d_108">
    <path clip-path="url(#pbca78470a6)" d="M 915.971875 371.772618 
L 915.971875 446.335775 
" style="fill:none;stroke:#6a6a6a;stroke-linecap:round;stroke-width:1.5;"/>
   </g>
   <g id="line2d_109">
    <path clip-path="url(#pbca78470a6)" d="M 915.971875 304.303426 
L 915.971875 246.229477 
" style="fill:none;stroke:#6a6a6a;stroke-linecap:round;stroke-width:1.5;"/>
   </g>
   <g id="line2d_110">
    <path clip-path="url(#pbca78470a6)" d="M 905.718625 446.335775 
L 926.225125 446.335775 
" style="fill:none;stroke:#6a6a6a;stroke-linecap:round;stroke-width:1.5;"/>
   </g>
   <g id="line2d_111">
    <path clip-path="url(#pbca78470a6)" d="M 905.718625 246.229477 
L 926.225125 246.229477 
" style="fill:none;stroke:#6a6a6a;stroke-linecap:round;stroke-width:1.5;"/>
   </g>
   <g id="line2d_112"/>
   <g id="line2d_113">
    <path clip-path="url(#pbca78470a6)" d="M 769.915375 422.884627 
L 810.928375 422.884627 
" style="fill:none;stroke:#6a6a6a;stroke-linecap:round;stroke-width:1.5;"/>
   </g>
   <g id="line2d_114">
    <path clip-path="url(#pbca78470a6)" d="M 811.765375 431.934079 
L 852.778375 431.934079 
" style="fill:none;stroke:#6a6a6a;stroke-linecap:round;stroke-width:1.5;"/>
   </g>
   <g id="line2d_115">
    <path clip-path="url(#pbca78470a6)" d="M 853.615375 402.524927 
L 894.628375 402.524927 
" style="fill:none;stroke:#6a6a6a;stroke-linecap:round;stroke-width:1.5;"/>
   </g>
   <g id="line2d_116">
    <path clip-path="url(#pbca78470a6)" d="M 895.465375 333.387595 
L 936.478375 333.387595 
" style="fill:none;stroke:#6a6a6a;stroke-linecap:round;stroke-width:1.5;"/>
   </g>
   <g id="patch_36">
    <path d="M 120.821875 835.126172 
L 120.821875 19.726172 
" style="fill:none;stroke:#262626;stroke-linecap:square;stroke-linejoin:miter;stroke-width:1.25;"/>
   </g>
   <g id="patch_37">
    <path d="M 957.821875 835.126172 
L 957.821875 19.726172 
" style="fill:none;stroke:#262626;stroke-linecap:square;stroke-linejoin:miter;stroke-width:1.25;"/>
   </g>
   <g id="patch_38">
    <path d="M 120.821875 835.126172 
L 957.821875 835.126172 
" style="fill:none;stroke:#262626;stroke-linecap:square;stroke-linejoin:miter;stroke-width:1.25;"/>
   </g>
   <g id="patch_39">
    <path d="M 120.821875 19.726172 
L 957.821875 19.726172 
" style="fill:none;stroke:#262626;stroke-linecap:square;stroke-linejoin:miter;stroke-width:1.25;"/>
   </g>
  </g>
 </g>
 <defs>
  <clipPath id="pbca78470a6">
   <rect height="815.4" width="837" x="120.821875" y="19.726172"/>
  </clipPath>
 </defs>
</svg>
