<?xml version="1.0" encoding="utf-8" standalone="no"?>
<!DOCTYPE svg PUBLIC "-//W3C//DTD SVG 1.1//EN"
  "http://www.w3.org/Graphics/SVG/1.1/DTD/svg11.dtd">
<svg height="901.145703pt" version="1.1" viewBox="0 0 935.133594 901.145703" width="935.133594pt" xmlns="http://www.w3.org/2000/svg" xmlns:xlink="http://www.w3.org/1999/xlink">
 <metadata>
  <rdf:RDF xmlns:cc="http://creativecommons.org/ns#" xmlns:dc="http://purl.org/dc/elements/1.1/" xmlns:rdf="http://www.w3.org/1999/02/22-rdf-syntax-ns#">
   <cc:Work>
    <dc:type rdf:resource="http://purl.org/dc/dcmitype/StillImage"/>
    <dc:date>2023-04-14T12:21:28.363405</dc:date>
    <dc:format>image/svg+xml</dc:format>
    <dc:creator>
     <cc:Agent>
      <dc:title>Matplotlib v3.4.3, https://matplotlib.org/</dc:title>
     </cc:Agent>
    </dc:creator>
   </cc:Work>
  </rdf:RDF>
 </metadata>
 <defs>
  <style type="text/css">*{stroke-linecap:butt;stroke-linejoin:round;}</style>
 </defs>
 <g id="figure_1">
  <g id="patch_1">
   <path d="M 0 901.145703 
L 935.133594 901.145703 
L 935.133594 0 
L 0 0 
z
" style="fill:#ffffff;"/>
  </g>
  <g id="axes_1">
   <g id="patch_2">
    <path d="M 90.933594 822.6 
L 927.933594 822.6 
L 927.933594 7.2 
L 90.933594 7.2 
z
" style="fill:#ffffff;"/>
   </g>
   <g id="matplotlib.axis_1">
    <g id="xtick_1">
     <g id="text_1">
      <!-- Precision@6 -->
      <g style="fill:#262626;" transform="translate(152.279883 852.149219)scale(0.275 -0.275)">
       <defs>
        <path d="M 494 0 
L 494 4581 
L 2222 4581 
Q 2678 4581 2919 4538 
Q 3256 4481 3484 4323 
Q 3713 4166 3852 3881 
Q 3991 3597 3991 3256 
Q 3991 2672 3619 2267 
Q 3247 1863 2275 1863 
L 1100 1863 
L 1100 0 
L 494 0 
z
M 1100 2403 
L 2284 2403 
Q 2872 2403 3119 2622 
Q 3366 2841 3366 3238 
Q 3366 3525 3220 3729 
Q 3075 3934 2838 4000 
Q 2684 4041 2272 4041 
L 1100 4041 
L 1100 2403 
z
" id="ArialMT-50" transform="scale(0.015625)"/>
        <path d="M 416 0 
L 416 3319 
L 922 3319 
L 922 2816 
Q 1116 3169 1280 3281 
Q 1444 3394 1641 3394 
Q 1925 3394 2219 3213 
L 2025 2691 
Q 1819 2813 1613 2813 
Q 1428 2813 1281 2702 
Q 1134 2591 1072 2394 
Q 978 2094 978 1738 
L 978 0 
L 416 0 
z
" id="ArialMT-72" transform="scale(0.015625)"/>
        <path d="M 2694 1069 
L 3275 997 
Q 3138 488 2766 206 
Q 2394 -75 1816 -75 
Q 1088 -75 661 373 
Q 234 822 234 1631 
Q 234 2469 665 2931 
Q 1097 3394 1784 3394 
Q 2450 3394 2872 2941 
Q 3294 2488 3294 1666 
Q 3294 1616 3291 1516 
L 816 1516 
Q 847 969 1125 678 
Q 1403 388 1819 388 
Q 2128 388 2347 550 
Q 2566 713 2694 1069 
z
M 847 1978 
L 2700 1978 
Q 2663 2397 2488 2606 
Q 2219 2931 1791 2931 
Q 1403 2931 1139 2672 
Q 875 2413 847 1978 
z
" id="ArialMT-65" transform="scale(0.015625)"/>
        <path d="M 2588 1216 
L 3141 1144 
Q 3050 572 2676 248 
Q 2303 -75 1759 -75 
Q 1078 -75 664 370 
Q 250 816 250 1647 
Q 250 2184 428 2587 
Q 606 2991 970 3192 
Q 1334 3394 1763 3394 
Q 2303 3394 2647 3120 
Q 2991 2847 3088 2344 
L 2541 2259 
Q 2463 2594 2264 2762 
Q 2066 2931 1784 2931 
Q 1359 2931 1093 2626 
Q 828 2322 828 1663 
Q 828 994 1084 691 
Q 1341 388 1753 388 
Q 2084 388 2306 591 
Q 2528 794 2588 1216 
z
" id="ArialMT-63" transform="scale(0.015625)"/>
        <path d="M 425 3934 
L 425 4581 
L 988 4581 
L 988 3934 
L 425 3934 
z
M 425 0 
L 425 3319 
L 988 3319 
L 988 0 
L 425 0 
z
" id="ArialMT-69" transform="scale(0.015625)"/>
        <path d="M 197 991 
L 753 1078 
Q 800 744 1014 566 
Q 1228 388 1613 388 
Q 2000 388 2187 545 
Q 2375 703 2375 916 
Q 2375 1106 2209 1216 
Q 2094 1291 1634 1406 
Q 1016 1563 777 1677 
Q 538 1791 414 1992 
Q 291 2194 291 2438 
Q 291 2659 392 2848 
Q 494 3038 669 3163 
Q 800 3259 1026 3326 
Q 1253 3394 1513 3394 
Q 1903 3394 2198 3281 
Q 2494 3169 2634 2976 
Q 2775 2784 2828 2463 
L 2278 2388 
Q 2241 2644 2061 2787 
Q 1881 2931 1553 2931 
Q 1166 2931 1000 2803 
Q 834 2675 834 2503 
Q 834 2394 903 2306 
Q 972 2216 1119 2156 
Q 1203 2125 1616 2013 
Q 2213 1853 2448 1751 
Q 2684 1650 2818 1456 
Q 2953 1263 2953 975 
Q 2953 694 2789 445 
Q 2625 197 2315 61 
Q 2006 -75 1616 -75 
Q 969 -75 630 194 
Q 291 463 197 991 
z
" id="ArialMT-73" transform="scale(0.015625)"/>
        <path d="M 213 1659 
Q 213 2581 725 3025 
Q 1153 3394 1769 3394 
Q 2453 3394 2887 2945 
Q 3322 2497 3322 1706 
Q 3322 1066 3130 698 
Q 2938 331 2570 128 
Q 2203 -75 1769 -75 
Q 1072 -75 642 372 
Q 213 819 213 1659 
z
M 791 1659 
Q 791 1022 1069 705 
Q 1347 388 1769 388 
Q 2188 388 2466 706 
Q 2744 1025 2744 1678 
Q 2744 2294 2464 2611 
Q 2184 2928 1769 2928 
Q 1347 2928 1069 2612 
Q 791 2297 791 1659 
z
" id="ArialMT-6f" transform="scale(0.015625)"/>
        <path d="M 422 0 
L 422 3319 
L 928 3319 
L 928 2847 
Q 1294 3394 1984 3394 
Q 2284 3394 2536 3286 
Q 2788 3178 2913 3003 
Q 3038 2828 3088 2588 
Q 3119 2431 3119 2041 
L 3119 0 
L 2556 0 
L 2556 2019 
Q 2556 2363 2490 2533 
Q 2425 2703 2258 2804 
Q 2091 2906 1866 2906 
Q 1506 2906 1245 2678 
Q 984 2450 984 1813 
L 984 0 
L 422 0 
z
" id="ArialMT-6e" transform="scale(0.015625)"/>
        <path d="M 3628 509 
Q 3425 275 3173 133 
Q 2922 -9 2669 -9 
Q 2391 -9 2128 153 
Q 1866 316 1702 653 
Q 1538 991 1538 1394 
Q 1538 1891 1792 2389 
Q 2047 2888 2425 3138 
Q 2803 3388 3159 3388 
Q 3431 3388 3678 3245 
Q 3925 3103 4103 2813 
L 4209 3297 
L 4769 3297 
L 4319 1200 
Q 4225 763 4225 716 
Q 4225 631 4289 570 
Q 4353 509 4444 509 
Q 4609 509 4878 700 
Q 5234 950 5442 1370 
Q 5650 1791 5650 2238 
Q 5650 2759 5383 3212 
Q 5116 3666 4586 3937 
Q 4056 4209 3416 4209 
Q 2684 4209 2079 3867 
Q 1475 3525 1142 2886 
Q 809 2247 809 1516 
Q 809 750 1142 197 
Q 1475 -356 2104 -620 
Q 2734 -884 3500 -884 
Q 4319 -884 4872 -609 
Q 5425 -334 5700 59 
L 6266 59 
Q 6106 -269 5718 -609 
Q 5331 -950 4797 -1148 
Q 4263 -1347 3509 -1347 
Q 2816 -1347 2230 -1169 
Q 1644 -991 1231 -633 
Q 819 -275 609 191 
Q 347 781 347 1466 
Q 347 2228 659 2919 
Q 1041 3766 1742 4216 
Q 2444 4666 3444 4666 
Q 4219 4666 4836 4348 
Q 5453 4031 5809 3403 
Q 6113 2863 6113 2228 
Q 6113 1322 5475 619 
Q 4906 -13 4231 -13 
Q 4016 -13 3883 53 
Q 3750 119 3688 241 
Q 3647 319 3628 509 
z
M 2116 1356 
Q 2116 928 2319 690 
Q 2522 453 2784 453 
Q 2959 453 3153 558 
Q 3347 663 3523 869 
Q 3700 1075 3812 1392 
Q 3925 1709 3925 2028 
Q 3925 2453 3714 2687 
Q 3503 2922 3200 2922 
Q 3000 2922 2823 2820 
Q 2647 2719 2481 2494 
Q 2316 2269 2216 1947 
Q 2116 1625 2116 1356 
z
" id="ArialMT-40" transform="scale(0.015625)"/>
        <path d="M 3184 3459 
L 2625 3416 
Q 2550 3747 2413 3897 
Q 2184 4138 1850 4138 
Q 1581 4138 1378 3988 
Q 1113 3794 959 3422 
Q 806 3050 800 2363 
Q 1003 2672 1297 2822 
Q 1591 2972 1913 2972 
Q 2475 2972 2870 2558 
Q 3266 2144 3266 1488 
Q 3266 1056 3080 686 
Q 2894 316 2569 119 
Q 2244 -78 1831 -78 
Q 1128 -78 684 439 
Q 241 956 241 2144 
Q 241 3472 731 4075 
Q 1159 4600 1884 4600 
Q 2425 4600 2770 4297 
Q 3116 3994 3184 3459 
z
M 888 1484 
Q 888 1194 1011 928 
Q 1134 663 1356 523 
Q 1578 384 1822 384 
Q 2178 384 2434 671 
Q 2691 959 2691 1453 
Q 2691 1928 2437 2201 
Q 2184 2475 1800 2475 
Q 1419 2475 1153 2201 
Q 888 1928 888 1484 
z
" id="ArialMT-36" transform="scale(0.015625)"/>
       </defs>
       <use xlink:href="#ArialMT-50"/>
       <use x="66.699219" xlink:href="#ArialMT-72"/>
       <use x="100" xlink:href="#ArialMT-65"/>
       <use x="155.615234" xlink:href="#ArialMT-63"/>
       <use x="205.615234" xlink:href="#ArialMT-69"/>
       <use x="227.832031" xlink:href="#ArialMT-73"/>
       <use x="277.832031" xlink:href="#ArialMT-69"/>
       <use x="300.048828" xlink:href="#ArialMT-6f"/>
       <use x="355.664062" xlink:href="#ArialMT-6e"/>
       <use x="411.279297" xlink:href="#ArialMT-40"/>
       <use x="512.792969" xlink:href="#ArialMT-36"/>
      </g>
     </g>
    </g>
    <g id="xtick_2">
     <g id="text_2">
      <!-- Precision@12 -->
      <g style="fill:#262626;" transform="translate(423.633594 852.149219)scale(0.275 -0.275)">
       <defs>
        <path d="M 2384 0 
L 1822 0 
L 1822 3584 
Q 1619 3391 1289 3197 
Q 959 3003 697 2906 
L 697 3450 
Q 1169 3672 1522 3987 
Q 1875 4303 2022 4600 
L 2384 4600 
L 2384 0 
z
" id="ArialMT-31" transform="scale(0.015625)"/>
        <path d="M 3222 541 
L 3222 0 
L 194 0 
Q 188 203 259 391 
Q 375 700 629 1000 
Q 884 1300 1366 1694 
Q 2113 2306 2375 2664 
Q 2638 3022 2638 3341 
Q 2638 3675 2398 3904 
Q 2159 4134 1775 4134 
Q 1369 4134 1125 3890 
Q 881 3647 878 3216 
L 300 3275 
Q 359 3922 746 4261 
Q 1134 4600 1788 4600 
Q 2447 4600 2831 4234 
Q 3216 3869 3216 3328 
Q 3216 3053 3103 2787 
Q 2991 2522 2730 2228 
Q 2469 1934 1863 1422 
Q 1356 997 1212 845 
Q 1069 694 975 541 
L 3222 541 
z
" id="ArialMT-32" transform="scale(0.015625)"/>
       </defs>
       <use xlink:href="#ArialMT-50"/>
       <use x="66.699219" xlink:href="#ArialMT-72"/>
       <use x="100" xlink:href="#ArialMT-65"/>
       <use x="155.615234" xlink:href="#ArialMT-63"/>
       <use x="205.615234" xlink:href="#ArialMT-69"/>
       <use x="227.832031" xlink:href="#ArialMT-73"/>
       <use x="277.832031" xlink:href="#ArialMT-69"/>
       <use x="300.048828" xlink:href="#ArialMT-6f"/>
       <use x="355.664062" xlink:href="#ArialMT-6e"/>
       <use x="411.279297" xlink:href="#ArialMT-40"/>
       <use x="512.792969" xlink:href="#ArialMT-31"/>
       <use x="568.408203" xlink:href="#ArialMT-32"/>
      </g>
     </g>
    </g>
    <g id="xtick_3">
     <g id="text_3">
      <!-- Precision@24 -->
      <g style="fill:#262626;" transform="translate(702.633594 852.149219)scale(0.275 -0.275)">
       <defs>
        <path d="M 2069 0 
L 2069 1097 
L 81 1097 
L 81 1613 
L 2172 4581 
L 2631 4581 
L 2631 1613 
L 3250 1613 
L 3250 1097 
L 2631 1097 
L 2631 0 
L 2069 0 
z
M 2069 1613 
L 2069 3678 
L 634 1613 
L 2069 1613 
z
" id="ArialMT-34" transform="scale(0.015625)"/>
       </defs>
       <use xlink:href="#ArialMT-50"/>
       <use x="66.699219" xlink:href="#ArialMT-72"/>
       <use x="100" xlink:href="#ArialMT-65"/>
       <use x="155.615234" xlink:href="#ArialMT-63"/>
       <use x="205.615234" xlink:href="#ArialMT-69"/>
       <use x="227.832031" xlink:href="#ArialMT-73"/>
       <use x="277.832031" xlink:href="#ArialMT-69"/>
       <use x="300.048828" xlink:href="#ArialMT-6f"/>
       <use x="355.664062" xlink:href="#ArialMT-6e"/>
       <use x="411.279297" xlink:href="#ArialMT-40"/>
       <use x="512.792969" xlink:href="#ArialMT-32"/>
       <use x="568.408203" xlink:href="#ArialMT-34"/>
      </g>
     </g>
    </g>
    <g id="text_4">
     <!-- Precision metrics -->
     <g style="fill:#262626;" transform="translate(376.214844 886.989453)scale(0.35 -0.35)">
      <defs>
       <path id="ArialMT-20" transform="scale(0.015625)"/>
       <path d="M 422 0 
L 422 3319 
L 925 3319 
L 925 2853 
Q 1081 3097 1340 3245 
Q 1600 3394 1931 3394 
Q 2300 3394 2536 3241 
Q 2772 3088 2869 2813 
Q 3263 3394 3894 3394 
Q 4388 3394 4653 3120 
Q 4919 2847 4919 2278 
L 4919 0 
L 4359 0 
L 4359 2091 
Q 4359 2428 4304 2576 
Q 4250 2725 4106 2815 
Q 3963 2906 3769 2906 
Q 3419 2906 3187 2673 
Q 2956 2441 2956 1928 
L 2956 0 
L 2394 0 
L 2394 2156 
Q 2394 2531 2256 2718 
Q 2119 2906 1806 2906 
Q 1569 2906 1367 2781 
Q 1166 2656 1075 2415 
Q 984 2175 984 1722 
L 984 0 
L 422 0 
z
" id="ArialMT-6d" transform="scale(0.015625)"/>
       <path d="M 1650 503 
L 1731 6 
Q 1494 -44 1306 -44 
Q 1000 -44 831 53 
Q 663 150 594 308 
Q 525 466 525 972 
L 525 2881 
L 113 2881 
L 113 3319 
L 525 3319 
L 525 4141 
L 1084 4478 
L 1084 3319 
L 1650 3319 
L 1650 2881 
L 1084 2881 
L 1084 941 
Q 1084 700 1114 631 
Q 1144 563 1211 522 
Q 1278 481 1403 481 
Q 1497 481 1650 503 
z
" id="ArialMT-74" transform="scale(0.015625)"/>
      </defs>
      <use xlink:href="#ArialMT-50"/>
      <use x="66.699219" xlink:href="#ArialMT-72"/>
      <use x="100" xlink:href="#ArialMT-65"/>
      <use x="155.615234" xlink:href="#ArialMT-63"/>
      <use x="205.615234" xlink:href="#ArialMT-69"/>
      <use x="227.832031" xlink:href="#ArialMT-73"/>
      <use x="277.832031" xlink:href="#ArialMT-69"/>
      <use x="300.048828" xlink:href="#ArialMT-6f"/>
      <use x="355.664062" xlink:href="#ArialMT-6e"/>
      <use x="411.279297" xlink:href="#ArialMT-20"/>
      <use x="439.0625" xlink:href="#ArialMT-6d"/>
      <use x="522.363281" xlink:href="#ArialMT-65"/>
      <use x="577.978516" xlink:href="#ArialMT-74"/>
      <use x="605.761719" xlink:href="#ArialMT-72"/>
      <use x="639.0625" xlink:href="#ArialMT-69"/>
      <use x="661.279297" xlink:href="#ArialMT-63"/>
      <use x="711.279297" xlink:href="#ArialMT-73"/>
     </g>
    </g>
   </g>
   <g id="matplotlib.axis_2">
    <g id="ytick_1">
     <g id="text_5">
      <!-- 0.2 -->
      <g style="fill:#262626;" transform="translate(43.208594 720.81648)scale(0.275 -0.275)">
       <defs>
        <path d="M 266 2259 
Q 266 3072 433 3567 
Q 600 4063 929 4331 
Q 1259 4600 1759 4600 
Q 2128 4600 2406 4451 
Q 2684 4303 2865 4023 
Q 3047 3744 3150 3342 
Q 3253 2941 3253 2259 
Q 3253 1453 3087 958 
Q 2922 463 2592 192 
Q 2263 -78 1759 -78 
Q 1097 -78 719 397 
Q 266 969 266 2259 
z
M 844 2259 
Q 844 1131 1108 757 
Q 1372 384 1759 384 
Q 2147 384 2411 759 
Q 2675 1134 2675 2259 
Q 2675 3391 2411 3762 
Q 2147 4134 1753 4134 
Q 1366 4134 1134 3806 
Q 844 3388 844 2259 
z
" id="ArialMT-30" transform="scale(0.015625)"/>
        <path d="M 581 0 
L 581 641 
L 1222 641 
L 1222 0 
L 581 0 
z
" id="ArialMT-2e" transform="scale(0.015625)"/>
       </defs>
       <use xlink:href="#ArialMT-30"/>
       <use x="55.615234" xlink:href="#ArialMT-2e"/>
       <use x="83.398438" xlink:href="#ArialMT-32"/>
      </g>
     </g>
    </g>
    <g id="ytick_2">
     <g id="text_6">
      <!-- 0.4 -->
      <g style="fill:#262626;" transform="translate(43.208594 562.503062)scale(0.275 -0.275)">
       <use xlink:href="#ArialMT-30"/>
       <use x="55.615234" xlink:href="#ArialMT-2e"/>
       <use x="83.398438" xlink:href="#ArialMT-34"/>
      </g>
     </g>
    </g>
    <g id="ytick_3">
     <g id="text_7">
      <!-- 0.6 -->
      <g style="fill:#262626;" transform="translate(43.208594 404.189645)scale(0.275 -0.275)">
       <use xlink:href="#ArialMT-30"/>
       <use x="55.615234" xlink:href="#ArialMT-2e"/>
       <use x="83.398438" xlink:href="#ArialMT-36"/>
      </g>
     </g>
    </g>
    <g id="ytick_4">
     <g id="text_8">
      <!-- 0.8 -->
      <g style="fill:#262626;" transform="translate(43.208594 245.876228)scale(0.275 -0.275)">
       <defs>
        <path d="M 1131 2484 
Q 781 2613 612 2850 
Q 444 3088 444 3419 
Q 444 3919 803 4259 
Q 1163 4600 1759 4600 
Q 2359 4600 2725 4251 
Q 3091 3903 3091 3403 
Q 3091 3084 2923 2848 
Q 2756 2613 2416 2484 
Q 2838 2347 3058 2040 
Q 3278 1734 3278 1309 
Q 3278 722 2862 322 
Q 2447 -78 1769 -78 
Q 1091 -78 675 323 
Q 259 725 259 1325 
Q 259 1772 486 2073 
Q 713 2375 1131 2484 
z
M 1019 3438 
Q 1019 3113 1228 2906 
Q 1438 2700 1772 2700 
Q 2097 2700 2305 2904 
Q 2513 3109 2513 3406 
Q 2513 3716 2298 3927 
Q 2084 4138 1766 4138 
Q 1444 4138 1231 3931 
Q 1019 3725 1019 3438 
z
M 838 1322 
Q 838 1081 952 856 
Q 1066 631 1291 507 
Q 1516 384 1775 384 
Q 2178 384 2440 643 
Q 2703 903 2703 1303 
Q 2703 1709 2433 1975 
Q 2163 2241 1756 2241 
Q 1359 2241 1098 1978 
Q 838 1716 838 1322 
z
" id="ArialMT-38" transform="scale(0.015625)"/>
       </defs>
       <use xlink:href="#ArialMT-30"/>
       <use x="55.615234" xlink:href="#ArialMT-2e"/>
       <use x="83.398438" xlink:href="#ArialMT-38"/>
      </g>
     </g>
    </g>
    <g id="ytick_5">
     <g id="text_9">
      <!-- 1.0 -->
      <g style="fill:#262626;" transform="translate(43.208594 87.56281)scale(0.275 -0.275)">
       <use xlink:href="#ArialMT-31"/>
       <use x="55.615234" xlink:href="#ArialMT-2e"/>
       <use x="83.398438" xlink:href="#ArialMT-30"/>
      </g>
     </g>
    </g>
    <g id="text_10">
     <!-- Scores -->
     <g style="fill:#262626;" transform="translate(32.252344 469.363281)rotate(-90)scale(0.35 -0.35)">
      <defs>
       <path d="M 288 1472 
L 859 1522 
Q 900 1178 1048 958 
Q 1197 738 1509 602 
Q 1822 466 2213 466 
Q 2559 466 2825 569 
Q 3091 672 3220 851 
Q 3350 1031 3350 1244 
Q 3350 1459 3225 1620 
Q 3100 1781 2813 1891 
Q 2628 1963 1997 2114 
Q 1366 2266 1113 2400 
Q 784 2572 623 2826 
Q 463 3081 463 3397 
Q 463 3744 659 4045 
Q 856 4347 1234 4503 
Q 1613 4659 2075 4659 
Q 2584 4659 2973 4495 
Q 3363 4331 3572 4012 
Q 3781 3694 3797 3291 
L 3216 3247 
Q 3169 3681 2898 3903 
Q 2628 4125 2100 4125 
Q 1550 4125 1298 3923 
Q 1047 3722 1047 3438 
Q 1047 3191 1225 3031 
Q 1400 2872 2139 2705 
Q 2878 2538 3153 2413 
Q 3553 2228 3743 1945 
Q 3934 1663 3934 1294 
Q 3934 928 3725 604 
Q 3516 281 3123 101 
Q 2731 -78 2241 -78 
Q 1619 -78 1198 103 
Q 778 284 539 648 
Q 300 1013 288 1472 
z
" id="ArialMT-53" transform="scale(0.015625)"/>
      </defs>
      <use xlink:href="#ArialMT-53"/>
      <use x="66.699219" xlink:href="#ArialMT-63"/>
      <use x="116.699219" xlink:href="#ArialMT-6f"/>
      <use x="172.314453" xlink:href="#ArialMT-72"/>
      <use x="205.615234" xlink:href="#ArialMT-65"/>
      <use x="261.230469" xlink:href="#ArialMT-73"/>
     </g>
    </g>
   </g>
   <g id="PolyCollection_1">
    <defs>
     <path d="M 156.235495 -496.312533 
L 155.831692 -496.312533 
L 155.765913 -499.501224 
L 155.685844 -502.689915 
L 155.590798 -505.878607 
L 155.480774 -509.067298 
L 155.356547 -512.255989 
L 155.219649 -515.44468 
L 155.072212 -518.633371 
L 154.916652 -521.822062 
L 154.755188 -525.010753 
L 154.589244 -528.199444 
L 154.418768 -531.388135 
L 154.241569 -534.576826 
L 154.052769 -537.765517 
L 153.844459 -540.954208 
L 153.605664 -544.142899 
L 153.322661 -547.33159 
L 152.979669 -550.520281 
L 152.559874 -553.708972 
L 152.046692 -556.897663 
L 151.425155 -560.086354 
L 150.683227 -563.275045 
L 149.812912 -566.463736 
L 148.810987 -569.652427 
L 147.679254 -572.841118 
L 146.42427 -576.029809 
L 145.056582 -579.2185 
L 143.589578 -582.407191 
L 142.038147 -585.595882 
L 140.417354 -588.784573 
L 138.741381 -591.973264 
L 137.022951 -595.161955 
L 135.273373 -598.350647 
L 133.503255 -601.539338 
L 131.7238 -604.728029 
L 129.948505 -607.91672 
L 128.194933 -611.105411 
L 126.486222 -614.294102 
L 124.851962 -617.482793 
L 123.328146 -620.671484 
L 121.956022 -623.860175 
L 120.77984 -627.048866 
L 119.843671 -630.237557 
L 119.187631 -633.426248 
L 118.843979 -636.614939 
L 118.833594 -639.80363 
L 119.163323 -642.992321 
L 119.824575 -646.181012 
L 120.793384 -649.369703 
L 122.031943 -652.558394 
L 123.491439 -655.747085 
L 125.115828 -658.935776 
L 126.846096 -662.124467 
L 128.624498 -665.313158 
L 130.398327 -668.501849 
L 132.122827 -671.69054 
L 133.763045 -674.879231 
L 135.294533 -678.067922 
L 136.70298 -681.256613 
L 137.982978 -684.445304 
L 139.136187 -687.633996 
L 140.169215 -690.822687 
L 141.091522 -694.011378 
L 141.91359 -697.200069 
L 142.645563 -700.38876 
L 143.296432 -703.577451 
L 143.873779 -706.766142 
L 144.383993 -709.954833 
L 144.832826 -713.143524 
L 145.226092 -716.332215 
L 145.570354 -719.520906 
L 145.873413 -722.709597 
L 146.144519 -725.898288 
L 146.394258 -729.086979 
L 146.634121 -732.27567 
L 146.875854 -735.464361 
L 147.130686 -738.653052 
L 147.408546 -741.841743 
L 147.717389 -745.030434 
L 148.062693 -748.219125 
L 148.447171 -751.407816 
L 148.87071 -754.596507 
L 149.330503 -757.785198 
L 149.821349 -760.973889 
L 150.336077 -764.16258 
L 150.866048 -767.351271 
L 151.401702 -770.539962 
L 151.93313 -773.728653 
L 152.450628 -776.917345 
L 152.945214 -780.106036 
L 153.409078 -783.294727 
L 153.835936 -786.483418 
L 154.22127 -789.672109 
L 154.562431 -792.8608 
L 154.858607 -796.049491 
L 155.110676 -799.238182 
L 155.320944 -802.426873 
L 155.492826 -805.615564 
L 155.630487 -808.804255 
L 155.738493 -811.992946 
L 156.328694 -811.992946 
L 156.328694 -811.992946 
L 156.436701 -808.804255 
L 156.574362 -805.615564 
L 156.746243 -802.426873 
L 156.956511 -799.238182 
L 157.20858 -796.049491 
L 157.504757 -792.8608 
L 157.845917 -789.672109 
L 158.231251 -786.483418 
L 158.65811 -783.294727 
L 159.121974 -780.106036 
L 159.61656 -776.917345 
L 160.134058 -773.728653 
L 160.665486 -770.539962 
L 161.20114 -767.351271 
L 161.73111 -764.16258 
L 162.245839 -760.973889 
L 162.736685 -757.785198 
L 163.196477 -754.596507 
L 163.620016 -751.407816 
L 164.004494 -748.219125 
L 164.349798 -745.030434 
L 164.658642 -741.841743 
L 164.936502 -738.653052 
L 165.191334 -735.464361 
L 165.433067 -732.27567 
L 165.672929 -729.086979 
L 165.922668 -725.898288 
L 166.193775 -722.709597 
L 166.496833 -719.520906 
L 166.841095 -716.332215 
L 167.234362 -713.143524 
L 167.683194 -709.954833 
L 168.193409 -706.766142 
L 168.770755 -703.577451 
L 169.421625 -700.38876 
L 170.153598 -697.200069 
L 170.975666 -694.011378 
L 171.897972 -690.822687 
L 172.931001 -687.633996 
L 174.08421 -684.445304 
L 175.364208 -681.256613 
L 176.772655 -678.067922 
L 178.304142 -674.879231 
L 179.94436 -671.69054 
L 181.66886 -668.501849 
L 183.442689 -665.313158 
L 185.221092 -662.124467 
L 186.95136 -658.935776 
L 188.575749 -655.747085 
L 190.035244 -652.558394 
L 191.273803 -649.369703 
L 192.242612 -646.181012 
L 192.903865 -642.992321 
L 193.233594 -639.80363 
L 193.223209 -636.614939 
L 192.879557 -633.426248 
L 192.223517 -630.237557 
L 191.287348 -627.048866 
L 190.111166 -623.860175 
L 188.739041 -620.671484 
L 187.215225 -617.482793 
L 185.580966 -614.294102 
L 183.872255 -611.105411 
L 182.118682 -607.91672 
L 180.343387 -604.728029 
L 178.563933 -601.539338 
L 176.793814 -598.350647 
L 175.044237 -595.161955 
L 173.325807 -591.973264 
L 171.649833 -588.784573 
L 170.02904 -585.595882 
L 168.47761 -582.407191 
L 167.010606 -579.2185 
L 165.642917 -576.029809 
L 164.387933 -572.841118 
L 163.256201 -569.652427 
L 162.254276 -566.463736 
L 161.383961 -563.275045 
L 160.642032 -560.086354 
L 160.020495 -556.897663 
L 159.507314 -553.708972 
L 159.087518 -550.520281 
L 158.744526 -547.33159 
L 158.461523 -544.142899 
L 158.222728 -540.954208 
L 158.014419 -537.765517 
L 157.825618 -534.576826 
L 157.64842 -531.388135 
L 157.477943 -528.199444 
L 157.311999 -525.010753 
L 157.150536 -521.822062 
L 156.994975 -518.633371 
L 156.847538 -515.44468 
L 156.71064 -512.255989 
L 156.586413 -509.067298 
L 156.47639 -505.878607 
L 156.381344 -502.689915 
L 156.301275 -499.501224 
L 156.235495 -496.312533 
z
" id="md6e435e720" style="stroke:#6a6a6a;stroke-width:1.5;"/>
    </defs>
    <g clip-path="url(#pcf931c8a42)">
     <use style="fill:#96cac1;stroke:#6a6a6a;stroke-width:1.5;" x="0" xlink:href="#md6e435e720" y="901.145703"/>
    </g>
   </g>
   <g id="PolyCollection_2">
    <defs>
     <path d="M 230.989848 -115.609339 
L 229.877339 -115.609339 
L 229.645571 -117.796362 
L 229.339024 -119.983384 
L 228.941923 -122.170406 
L 228.437696 -124.357428 
L 227.809554 -126.544451 
L 227.041131 -128.731473 
L 226.117162 -130.918495 
L 225.024209 -133.105517 
L 223.75144 -135.29254 
L 222.29153 -137.479562 
L 220.641715 -139.666584 
L 218.805038 -141.853606 
L 216.791723 -144.040628 
L 214.620556 -146.227651 
L 212.320018 -148.414673 
L 209.928882 -150.601695 
L 207.495931 -152.788717 
L 205.078558 -154.97574 
L 202.740136 -157.162762 
L 200.546275 -159.349784 
L 198.560308 -161.536806 
L 196.838556 -163.723829 
L 195.426016 -165.910851 
L 194.353111 -168.097873 
L 193.63396 -170.284895 
L 193.266392 -172.471917 
L 193.233594 -174.65894 
L 193.507035 -176.845962 
L 194.050079 -179.032984 
L 194.821693 -181.220006 
L 195.779691 -183.407029 
L 196.883213 -185.594051 
L 198.094311 -187.781073 
L 199.378795 -189.968095 
L 200.706596 -192.155118 
L 202.051942 -194.34214 
L 203.393575 -196.529162 
L 204.715083 -198.716184 
L 206.005262 -200.903207 
L 207.258343 -203.090229 
L 208.473835 -205.277251 
L 209.655864 -207.464273 
L 210.811964 -209.651295 
L 211.951442 -211.838318 
L 213.083571 -214.02534 
L 214.215906 -216.212362 
L 215.352984 -218.399384 
L 216.495595 -220.586407 
L 217.640649 -222.773429 
L 218.78157 -224.960451 
L 219.909037 -227.147473 
L 221.011873 -229.334496 
L 222.07792 -231.521518 
L 223.094798 -233.70854 
L 224.05052 -235.895562 
L 224.93399 -238.082584 
L 225.73546 -240.269607 
L 226.446978 -242.456629 
L 227.062868 -244.643651 
L 227.580197 -246.830673 
L 227.999182 -249.017696 
L 228.323448 -251.204718 
L 228.560064 -253.39174 
L 228.719279 -255.578762 
L 228.813962 -257.765785 
L 228.858742 -259.952807 
L 228.868933 -262.139829 
L 228.859347 -264.326851 
L 228.843117 -266.513873 
L 228.830681 -268.700896 
L 228.829061 -270.887918 
L 228.841529 -273.07494 
L 228.867718 -275.261962 
L 228.904172 -277.448985 
L 228.945265 -279.636007 
L 228.984369 -281.823029 
L 229.015096 -284.010051 
L 229.032464 -286.197074 
L 229.033786 -288.384096 
L 229.019194 -290.571118 
L 228.991702 -292.75814 
L 228.956828 -294.945162 
L 228.921835 -297.132185 
L 228.894714 -299.319207 
L 228.883089 -301.506229 
L 228.893189 -303.693251 
L 228.929058 -305.880274 
L 228.9921 -308.067296 
L 229.081009 -310.254318 
L 229.192062 -312.44134 
L 229.31971 -314.628363 
L 229.457333 -316.815385 
L 229.598059 -319.002407 
L 229.735491 -321.189429 
L 229.864284 -323.376451 
L 229.98049 -325.563474 
L 230.081687 -327.750496 
L 230.1669 -329.937518 
L 230.23638 -332.12454 
L 230.630807 -332.12454 
L 230.630807 -332.12454 
L 230.700288 -329.937518 
L 230.785501 -327.750496 
L 230.886698 -325.563474 
L 231.002904 -323.376451 
L 231.131697 -321.189429 
L 231.269129 -319.002407 
L 231.409854 -316.815385 
L 231.547478 -314.628363 
L 231.675125 -312.44134 
L 231.786179 -310.254318 
L 231.875087 -308.067296 
L 231.938129 -305.880274 
L 231.973998 -303.693251 
L 231.984098 -301.506229 
L 231.972473 -299.319207 
L 231.945353 -297.132185 
L 231.910359 -294.945162 
L 231.875486 -292.75814 
L 231.847994 -290.571118 
L 231.833402 -288.384096 
L 231.834724 -286.197074 
L 231.852091 -284.010051 
L 231.882819 -281.823029 
L 231.921922 -279.636007 
L 231.963015 -277.448985 
L 231.999469 -275.261962 
L 232.025658 -273.07494 
L 232.038127 -270.887918 
L 232.036507 -268.700896 
L 232.024071 -266.513873 
L 232.00784 -264.326851 
L 231.998254 -262.139829 
L 232.008446 -259.952807 
L 232.053225 -257.765785 
L 232.147908 -255.578762 
L 232.307123 -253.39174 
L 232.543739 -251.204718 
L 232.868006 -249.017696 
L 233.28699 -246.830673 
L 233.804319 -244.643651 
L 234.420209 -242.456629 
L 235.131728 -240.269607 
L 235.933197 -238.082584 
L 236.816668 -235.895562 
L 237.772389 -233.70854 
L 238.789268 -231.521518 
L 239.855315 -229.334496 
L 240.95815 -227.147473 
L 242.085617 -224.960451 
L 243.226539 -222.773429 
L 244.371593 -220.586407 
L 245.514203 -218.399384 
L 246.651282 -216.212362 
L 247.783616 -214.02534 
L 248.915745 -211.838318 
L 250.055223 -209.651295 
L 251.211323 -207.464273 
L 252.393353 -205.277251 
L 253.608845 -203.090229 
L 254.861925 -200.903207 
L 256.152105 -198.716184 
L 257.473612 -196.529162 
L 258.815246 -194.34214 
L 260.160591 -192.155118 
L 261.488392 -189.968095 
L 262.772876 -187.781073 
L 263.983974 -185.594051 
L 265.087496 -183.407029 
L 266.045495 -181.220006 
L 266.817108 -179.032984 
L 267.360153 -176.845962 
L 267.633594 -174.65894 
L 267.600796 -172.471917 
L 267.233227 -170.284895 
L 266.514077 -168.097873 
L 265.441172 -165.910851 
L 264.028632 -163.723829 
L 262.306879 -161.536806 
L 260.320912 -159.349784 
L 258.127051 -157.162762 
L 255.788629 -154.97574 
L 253.371256 -152.788717 
L 250.938305 -150.601695 
L 248.547169 -148.414673 
L 246.246632 -146.227651 
L 244.075464 -144.040628 
L 242.06215 -141.853606 
L 240.225472 -139.666584 
L 238.575658 -137.479562 
L 237.115747 -135.29254 
L 235.842979 -133.105517 
L 234.750026 -130.918495 
L 233.826057 -128.731473 
L 233.057633 -126.544451 
L 232.429492 -124.357428 
L 231.925265 -122.170406 
L 231.528164 -119.983384 
L 231.221617 -117.796362 
L 230.989848 -115.609339 
z
" id="md6f99e048b" style="stroke:#6a6a6a;stroke-width:1.5;"/>
    </defs>
    <g clip-path="url(#pcf931c8a42)">
     <use style="fill:#f6f6bc;stroke:#6a6a6a;stroke-width:1.5;" x="0" xlink:href="#md6f99e048b" y="901.145703"/>
    </g>
   </g>
   <g id="PolyCollection_3">
    <defs>
     <path d="M 305.214733 -450.528574 
L 304.452454 -450.528574 
L 304.331478 -452.192539 
L 304.181331 -453.856505 
L 303.998034 -455.52047 
L 303.777968 -457.184436 
L 303.518173 -458.848401 
L 303.216666 -460.512366 
L 302.872758 -462.176332 
L 302.48734 -463.840297 
L 302.063106 -465.504263 
L 301.604693 -467.168228 
L 301.118696 -468.832194 
L 300.613559 -470.496159 
L 300.099327 -472.160125 
L 299.587267 -473.82409 
L 299.089386 -475.488055 
L 298.617867 -477.152021 
L 298.184478 -478.815986 
L 297.79999 -480.479952 
L 297.473654 -482.143917 
L 297.212774 -483.807883 
L 297.022406 -485.471848 
L 296.905203 -487.135813 
L 296.861404 -488.799779 
L 296.888954 -490.463744 
L 296.983739 -492.12771 
L 297.139893 -493.791675 
L 297.350156 -495.455641 
L 297.606234 -497.119606 
L 297.899132 -498.783571 
L 298.219438 -500.447537 
L 298.557533 -502.111502 
L 298.903714 -503.775468 
L 299.248246 -505.439433 
L 299.581313 -507.103399 
L 299.892926 -508.767364 
L 300.172765 -510.431329 
L 300.409998 -512.095295 
L 300.593112 -513.75926 
L 300.709753 -515.423226 
L 300.746642 -517.087191 
L 300.689564 -518.751157 
L 300.523482 -520.415122 
L 300.232791 -522.079087 
L 299.80172 -523.743053 
L 299.214922 -525.407018 
L 298.45822 -527.070984 
L 297.519513 -528.734949 
L 296.389806 -530.398915 
L 295.064322 -532.06288 
L 293.543613 -533.726845 
L 291.834605 -535.390811 
L 289.951467 -537.054776 
L 287.916218 -538.718742 
L 285.758955 -540.382707 
L 283.517641 -542.046673 
L 281.237381 -543.710638 
L 278.969167 -545.374604 
L 276.768122 -547.038569 
L 274.691299 -548.702534 
L 272.795175 -550.3665 
L 271.13297 -552.030465 
L 269.752005 -553.694431 
L 268.691285 -555.358396 
L 267.979496 -557.022362 
L 267.633594 -558.686327 
L 267.658084 -560.350292 
L 268.045068 -562.014258 
L 268.775029 -563.678223 
L 269.818292 -565.342189 
L 271.137015 -567.006154 
L 272.687536 -568.67012 
L 274.422868 -570.334085 
L 276.295144 -571.99805 
L 278.257835 -573.662016 
L 280.267583 -575.325981 
L 282.285577 -576.989947 
L 284.278418 -578.653912 
L 286.218507 -580.317878 
L 288.084 -581.981843 
L 289.858435 -583.645808 
L 291.530126 -585.309774 
L 293.091446 -586.973739 
L 294.538084 -588.637705 
L 295.868345 -590.30167 
L 297.082568 -591.965636 
L 298.182647 -593.629601 
L 299.171689 -595.293566 
L 300.053773 -596.957532 
L 300.833785 -598.621497 
L 301.517307 -600.285463 
L 302.110522 -601.949428 
L 302.620119 -603.613394 
L 303.053178 -605.277359 
L 303.417045 -606.941324 
L 303.719176 -608.60529 
L 303.966981 -610.269255 
L 304.167664 -611.933221 
L 304.328078 -613.597186 
L 304.454601 -615.261152 
L 305.212587 -615.261152 
L 305.212587 -615.261152 
L 305.33911 -613.597186 
L 305.499524 -611.933221 
L 305.700207 -610.269255 
L 305.948011 -608.60529 
L 306.250142 -606.941324 
L 306.614009 -605.277359 
L 307.047069 -603.613394 
L 307.556665 -601.949428 
L 308.149881 -600.285463 
L 308.833403 -598.621497 
L 309.613415 -596.957532 
L 310.495499 -595.293566 
L 311.484541 -593.629601 
L 312.58462 -591.965636 
L 313.798842 -590.30167 
L 315.129104 -588.637705 
L 316.575741 -586.973739 
L 318.137062 -585.309774 
L 319.808753 -583.645808 
L 321.583187 -581.981843 
L 323.448681 -580.317878 
L 325.38877 -578.653912 
L 327.381611 -576.989947 
L 329.399604 -575.325981 
L 331.409352 -573.662016 
L 333.372043 -571.99805 
L 335.24432 -570.334085 
L 336.979651 -568.67012 
L 338.530172 -567.006154 
L 339.848895 -565.342189 
L 340.892158 -563.678223 
L 341.622119 -562.014258 
L 342.009103 -560.350292 
L 342.033594 -558.686327 
L 341.687691 -557.022362 
L 340.975903 -555.358396 
L 339.915182 -553.694431 
L 338.534218 -552.030465 
L 336.872012 -550.3665 
L 334.975888 -548.702534 
L 332.899066 -547.038569 
L 330.69802 -545.374604 
L 328.429807 -543.710638 
L 326.149547 -542.046673 
L 323.908233 -540.382707 
L 321.75097 -538.718742 
L 319.71572 -537.054776 
L 317.832583 -535.390811 
L 316.123574 -533.726845 
L 314.602865 -532.06288 
L 313.277381 -530.398915 
L 312.147675 -528.734949 
L 311.208967 -527.070984 
L 310.452265 -525.407018 
L 309.865468 -523.743053 
L 309.434397 -522.079087 
L 309.143705 -520.415122 
L 308.977624 -518.751157 
L 308.920545 -517.087191 
L 308.957434 -515.423226 
L 309.074076 -513.75926 
L 309.257189 -512.095295 
L 309.494423 -510.431329 
L 309.774261 -508.767364 
L 310.085874 -507.103399 
L 310.418942 -505.439433 
L 310.763473 -503.775468 
L 311.109655 -502.111502 
L 311.447749 -500.447537 
L 311.768055 -498.783571 
L 312.060954 -497.119606 
L 312.317032 -495.455641 
L 312.527295 -493.791675 
L 312.683449 -492.12771 
L 312.778233 -490.463744 
L 312.805784 -488.799779 
L 312.761985 -487.135813 
L 312.644782 -485.471848 
L 312.454413 -483.807883 
L 312.193533 -482.143917 
L 311.867197 -480.479952 
L 311.48271 -478.815986 
L 311.049321 -477.152021 
L 310.577802 -475.488055 
L 310.07992 -473.82409 
L 309.56786 -472.160125 
L 309.053628 -470.496159 
L 308.548491 -468.832194 
L 308.062494 -467.168228 
L 307.604081 -465.504263 
L 307.179848 -463.840297 
L 306.794429 -462.176332 
L 306.450522 -460.512366 
L 306.149015 -458.848401 
L 305.88922 -457.184436 
L 305.669154 -455.52047 
L 305.485856 -453.856505 
L 305.335709 -452.192539 
L 305.214733 -450.528574 
z
" id="m7ea87fa97e" style="stroke:#6a6a6a;stroke-width:1.5;"/>
    </defs>
    <g clip-path="url(#pcf931c8a42)">
     <use style="fill:#c1bed6;stroke:#6a6a6a;stroke-width:1.5;" x="0" xlink:href="#m7ea87fa97e" y="901.145703"/>
    </g>
   </g>
   <g id="PolyCollection_4">
    <defs>
     <path d="M 435.23328 -533.438902 
L 434.833907 -533.438902 
L 434.76789 -536.409286 
L 434.687727 -539.379669 
L 434.593152 -542.350053 
L 434.484878 -545.320437 
L 434.364785 -548.29082 
L 434.236009 -551.261204 
L 434.102889 -554.231588 
L 433.970749 -557.201972 
L 433.845506 -560.172355 
L 433.733116 -563.142739 
L 433.638907 -566.113123 
L 433.566853 -569.083506 
L 433.518868 -572.05389 
L 433.494199 -575.024274 
L 433.488975 -577.994657 
L 433.495957 -580.965041 
L 433.504524 -583.935425 
L 433.500878 -586.905808 
L 433.468458 -589.876192 
L 433.388543 -592.846576 
L 433.241004 -595.816959 
L 433.005201 -598.787343 
L 432.660978 -601.757727 
L 432.189758 -604.72811 
L 431.575666 -607.698494 
L 430.80663 -610.668878 
L 429.875349 -613.639261 
L 428.780014 -616.609645 
L 427.524648 -619.580029 
L 426.118961 -622.550412 
L 424.577683 -625.520796 
L 422.919406 -628.49118 
L 421.165084 -631.461563 
L 419.336423 -634.431947 
L 417.454472 -637.402331 
L 415.538706 -640.372714 
L 413.606831 -643.343098 
L 411.67542 -646.313482 
L 409.761292 -649.283865 
L 407.883343 -652.254249 
L 406.064432 -655.224633 
L 404.332802 -658.195016 
L 402.722577 -661.1654 
L 401.273036 -664.135784 
L 400.026558 -667.106168 
L 399.02543 -670.076551 
L 398.307949 -673.046935 
L 397.904405 -676.017319 
L 397.833594 -678.987702 
L 398.100434 -681.958086 
L 398.695046 -684.92847 
L 399.59342 -687.898853 
L 400.759512 -690.869237 
L 402.148389 -693.839621 
L 403.709905 -696.810004 
L 405.392377 -699.780388 
L 407.1458 -702.750772 
L 408.924281 -705.721155 
L 410.687586 -708.691539 
L 412.401827 -711.661923 
L 414.039482 -714.632306 
L 415.578966 -717.60269 
L 417.004 -720.573074 
L 418.30296 -723.543457 
L 419.468326 -726.513841 
L 420.496256 -729.484225 
L 421.386298 -732.454608 
L 422.14117 -735.424992 
L 422.766598 -738.395376 
L 423.271158 -741.365759 
L 423.666125 -744.336143 
L 423.965319 -747.306527 
L 424.184923 -750.27691 
L 424.343256 -753.247294 
L 424.460438 -756.217678 
L 424.557888 -759.188061 
L 424.657604 -762.158445 
L 424.781206 -765.128829 
L 424.948764 -768.099212 
L 425.177509 -771.069596 
L 425.480554 -774.03998 
L 425.865811 -777.010364 
L 426.335249 -779.980747 
L 426.884654 -782.951131 
L 427.503945 -785.921515 
L 428.178042 -788.891898 
L 428.888198 -791.862282 
L 429.613639 -794.832666 
L 430.333308 -797.803049 
L 431.02752 -800.773433 
L 431.679344 -803.743817 
L 432.275575 -806.7142 
L 432.807259 -809.684584 
L 433.26975 -812.654968 
L 433.662376 -815.625351 
L 433.987808 -818.595735 
L 434.251258 -821.566119 
L 434.459623 -824.536502 
L 434.620667 -827.506886 
L 435.44652 -827.506886 
L 435.44652 -827.506886 
L 435.607565 -824.536502 
L 435.81593 -821.566119 
L 436.07938 -818.595735 
L 436.404811 -815.625351 
L 436.797437 -812.654968 
L 437.259928 -809.684584 
L 437.791613 -806.7142 
L 438.387844 -803.743817 
L 439.039667 -800.773433 
L 439.73388 -797.803049 
L 440.453549 -794.832666 
L 441.178989 -791.862282 
L 441.889145 -788.891898 
L 442.563242 -785.921515 
L 443.182533 -782.951131 
L 443.731939 -779.980747 
L 444.201376 -777.010364 
L 444.586633 -774.03998 
L 444.889679 -771.069596 
L 445.118423 -768.099212 
L 445.285981 -765.128829 
L 445.409583 -762.158445 
L 445.509299 -759.188061 
L 445.606749 -756.217678 
L 445.723931 -753.247294 
L 445.882264 -750.27691 
L 446.101868 -747.306527 
L 446.401062 -744.336143 
L 446.79603 -741.365759 
L 447.30059 -738.395376 
L 447.926017 -735.424992 
L 448.68089 -732.454608 
L 449.570931 -729.484225 
L 450.598862 -726.513841 
L 451.764227 -723.543457 
L 453.063188 -720.573074 
L 454.488221 -717.60269 
L 456.027705 -714.632306 
L 457.66536 -711.661923 
L 459.379602 -708.691539 
L 461.142906 -705.721155 
L 462.921387 -702.750772 
L 464.67481 -699.780388 
L 466.357283 -696.810004 
L 467.918798 -693.839621 
L 469.307675 -690.869237 
L 470.473768 -687.898853 
L 471.372142 -684.92847 
L 471.966754 -681.958086 
L 472.233594 -678.987702 
L 472.162783 -676.017319 
L 471.759238 -673.046935 
L 471.041758 -670.076551 
L 470.04063 -667.106168 
L 468.794152 -664.135784 
L 467.344611 -661.1654 
L 465.734386 -658.195016 
L 464.002755 -655.224633 
L 462.183845 -652.254249 
L 460.305896 -649.283865 
L 458.391767 -646.313482 
L 456.460357 -643.343098 
L 454.528481 -640.372714 
L 452.612715 -637.402331 
L 450.730765 -634.431947 
L 448.902104 -631.461563 
L 447.147781 -628.49118 
L 445.489505 -625.520796 
L 443.948227 -622.550412 
L 442.54254 -619.580029 
L 441.287173 -616.609645 
L 440.191838 -613.639261 
L 439.260558 -610.668878 
L 438.491521 -607.698494 
L 437.877429 -604.72811 
L 437.40621 -601.757727 
L 437.061987 -598.787343 
L 436.826183 -595.816959 
L 436.678645 -592.846576 
L 436.598729 -589.876192 
L 436.566309 -586.905808 
L 436.562663 -583.935425 
L 436.571231 -580.965041 
L 436.578213 -577.994657 
L 436.572988 -575.024274 
L 436.54832 -572.05389 
L 436.500335 -569.083506 
L 436.42828 -566.113123 
L 436.334071 -563.142739 
L 436.221682 -560.172355 
L 436.096439 -557.201972 
L 435.964299 -554.231588 
L 435.831178 -551.261204 
L 435.702402 -548.29082 
L 435.582309 -545.320437 
L 435.474035 -542.350053 
L 435.37946 -539.379669 
L 435.299297 -536.409286 
L 435.23328 -533.438902 
z
" id="m5fb793be93" style="stroke:#6a6a6a;stroke-width:1.5;"/>
    </defs>
    <g clip-path="url(#pcf931c8a42)">
     <use style="fill:#96cac1;stroke:#6a6a6a;stroke-width:1.5;" x="0" xlink:href="#m5fb793be93" y="901.145703"/>
    </g>
   </g>
   <g id="PolyCollection_5">
    <defs>
     <path d="M 509.903405 -229.151438 
L 508.963783 -229.151438 
L 508.730389 -233.62122 
L 508.404833 -238.091003 
L 507.961124 -242.560785 
L 507.36969 -247.030567 
L 506.59812 -251.50035 
L 505.612485 -255.970132 
L 504.379408 -260.439915 
L 502.869023 -264.909697 
L 501.058885 -269.379479 
L 498.938686 -273.849262 
L 496.515387 -278.319044 
L 493.818022 -282.788826 
L 490.901198 -287.258609 
L 487.846205 -291.728391 
L 484.758796 -296.198174 
L 481.763153 -300.667956 
L 478.992244 -305.137738 
L 476.575585 -309.607521 
L 474.626092 -314.077303 
L 473.228123 -318.547085 
L 472.428724 -323.016868 
L 472.233594 -327.48665 
L 472.608361 -331.956432 
L 473.484784 -336.426215 
L 474.770567 -340.895997 
L 476.360932 -345.36578 
L 478.150014 -349.835562 
L 480.040438 -354.305344 
L 481.950116 -358.775127 
L 483.815956 -363.244909 
L 485.594823 -367.714691 
L 487.26241 -372.184474 
L 488.810772 -376.654256 
L 490.245151 -381.124038 
L 491.580458 -385.593821 
L 492.837611 -390.063603 
L 494.039816 -394.533386 
L 495.208921 -399.003168 
L 496.362112 -403.47295 
L 497.50933 -407.942733 
L 498.651819 -412.412515 
L 499.782128 -416.882297 
L 500.885619 -421.35208 
L 501.94324 -425.821862 
L 502.935025 -430.291644 
L 503.843596 -434.761427 
L 504.656979 -439.231209 
L 505.370179 -443.700992 
L 505.985326 -448.170774 
L 506.510501 -452.640556 
L 506.957656 -457.110339 
L 507.340211 -461.580121 
L 507.670863 -466.049903 
L 507.960041 -470.519686 
L 508.215184 -474.989468 
L 508.440815 -479.459251 
L 508.639182 -483.929033 
L 508.811192 -488.398815 
L 508.957326 -492.868598 
L 509.07835 -497.33838 
L 509.175704 -501.808162 
L 509.251589 -506.277945 
L 509.308806 -510.747727 
L 509.350478 -515.217509 
L 509.379731 -519.687292 
L 509.399423 -524.157074 
L 509.411946 -528.626857 
L 509.419115 -533.096639 
L 509.422112 -537.566421 
L 509.421475 -542.036204 
L 509.417099 -546.505986 
L 509.408242 -550.975768 
L 509.393549 -555.445551 
L 509.371097 -559.915333 
L 509.338516 -564.385115 
L 509.293203 -568.854898 
L 509.232663 -573.32468 
L 509.154964 -577.794463 
L 509.05929 -582.264245 
L 508.946492 -586.734027 
L 508.819539 -591.20381 
L 508.683723 -595.673592 
L 508.546527 -600.143374 
L 508.417071 -604.613157 
L 508.30518 -609.082939 
L 508.220176 -613.552721 
L 508.169606 -618.022504 
L 508.158137 -622.492286 
L 508.186843 -626.962069 
L 508.253045 -631.431851 
L 508.350718 -635.901633 
L 508.471396 -640.371416 
L 508.605384 -644.841198 
L 508.743025 -649.31098 
L 508.875812 -653.780763 
L 508.997167 -658.250545 
L 509.102805 -662.720328 
L 509.190721 -667.19011 
L 509.260851 -671.659892 
L 509.606336 -671.659892 
L 509.606336 -671.659892 
L 509.676467 -667.19011 
L 509.764382 -662.720328 
L 509.870021 -658.250545 
L 509.991375 -653.780763 
L 510.124162 -649.31098 
L 510.261803 -644.841198 
L 510.395791 -640.371416 
L 510.51647 -635.901633 
L 510.614142 -631.431851 
L 510.680344 -626.962069 
L 510.709051 -622.492286 
L 510.697581 -618.022504 
L 510.647011 -613.552721 
L 510.562008 -609.082939 
L 510.450116 -604.613157 
L 510.320661 -600.143374 
L 510.183464 -595.673592 
L 510.047649 -591.20381 
L 509.920695 -586.734027 
L 509.807898 -582.264245 
L 509.712224 -577.794463 
L 509.634525 -573.32468 
L 509.573984 -568.854898 
L 509.528672 -564.385115 
L 509.496091 -559.915333 
L 509.473639 -555.445551 
L 509.458945 -550.975768 
L 509.450089 -546.505986 
L 509.445713 -542.036204 
L 509.445076 -537.566421 
L 509.448073 -533.096639 
L 509.455241 -528.626857 
L 509.467765 -524.157074 
L 509.487456 -519.687292 
L 509.516709 -515.217509 
L 509.558382 -510.747727 
L 509.615599 -506.277945 
L 509.691483 -501.808162 
L 509.788838 -497.33838 
L 509.909861 -492.868598 
L 510.055995 -488.398815 
L 510.228005 -483.929033 
L 510.426373 -479.459251 
L 510.652003 -474.989468 
L 510.907147 -470.519686 
L 511.196324 -466.049903 
L 511.526976 -461.580121 
L 511.909531 -457.110339 
L 512.356687 -452.640556 
L 512.881861 -448.170774 
L 513.497009 -443.700992 
L 514.210209 -439.231209 
L 515.023591 -434.761427 
L 515.932163 -430.291644 
L 516.923947 -425.821862 
L 517.981569 -421.35208 
L 519.08506 -416.882297 
L 520.215368 -412.412515 
L 521.357857 -407.942733 
L 522.505075 -403.47295 
L 523.658267 -399.003168 
L 524.827372 -394.533386 
L 526.029577 -390.063603 
L 527.28673 -385.593821 
L 528.622036 -381.124038 
L 530.056415 -376.654256 
L 531.604778 -372.184474 
L 533.272364 -367.714691 
L 535.051232 -363.244909 
L 536.917072 -358.775127 
L 538.826749 -354.305344 
L 540.717174 -349.835562 
L 542.506255 -345.36578 
L 544.096621 -340.895997 
L 545.382404 -336.426215 
L 546.258827 -331.956432 
L 546.633594 -327.48665 
L 546.438463 -323.016868 
L 545.639065 -318.547085 
L 544.241095 -314.077303 
L 542.291602 -309.607521 
L 539.874943 -305.137738 
L 537.104034 -300.667956 
L 534.108391 -296.198174 
L 531.020983 -291.728391 
L 527.96599 -287.258609 
L 525.049166 -282.788826 
L 522.3518 -278.319044 
L 519.928502 -273.849262 
L 517.808303 -269.379479 
L 515.998164 -264.909697 
L 514.48778 -260.439915 
L 513.254703 -255.970132 
L 512.269068 -251.50035 
L 511.497498 -247.030567 
L 510.906064 -242.560785 
L 510.462355 -238.091003 
L 510.136798 -233.62122 
L 509.903405 -229.151438 
z
" id="mf23e0f0ead" style="stroke:#6a6a6a;stroke-width:1.5;"/>
    </defs>
    <g clip-path="url(#pcf931c8a42)">
     <use style="fill:#f6f6bc;stroke:#6a6a6a;stroke-width:1.5;" x="0" xlink:href="#mf23e0f0ead" y="901.145703"/>
    </g>
   </g>
   <g id="PolyCollection_6">
    <defs>
     <path d="M 584.033632 -507.514007 
L 583.633556 -507.514007 
L 583.565863 -509.054173 
L 583.481087 -510.594339 
L 583.376904 -512.134506 
L 583.251269 -513.674672 
L 583.102595 -515.214838 
L 582.92994 -516.755004 
L 582.733169 -518.29517 
L 582.513075 -519.835336 
L 582.271437 -521.375502 
L 582.010994 -522.915669 
L 581.735334 -524.455835 
L 581.448693 -525.996001 
L 581.15567 -527.536167 
L 580.860902 -529.076333 
L 580.56871 -530.616499 
L 580.282777 -532.156665 
L 580.005909 -533.696831 
L 579.739894 -535.236998 
L 579.485523 -536.777164 
L 579.242762 -538.31733 
L 579.01107 -539.857496 
L 578.789827 -541.397662 
L 578.578819 -542.937828 
L 578.378693 -544.477994 
L 578.191322 -546.018161 
L 578.019991 -547.558327 
L 577.869374 -549.098493 
L 577.74526 -550.638659 
L 577.654053 -552.178825 
L 577.602087 -553.718991 
L 577.594828 -555.259157 
L 577.636051 -556.799323 
L 577.727083 -558.33949 
L 577.866192 -559.879656 
L 578.048176 -561.419822 
L 578.264192 -562.959988 
L 578.501797 -564.500154 
L 578.745204 -566.04032 
L 578.97567 -567.580486 
L 579.171984 -569.120653 
L 579.310982 -570.660819 
L 579.368074 -572.200985 
L 579.317764 -573.741151 
L 579.134191 -575.281317 
L 578.791739 -576.821483 
L 578.265788 -578.361649 
L 577.533686 -579.901816 
L 576.575975 -581.441982 
L 575.377903 -582.982148 
L 573.93118 -584.522314 
L 572.23585 -586.06248 
L 570.302126 -587.602646 
L 568.151937 -589.142812 
L 565.81995 -590.682978 
L 563.353792 -592.223145 
L 560.813293 -593.763311 
L 558.268626 -595.303477 
L 555.797354 -596.843643 
L 553.480518 -598.383809 
L 551.398049 -599.923975 
L 549.623882 -601.464141 
L 548.221208 -603.004308 
L 547.238343 -604.544474 
L 546.705615 -606.08464 
L 546.633594 -607.624806 
L 547.012822 -609.164972 
L 547.815076 -610.705138 
L 548.995986 -612.245304 
L 550.49873 -613.785471 
L 552.258396 -615.325637 
L 554.206579 -616.865803 
L 556.275765 -618.405969 
L 558.40314 -619.946135 
L 560.533524 -621.486301 
L 562.621292 -623.026467 
L 564.631246 -624.566633 
L 566.538511 -626.1068 
L 568.327645 -627.646966 
L 569.991181 -629.187132 
L 571.527859 -630.727298 
L 572.940785 -632.267464 
L 574.23572 -633.80763 
L 575.41964 -635.347796 
L 576.499668 -636.887963 
L 577.482378 -638.428129 
L 578.373472 -639.968295 
L 579.177737 -641.508461 
L 579.899231 -643.048627 
L 580.541565 -644.588793 
L 581.108244 -646.128959 
L 581.602956 -647.669125 
L 582.029792 -649.209292 
L 582.393358 -650.749458 
L 582.69879 -652.289624 
L 582.951667 -653.82979 
L 583.157862 -655.369956 
L 583.323358 -656.910122 
L 583.454048 -658.450288 
L 583.555549 -659.990455 
L 584.111639 -659.990455 
L 584.111639 -659.990455 
L 584.21314 -658.450288 
L 584.343829 -656.910122 
L 584.509325 -655.369956 
L 584.715521 -653.82979 
L 584.968397 -652.289624 
L 585.273829 -650.749458 
L 585.637396 -649.209292 
L 586.064231 -647.669125 
L 586.558943 -646.128959 
L 587.125622 -644.588793 
L 587.767957 -643.048627 
L 588.48945 -641.508461 
L 589.293716 -639.968295 
L 590.184809 -638.428129 
L 591.16752 -636.887963 
L 592.247547 -635.347796 
L 593.431468 -633.80763 
L 594.726402 -632.267464 
L 596.139328 -630.727298 
L 597.676007 -629.187132 
L 599.339542 -627.646966 
L 601.128676 -626.1068 
L 603.035941 -624.566633 
L 605.045895 -623.026467 
L 607.133664 -621.486301 
L 609.264047 -619.946135 
L 611.391422 -618.405969 
L 613.460609 -616.865803 
L 615.408791 -615.325637 
L 617.168457 -613.785471 
L 618.671201 -612.245304 
L 619.852112 -610.705138 
L 620.654366 -609.164972 
L 621.033594 -607.624806 
L 620.961572 -606.08464 
L 620.428845 -604.544474 
L 619.44598 -603.004308 
L 618.043305 -601.464141 
L 616.269138 -599.923975 
L 614.18667 -598.383809 
L 611.869833 -596.843643 
L 609.398561 -595.303477 
L 606.853894 -593.763311 
L 604.313395 -592.223145 
L 601.847237 -590.682978 
L 599.51525 -589.142812 
L 597.365062 -587.602646 
L 595.431337 -586.06248 
L 593.736008 -584.522314 
L 592.289284 -582.982148 
L 591.091213 -581.441982 
L 590.133501 -579.901816 
L 589.401399 -578.361649 
L 588.875449 -576.821483 
L 588.532996 -575.281317 
L 588.349423 -573.741151 
L 588.299114 -572.200985 
L 588.356206 -570.660819 
L 588.495203 -569.120653 
L 588.691517 -567.580486 
L 588.921984 -566.04032 
L 589.165391 -564.500154 
L 589.402996 -562.959988 
L 589.619011 -561.419822 
L 589.800996 -559.879656 
L 589.940105 -558.33949 
L 590.031137 -556.799323 
L 590.07236 -555.259157 
L 590.0651 -553.718991 
L 590.013134 -552.178825 
L 589.921927 -550.638659 
L 589.797813 -549.098493 
L 589.647196 -547.558327 
L 589.475866 -546.018161 
L 589.288494 -544.477994 
L 589.088368 -542.937828 
L 588.87736 -541.397662 
L 588.656118 -539.857496 
L 588.424425 -538.31733 
L 588.181664 -536.777164 
L 587.927293 -535.236998 
L 587.661278 -533.696831 
L 587.38441 -532.156665 
L 587.098478 -530.616499 
L 586.806285 -529.076333 
L 586.511517 -527.536167 
L 586.218495 -525.996001 
L 585.931853 -524.455835 
L 585.656194 -522.915669 
L 585.39575 -521.375502 
L 585.154112 -519.835336 
L 584.934019 -518.29517 
L 584.737248 -516.755004 
L 584.564593 -515.214838 
L 584.415918 -513.674672 
L 584.290283 -512.134506 
L 584.186101 -510.594339 
L 584.101325 -509.054173 
L 584.033632 -507.514007 
z
" id="m733bc929be" style="stroke:#6a6a6a;stroke-width:1.5;"/>
    </defs>
    <g clip-path="url(#pcf931c8a42)">
     <use style="fill:#c1bed6;stroke:#6a6a6a;stroke-width:1.5;" x="0" xlink:href="#m733bc929be" y="901.145703"/>
    </g>
   </g>
   <g id="PolyCollection_7">
    <defs>
     <path d="M 714.224391 -578.107931 
L 713.842796 -578.107931 
L 713.774708 -580.791547 
L 713.69108 -583.475164 
L 713.591735 -586.15878 
L 713.477789 -588.842397 
L 713.35189 -591.526013 
L 713.218319 -594.20963 
L 713.082887 -596.893246 
L 712.952599 -599.576863 
L 712.8351 -602.260479 
L 712.737958 -604.944096 
L 712.667861 -607.627713 
L 712.629854 -610.311329 
L 712.626742 -612.994946 
L 712.658732 -615.678562 
L 712.723403 -618.362179 
L 712.815983 -621.045795 
L 712.929889 -623.729412 
L 713.057434 -626.413028 
L 713.190575 -629.096645 
L 713.321577 -631.780261 
L 713.443494 -634.463878 
L 713.550394 -637.147494 
L 713.637325 -639.831111 
L 713.700021 -642.514728 
L 713.734429 -645.198344 
L 713.736134 -647.881961 
L 713.69976 -650.565577 
L 713.618465 -653.249194 
L 713.483577 -655.93281 
L 713.284469 -658.616427 
L 713.00867 -661.300043 
L 712.642249 -663.98366 
L 712.170429 -666.667276 
L 711.578371 -669.350893 
L 710.852044 -672.03451 
L 709.979078 -674.718126 
L 708.949503 -677.401743 
L 707.756298 -680.085359 
L 706.395732 -682.768976 
L 704.867535 -685.452592 
L 703.174986 -688.136209 
L 701.325079 -690.819825 
L 699.32889 -693.503442 
L 697.202285 -696.187058 
L 694.966962 -698.870675 
L 692.651748 -701.554291 
L 690.293883 -704.237908 
L 687.93995 -706.921525 
L 685.645996 -709.605141 
L 683.476483 -712.288758 
L 681.501761 -714.972374 
L 679.794053 -717.655991 
L 678.422181 -720.339607 
L 677.445555 -723.023224 
L 676.908187 -725.70684 
L 676.833594 -728.390457 
L 677.221387 -731.074073 
L 678.046165 -733.75769 
L 679.258981 -736.441307 
L 680.791275 -739.124923 
L 682.560787 -741.80854 
L 684.478674 -744.492156 
L 686.456915 -747.175773 
L 688.415102 -749.859389 
L 690.285842 -752.543006 
L 692.018273 -755.226622 
L 693.57949 -757.910239 
L 694.953956 -760.593855 
L 696.141255 -763.277472 
L 697.152687 -765.961088 
L 698.007328 -768.644705 
L 698.728134 -771.328322 
L 699.338651 -774.011938 
L 699.860684 -776.695555 
L 700.313123 -779.379171 
L 700.711899 -782.062788 
L 701.070824 -784.746404 
L 701.40293 -787.430021 
L 701.721826 -790.113637 
L 702.04263 -792.797254 
L 702.382126 -795.48087 
L 702.758025 -798.164487 
L 703.187386 -800.848104 
L 703.684526 -803.53172 
L 704.258827 -806.215337 
L 704.912936 -808.898953 
L 705.64175 -811.58257 
L 706.432451 -814.266186 
L 707.265618 -816.949803 
L 708.117237 -819.633419 
L 708.96128 -822.317036 
L 709.772423 -825.000652 
L 710.528475 -827.684269 
L 711.212209 -830.367885 
L 711.81239 -833.051502 
L 712.323975 -835.735119 
L 712.747583 -838.418735 
L 713.088448 -841.102352 
L 713.355082 -843.785968 
L 714.712105 -843.785968 
L 714.712105 -843.785968 
L 714.97874 -841.102352 
L 715.319605 -838.418735 
L 715.743213 -835.735119 
L 716.254797 -833.051502 
L 716.854979 -830.367885 
L 717.538713 -827.684269 
L 718.294764 -825.000652 
L 719.105907 -822.317036 
L 719.949951 -819.633419 
L 720.80157 -816.949803 
L 721.634736 -814.266186 
L 722.425437 -811.58257 
L 723.154251 -808.898953 
L 723.80836 -806.215337 
L 724.382662 -803.53172 
L 724.879802 -800.848104 
L 725.309163 -798.164487 
L 725.685061 -795.48087 
L 726.024558 -792.797254 
L 726.345361 -790.113637 
L 726.664258 -787.430021 
L 726.996363 -784.746404 
L 727.355289 -782.062788 
L 727.754065 -779.379171 
L 728.206504 -776.695555 
L 728.728536 -774.011938 
L 729.339054 -771.328322 
L 730.05986 -768.644705 
L 730.9145 -765.961088 
L 731.925933 -763.277472 
L 733.113231 -760.593855 
L 734.487697 -757.910239 
L 736.048914 -755.226622 
L 737.781346 -752.543006 
L 739.652086 -749.859389 
L 741.610273 -747.175773 
L 743.588514 -744.492156 
L 745.5064 -741.80854 
L 747.275912 -739.124923 
L 748.808206 -736.441307 
L 750.021022 -733.75769 
L 750.8458 -731.074073 
L 751.233594 -728.390457 
L 751.159001 -725.70684 
L 750.621633 -723.023224 
L 749.645006 -720.339607 
L 748.273134 -717.655991 
L 746.565427 -714.972374 
L 744.590705 -712.288758 
L 742.421191 -709.605141 
L 740.127238 -706.921525 
L 737.773304 -704.237908 
L 735.41544 -701.554291 
L 733.100226 -698.870675 
L 730.864903 -696.187058 
L 728.738298 -693.503442 
L 726.742109 -690.819825 
L 724.892201 -688.136209 
L 723.199653 -685.452592 
L 721.671455 -682.768976 
L 720.31089 -680.085359 
L 719.117685 -677.401743 
L 718.08811 -674.718126 
L 717.215144 -672.03451 
L 716.488817 -669.350893 
L 715.896758 -666.667276 
L 715.424938 -663.98366 
L 715.058518 -661.300043 
L 714.782718 -658.616427 
L 714.58361 -655.93281 
L 714.448723 -653.249194 
L 714.367427 -650.565577 
L 714.331054 -647.881961 
L 714.332758 -645.198344 
L 714.367167 -642.514728 
L 714.429862 -639.831111 
L 714.516793 -637.147494 
L 714.623694 -634.463878 
L 714.74561 -631.780261 
L 714.876612 -629.096645 
L 715.009753 -626.413028 
L 715.137298 -623.729412 
L 715.251204 -621.045795 
L 715.343784 -618.362179 
L 715.408456 -615.678562 
L 715.440446 -612.994946 
L 715.437333 -610.311329 
L 715.399327 -607.627713 
L 715.329229 -604.944096 
L 715.232087 -602.260479 
L 715.114589 -599.576863 
L 714.9843 -596.893246 
L 714.848868 -594.20963 
L 714.715298 -591.526013 
L 714.589398 -588.842397 
L 714.475452 -586.15878 
L 714.376108 -583.475164 
L 714.29248 -580.791547 
L 714.224391 -578.107931 
z
" id="m3620bd941b" style="stroke:#6a6a6a;stroke-width:1.5;"/>
    </defs>
    <g clip-path="url(#pcf931c8a42)">
     <use style="fill:#96cac1;stroke:#6a6a6a;stroke-width:1.5;" x="0" xlink:href="#m3620bd941b" y="901.145703"/>
    </g>
   </g>
   <g id="PolyCollection_8">
    <defs>
     <path d="M 789.212625 -416.743207 
L 787.654563 -416.743207 
L 787.291899 -421.189054 
L 786.806106 -425.634901 
L 786.17535 -430.080748 
L 785.381028 -434.526596 
L 784.410116 -438.972443 
L 783.257183 -443.41829 
L 781.925679 -447.864137 
L 780.428191 -452.309984 
L 778.785548 -456.755831 
L 777.024858 -461.201678 
L 775.176749 -465.647525 
L 773.272243 -470.093372 
L 771.339746 -474.539219 
L 769.402642 -478.985066 
L 767.47792 -483.430913 
L 765.576167 -487.87676 
L 763.703103 -492.322607 
L 761.862653 -496.768454 
L 760.0612 -501.214302 
L 758.312393 -505.660149 
L 756.641503 -510.105996 
L 755.088202 -514.551843 
L 753.706706 -518.99769 
L 752.56265 -523.443537 
L 751.726722 -527.889384 
L 751.265871 -532.335231 
L 751.233594 -536.781078 
L 751.661114 -541.226925 
L 752.551215 -545.672772 
L 753.875926 -550.118619 
L 755.578509 -554.564466 
L 757.579307 -559.010313 
L 759.784389 -563.45616 
L 762.095509 -567.902008 
L 764.419882 -572.347855 
L 766.67847 -576.793702 
L 768.811861 -581.239549 
L 770.783207 -585.685396 
L 772.578102 -590.131243 
L 774.20168 -594.57709 
L 775.673512 -599.022937 
L 777.021211 -603.468784 
L 778.273793 -607.914631 
L 779.455896 -612.360478 
L 780.583743 -616.806325 
L 781.663371 -621.252172 
L 782.691181 -625.698019 
L 783.656386 -630.143866 
L 784.544571 -634.589713 
L 785.341494 -639.035561 
L 786.03629 -643.481408 
L 786.623547 -647.927255 
L 787.104045 -652.373102 
L 787.484285 -656.818949 
L 787.775161 -661.264796 
L 787.990203 -665.710643 
L 788.143827 -670.15649 
L 788.249876 -674.602337 
L 788.320621 -679.048184 
L 788.36623 -683.494031 
L 788.394645 -687.939878 
L 788.411749 -692.385725 
L 788.421682 -696.831572 
L 788.427219 -701.277419 
L 788.430118 -705.723267 
L 788.431412 -710.169114 
L 788.431624 -714.614961 
L 788.430895 -719.060808 
L 788.429045 -723.506655 
L 788.425576 -727.952502 
L 788.419635 -732.398349 
L 788.409949 -736.844196 
L 788.394767 -741.290043 
L 788.371845 -745.73589 
L 788.338505 -750.181737 
L 788.291815 -754.627584 
L 788.228916 -759.073431 
L 788.147501 -763.519278 
L 788.046409 -767.965125 
L 787.926246 -772.410973 
L 787.789915 -776.85682 
L 787.642899 -781.302667 
L 787.49317 -785.748514 
L 787.350629 -790.194361 
L 787.226112 -794.640208 
L 787.130059 -799.086055 
L 787.071081 -803.531902 
L 787.054689 -807.977749 
L 787.082444 -812.423596 
L 787.15171 -816.869443 
L 787.256071 -821.31529 
L 787.386306 -825.761137 
L 787.531735 -830.206984 
L 787.681648 -834.652831 
L 787.826564 -839.098678 
L 787.959123 -843.544526 
L 788.074519 -847.990373 
L 788.170484 -852.43622 
L 788.246929 -856.882067 
L 788.620259 -856.882067 
L 788.620259 -856.882067 
L 788.696703 -852.43622 
L 788.792669 -847.990373 
L 788.908065 -843.544526 
L 789.040624 -839.098678 
L 789.185539 -834.652831 
L 789.335452 -830.206984 
L 789.480882 -825.761137 
L 789.611117 -821.31529 
L 789.715477 -816.869443 
L 789.784744 -812.423596 
L 789.812498 -807.977749 
L 789.796106 -803.531902 
L 789.737129 -799.086055 
L 789.641075 -794.640208 
L 789.516558 -790.194361 
L 789.374017 -785.748514 
L 789.224288 -781.302667 
L 789.077273 -776.85682 
L 788.940942 -772.410973 
L 788.820779 -767.965125 
L 788.719686 -763.519278 
L 788.638271 -759.073431 
L 788.575372 -754.627584 
L 788.528682 -750.181737 
L 788.495343 -745.73589 
L 788.472421 -741.290043 
L 788.457239 -736.844196 
L 788.447552 -732.398349 
L 788.441611 -727.952502 
L 788.438143 -723.506655 
L 788.436292 -719.060808 
L 788.435563 -714.614961 
L 788.435775 -710.169114 
L 788.43707 -705.723267 
L 788.439968 -701.277419 
L 788.445505 -696.831572 
L 788.455439 -692.385725 
L 788.472543 -687.939878 
L 788.500958 -683.494031 
L 788.546566 -679.048184 
L 788.617311 -674.602337 
L 788.723361 -670.15649 
L 788.876985 -665.710643 
L 789.092026 -661.264796 
L 789.382902 -656.818949 
L 789.763143 -652.373102 
L 790.243641 -647.927255 
L 790.830898 -643.481408 
L 791.525694 -639.035561 
L 792.322617 -634.589713 
L 793.210802 -630.143866 
L 794.176006 -625.698019 
L 795.203817 -621.252172 
L 796.283445 -616.806325 
L 797.411291 -612.360478 
L 798.593395 -607.914631 
L 799.845976 -603.468784 
L 801.193675 -599.022937 
L 802.665508 -594.57709 
L 804.289086 -590.131243 
L 806.083981 -585.685396 
L 808.055326 -581.239549 
L 810.188718 -576.793702 
L 812.447306 -572.347855 
L 814.771678 -567.902008 
L 817.082799 -563.45616 
L 819.287881 -559.010313 
L 821.288678 -554.564466 
L 822.991261 -550.118619 
L 824.315973 -545.672772 
L 825.206073 -541.226925 
L 825.633594 -536.781078 
L 825.601316 -532.335231 
L 825.140465 -527.889384 
L 824.304537 -523.443537 
L 823.160482 -518.99769 
L 821.778986 -514.551843 
L 820.225684 -510.105996 
L 818.554794 -505.660149 
L 816.805988 -501.214302 
L 815.004535 -496.768454 
L 813.164084 -492.322607 
L 811.291021 -487.87676 
L 809.389267 -483.430913 
L 807.464546 -478.985066 
L 805.527442 -474.539219 
L 803.594945 -470.093372 
L 801.690439 -465.647525 
L 799.84233 -461.201678 
L 798.08164 -456.755831 
L 796.438997 -452.309984 
L 794.941508 -447.864137 
L 793.610004 -443.41829 
L 792.457072 -438.972443 
L 791.486159 -434.526596 
L 790.691837 -430.080748 
L 790.061082 -425.634901 
L 789.575289 -421.189054 
L 789.212625 -416.743207 
z
" id="m5f84f957b7" style="stroke:#6a6a6a;stroke-width:1.5;"/>
    </defs>
    <g clip-path="url(#pcf931c8a42)">
     <use style="fill:#f6f6bc;stroke:#6a6a6a;stroke-width:1.5;" x="0" xlink:href="#m5f84f957b7" y="901.145703"/>
    </g>
   </g>
   <g id="PolyCollection_9">
    <defs>
     <path d="M 863.007858 -565.491005 
L 862.65933 -565.491005 
L 862.601576 -566.950901 
L 862.53038 -568.410797 
L 862.444544 -569.870692 
L 862.343332 -571.330588 
L 862.226619 -572.790484 
L 862.094987 -574.250379 
L 861.949773 -575.710275 
L 861.793048 -577.170171 
L 861.627498 -578.630066 
L 861.456243 -580.089962 
L 861.282576 -581.549858 
L 861.109663 -583.009753 
L 860.940228 -584.469649 
L 860.776261 -585.929545 
L 860.61878 -587.38944 
L 860.467688 -588.849336 
L 860.321723 -590.309232 
L 860.17854 -591.769127 
L 860.034897 -593.229023 
L 859.886942 -594.688919 
L 859.730583 -596.148814 
L 859.561896 -597.60871 
L 859.377545 -599.068606 
L 859.175186 -600.528501 
L 858.953812 -601.988397 
L 858.71402 -603.448293 
L 858.458187 -604.908188 
L 858.19053 -606.368084 
L 857.917045 -607.827979 
L 857.645327 -609.287875 
L 857.384255 -610.747771 
L 857.143547 -612.207666 
L 856.933183 -613.667562 
L 856.762713 -615.127458 
L 856.640472 -616.587353 
L 856.572733 -618.047249 
L 856.562867 -619.507145 
L 856.610569 -620.96704 
L 856.711224 -622.426936 
L 856.855479 -623.886832 
L 857.029065 -625.346727 
L 857.212908 -626.806623 
L 857.383513 -628.266519 
L 857.51361 -629.726414 
L 857.573019 -631.18631 
L 857.529695 -632.646206 
L 857.350923 -634.106101 
L 857.004657 -635.565997 
L 856.460985 -637.025893 
L 855.69374 -638.485788 
L 854.682235 -639.945684 
L 853.413091 -641.40558 
L 851.882059 -642.865475 
L 850.095714 -644.325371 
L 848.07281 -645.785267 
L 845.8451 -647.245162 
L 843.457396 -648.705058 
L 840.966704 -650.164954 
L 838.440356 -651.624849 
L 835.953147 -653.084745 
L 833.583631 -654.544641 
L 831.409843 -656.004536 
L 829.504792 -657.464432 
L 827.932146 -658.924328 
L 826.742497 -660.384223 
L 825.970564 -661.844119 
L 825.633594 -663.304014 
L 825.731053 -664.76391 
L 826.245625 -666.223806 
L 827.145317 -667.683701 
L 828.386434 -669.143597 
L 829.917067 -670.603493 
L 831.680727 -672.063388 
L 833.619796 -673.523284 
L 835.678494 -674.98318 
L 837.805191 -676.443075 
L 839.953971 -677.902971 
L 842.085457 -679.362867 
L 844.167001 -680.822762 
L 846.172393 -682.282658 
L 848.081251 -683.742554 
L 849.878273 -685.202449 
L 851.552479 -686.662345 
L 853.096545 -688.122241 
L 854.506256 -689.582136 
L 855.780104 -691.042032 
L 856.918986 -692.501928 
L 857.925965 -693.961823 
L 858.806054 -695.421719 
L 859.565981 -696.881615 
L 860.213916 -698.34151 
L 860.759158 -699.801406 
L 861.21178 -701.261302 
L 861.58227 -702.721197 
L 861.881172 -704.181093 
L 862.118754 -705.640989 
L 862.304735 -707.100884 
L 862.448062 -708.56078 
L 862.556765 -710.020676 
L 863.110423 -710.020676 
L 863.110423 -710.020676 
L 863.219126 -708.56078 
L 863.362453 -707.100884 
L 863.548433 -705.640989 
L 863.786015 -704.181093 
L 864.084917 -702.721197 
L 864.455408 -701.261302 
L 864.90803 -699.801406 
L 865.453271 -698.34151 
L 866.101207 -696.881615 
L 866.861134 -695.421719 
L 867.741223 -693.961823 
L 868.748202 -692.501928 
L 869.887083 -691.042032 
L 871.160931 -689.582136 
L 872.570642 -688.122241 
L 874.114708 -686.662345 
L 875.788915 -685.202449 
L 877.585936 -683.742554 
L 879.494794 -682.282658 
L 881.500186 -680.822762 
L 883.581731 -679.362867 
L 885.713216 -677.902971 
L 887.861996 -676.443075 
L 889.988694 -674.98318 
L 892.047391 -673.523284 
L 893.98646 -672.063388 
L 895.750121 -670.603493 
L 897.280753 -669.143597 
L 898.521871 -667.683701 
L 899.421562 -666.223806 
L 899.936134 -664.76391 
L 900.033594 -663.304014 
L 899.696623 -661.844119 
L 898.924691 -660.384223 
L 897.735041 -658.924328 
L 896.162396 -657.464432 
L 894.257345 -656.004536 
L 892.083556 -654.544641 
L 889.714041 -653.084745 
L 887.226831 -651.624849 
L 884.700484 -650.164954 
L 882.209792 -648.705058 
L 879.822087 -647.245162 
L 877.594378 -645.785267 
L 875.571474 -644.325371 
L 873.785129 -642.865475 
L 872.254097 -641.40558 
L 870.984952 -639.945684 
L 869.973447 -638.485788 
L 869.206202 -637.025893 
L 868.662531 -635.565997 
L 868.316265 -634.106101 
L 868.137493 -632.646206 
L 868.094168 -631.18631 
L 868.153577 -629.726414 
L 868.283675 -628.266519 
L 868.45428 -626.806623 
L 868.638123 -625.346727 
L 868.811709 -623.886832 
L 868.955963 -622.426936 
L 869.056619 -620.96704 
L 869.104321 -619.507145 
L 869.094454 -618.047249 
L 869.026715 -616.587353 
L 868.904474 -615.127458 
L 868.734005 -613.667562 
L 868.523641 -612.207666 
L 868.282932 -610.747771 
L 868.02186 -609.287875 
L 867.750143 -607.827979 
L 867.476657 -606.368084 
L 867.209 -604.908188 
L 866.953168 -603.448293 
L 866.713376 -601.988397 
L 866.492001 -600.528501 
L 866.289642 -599.068606 
L 866.105292 -597.60871 
L 865.936604 -596.148814 
L 865.780246 -594.688919 
L 865.632291 -593.229023 
L 865.488647 -591.769127 
L 865.345464 -590.309232 
L 865.1995 -588.849336 
L 865.048407 -587.38944 
L 864.890927 -585.929545 
L 864.726959 -584.469649 
L 864.557524 -583.009753 
L 864.384611 -581.549858 
L 864.210945 -580.089962 
L 864.03969 -578.630066 
L 863.87414 -577.170171 
L 863.717414 -575.710275 
L 863.572201 -574.250379 
L 863.440568 -572.790484 
L 863.323855 -571.330588 
L 863.222644 -569.870692 
L 863.136807 -568.410797 
L 863.065612 -566.950901 
L 863.007858 -565.491005 
z
" id="mf6828bcde1" style="stroke:#6a6a6a;stroke-width:1.5;"/>
    </defs>
    <g clip-path="url(#pcf931c8a42)">
     <use style="fill:#c1bed6;stroke:#6a6a6a;stroke-width:1.5;" x="0" xlink:href="#mf6828bcde1" y="901.145703"/>
    </g>
   </g>
   <g id="patch_3">
    <path clip-path="url(#pcf931c8a42)" d="M 230.433594 869.287905 
L 230.433594 869.287905 
L 230.433594 869.287905 
L 230.433594 869.287905 
z
" style="fill:#96cac1;stroke:#6a6a6a;stroke-linejoin:miter;stroke-width:0.75;"/>
   </g>
   <g id="patch_4">
    <path clip-path="url(#pcf931c8a42)" d="M 230.433594 869.287905 
L 230.433594 869.287905 
L 230.433594 869.287905 
L 230.433594 869.287905 
z
" style="fill:#f6f6bc;stroke:#6a6a6a;stroke-linejoin:miter;stroke-width:0.75;"/>
   </g>
   <g id="patch_5">
    <path clip-path="url(#pcf931c8a42)" d="M 230.433594 869.287905 
L 230.433594 869.287905 
L 230.433594 869.287905 
L 230.433594 869.287905 
z
" style="fill:#c1bed6;stroke:#6a6a6a;stroke-linejoin:miter;stroke-width:0.75;"/>
   </g>
   <g id="line2d_1">
    <path clip-path="url(#pcf931c8a42)" d="M 156.033594 320.156494 
L 156.033594 154.385911 
" style="fill:none;stroke:#6a6a6a;stroke-linecap:round;stroke-width:1.5;"/>
   </g>
   <g id="line2d_2">
    <path clip-path="url(#pcf931c8a42)" d="M 156.033594 276.258372 
L 156.033594 226.147706 
" style="fill:none;stroke:#6a6a6a;stroke-linecap:round;stroke-width:4.5;"/>
   </g>
   <g id="line2d_3">
    <path clip-path="url(#pcf931c8a42)" d="M 230.433594 757.671251 
L 230.433594 668.660302 
" style="fill:none;stroke:#6a6a6a;stroke-linecap:round;stroke-width:1.5;"/>
   </g>
   <g id="line2d_4">
    <path clip-path="url(#pcf931c8a42)" d="M 230.433594 733.735872 
L 230.433594 704.143339 
" style="fill:none;stroke:#6a6a6a;stroke-linecap:round;stroke-width:4.5;"/>
   </g>
   <g id="line2d_5">
    <path clip-path="url(#pcf931c8a42)" d="M 304.833594 365.827956 
L 304.833594 312.596792 
" style="fill:none;stroke:#6a6a6a;stroke-linecap:round;stroke-width:1.5;"/>
   </g>
   <g id="line2d_6">
    <path clip-path="url(#pcf931c8a42)" d="M 304.833594 354.244262 
L 304.833594 337.335544 
" style="fill:none;stroke:#6a6a6a;stroke-linecap:round;stroke-width:4.5;"/>
   </g>
   <g id="line2d_7">
    <path clip-path="url(#pcf931c8a42)" d="M 435.033594 271.96145 
L 435.033594 136.667303 
" style="fill:none;stroke:#6a6a6a;stroke-linecap:round;stroke-width:1.5;"/>
   </g>
   <g id="line2d_8">
    <path clip-path="url(#pcf931c8a42)" d="M 435.033594 233.463909 
L 435.033594 190.380411 
" style="fill:none;stroke:#6a6a6a;stroke-linecap:round;stroke-width:4.5;"/>
   </g>
   <g id="line2d_9">
    <path clip-path="url(#pcf931c8a42)" d="M 509.433594 621.86158 
L 509.433594 484.336332 
" style="fill:none;stroke:#6a6a6a;stroke-linecap:round;stroke-width:1.5;"/>
   </g>
   <g id="line2d_10">
    <path clip-path="url(#pcf931c8a42)" d="M 509.433594 584.311307 
L 509.433594 533.361129 
" style="fill:none;stroke:#6a6a6a;stroke-linecap:round;stroke-width:4.5;"/>
   </g>
   <g id="line2d_11">
    <path clip-path="url(#pcf931c8a42)" d="M 583.833594 317.589632 
L 583.833594 271.534029 
" style="fill:none;stroke:#6a6a6a;stroke-linecap:round;stroke-width:1.5;"/>
   </g>
   <g id="line2d_12">
    <path clip-path="url(#pcf931c8a42)" d="M 583.833594 301.847095 
L 583.833594 288.842619 
" style="fill:none;stroke:#6a6a6a;stroke-linecap:round;stroke-width:4.5;"/>
   </g>
   <g id="line2d_13">
    <path clip-path="url(#pcf931c8a42)" d="M 714.033594 211.352531 
L 714.033594 91.137209 
" style="fill:none;stroke:#6a6a6a;stroke-linecap:round;stroke-width:1.5;"/>
   </g>
   <g id="line2d_14">
    <path clip-path="url(#pcf931c8a42)" d="M 714.033594 182.066895 
L 714.033594 141.564001 
" style="fill:none;stroke:#6a6a6a;stroke-linecap:round;stroke-width:4.5;"/>
   </g>
   <g id="line2d_15">
    <path clip-path="url(#pcf931c8a42)" d="M 788.433594 434.921689 
L 788.433594 288.366529 
" style="fill:none;stroke:#6a6a6a;stroke-linecap:round;stroke-width:1.5;"/>
   </g>
   <g id="line2d_16">
    <path clip-path="url(#pcf931c8a42)" d="M 788.433594 395.693474 
L 788.433594 347.248979 
" style="fill:none;stroke:#6a6a6a;stroke-linecap:round;stroke-width:4.5;"/>
   </g>
   <g id="line2d_17">
    <path clip-path="url(#pcf931c8a42)" d="M 862.833594 258.955033 
L 862.833594 218.67588 
" style="fill:none;stroke:#6a6a6a;stroke-linecap:round;stroke-width:1.5;"/>
   </g>
   <g id="line2d_18">
    <path clip-path="url(#pcf931c8a42)" d="M 862.833594 245.734561 
L 862.833594 232.528688 
" style="fill:none;stroke:#6a6a6a;stroke-linecap:round;stroke-width:4.5;"/>
   </g>
   <g id="line2d_19">
    <path clip-path="url(#pcf931c8a42)" d="M 369.933594 822.6 
L 369.933594 7.2 
" style="fill:none;stroke:#555555;stroke-dasharray:7.4,3.2;stroke-dashoffset:0;stroke-width:2;"/>
   </g>
   <g id="line2d_20">
    <path clip-path="url(#pcf931c8a42)" d="M 648.933594 822.6 
L 648.933594 7.2 
" style="fill:none;stroke:#555555;stroke-dasharray:7.4,3.2;stroke-dashoffset:0;stroke-width:2;"/>
   </g>
   <g id="patch_6">
    <path d="M 90.933594 822.6 
L 90.933594 7.2 
" style="fill:none;stroke:#262626;stroke-linecap:square;stroke-linejoin:miter;stroke-width:1.25;"/>
   </g>
   <g id="patch_7">
    <path d="M 927.933594 822.6 
L 927.933594 7.2 
" style="fill:none;stroke:#262626;stroke-linecap:square;stroke-linejoin:miter;stroke-width:1.25;"/>
   </g>
   <g id="patch_8">
    <path d="M 90.933594 822.6 
L 927.933594 822.6 
" style="fill:none;stroke:#262626;stroke-linecap:square;stroke-linejoin:miter;stroke-width:1.25;"/>
   </g>
   <g id="patch_9">
    <path d="M 90.933594 7.2 
L 927.933594 7.2 
" style="fill:none;stroke:#262626;stroke-linecap:square;stroke-linejoin:miter;stroke-width:1.25;"/>
   </g>
   <g id="PathCollection_1">
    <defs>
     <path d="M 0 1.5 
C 0.397805 1.5 0.77937 1.341951 1.06066 1.06066 
C 1.341951 0.77937 1.5 0.397805 1.5 0 
C 1.5 -0.397805 1.341951 -0.77937 1.06066 -1.06066 
C 0.77937 -1.341951 0.397805 -1.5 0 -1.5 
C -0.397805 -1.5 -0.77937 -1.341951 -1.06066 -1.06066 
C -1.341951 -0.77937 -1.5 -0.397805 -1.5 0 
C -1.5 0.397805 -1.341951 0.77937 -1.06066 1.06066 
C -0.77937 1.341951 -0.397805 1.5 0 1.5 
z
" id="ma32776abdd" style="stroke:#6a6a6a;"/>
    </defs>
    <g clip-path="url(#pcf931c8a42)">
     <use style="fill:#ffffff;stroke:#6a6a6a;" x="156.033594" xlink:href="#ma32776abdd" y="258.458267"/>
    </g>
   </g>
   <g id="PathCollection_2">
    <g clip-path="url(#pcf931c8a42)">
     <use style="fill:#ffffff;stroke:#6a6a6a;" x="230.433594" xlink:href="#ma32776abdd" y="721.02116"/>
    </g>
   </g>
   <g id="PathCollection_3">
    <g clip-path="url(#pcf931c8a42)">
     <use style="fill:#ffffff;stroke:#6a6a6a;" x="304.833594" xlink:href="#ma32776abdd" y="343.104445"/>
    </g>
   </g>
   <g id="PathCollection_4">
    <g clip-path="url(#pcf931c8a42)">
     <use style="fill:#ffffff;stroke:#6a6a6a;" x="435.033594" xlink:href="#ma32776abdd" y="218.634245"/>
    </g>
   </g>
   <g id="PathCollection_5">
    <g clip-path="url(#pcf931c8a42)">
     <use style="fill:#ffffff;stroke:#6a6a6a;" x="509.433594" xlink:href="#ma32776abdd" y="570.318968"/>
    </g>
   </g>
   <g id="PathCollection_6">
    <g clip-path="url(#pcf931c8a42)">
     <use style="fill:#ffffff;stroke:#6a6a6a;" x="583.833594" xlink:href="#ma32776abdd" y="295.911168"/>
    </g>
   </g>
   <g id="PathCollection_7">
    <g clip-path="url(#pcf931c8a42)">
     <use style="fill:#ffffff;stroke:#6a6a6a;" x="714.033594" xlink:href="#ma32776abdd" y="170.179098"/>
    </g>
   </g>
   <g id="PathCollection_8">
    <g clip-path="url(#pcf931c8a42)">
     <use style="fill:#ffffff;stroke:#6a6a6a;" x="788.433594" xlink:href="#ma32776abdd" y="364.28445"/>
    </g>
   </g>
   <g id="PathCollection_9">
    <g clip-path="url(#pcf931c8a42)">
     <use style="fill:#ffffff;stroke:#6a6a6a;" x="862.833594" xlink:href="#ma32776abdd" y="239.410021"/>
    </g>
   </g>
   <g id="legend_1">
    <g id="patch_10">
     <path d="M 712.289062 133.594531 
L 910.433594 133.594531 
Q 915.433594 133.594531 915.433594 128.594531 
L 915.433594 24.7 
Q 915.433594 19.7 910.433594 19.7 
L 712.289062 19.7 
Q 707.289062 19.7 707.289062 24.7 
L 707.289062 128.594531 
Q 707.289062 133.594531 712.289062 133.594531 
z
" style="fill:#ffffff;opacity:0.8;stroke:#cccccc;stroke-linejoin:miter;"/>
    </g>
    <g id="patch_11">
     <path d="M 717.289062 47.594531 
L 767.289062 47.594531 
L 767.289062 30.094531 
L 717.289062 30.094531 
z
" style="fill:#96cac1;stroke:#6a6a6a;stroke-linejoin:miter;stroke-width:0.75;"/>
    </g>
    <g id="text_11">
     <!-- Pconsc4 -->
     <g style="fill:#262626;" transform="translate(787.289062 47.594531)scale(0.25 -0.25)">
      <use xlink:href="#ArialMT-50"/>
      <use x="66.699219" xlink:href="#ArialMT-63"/>
      <use x="116.699219" xlink:href="#ArialMT-6f"/>
      <use x="172.314453" xlink:href="#ArialMT-6e"/>
      <use x="227.929688" xlink:href="#ArialMT-73"/>
      <use x="277.929688" xlink:href="#ArialMT-63"/>
      <use x="327.929688" xlink:href="#ArialMT-34"/>
     </g>
    </g>
    <g id="patch_12">
     <path d="M 717.289062 82.957813 
L 767.289062 82.957813 
L 767.289062 65.457813 
L 717.289062 65.457813 
z
" style="fill:#f6f6bc;stroke:#6a6a6a;stroke-linejoin:miter;stroke-width:0.75;"/>
    </g>
    <g id="text_12">
     <!-- ESM -->
     <g style="fill:#262626;" transform="translate(787.289062 82.957813)scale(0.25 -0.25)">
      <defs>
       <path d="M 506 0 
L 506 4581 
L 3819 4581 
L 3819 4041 
L 1113 4041 
L 1113 2638 
L 3647 2638 
L 3647 2100 
L 1113 2100 
L 1113 541 
L 3925 541 
L 3925 0 
L 506 0 
z
" id="ArialMT-45" transform="scale(0.015625)"/>
       <path d="M 475 0 
L 475 4581 
L 1388 4581 
L 2472 1338 
Q 2622 884 2691 659 
Q 2769 909 2934 1394 
L 4031 4581 
L 4847 4581 
L 4847 0 
L 4263 0 
L 4263 3834 
L 2931 0 
L 2384 0 
L 1059 3900 
L 1059 0 
L 475 0 
z
" id="ArialMT-4d" transform="scale(0.015625)"/>
      </defs>
      <use xlink:href="#ArialMT-45"/>
      <use x="66.699219" xlink:href="#ArialMT-53"/>
      <use x="133.398438" xlink:href="#ArialMT-4d"/>
     </g>
    </g>
    <g id="patch_13">
     <path d="M 717.289062 118.625781 
L 767.289062 118.625781 
L 767.289062 101.125781 
L 717.289062 101.125781 
z
" style="fill:#c1bed6;stroke:#6a6a6a;stroke-linejoin:miter;stroke-width:0.75;"/>
    </g>
    <g id="text_13">
     <!-- Alphafold2 -->
     <g style="fill:#262626;" transform="translate(787.289062 118.625781)scale(0.25 -0.25)">
      <defs>
       <path d="M -9 0 
L 1750 4581 
L 2403 4581 
L 4278 0 
L 3588 0 
L 3053 1388 
L 1138 1388 
L 634 0 
L -9 0 
z
M 1313 1881 
L 2866 1881 
L 2388 3150 
Q 2169 3728 2063 4100 
Q 1975 3659 1816 3225 
L 1313 1881 
z
" id="ArialMT-41" transform="scale(0.015625)"/>
       <path d="M 409 0 
L 409 4581 
L 972 4581 
L 972 0 
L 409 0 
z
" id="ArialMT-6c" transform="scale(0.015625)"/>
       <path d="M 422 -1272 
L 422 3319 
L 934 3319 
L 934 2888 
Q 1116 3141 1344 3267 
Q 1572 3394 1897 3394 
Q 2322 3394 2647 3175 
Q 2972 2956 3137 2557 
Q 3303 2159 3303 1684 
Q 3303 1175 3120 767 
Q 2938 359 2589 142 
Q 2241 -75 1856 -75 
Q 1575 -75 1351 44 
Q 1128 163 984 344 
L 984 -1272 
L 422 -1272 
z
M 931 1641 
Q 931 1000 1190 694 
Q 1450 388 1819 388 
Q 2194 388 2461 705 
Q 2728 1022 2728 1688 
Q 2728 2322 2467 2637 
Q 2206 2953 1844 2953 
Q 1484 2953 1207 2617 
Q 931 2281 931 1641 
z
" id="ArialMT-70" transform="scale(0.015625)"/>
       <path d="M 422 0 
L 422 4581 
L 984 4581 
L 984 2938 
Q 1378 3394 1978 3394 
Q 2347 3394 2619 3248 
Q 2891 3103 3008 2847 
Q 3125 2591 3125 2103 
L 3125 0 
L 2563 0 
L 2563 2103 
Q 2563 2525 2380 2717 
Q 2197 2909 1863 2909 
Q 1613 2909 1392 2779 
Q 1172 2650 1078 2428 
Q 984 2206 984 1816 
L 984 0 
L 422 0 
z
" id="ArialMT-68" transform="scale(0.015625)"/>
       <path d="M 2588 409 
Q 2275 144 1986 34 
Q 1697 -75 1366 -75 
Q 819 -75 525 192 
Q 231 459 231 875 
Q 231 1119 342 1320 
Q 453 1522 633 1644 
Q 813 1766 1038 1828 
Q 1203 1872 1538 1913 
Q 2219 1994 2541 2106 
Q 2544 2222 2544 2253 
Q 2544 2597 2384 2738 
Q 2169 2928 1744 2928 
Q 1347 2928 1158 2789 
Q 969 2650 878 2297 
L 328 2372 
Q 403 2725 575 2942 
Q 747 3159 1072 3276 
Q 1397 3394 1825 3394 
Q 2250 3394 2515 3294 
Q 2781 3194 2906 3042 
Q 3031 2891 3081 2659 
Q 3109 2516 3109 2141 
L 3109 1391 
Q 3109 606 3145 398 
Q 3181 191 3288 0 
L 2700 0 
Q 2613 175 2588 409 
z
M 2541 1666 
Q 2234 1541 1622 1453 
Q 1275 1403 1131 1340 
Q 988 1278 909 1158 
Q 831 1038 831 891 
Q 831 666 1001 516 
Q 1172 366 1500 366 
Q 1825 366 2078 508 
Q 2331 650 2450 897 
Q 2541 1088 2541 1459 
L 2541 1666 
z
" id="ArialMT-61" transform="scale(0.015625)"/>
       <path d="M 556 0 
L 556 2881 
L 59 2881 
L 59 3319 
L 556 3319 
L 556 3672 
Q 556 4006 616 4169 
Q 697 4388 901 4523 
Q 1106 4659 1475 4659 
Q 1713 4659 2000 4603 
L 1916 4113 
Q 1741 4144 1584 4144 
Q 1328 4144 1222 4034 
Q 1116 3925 1116 3625 
L 1116 3319 
L 1763 3319 
L 1763 2881 
L 1116 2881 
L 1116 0 
L 556 0 
z
" id="ArialMT-66" transform="scale(0.015625)"/>
       <path d="M 2575 0 
L 2575 419 
Q 2259 -75 1647 -75 
Q 1250 -75 917 144 
Q 584 363 401 755 
Q 219 1147 219 1656 
Q 219 2153 384 2558 
Q 550 2963 881 3178 
Q 1213 3394 1622 3394 
Q 1922 3394 2156 3267 
Q 2391 3141 2538 2938 
L 2538 4581 
L 3097 4581 
L 3097 0 
L 2575 0 
z
M 797 1656 
Q 797 1019 1065 703 
Q 1334 388 1700 388 
Q 2069 388 2326 689 
Q 2584 991 2584 1609 
Q 2584 2291 2321 2609 
Q 2059 2928 1675 2928 
Q 1300 2928 1048 2622 
Q 797 2316 797 1656 
z
" id="ArialMT-64" transform="scale(0.015625)"/>
      </defs>
      <use xlink:href="#ArialMT-41"/>
      <use x="66.699219" xlink:href="#ArialMT-6c"/>
      <use x="88.916016" xlink:href="#ArialMT-70"/>
      <use x="144.53125" xlink:href="#ArialMT-68"/>
      <use x="200.146484" xlink:href="#ArialMT-61"/>
      <use x="255.761719" xlink:href="#ArialMT-66"/>
      <use x="283.544922" xlink:href="#ArialMT-6f"/>
      <use x="339.160156" xlink:href="#ArialMT-6c"/>
      <use x="361.376953" xlink:href="#ArialMT-64"/>
      <use x="416.992188" xlink:href="#ArialMT-32"/>
     </g>
    </g>
   </g>
  </g>
 </g>
 <defs>
  <clipPath id="pcf931c8a42">
   <rect height="815.4" width="837" x="90.933594" y="7.2"/>
  </clipPath>
 </defs>
</svg>
