<?xml version="1.0" encoding="utf-8" standalone="no"?>
<!DOCTYPE svg PUBLIC "-//W3C//DTD SVG 1.1//EN"
  "http://www.w3.org/Graphics/SVG/1.1/DTD/svg11.dtd">
<svg height="900.458203pt" version="1.1" viewBox="0 0 951.195312 900.458203" width="951.195312pt" xmlns="http://www.w3.org/2000/svg" xmlns:xlink="http://www.w3.org/1999/xlink">
 <metadata>
  <rdf:RDF xmlns:cc="http://creativecommons.org/ns#" xmlns:dc="http://purl.org/dc/elements/1.1/" xmlns:rdf="http://www.w3.org/1999/02/22-rdf-syntax-ns#">
   <cc:Work>
    <dc:type rdf:resource="http://purl.org/dc/dcmitype/StillImage"/>
    <dc:date>2023-04-14T08:18:28.051378</dc:date>
    <dc:format>image/svg+xml</dc:format>
    <dc:creator>
     <cc:Agent>
      <dc:title>Matplotlib v3.4.3, https://matplotlib.org/</dc:title>
     </cc:Agent>
    </dc:creator>
   </cc:Work>
  </rdf:RDF>
 </metadata>
 <defs>
  <style type="text/css">*{stroke-linecap:butt;stroke-linejoin:round;}</style>
 </defs>
 <g id="figure_1">
  <g id="patch_1">
   <path d="M 0 900.458203 
L 951.195312 900.458203 
L 951.195312 0 
L 0 0 
z
" style="fill:#ffffff;"/>
  </g>
  <g id="axes_1">
   <g id="patch_2">
    <path d="M 106.995312 822.6 
L 943.995312 822.6 
L 943.995312 7.2 
L 106.995312 7.2 
z
" style="fill:#ffffff;"/>
   </g>
   <g id="matplotlib.axis_1">
    <g id="xtick_1">
     <g id="text_1">
      <!-- MCC -->
      <g style="fill:#262626;" transform="translate(215.181836 851.783984)scale(0.275 -0.275)">
       <defs>
        <path d="M 475 0 
L 475 4581 
L 1388 4581 
L 2472 1338 
Q 2622 884 2691 659 
Q 2769 909 2934 1394 
L 4031 4581 
L 4847 4581 
L 4847 0 
L 4263 0 
L 4263 3834 
L 2931 0 
L 2384 0 
L 1059 3900 
L 1059 0 
L 475 0 
z
" id="ArialMT-4d" transform="scale(0.015625)"/>
        <path d="M 3763 1606 
L 4369 1453 
Q 4178 706 3683 314 
Q 3188 -78 2472 -78 
Q 1731 -78 1267 223 
Q 803 525 561 1097 
Q 319 1669 319 2325 
Q 319 3041 592 3573 
Q 866 4106 1370 4382 
Q 1875 4659 2481 4659 
Q 3169 4659 3637 4309 
Q 4106 3959 4291 3325 
L 3694 3184 
Q 3534 3684 3231 3912 
Q 2928 4141 2469 4141 
Q 1941 4141 1586 3887 
Q 1231 3634 1087 3207 
Q 944 2781 944 2328 
Q 944 1744 1114 1308 
Q 1284 872 1643 656 
Q 2003 441 2422 441 
Q 2931 441 3284 734 
Q 3638 1028 3763 1606 
z
" id="ArialMT-43" transform="scale(0.015625)"/>
       </defs>
       <use xlink:href="#ArialMT-4d"/>
       <use x="83.300781" xlink:href="#ArialMT-43"/>
       <use x="155.517578" xlink:href="#ArialMT-43"/>
      </g>
     </g>
    </g>
    <g id="xtick_2">
     <g id="text_2">
      <!-- F1 -->
      <g style="fill:#262626;" transform="translate(509.450781 851.783984)scale(0.275 -0.275)">
       <defs>
        <path d="M 525 0 
L 525 4581 
L 3616 4581 
L 3616 4041 
L 1131 4041 
L 1131 2622 
L 3281 2622 
L 3281 2081 
L 1131 2081 
L 1131 0 
L 525 0 
z
" id="ArialMT-46" transform="scale(0.015625)"/>
        <path d="M 2384 0 
L 1822 0 
L 1822 3584 
Q 1619 3391 1289 3197 
Q 959 3003 697 2906 
L 697 3450 
Q 1169 3672 1522 3987 
Q 1875 4303 2022 4600 
L 2384 4600 
L 2384 0 
z
" id="ArialMT-31" transform="scale(0.015625)"/>
       </defs>
       <use xlink:href="#ArialMT-46"/>
       <use x="61.083984" xlink:href="#ArialMT-31"/>
      </g>
     </g>
    </g>
    <g id="xtick_3">
     <g id="text_3">
      <!-- Precision -->
      <g style="fill:#262626;" transform="translate(747.946289 851.783984)scale(0.275 -0.275)">
       <defs>
        <path d="M 494 0 
L 494 4581 
L 2222 4581 
Q 2678 4581 2919 4538 
Q 3256 4481 3484 4323 
Q 3713 4166 3852 3881 
Q 3991 3597 3991 3256 
Q 3991 2672 3619 2267 
Q 3247 1863 2275 1863 
L 1100 1863 
L 1100 0 
L 494 0 
z
M 1100 2403 
L 2284 2403 
Q 2872 2403 3119 2622 
Q 3366 2841 3366 3238 
Q 3366 3525 3220 3729 
Q 3075 3934 2838 4000 
Q 2684 4041 2272 4041 
L 1100 4041 
L 1100 2403 
z
" id="ArialMT-50" transform="scale(0.015625)"/>
        <path d="M 416 0 
L 416 3319 
L 922 3319 
L 922 2816 
Q 1116 3169 1280 3281 
Q 1444 3394 1641 3394 
Q 1925 3394 2219 3213 
L 2025 2691 
Q 1819 2813 1613 2813 
Q 1428 2813 1281 2702 
Q 1134 2591 1072 2394 
Q 978 2094 978 1738 
L 978 0 
L 416 0 
z
" id="ArialMT-72" transform="scale(0.015625)"/>
        <path d="M 2694 1069 
L 3275 997 
Q 3138 488 2766 206 
Q 2394 -75 1816 -75 
Q 1088 -75 661 373 
Q 234 822 234 1631 
Q 234 2469 665 2931 
Q 1097 3394 1784 3394 
Q 2450 3394 2872 2941 
Q 3294 2488 3294 1666 
Q 3294 1616 3291 1516 
L 816 1516 
Q 847 969 1125 678 
Q 1403 388 1819 388 
Q 2128 388 2347 550 
Q 2566 713 2694 1069 
z
M 847 1978 
L 2700 1978 
Q 2663 2397 2488 2606 
Q 2219 2931 1791 2931 
Q 1403 2931 1139 2672 
Q 875 2413 847 1978 
z
" id="ArialMT-65" transform="scale(0.015625)"/>
        <path d="M 2588 1216 
L 3141 1144 
Q 3050 572 2676 248 
Q 2303 -75 1759 -75 
Q 1078 -75 664 370 
Q 250 816 250 1647 
Q 250 2184 428 2587 
Q 606 2991 970 3192 
Q 1334 3394 1763 3394 
Q 2303 3394 2647 3120 
Q 2991 2847 3088 2344 
L 2541 2259 
Q 2463 2594 2264 2762 
Q 2066 2931 1784 2931 
Q 1359 2931 1093 2626 
Q 828 2322 828 1663 
Q 828 994 1084 691 
Q 1341 388 1753 388 
Q 2084 388 2306 591 
Q 2528 794 2588 1216 
z
" id="ArialMT-63" transform="scale(0.015625)"/>
        <path d="M 425 3934 
L 425 4581 
L 988 4581 
L 988 3934 
L 425 3934 
z
M 425 0 
L 425 3319 
L 988 3319 
L 988 0 
L 425 0 
z
" id="ArialMT-69" transform="scale(0.015625)"/>
        <path d="M 197 991 
L 753 1078 
Q 800 744 1014 566 
Q 1228 388 1613 388 
Q 2000 388 2187 545 
Q 2375 703 2375 916 
Q 2375 1106 2209 1216 
Q 2094 1291 1634 1406 
Q 1016 1563 777 1677 
Q 538 1791 414 1992 
Q 291 2194 291 2438 
Q 291 2659 392 2848 
Q 494 3038 669 3163 
Q 800 3259 1026 3326 
Q 1253 3394 1513 3394 
Q 1903 3394 2198 3281 
Q 2494 3169 2634 2976 
Q 2775 2784 2828 2463 
L 2278 2388 
Q 2241 2644 2061 2787 
Q 1881 2931 1553 2931 
Q 1166 2931 1000 2803 
Q 834 2675 834 2503 
Q 834 2394 903 2306 
Q 972 2216 1119 2156 
Q 1203 2125 1616 2013 
Q 2213 1853 2448 1751 
Q 2684 1650 2818 1456 
Q 2953 1263 2953 975 
Q 2953 694 2789 445 
Q 2625 197 2315 61 
Q 2006 -75 1616 -75 
Q 969 -75 630 194 
Q 291 463 197 991 
z
" id="ArialMT-73" transform="scale(0.015625)"/>
        <path d="M 213 1659 
Q 213 2581 725 3025 
Q 1153 3394 1769 3394 
Q 2453 3394 2887 2945 
Q 3322 2497 3322 1706 
Q 3322 1066 3130 698 
Q 2938 331 2570 128 
Q 2203 -75 1769 -75 
Q 1072 -75 642 372 
Q 213 819 213 1659 
z
M 791 1659 
Q 791 1022 1069 705 
Q 1347 388 1769 388 
Q 2188 388 2466 706 
Q 2744 1025 2744 1678 
Q 2744 2294 2464 2611 
Q 2184 2928 1769 2928 
Q 1347 2928 1069 2612 
Q 791 2297 791 1659 
z
" id="ArialMT-6f" transform="scale(0.015625)"/>
        <path d="M 422 0 
L 422 3319 
L 928 3319 
L 928 2847 
Q 1294 3394 1984 3394 
Q 2284 3394 2536 3286 
Q 2788 3178 2913 3003 
Q 3038 2828 3088 2588 
Q 3119 2431 3119 2041 
L 3119 0 
L 2556 0 
L 2556 2019 
Q 2556 2363 2490 2533 
Q 2425 2703 2258 2804 
Q 2091 2906 1866 2906 
Q 1506 2906 1245 2678 
Q 984 2450 984 1813 
L 984 0 
L 422 0 
z
" id="ArialMT-6e" transform="scale(0.015625)"/>
       </defs>
       <use xlink:href="#ArialMT-50"/>
       <use x="66.699219" xlink:href="#ArialMT-72"/>
       <use x="100" xlink:href="#ArialMT-65"/>
       <use x="155.615234" xlink:href="#ArialMT-63"/>
       <use x="205.615234" xlink:href="#ArialMT-69"/>
       <use x="227.832031" xlink:href="#ArialMT-73"/>
       <use x="277.832031" xlink:href="#ArialMT-69"/>
       <use x="300.048828" xlink:href="#ArialMT-6f"/>
       <use x="355.664062" xlink:href="#ArialMT-6e"/>
      </g>
     </g>
    </g>
    <g id="text_4">
     <!-- Metrics -->
     <g style="fill:#262626;" transform="translate(469.109766 886.301953)scale(0.35 -0.35)">
      <defs>
       <path d="M 1650 503 
L 1731 6 
Q 1494 -44 1306 -44 
Q 1000 -44 831 53 
Q 663 150 594 308 
Q 525 466 525 972 
L 525 2881 
L 113 2881 
L 113 3319 
L 525 3319 
L 525 4141 
L 1084 4478 
L 1084 3319 
L 1650 3319 
L 1650 2881 
L 1084 2881 
L 1084 941 
Q 1084 700 1114 631 
Q 1144 563 1211 522 
Q 1278 481 1403 481 
Q 1497 481 1650 503 
z
" id="ArialMT-74" transform="scale(0.015625)"/>
      </defs>
      <use xlink:href="#ArialMT-4d"/>
      <use x="83.300781" xlink:href="#ArialMT-65"/>
      <use x="138.916016" xlink:href="#ArialMT-74"/>
      <use x="166.699219" xlink:href="#ArialMT-72"/>
      <use x="200" xlink:href="#ArialMT-69"/>
      <use x="222.216797" xlink:href="#ArialMT-63"/>
      <use x="272.216797" xlink:href="#ArialMT-73"/>
     </g>
    </g>
   </g>
   <g id="matplotlib.axis_2">
    <g id="ytick_1">
     <g id="text_5">
      <!-- −0.2 -->
      <g style="fill:#262626;" transform="translate(43.208594 827.031137)scale(0.275 -0.275)">
       <defs>
        <path d="M 3381 1997 
L 356 1997 
L 356 2522 
L 3381 2522 
L 3381 1997 
z
" id="ArialMT-2212" transform="scale(0.015625)"/>
        <path d="M 266 2259 
Q 266 3072 433 3567 
Q 600 4063 929 4331 
Q 1259 4600 1759 4600 
Q 2128 4600 2406 4451 
Q 2684 4303 2865 4023 
Q 3047 3744 3150 3342 
Q 3253 2941 3253 2259 
Q 3253 1453 3087 958 
Q 2922 463 2592 192 
Q 2263 -78 1759 -78 
Q 1097 -78 719 397 
Q 266 969 266 2259 
z
M 844 2259 
Q 844 1131 1108 757 
Q 1372 384 1759 384 
Q 2147 384 2411 759 
Q 2675 1134 2675 2259 
Q 2675 3391 2411 3762 
Q 2147 4134 1753 4134 
Q 1366 4134 1134 3806 
Q 844 3388 844 2259 
z
" id="ArialMT-30" transform="scale(0.015625)"/>
        <path d="M 581 0 
L 581 641 
L 1222 641 
L 1222 0 
L 581 0 
z
" id="ArialMT-2e" transform="scale(0.015625)"/>
        <path d="M 3222 541 
L 3222 0 
L 194 0 
Q 188 203 259 391 
Q 375 700 629 1000 
Q 884 1300 1366 1694 
Q 2113 2306 2375 2664 
Q 2638 3022 2638 3341 
Q 2638 3675 2398 3904 
Q 2159 4134 1775 4134 
Q 1369 4134 1125 3890 
Q 881 3647 878 3216 
L 300 3275 
Q 359 3922 746 4261 
Q 1134 4600 1788 4600 
Q 2447 4600 2831 4234 
Q 3216 3869 3216 3328 
Q 3216 3053 3103 2787 
Q 2991 2522 2730 2228 
Q 2469 1934 1863 1422 
Q 1356 997 1212 845 
Q 1069 694 975 541 
L 3222 541 
z
" id="ArialMT-32" transform="scale(0.015625)"/>
       </defs>
       <use xlink:href="#ArialMT-2212"/>
       <use x="58.398438" xlink:href="#ArialMT-30"/>
       <use x="114.013672" xlink:href="#ArialMT-2e"/>
       <use x="141.796875" xlink:href="#ArialMT-32"/>
      </g>
     </g>
    </g>
    <g id="ytick_2">
     <g id="text_6">
      <!-- 0.0 -->
      <g style="fill:#262626;" transform="translate(59.270312 711.103964)scale(0.275 -0.275)">
       <use xlink:href="#ArialMT-30"/>
       <use x="55.615234" xlink:href="#ArialMT-2e"/>
       <use x="83.398438" xlink:href="#ArialMT-30"/>
      </g>
     </g>
    </g>
    <g id="ytick_3">
     <g id="text_7">
      <!-- 0.2 -->
      <g style="fill:#262626;" transform="translate(59.270312 595.176791)scale(0.275 -0.275)">
       <use xlink:href="#ArialMT-30"/>
       <use x="55.615234" xlink:href="#ArialMT-2e"/>
       <use x="83.398438" xlink:href="#ArialMT-32"/>
      </g>
     </g>
    </g>
    <g id="ytick_4">
     <g id="text_8">
      <!-- 0.4 -->
      <g style="fill:#262626;" transform="translate(59.270312 479.249618)scale(0.275 -0.275)">
       <defs>
        <path d="M 2069 0 
L 2069 1097 
L 81 1097 
L 81 1613 
L 2172 4581 
L 2631 4581 
L 2631 1613 
L 3250 1613 
L 3250 1097 
L 2631 1097 
L 2631 0 
L 2069 0 
z
M 2069 1613 
L 2069 3678 
L 634 1613 
L 2069 1613 
z
" id="ArialMT-34" transform="scale(0.015625)"/>
       </defs>
       <use xlink:href="#ArialMT-30"/>
       <use x="55.615234" xlink:href="#ArialMT-2e"/>
       <use x="83.398438" xlink:href="#ArialMT-34"/>
      </g>
     </g>
    </g>
    <g id="ytick_5">
     <g id="text_9">
      <!-- 0.6 -->
      <g style="fill:#262626;" transform="translate(59.270312 363.322445)scale(0.275 -0.275)">
       <defs>
        <path d="M 3184 3459 
L 2625 3416 
Q 2550 3747 2413 3897 
Q 2184 4138 1850 4138 
Q 1581 4138 1378 3988 
Q 1113 3794 959 3422 
Q 806 3050 800 2363 
Q 1003 2672 1297 2822 
Q 1591 2972 1913 2972 
Q 2475 2972 2870 2558 
Q 3266 2144 3266 1488 
Q 3266 1056 3080 686 
Q 2894 316 2569 119 
Q 2244 -78 1831 -78 
Q 1128 -78 684 439 
Q 241 956 241 2144 
Q 241 3472 731 4075 
Q 1159 4600 1884 4600 
Q 2425 4600 2770 4297 
Q 3116 3994 3184 3459 
z
M 888 1484 
Q 888 1194 1011 928 
Q 1134 663 1356 523 
Q 1578 384 1822 384 
Q 2178 384 2434 671 
Q 2691 959 2691 1453 
Q 2691 1928 2437 2201 
Q 2184 2475 1800 2475 
Q 1419 2475 1153 2201 
Q 888 1928 888 1484 
z
" id="ArialMT-36" transform="scale(0.015625)"/>
       </defs>
       <use xlink:href="#ArialMT-30"/>
       <use x="55.615234" xlink:href="#ArialMT-2e"/>
       <use x="83.398438" xlink:href="#ArialMT-36"/>
      </g>
     </g>
    </g>
    <g id="ytick_6">
     <g id="text_10">
      <!-- 0.8 -->
      <g style="fill:#262626;" transform="translate(59.270312 247.395272)scale(0.275 -0.275)">
       <defs>
        <path d="M 1131 2484 
Q 781 2613 612 2850 
Q 444 3088 444 3419 
Q 444 3919 803 4259 
Q 1163 4600 1759 4600 
Q 2359 4600 2725 4251 
Q 3091 3903 3091 3403 
Q 3091 3084 2923 2848 
Q 2756 2613 2416 2484 
Q 2838 2347 3058 2040 
Q 3278 1734 3278 1309 
Q 3278 722 2862 322 
Q 2447 -78 1769 -78 
Q 1091 -78 675 323 
Q 259 725 259 1325 
Q 259 1772 486 2073 
Q 713 2375 1131 2484 
z
M 1019 3438 
Q 1019 3113 1228 2906 
Q 1438 2700 1772 2700 
Q 2097 2700 2305 2904 
Q 2513 3109 2513 3406 
Q 2513 3716 2298 3927 
Q 2084 4138 1766 4138 
Q 1444 4138 1231 3931 
Q 1019 3725 1019 3438 
z
M 838 1322 
Q 838 1081 952 856 
Q 1066 631 1291 507 
Q 1516 384 1775 384 
Q 2178 384 2440 643 
Q 2703 903 2703 1303 
Q 2703 1709 2433 1975 
Q 2163 2241 1756 2241 
Q 1359 2241 1098 1978 
Q 838 1716 838 1322 
z
" id="ArialMT-38" transform="scale(0.015625)"/>
       </defs>
       <use xlink:href="#ArialMT-30"/>
       <use x="55.615234" xlink:href="#ArialMT-2e"/>
       <use x="83.398438" xlink:href="#ArialMT-38"/>
      </g>
     </g>
    </g>
    <g id="ytick_7">
     <g id="text_11">
      <!-- 1.0 -->
      <g style="fill:#262626;" transform="translate(59.270312 131.468099)scale(0.275 -0.275)">
       <use xlink:href="#ArialMT-31"/>
       <use x="55.615234" xlink:href="#ArialMT-2e"/>
       <use x="83.398438" xlink:href="#ArialMT-30"/>
      </g>
     </g>
    </g>
    <g id="text_12">
     <!-- Scores -->
     <g style="fill:#262626;" transform="translate(32.252344 469.363281)rotate(-90)scale(0.35 -0.35)">
      <defs>
       <path d="M 288 1472 
L 859 1522 
Q 900 1178 1048 958 
Q 1197 738 1509 602 
Q 1822 466 2213 466 
Q 2559 466 2825 569 
Q 3091 672 3220 851 
Q 3350 1031 3350 1244 
Q 3350 1459 3225 1620 
Q 3100 1781 2813 1891 
Q 2628 1963 1997 2114 
Q 1366 2266 1113 2400 
Q 784 2572 623 2826 
Q 463 3081 463 3397 
Q 463 3744 659 4045 
Q 856 4347 1234 4503 
Q 1613 4659 2075 4659 
Q 2584 4659 2973 4495 
Q 3363 4331 3572 4012 
Q 3781 3694 3797 3291 
L 3216 3247 
Q 3169 3681 2898 3903 
Q 2628 4125 2100 4125 
Q 1550 4125 1298 3923 
Q 1047 3722 1047 3438 
Q 1047 3191 1225 3031 
Q 1400 2872 2139 2705 
Q 2878 2538 3153 2413 
Q 3553 2228 3743 1945 
Q 3934 1663 3934 1294 
Q 3934 928 3725 604 
Q 3516 281 3123 101 
Q 2731 -78 2241 -78 
Q 1619 -78 1198 103 
Q 778 284 539 648 
Q 300 1013 288 1472 
z
" id="ArialMT-53" transform="scale(0.015625)"/>
      </defs>
      <use xlink:href="#ArialMT-53"/>
      <use x="66.699219" xlink:href="#ArialMT-63"/>
      <use x="116.699219" xlink:href="#ArialMT-6f"/>
      <use x="172.314453" xlink:href="#ArialMT-72"/>
      <use x="205.615234" xlink:href="#ArialMT-65"/>
      <use x="261.230469" xlink:href="#ArialMT-73"/>
     </g>
    </g>
   </g>
   <g id="PolyCollection_1">
    <defs>
     <path d="M 172.528574 -200.476804 
L 171.662051 -200.476804 
L 171.520053 -205.85915 
L 171.342151 -211.241496 
L 171.122878 -216.623842 
L 170.857028 -222.006188 
L 170.540028 -227.388534 
L 170.168354 -232.77088 
L 169.739971 -238.153226 
L 169.25476 -243.535572 
L 168.714903 -248.917918 
L 168.12517 -254.300264 
L 167.49309 -259.68261 
L 166.828954 -265.064956 
L 166.14565 -270.447302 
L 165.458302 -275.829648 
L 164.783737 -281.211994 
L 164.139805 -286.59434 
L 163.544578 -291.976686 
L 163.015503 -297.359032 
L 162.568544 -302.741378 
L 162.217379 -308.123724 
L 161.972709 -313.50607 
L 161.841718 -318.888416 
L 161.827704 -324.270762 
L 161.929915 -329.653108 
L 162.143564 -335.035454 
L 162.460024 -340.4178 
L 162.867173 -345.800146 
L 163.349843 -351.182492 
L 163.890343 -356.564838 
L 164.469011 -361.947184 
L 165.064757 -367.32953 
L 165.655557 -372.711876 
L 166.218884 -378.094222 
L 166.73206 -383.476568 
L 167.172511 -388.858914 
L 167.517971 -394.24126 
L 167.746629 -399.623606 
L 167.83728 -405.005952 
L 167.769523 -410.388298 
L 167.524048 -415.770644 
L 167.083086 -421.15299 
L 166.431031 -426.535336 
L 165.555269 -431.917682 
L 164.447202 -437.300028 
L 163.103415 -442.682374 
L 161.526911 -448.06472 
L 159.728304 -453.447066 
L 157.726821 -458.829412 
L 155.550976 -464.211758 
L 153.23876 -469.594104 
L 150.837235 -474.97645 
L 148.401452 -480.358796 
L 145.992679 -485.741142 
L 143.675995 -491.123488 
L 141.517371 -496.505834 
L 139.580449 -501.88818 
L 137.923241 -507.270526 
L 136.59502 -512.652872 
L 135.633678 -518.035218 
L 135.063754 -523.417564 
L 134.895312 -528.79991 
L 135.123757 -534.182256 
L 135.730567 -539.564602 
L 136.684877 -544.946948 
L 137.945726 -550.329294 
L 139.464765 -555.71164 
L 141.189194 -561.093986 
L 143.064665 -566.476332 
L 145.037964 -571.858678 
L 147.059294 -577.241024 
L 149.084055 -582.62337 
L 151.074059 -588.005716 
L 152.998201 -593.388062 
L 154.83261 -598.770408 
L 156.56038 -604.152754 
L 158.170965 -609.5351 
L 159.659337 -614.917446 
L 161.025014 -620.299792 
L 162.271042 -625.682138 
L 163.403 -631.064484 
L 164.428091 -636.44683 
L 165.354348 -641.829176 
L 166.190004 -647.211522 
L 166.943005 -652.593868 
L 167.620692 -657.976214 
L 168.229629 -663.35856 
L 168.775545 -668.740906 
L 169.263395 -674.123252 
L 169.697468 -679.505598 
L 170.081549 -684.887944 
L 170.419085 -690.27029 
L 170.713337 -695.652636 
L 170.967502 -701.034982 
L 171.184797 -706.417328 
L 171.3685 -711.799674 
L 171.521944 -717.18202 
L 171.648492 -722.564366 
L 171.751474 -727.946712 
L 171.834127 -733.329058 
L 172.356498 -733.329058 
L 172.356498 -733.329058 
L 172.439151 -727.946712 
L 172.542133 -722.564366 
L 172.668681 -717.18202 
L 172.822125 -711.799674 
L 173.005828 -706.417328 
L 173.223123 -701.034982 
L 173.477288 -695.652636 
L 173.77154 -690.27029 
L 174.109076 -684.887944 
L 174.493157 -679.505598 
L 174.92723 -674.123252 
L 175.41508 -668.740906 
L 175.960996 -663.35856 
L 176.569933 -657.976214 
L 177.24762 -652.593868 
L 178.000621 -647.211522 
L 178.836277 -641.829176 
L 179.762534 -636.44683 
L 180.787625 -631.064484 
L 181.919583 -625.682138 
L 183.165611 -620.299792 
L 184.531288 -614.917446 
L 186.01966 -609.5351 
L 187.630245 -604.152754 
L 189.358015 -598.770408 
L 191.192424 -593.388062 
L 193.116566 -588.005716 
L 195.10657 -582.62337 
L 197.131331 -577.241024 
L 199.152661 -571.858678 
L 201.12596 -566.476332 
L 203.001431 -561.093986 
L 204.72586 -555.71164 
L 206.244899 -550.329294 
L 207.505748 -544.946948 
L 208.460058 -539.564602 
L 209.066868 -534.182256 
L 209.295312 -528.79991 
L 209.126871 -523.417564 
L 208.556947 -518.035218 
L 207.595605 -512.652872 
L 206.267384 -507.270526 
L 204.610176 -501.88818 
L 202.673254 -496.505834 
L 200.51463 -491.123488 
L 198.197946 -485.741142 
L 195.789173 -480.358796 
L 193.35339 -474.97645 
L 190.951865 -469.594104 
L 188.639649 -464.211758 
L 186.463804 -458.829412 
L 184.462321 -453.447066 
L 182.663714 -448.06472 
L 181.08721 -442.682374 
L 179.743423 -437.300028 
L 178.635356 -431.917682 
L 177.759594 -426.535336 
L 177.107539 -421.15299 
L 176.666577 -415.770644 
L 176.421102 -410.388298 
L 176.353345 -405.005952 
L 176.443996 -399.623606 
L 176.672654 -394.24126 
L 177.018114 -388.858914 
L 177.458565 -383.476568 
L 177.971741 -378.094222 
L 178.535068 -372.711876 
L 179.125868 -367.32953 
L 179.721614 -361.947184 
L 180.300282 -356.564838 
L 180.840782 -351.182492 
L 181.323452 -345.800146 
L 181.730601 -340.4178 
L 182.047061 -335.035454 
L 182.26071 -329.653108 
L 182.362921 -324.270762 
L 182.348907 -318.888416 
L 182.217916 -313.50607 
L 181.973246 -308.123724 
L 181.622081 -302.741378 
L 181.175122 -297.359032 
L 180.646047 -291.976686 
L 180.05082 -286.59434 
L 179.406888 -281.211994 
L 178.732323 -275.829648 
L 178.044975 -270.447302 
L 177.361671 -265.064956 
L 176.697535 -259.68261 
L 176.065455 -254.300264 
L 175.475722 -248.917918 
L 174.935865 -243.535572 
L 174.450654 -238.153226 
L 174.022271 -232.77088 
L 173.650597 -227.388534 
L 173.333597 -222.006188 
L 173.067747 -216.623842 
L 172.848474 -211.241496 
L 172.670572 -205.85915 
L 172.528574 -200.476804 
z
" id="mf7a7ad94fb" style="stroke:#6a6a6a;stroke-width:1.5;"/>
    </defs>
    <g clip-path="url(#p297e9e6e93)">
     <use style="fill:#96cac1;stroke:#6a6a6a;stroke-width:1.5;" x="0" xlink:href="#mf7a7ad94fb" y="900.458203"/>
    </g>
   </g>
   <g id="PolyCollection_2">
    <defs>
     <path d="M 247.06632 -180.362969 
L 245.924305 -180.362969 
L 245.688846 -182.219299 
L 245.382878 -184.07563 
L 244.996089 -185.93196 
L 244.520329 -187.788291 
L 243.950732 -189.644621 
L 243.286543 -191.500952 
L 242.531433 -193.357282 
L 241.693062 -195.213613 
L 240.781832 -197.069943 
L 239.808856 -198.926274 
L 238.78343 -200.782604 
L 237.710416 -202.638934 
L 236.588107 -204.495265 
L 235.40711 -206.351595 
L 234.150713 -208.207926 
L 232.796928 -210.064256 
L 231.322122 -211.920587 
L 229.705781 -213.776917 
L 227.935722 -215.633248 
L 226.012884 -217.489578 
L 223.954898 -219.345909 
L 221.79777 -221.202239 
L 219.595362 -223.05857 
L 217.41668 -224.9149 
L 215.341346 -226.771231 
L 213.45382 -228.627561 
L 211.837102 -230.483892 
L 210.56655 -232.340222 
L 209.704395 -234.196553 
L 209.295313 -236.052883 
L 209.363288 -237.909213 
L 209.909858 -239.765544 
L 210.913771 -241.621874 
L 212.332061 -243.478205 
L 214.102516 -245.334535 
L 216.147473 -247.190866 
L 218.378795 -249.047196 
L 220.703761 -250.903527 
L 223.031466 -252.759857 
L 225.279178 -254.616188 
L 227.378037 -256.472518 
L 229.277472 -258.328849 
L 230.94782 -260.185179 
L 232.380812 -262.04151 
L 233.587888 -263.89784 
L 234.596558 -265.754171 
L 235.445349 -267.610501 
L 236.178019 -269.466832 
L 236.837836 -271.323162 
L 237.462651 -273.179493 
L 238.081323 -275.035823 
L 238.71179 -276.892153 
L 239.360835 -278.748484 
L 240.025291 -280.604814 
L 240.694297 -282.461145 
L 241.352112 -284.317475 
L 241.981029 -286.173806 
L 242.563995 -288.030136 
L 243.086709 -289.886467 
L 243.539062 -291.742797 
L 243.915913 -293.599128 
L 244.217257 -295.455458 
L 244.447873 -297.311789 
L 244.616546 -299.168119 
L 244.734981 -301.02445 
L 244.816498 -302.88078 
L 244.874647 -304.737111 
L 244.921854 -306.593441 
L 244.968254 -308.449772 
L 245.020828 -310.306102 
L 245.082943 -312.162433 
L 245.154354 -314.018763 
L 245.231654 -315.875093 
L 245.309107 -317.731424 
L 245.379741 -319.587754 
L 245.436554 -321.444085 
L 245.473675 -323.300415 
L 245.487327 -325.156746 
L 245.476482 -327.013076 
L 245.443122 -328.869407 
L 245.392098 -330.725737 
L 245.3306 -332.582068 
L 245.267319 -334.438398 
L 245.21142 -336.294729 
L 245.171449 -338.151059 
L 245.154351 -340.00739 
L 245.164697 -341.86372 
L 245.204257 -343.720051 
L 245.271941 -345.576381 
L 245.364102 -347.432712 
L 245.475142 -349.289042 
L 245.598296 -351.145372 
L 245.726482 -353.001703 
L 245.853063 -354.858033 
L 245.972458 -356.714364 
L 246.080515 -358.570694 
L 246.174645 -360.427025 
L 246.253752 -362.283355 
L 246.317999 -364.139686 
L 246.672626 -364.139686 
L 246.672626 -364.139686 
L 246.736873 -362.283355 
L 246.81598 -360.427025 
L 246.91011 -358.570694 
L 247.018167 -356.714364 
L 247.137562 -354.858033 
L 247.264143 -353.001703 
L 247.392329 -351.145372 
L 247.515483 -349.289042 
L 247.626523 -347.432712 
L 247.718684 -345.576381 
L 247.786368 -343.720051 
L 247.825928 -341.86372 
L 247.836274 -340.00739 
L 247.819176 -338.151059 
L 247.779205 -336.294729 
L 247.723306 -334.438398 
L 247.660025 -332.582068 
L 247.598527 -330.725737 
L 247.547503 -328.869407 
L 247.514143 -327.013076 
L 247.503298 -325.156746 
L 247.51695 -323.300415 
L 247.554071 -321.444085 
L 247.610884 -319.587754 
L 247.681518 -317.731424 
L 247.758971 -315.875093 
L 247.836271 -314.018763 
L 247.907682 -312.162433 
L 247.969797 -310.306102 
L 248.022371 -308.449772 
L 248.068771 -306.593441 
L 248.115978 -304.737111 
L 248.174127 -302.88078 
L 248.255644 -301.02445 
L 248.374079 -299.168119 
L 248.542752 -297.311789 
L 248.773368 -295.455458 
L 249.074712 -293.599128 
L 249.451563 -291.742797 
L 249.903916 -289.886467 
L 250.42663 -288.030136 
L 251.009596 -286.173806 
L 251.638513 -284.317475 
L 252.296328 -282.461145 
L 252.965334 -280.604814 
L 253.62979 -278.748484 
L 254.278835 -276.892153 
L 254.909302 -275.035823 
L 255.527974 -273.179493 
L 256.152789 -271.323162 
L 256.812606 -269.466832 
L 257.545276 -267.610501 
L 258.394067 -265.754171 
L 259.402737 -263.89784 
L 260.609813 -262.04151 
L 262.042805 -260.185179 
L 263.713153 -258.328849 
L 265.612588 -256.472518 
L 267.711447 -254.616188 
L 269.959159 -252.759857 
L 272.286864 -250.903527 
L 274.61183 -249.047196 
L 276.843152 -247.190866 
L 278.888109 -245.334535 
L 280.658564 -243.478205 
L 282.076854 -241.621874 
L 283.080767 -239.765544 
L 283.627337 -237.909213 
L 283.695312 -236.052883 
L 283.28623 -234.196553 
L 282.424075 -232.340222 
L 281.153523 -230.483892 
L 279.536805 -228.627561 
L 277.649279 -226.771231 
L 275.573945 -224.9149 
L 273.395263 -223.05857 
L 271.192855 -221.202239 
L 269.035727 -219.345909 
L 266.977741 -217.489578 
L 265.054903 -215.633248 
L 263.284844 -213.776917 
L 261.668503 -211.920587 
L 260.193697 -210.064256 
L 258.839912 -208.207926 
L 257.583515 -206.351595 
L 256.402518 -204.495265 
L 255.280209 -202.638934 
L 254.207195 -200.782604 
L 253.181769 -198.926274 
L 252.208793 -197.069943 
L 251.297563 -195.213613 
L 250.459192 -193.357282 
L 249.704082 -191.500952 
L 249.039893 -189.644621 
L 248.470296 -187.788291 
L 247.994536 -185.93196 
L 247.607747 -184.07563 
L 247.301779 -182.219299 
L 247.06632 -180.362969 
z
" id="m338ec6ca94" style="stroke:#6a6a6a;stroke-width:1.5;"/>
    </defs>
    <g clip-path="url(#p297e9e6e93)">
     <use style="fill:#f6f6bc;stroke:#6a6a6a;stroke-width:1.5;" x="0" xlink:href="#m338ec6ca94" y="900.458203"/>
    </g>
   </g>
   <g id="PolyCollection_3">
    <defs>
     <path d="M 321.275302 -124.91602 
L 320.515323 -124.91602 
L 320.385064 -132.175809 
L 320.219854 -139.435599 
L 320.01374 -146.695388 
L 319.76083 -153.955177 
L 319.455671 -161.214967 
L 319.09369 -168.474756 
L 318.671689 -175.734546 
L 318.188356 -182.994335 
L 317.644769 -190.254124 
L 317.044821 -197.513914 
L 316.395546 -204.773703 
L 315.707276 -212.033492 
L 314.993601 -219.293282 
L 314.271104 -226.553071 
L 313.558851 -233.812861 
L 312.877656 -241.07265 
L 312.249137 -248.332439 
L 311.694637 -255.592229 
L 311.234052 -262.852018 
L 310.884677 -270.111808 
L 310.660131 -277.371597 
L 310.569473 -284.631386 
L 310.616556 -291.891176 
L 310.799696 -299.150965 
L 311.111656 -306.410755 
L 311.539968 -313.670544 
L 312.067531 -320.930333 
L 312.673435 -328.190123 
L 313.333924 -335.449912 
L 314.023395 -342.709702 
L 314.715331 -349.969491 
L 315.383095 -357.22928 
L 316.000514 -364.48907 
L 316.542218 -371.748859 
L 316.983756 -379.008649 
L 317.301536 -386.268438 
L 317.472663 -393.528227 
L 317.474807 -400.788017 
L 317.286211 -408.047806 
L 316.885965 -415.307596 
L 316.25464 -422.567385 
L 315.375336 -429.827174 
L 314.235135 -437.086964 
L 312.826883 -444.346753 
L 311.151147 -451.606542 
L 309.218159 -458.866332 
L 307.049465 -466.126121 
L 304.67904 -473.385911 
L 302.153614 -480.6457 
L 299.532023 -487.905489 
L 296.883498 -495.165279 
L 294.284907 -502.425068 
L 291.817103 -509.684858 
L 289.560639 -516.944647 
L 287.591198 -524.204436 
L 285.975144 -531.464226 
L 284.765607 -538.724015 
L 283.999438 -545.983805 
L 283.695312 -553.243594 
L 283.853113 -560.503383 
L 284.454597 -567.763173 
L 285.465224 -575.022962 
L 286.836921 -582.282752 
L 288.511483 -589.542541 
L 290.424297 -596.80233 
L 292.508061 -604.06212 
L 294.696253 -611.321909 
L 296.926135 -618.581699 
L 299.14116 -625.841488 
L 301.292732 -633.101277 
L 303.341302 -640.361067 
L 305.256859 -647.620856 
L 307.018866 -654.880646 
L 308.61575 -662.140435 
L 310.044021 -669.400224 
L 311.307114 -676.660014 
L 312.414059 -683.919803 
L 313.378046 -691.179592 
L 314.214989 -698.439382 
L 314.942146 -705.699171 
L 315.576889 -712.958961 
L 316.135662 -720.21875 
L 316.633179 -727.478539 
L 317.081887 -734.738329 
L 317.491685 -741.998118 
L 317.869901 -749.257908 
L 318.22147 -756.517697 
L 318.549273 -763.777486 
L 318.854581 -771.037276 
L 319.137541 -778.297065 
L 319.397657 -785.556855 
L 319.634209 -792.816644 
L 319.846602 -800.076433 
L 320.034598 -807.336223 
L 320.198463 -814.596012 
L 320.33901 -821.855802 
L 320.457564 -829.115591 
L 320.555879 -836.37538 
L 320.636015 -843.63517 
L 321.15461 -843.63517 
L 321.15461 -843.63517 
L 321.234746 -836.37538 
L 321.333061 -829.115591 
L 321.451615 -821.855802 
L 321.592162 -814.596012 
L 321.756027 -807.336223 
L 321.944023 -800.076433 
L 322.156416 -792.816644 
L 322.392968 -785.556855 
L 322.653084 -778.297065 
L 322.936044 -771.037276 
L 323.241352 -763.777486 
L 323.569155 -756.517697 
L 323.920724 -749.257908 
L 324.29894 -741.998118 
L 324.708738 -734.738329 
L 325.157446 -727.478539 
L 325.654963 -720.21875 
L 326.213736 -712.958961 
L 326.848479 -705.699171 
L 327.575636 -698.439382 
L 328.412579 -691.179592 
L 329.376566 -683.919803 
L 330.483511 -676.660014 
L 331.746604 -669.400224 
L 333.174875 -662.140435 
L 334.771759 -654.880646 
L 336.533766 -647.620856 
L 338.449323 -640.361067 
L 340.497893 -633.101277 
L 342.649465 -625.841488 
L 344.86449 -618.581699 
L 347.094372 -611.321909 
L 349.282564 -604.06212 
L 351.366328 -596.80233 
L 353.279142 -589.542541 
L 354.953704 -582.282752 
L 356.325401 -575.022962 
L 357.336028 -567.763173 
L 357.937512 -560.503383 
L 358.095313 -553.243594 
L 357.791187 -545.983805 
L 357.025018 -538.724015 
L 355.815481 -531.464226 
L 354.199427 -524.204436 
L 352.229986 -516.944647 
L 349.973522 -509.684858 
L 347.505718 -502.425068 
L 344.907127 -495.165279 
L 342.258602 -487.905489 
L 339.637011 -480.6457 
L 337.111585 -473.385911 
L 334.74116 -466.126121 
L 332.572466 -458.866332 
L 330.639478 -451.606542 
L 328.963742 -444.346753 
L 327.55549 -437.086964 
L 326.415289 -429.827174 
L 325.535985 -422.567385 
L 324.90466 -415.307596 
L 324.504414 -408.047806 
L 324.315818 -400.788017 
L 324.317962 -393.528227 
L 324.489089 -386.268438 
L 324.806869 -379.008649 
L 325.248407 -371.748859 
L 325.790111 -364.48907 
L 326.40753 -357.22928 
L 327.075294 -349.969491 
L 327.76723 -342.709702 
L 328.456701 -335.449912 
L 329.11719 -328.190123 
L 329.723094 -320.930333 
L 330.250657 -313.670544 
L 330.678969 -306.410755 
L 330.990929 -299.150965 
L 331.174069 -291.891176 
L 331.221152 -284.631386 
L 331.130494 -277.371597 
L 330.905948 -270.111808 
L 330.556573 -262.852018 
L 330.095988 -255.592229 
L 329.541488 -248.332439 
L 328.912969 -241.07265 
L 328.231774 -233.812861 
L 327.519521 -226.553071 
L 326.797024 -219.293282 
L 326.083349 -212.033492 
L 325.395079 -204.773703 
L 324.745804 -197.513914 
L 324.145856 -190.254124 
L 323.602269 -182.994335 
L 323.118936 -175.734546 
L 322.696935 -168.474756 
L 322.334954 -161.214967 
L 322.029795 -153.955177 
L 321.776885 -146.695388 
L 321.570771 -139.435599 
L 321.405561 -132.175809 
L 321.275302 -124.91602 
z
" id="m79f76487ec" style="stroke:#6a6a6a;stroke-width:1.5;"/>
    </defs>
    <g clip-path="url(#p297e9e6e93)">
     <use style="fill:#c1bed6;stroke:#6a6a6a;stroke-width:1.5;" x="0" xlink:href="#m79f76487ec" y="900.458203"/>
    </g>
   </g>
   <g id="PolyCollection_4">
    <defs>
     <path d="M 451.613854 -183.914312 
L 450.576771 -183.914312 
L 450.411891 -189.524739 
L 450.206737 -195.135166 
L 449.955532 -200.745594 
L 449.652902 -206.356021 
L 449.294292 -211.966449 
L 448.876446 -217.576876 
L 448.397895 -223.187304 
L 447.859444 -228.797731 
L 447.264589 -234.408158 
L 446.619832 -240.018586 
L 445.934848 -245.629013 
L 445.222456 -251.239441 
L 444.498378 -256.849868 
L 443.780763 -262.460296 
L 443.089503 -268.070723 
L 442.445353 -273.68115 
L 441.868913 -279.291578 
L 441.379548 -284.902005 
L 440.994303 -290.512433 
L 440.726916 -296.12286 
L 440.586993 -301.733287 
L 440.579413 -307.343715 
L 440.704008 -312.954142 
L 440.95554 -318.56457 
L 441.323975 -324.174997 
L 441.795009 -329.785425 
L 442.350813 -335.395852 
L 442.970913 -341.006279 
L 443.633124 -346.616707 
L 444.314473 -352.227134 
L 444.992017 -357.837562 
L 445.643511 -363.447989 
L 446.247876 -369.058417 
L 446.785454 -374.668844 
L 447.238052 -380.279271 
L 447.588814 -385.889699 
L 447.821965 -391.500126 
L 447.922506 -397.110554 
L 447.875924 -402.720981 
L 447.668017 -408.331409 
L 447.284892 -413.941836 
L 446.713213 -419.552263 
L 445.940727 -425.162691 
L 444.957085 -430.773118 
L 443.754927 -436.383546 
L 442.331171 -441.993973 
L 440.688407 -447.604401 
L 438.836258 -453.214828 
L 436.792565 -458.825255 
L 434.584227 -464.435683 
L 432.247541 -470.04611 
L 429.82793 -475.656538 
L 427.378976 -481.266965 
L 424.96074 -486.877392 
L 422.637427 -492.48782 
L 420.474518 -498.098247 
L 418.535568 -503.708675 
L 416.878897 -509.319102 
L 415.554439 -514.92953 
L 414.601016 -520.539957 
L 414.044253 -526.150384 
L 413.895313 -531.760812 
L 414.150546 -537.371239 
L 414.792075 -542.981667 
L 415.789229 -548.592094 
L 417.100693 -554.202522 
L 418.677177 -559.812949 
L 420.464365 -565.423376 
L 422.405907 -571.033804 
L 424.446247 -576.644231 
L 426.533091 -582.254659 
L 428.61938 -587.865086 
L 430.664712 -593.475514 
L 432.636163 -599.085941 
L 434.508557 -604.696368 
L 436.264243 -610.306796 
L 437.892476 -615.917223 
L 439.388512 -621.527651 
L 440.752532 -627.138078 
L 441.988502 -632.748506 
L 443.103051 -638.358933 
L 444.104466 -643.96936 
L 445.00182 -649.579788 
L 445.804295 -655.190215 
L 446.520692 -660.800643 
L 447.15912 -666.41107 
L 447.726845 -672.021497 
L 448.230274 -677.631925 
L 448.675024 -683.242352 
L 449.066052 -688.85278 
L 449.407809 -694.463207 
L 449.704389 -700.073635 
L 449.959657 -705.684062 
L 450.177345 -711.294489 
L 450.361103 -716.904917 
L 450.514521 -722.515344 
L 450.641114 -728.125772 
L 450.744291 -733.736199 
L 450.82731 -739.346627 
L 451.363315 -739.346627 
L 451.363315 -739.346627 
L 451.446334 -733.736199 
L 451.549511 -728.125772 
L 451.676104 -722.515344 
L 451.829522 -716.904917 
L 452.01328 -711.294489 
L 452.230968 -705.684062 
L 452.486236 -700.073635 
L 452.782816 -694.463207 
L 453.124573 -688.85278 
L 453.515601 -683.242352 
L 453.960351 -677.631925 
L 454.46378 -672.021497 
L 455.031505 -666.41107 
L 455.669933 -660.800643 
L 456.38633 -655.190215 
L 457.188805 -649.579788 
L 458.086159 -643.96936 
L 459.087574 -638.358933 
L 460.202123 -632.748506 
L 461.438093 -627.138078 
L 462.802113 -621.527651 
L 464.298149 -615.917223 
L 465.926382 -610.306796 
L 467.682068 -604.696368 
L 469.554462 -599.085941 
L 471.525913 -593.475514 
L 473.571245 -587.865086 
L 475.657534 -582.254659 
L 477.744378 -576.644231 
L 479.784718 -571.033804 
L 481.72626 -565.423376 
L 483.513448 -559.812949 
L 485.089932 -554.202522 
L 486.401396 -548.592094 
L 487.39855 -542.981667 
L 488.040079 -537.371239 
L 488.295313 -531.760812 
L 488.146372 -526.150384 
L 487.589609 -520.539957 
L 486.636186 -514.92953 
L 485.311728 -509.319102 
L 483.655057 -503.708675 
L 481.716107 -498.098247 
L 479.553198 -492.48782 
L 477.229885 -486.877392 
L 474.811649 -481.266965 
L 472.362695 -475.656538 
L 469.943084 -470.04611 
L 467.606398 -464.435683 
L 465.39806 -458.825255 
L 463.354367 -453.214828 
L 461.502218 -447.604401 
L 459.859454 -441.993973 
L 458.435698 -436.383546 
L 457.23354 -430.773118 
L 456.249898 -425.162691 
L 455.477412 -419.552263 
L 454.905733 -413.941836 
L 454.522608 -408.331409 
L 454.314701 -402.720981 
L 454.268119 -397.110554 
L 454.36866 -391.500126 
L 454.601811 -385.889699 
L 454.952573 -380.279271 
L 455.405171 -374.668844 
L 455.942749 -369.058417 
L 456.547114 -363.447989 
L 457.198608 -357.837562 
L 457.876152 -352.227134 
L 458.557501 -346.616707 
L 459.219712 -341.006279 
L 459.839812 -335.395852 
L 460.395616 -329.785425 
L 460.86665 -324.174997 
L 461.235085 -318.56457 
L 461.486617 -312.954142 
L 461.611212 -307.343715 
L 461.603632 -301.733287 
L 461.463709 -296.12286 
L 461.196322 -290.512433 
L 460.811077 -284.902005 
L 460.321712 -279.291578 
L 459.745272 -273.68115 
L 459.101122 -268.070723 
L 458.409862 -262.460296 
L 457.692247 -256.849868 
L 456.968169 -251.239441 
L 456.255777 -245.629013 
L 455.570793 -240.018586 
L 454.926036 -234.408158 
L 454.331181 -228.797731 
L 453.79273 -223.187304 
L 453.314179 -217.576876 
L 452.896333 -211.966449 
L 452.537723 -206.356021 
L 452.235093 -200.745594 
L 451.983888 -195.135166 
L 451.778734 -189.524739 
L 451.613854 -183.914312 
z
" id="mbbfa71e7f4" style="stroke:#6a6a6a;stroke-width:1.5;"/>
    </defs>
    <g clip-path="url(#p297e9e6e93)">
     <use style="fill:#96cac1;stroke:#6a6a6a;stroke-width:1.5;" x="0" xlink:href="#mbbfa71e7f4" y="900.458203"/>
    </g>
   </g>
   <g id="PolyCollection_5">
    <defs>
     <path d="M 526.060785 -184.701578 
L 524.92984 -184.701578 
L 524.704993 -186.475403 
L 524.41584 -188.249228 
L 524.054157 -190.023053 
L 523.614293 -191.796878 
L 523.094407 -193.570703 
L 522.497483 -195.344528 
L 521.831905 -197.118353 
L 521.11134 -198.892178 
L 520.353747 -200.666004 
L 519.579467 -202.439829 
L 518.808463 -204.213654 
L 518.057014 -205.987479 
L 517.334271 -207.761304 
L 516.639248 -209.535129 
L 515.958818 -211.308954 
L 515.267219 -213.082779 
L 514.527408 -214.856604 
L 513.694341 -216.63043 
L 512.719931 -218.404255 
L 511.559183 -220.17808 
L 510.176737 -221.951905 
L 508.552965 -223.72573 
L 506.688739 -225.499555 
L 504.60819 -227.27338 
L 502.359009 -229.047205 
L 500.010182 -230.82103 
L 497.647425 -232.594855 
L 495.366853 -234.368681 
L 493.267624 -236.142506 
L 491.444404 -237.916331 
L 489.980408 -239.690156 
L 488.941665 -241.463981 
L 488.372912 -243.237806 
L 488.295313 -245.011631 
L 488.705967 -246.785456 
L 489.579063 -248.559281 
L 490.868376 -250.333107 
L 492.510836 -252.106932 
L 494.43085 -253.880757 
L 496.5451 -255.654582 
L 498.767565 -257.428407 
L 501.014505 -259.202232 
L 503.209162 -260.976057 
L 505.285899 -262.749882 
L 507.193525 -264.523707 
L 508.897526 -266.297533 
L 510.381033 -268.071358 
L 511.644369 -269.845183 
L 512.70322 -271.619008 
L 513.585569 -273.392833 
L 514.327696 -275.166658 
L 514.969681 -276.940483 
L 515.550909 -278.714308 
L 516.106071 -280.488133 
L 516.662096 -282.261959 
L 517.236313 -284.035784 
L 517.835937 -285.809609 
L 518.458826 -287.583434 
L 519.095258 -289.357259 
L 519.730395 -291.131084 
L 520.347027 -292.904909 
L 520.928215 -294.678734 
L 521.459534 -296.452559 
L 521.930659 -298.226385 
L 522.336232 -300.00021 
L 522.675953 -301.774035 
L 522.954026 -303.54786 
L 523.178086 -305.321685 
L 523.357806 -307.09551 
L 523.503424 -308.869335 
L 523.624371 -310.64316 
L 523.72821 -312.416985 
L 523.819984 -314.190811 
L 523.90207 -315.964636 
L 523.974488 -317.738461 
L 524.035608 -319.512286 
L 524.083097 -321.286111 
L 524.114924 -323.059936 
L 524.13026 -324.833761 
L 524.130106 -326.607586 
L 524.117542 -328.381411 
L 524.097583 -330.155236 
L 524.076652 -331.929062 
L 524.061791 -333.702887 
L 524.059747 -335.476712 
L 524.076083 -337.250537 
L 524.114469 -339.024362 
L 524.176262 -340.798187 
L 524.260415 -342.572012 
L 524.363724 -344.345837 
L 524.481333 -346.119662 
L 524.607412 -347.893488 
L 524.735878 -349.667313 
L 524.861057 -351.441138 
L 524.9782 -353.214963 
L 525.083799 -354.988788 
L 525.175709 -356.762613 
L 525.253079 -358.536438 
L 525.316157 -360.310263 
L 525.674468 -360.310263 
L 525.674468 -360.310263 
L 525.737546 -358.536438 
L 525.814916 -356.762613 
L 525.906826 -354.988788 
L 526.012425 -353.214963 
L 526.129568 -351.441138 
L 526.254747 -349.667313 
L 526.383213 -347.893488 
L 526.509292 -346.119662 
L 526.626901 -344.345837 
L 526.73021 -342.572012 
L 526.814363 -340.798187 
L 526.876156 -339.024362 
L 526.914542 -337.250537 
L 526.930878 -335.476712 
L 526.928834 -333.702887 
L 526.913973 -331.929062 
L 526.893042 -330.155236 
L 526.873083 -328.381411 
L 526.860519 -326.607586 
L 526.860365 -324.833761 
L 526.875701 -323.059936 
L 526.907528 -321.286111 
L 526.955017 -319.512286 
L 527.016137 -317.738461 
L 527.088555 -315.964636 
L 527.170641 -314.190811 
L 527.262415 -312.416985 
L 527.366254 -310.64316 
L 527.487201 -308.869335 
L 527.632819 -307.09551 
L 527.812539 -305.321685 
L 528.036599 -303.54786 
L 528.314672 -301.774035 
L 528.654393 -300.00021 
L 529.059966 -298.226385 
L 529.531091 -296.452559 
L 530.06241 -294.678734 
L 530.643598 -292.904909 
L 531.26023 -291.131084 
L 531.895367 -289.357259 
L 532.531799 -287.583434 
L 533.154688 -285.809609 
L 533.754312 -284.035784 
L 534.328529 -282.261959 
L 534.884554 -280.488133 
L 535.439716 -278.714308 
L 536.020944 -276.940483 
L 536.662929 -275.166658 
L 537.405056 -273.392833 
L 538.287405 -271.619008 
L 539.346256 -269.845183 
L 540.609592 -268.071358 
L 542.093099 -266.297533 
L 543.7971 -264.523707 
L 545.704726 -262.749882 
L 547.781463 -260.976057 
L 549.97612 -259.202232 
L 552.22306 -257.428407 
L 554.445525 -255.654582 
L 556.559775 -253.880757 
L 558.479789 -252.106932 
L 560.122249 -250.333107 
L 561.411562 -248.559281 
L 562.284658 -246.785456 
L 562.695312 -245.011631 
L 562.617713 -243.237806 
L 562.04896 -241.463981 
L 561.010217 -239.690156 
L 559.546221 -237.916331 
L 557.723001 -236.142506 
L 555.623772 -234.368681 
L 553.3432 -232.594855 
L 550.980443 -230.82103 
L 548.631616 -229.047205 
L 546.382435 -227.27338 
L 544.301886 -225.499555 
L 542.43766 -223.72573 
L 540.813888 -221.951905 
L 539.431442 -220.17808 
L 538.270694 -218.404255 
L 537.296284 -216.63043 
L 536.463217 -214.856604 
L 535.723406 -213.082779 
L 535.031807 -211.308954 
L 534.351377 -209.535129 
L 533.656354 -207.761304 
L 532.933611 -205.987479 
L 532.182162 -204.213654 
L 531.411158 -202.439829 
L 530.636878 -200.666004 
L 529.879285 -198.892178 
L 529.15872 -197.118353 
L 528.493142 -195.344528 
L 527.896218 -193.570703 
L 527.376332 -191.796878 
L 526.936468 -190.023053 
L 526.574785 -188.249228 
L 526.285632 -186.475403 
L 526.060785 -184.701578 
z
" id="me34144e28d" style="stroke:#6a6a6a;stroke-width:1.5;"/>
    </defs>
    <g clip-path="url(#p297e9e6e93)">
     <use style="fill:#f6f6bc;stroke:#6a6a6a;stroke-width:1.5;" x="0" xlink:href="#me34144e28d" y="900.458203"/>
    </g>
   </g>
   <g id="PolyCollection_6">
    <defs>
     <path d="M 600.272814 -126.565234 
L 599.517811 -126.565234 
L 599.389529 -133.838436 
L 599.22711 -141.111637 
L 599.024781 -148.384839 
L 598.776829 -155.658041 
L 598.477959 -162.931242 
L 598.123718 -170.204444 
L 597.710964 -177.477646 
L 597.238361 -184.750847 
L 596.706857 -192.024049 
L 596.120098 -199.297251 
L 595.484744 -206.570452 
L 594.810627 -213.843654 
L 594.110727 -221.116856 
L 593.400931 -228.390057 
L 592.699558 -235.663259 
L 592.026673 -242.93646 
L 591.403199 -250.209662 
L 590.849892 -257.482864 
L 590.386226 -264.756065 
L 590.029287 -272.029267 
L 589.792737 -279.302469 
L 589.685945 -286.57567 
L 589.713353 -293.848872 
L 589.874119 -301.122074 
L 590.162078 -308.395275 
L 590.566014 -315.668477 
L 591.070215 -322.941679 
L 591.655243 -330.21488 
L 592.298861 -337.488082 
L 592.977006 -344.761284 
L 593.664714 -352.034485 
L 594.336927 -359.307687 
L 594.969091 -366.580889 
L 595.537528 -373.85409 
L 596.019559 -381.127292 
L 596.393423 -388.400493 
L 596.638062 -395.673695 
L 596.732857 -402.946897 
L 596.657446 -410.220098 
L 596.39174 -417.4933 
L 595.916243 -424.766502 
L 595.212762 -432.039703 
L 594.265532 -439.312905 
L 593.062735 -446.586107 
L 591.598326 -453.859308 
L 589.873994 -461.13251 
L 587.901065 -468.405712 
L 585.702091 -475.678913 
L 583.311864 -482.952115 
L 580.777653 -490.225317 
L 578.158472 -497.498518 
L 575.523308 -504.77172 
L 572.948361 -512.044921 
L 570.513417 -519.318123 
L 568.297641 -526.591325 
L 566.375103 -533.864526 
L 564.810456 -541.137728 
L 563.655121 -548.41093 
L 562.944335 -555.684131 
L 562.695312 -562.957333 
L 562.906644 -570.230535 
L 563.558958 -577.503736 
L 564.616722 -584.776938 
L 566.030979 -592.05014 
L 567.742726 -599.323341 
L 569.686646 -606.596543 
L 571.794868 -613.869745 
L 574.000489 -621.142946 
L 576.240651 -628.416148 
L 578.459018 -635.68935 
L 580.60758 -642.962551 
L 582.647763 -650.235753 
L 584.550874 -657.508954 
L 586.297955 -664.782156 
L 587.879137 -672.055358 
L 589.292602 -679.328559 
L 590.543266 -686.601761 
L 591.641291 -693.874963 
L 592.600545 -701.148164 
L 593.437101 -708.421366 
L 594.167857 -715.694568 
L 594.809364 -722.967769 
L 595.376892 -730.240971 
L 595.883769 -737.514173 
L 596.341003 -744.787374 
L 596.75716 -752.060576 
L 597.138467 -759.333778 
L 597.489088 -766.606979 
L 597.811516 -773.880181 
L 598.107024 -781.153383 
L 598.376112 -788.426584 
L 598.618925 -795.699786 
L 598.835583 -802.972987 
L 599.026427 -810.246189 
L 599.192174 -817.519391 
L 599.333969 -824.792592 
L 599.453379 -832.065794 
L 599.552319 -839.338996 
L 599.63295 -846.612197 
L 600.157675 -846.612197 
L 600.157675 -846.612197 
L 600.238306 -839.338996 
L 600.337246 -832.065794 
L 600.456656 -824.792592 
L 600.598451 -817.519391 
L 600.764198 -810.246189 
L 600.955042 -802.972987 
L 601.1717 -795.699786 
L 601.414513 -788.426584 
L 601.683601 -781.153383 
L 601.979109 -773.880181 
L 602.301537 -766.606979 
L 602.652158 -759.333778 
L 603.033465 -752.060576 
L 603.449622 -744.787374 
L 603.906856 -737.514173 
L 604.413733 -730.240971 
L 604.981261 -722.967769 
L 605.622768 -715.694568 
L 606.353524 -708.421366 
L 607.19008 -701.148164 
L 608.149334 -693.874963 
L 609.247359 -686.601761 
L 610.498023 -679.328559 
L 611.911488 -672.055358 
L 613.49267 -664.782156 
L 615.239751 -657.508954 
L 617.142862 -650.235753 
L 619.183045 -642.962551 
L 621.331607 -635.68935 
L 623.549974 -628.416148 
L 625.790136 -621.142946 
L 627.995757 -613.869745 
L 630.103979 -606.596543 
L 632.047899 -599.323341 
L 633.759646 -592.05014 
L 635.173903 -584.776938 
L 636.231667 -577.503736 
L 636.883981 -570.230535 
L 637.095312 -562.957333 
L 636.84629 -555.684131 
L 636.135504 -548.41093 
L 634.980169 -541.137728 
L 633.415522 -533.864526 
L 631.492984 -526.591325 
L 629.277208 -519.318123 
L 626.842264 -512.044921 
L 624.267317 -504.77172 
L 621.632153 -497.498518 
L 619.012972 -490.225317 
L 616.478761 -482.952115 
L 614.088534 -475.678913 
L 611.88956 -468.405712 
L 609.916631 -461.13251 
L 608.192299 -453.859308 
L 606.72789 -446.586107 
L 605.525093 -439.312905 
L 604.577863 -432.039703 
L 603.874382 -424.766502 
L 603.398885 -417.4933 
L 603.133179 -410.220098 
L 603.057768 -402.946897 
L 603.152563 -395.673695 
L 603.397202 -388.400493 
L 603.771066 -381.127292 
L 604.253097 -373.85409 
L 604.821534 -366.580889 
L 605.453698 -359.307687 
L 606.125911 -352.034485 
L 606.813619 -344.761284 
L 607.491764 -337.488082 
L 608.135382 -330.21488 
L 608.72041 -322.941679 
L 609.224611 -315.668477 
L 609.628547 -308.395275 
L 609.916506 -301.122074 
L 610.077272 -293.848872 
L 610.10468 -286.57567 
L 609.997888 -279.302469 
L 609.761338 -272.029267 
L 609.404399 -264.756065 
L 608.940733 -257.482864 
L 608.387426 -250.209662 
L 607.763952 -242.93646 
L 607.091067 -235.663259 
L 606.389694 -228.390057 
L 605.679898 -221.116856 
L 604.979998 -213.843654 
L 604.305881 -206.570452 
L 603.670527 -199.297251 
L 603.083768 -192.024049 
L 602.552264 -184.750847 
L 602.079661 -177.477646 
L 601.666907 -170.204444 
L 601.312666 -162.931242 
L 601.013796 -155.658041 
L 600.765844 -148.384839 
L 600.563515 -141.111637 
L 600.401096 -133.838436 
L 600.272814 -126.565234 
z
" id="m6ad120cb3c" style="stroke:#6a6a6a;stroke-width:1.5;"/>
    </defs>
    <g clip-path="url(#p297e9e6e93)">
     <use style="fill:#c1bed6;stroke:#6a6a6a;stroke-width:1.5;" x="0" xlink:href="#m6ad120cb3c" y="900.458203"/>
    </g>
   </g>
   <g id="PolyCollection_7">
    <defs>
     <path d="M 731.009271 -114.921839 
L 729.181354 -114.921839 
L 728.932155 -122.395913 
L 728.632939 -129.869988 
L 728.27902 -137.344062 
L 727.866762 -144.818136 
L 727.394035 -152.29221 
L 726.860666 -159.766284 
L 726.268861 -167.240358 
L 725.623556 -174.714432 
L 724.932654 -182.188506 
L 724.20711 -189.66258 
L 723.460832 -197.136654 
L 722.710381 -204.610728 
L 721.974449 -212.084802 
L 721.273158 -219.558876 
L 720.627174 -227.03295 
L 720.056723 -234.507024 
L 719.58054 -241.981098 
L 719.214853 -249.455172 
L 718.972455 -256.929246 
L 718.861956 -264.40332 
L 718.887254 -271.877394 
L 719.047291 -279.351468 
L 719.336086 -286.825542 
L 719.743066 -294.299616 
L 720.253637 -301.77369 
L 720.849968 -309.247764 
L 721.511902 -316.721838 
L 722.217928 -324.195912 
L 722.946131 -331.669986 
L 723.675051 -339.14406 
L 724.384388 -346.618134 
L 725.055518 -354.092208 
L 725.671794 -361.566282 
L 726.218636 -369.040356 
L 726.683428 -376.51443 
L 727.055263 -383.988504 
L 727.324582 -391.462578 
L 727.482766 -398.936652 
L 727.521743 -406.410726 
L 727.433665 -413.8848 
L 727.210698 -421.358874 
L 726.844973 -428.832948 
L 726.328712 -436.307022 
L 725.654542 -443.781096 
L 724.815978 -451.25517 
L 723.808057 -458.729244 
L 722.628078 -466.203318 
L 721.276386 -473.677392 
L 719.757147 -481.151466 
L 718.079038 -488.62554 
L 716.255788 -496.099614 
L 714.306507 -503.573688 
L 712.255757 -511.047762 
L 710.133326 -518.521836 
L 707.973695 -525.99591 
L 705.81521 -533.469984 
L 703.698979 -540.944058 
L 701.667557 -548.418132 
L 699.76348 -555.892206 
L 698.027726 -563.36628 
L 696.498201 -570.840354 
L 695.208326 -578.314428 
L 694.185808 -585.788502 
L 693.451658 -593.262576 
L 693.019518 -600.73665 
L 692.895313 -608.210724 
L 693.077232 -615.684798 
L 693.55605 -623.158872 
L 694.315727 -630.632946 
L 695.334251 -638.10702 
L 696.584676 -645.581094 
L 698.036265 -653.055168 
L 699.655697 -660.529242 
L 701.408259 -668.003316 
L 703.258983 -675.47739 
L 705.173663 -682.951464 
L 707.119742 -690.425538 
L 709.067036 -697.899612 
L 710.98829 -705.373686 
L 712.859559 -712.84776 
L 714.660446 -720.321834 
L 716.374189 -727.795908 
L 717.987631 -735.269982 
L 719.491086 -742.744056 
L 720.878135 -750.21813 
L 722.145354 -757.692204 
L 723.292002 -765.166278 
L 724.319687 -772.640352 
L 725.232013 -780.114426 
L 726.034225 -787.5885 
L 726.732859 -795.062574 
L 727.335409 -802.536648 
L 727.850006 -810.010722 
L 728.285136 -817.484796 
L 728.649371 -824.95887 
L 728.951154 -832.432944 
L 729.198605 -839.907018 
L 729.399374 -847.381092 
L 729.560535 -854.855166 
L 730.63009 -854.855166 
L 730.63009 -854.855166 
L 730.791251 -847.381092 
L 730.99202 -839.907018 
L 731.239471 -832.432944 
L 731.541254 -824.95887 
L 731.905489 -817.484796 
L 732.340619 -810.010722 
L 732.855216 -802.536648 
L 733.457766 -795.062574 
L 734.1564 -787.5885 
L 734.958612 -780.114426 
L 735.870938 -772.640352 
L 736.898623 -765.166278 
L 738.045271 -757.692204 
L 739.31249 -750.21813 
L 740.699539 -742.744056 
L 742.202994 -735.269982 
L 743.816436 -727.795908 
L 745.530179 -720.321834 
L 747.331066 -712.84776 
L 749.202335 -705.373686 
L 751.123589 -697.899612 
L 753.070883 -690.425538 
L 755.016962 -682.951464 
L 756.931642 -675.47739 
L 758.782366 -668.003316 
L 760.534928 -660.529242 
L 762.15436 -653.055168 
L 763.605949 -645.581094 
L 764.856374 -638.10702 
L 765.874898 -630.632946 
L 766.634575 -623.158872 
L 767.113393 -615.684798 
L 767.295312 -608.210724 
L 767.171107 -600.73665 
L 766.738967 -593.262576 
L 766.004817 -585.788502 
L 764.982299 -578.314428 
L 763.692424 -570.840354 
L 762.162899 -563.36628 
L 760.427145 -555.892206 
L 758.523068 -548.418132 
L 756.491646 -540.944058 
L 754.375415 -533.469984 
L 752.21693 -525.99591 
L 750.057299 -518.521836 
L 747.934868 -511.047762 
L 745.884118 -503.573688 
L 743.934837 -496.099614 
L 742.111587 -488.62554 
L 740.433478 -481.151466 
L 738.914239 -473.677392 
L 737.562547 -466.203318 
L 736.382568 -458.729244 
L 735.374647 -451.25517 
L 734.536083 -443.781096 
L 733.861913 -436.307022 
L 733.345652 -428.832948 
L 732.979927 -421.358874 
L 732.75696 -413.8848 
L 732.668882 -406.410726 
L 732.707859 -398.936652 
L 732.866043 -391.462578 
L 733.135362 -383.988504 
L 733.507197 -376.51443 
L 733.971989 -369.040356 
L 734.518831 -361.566282 
L 735.135107 -354.092208 
L 735.806237 -346.618134 
L 736.515574 -339.14406 
L 737.244494 -331.669986 
L 737.972697 -324.195912 
L 738.678723 -316.721838 
L 739.340657 -309.247764 
L 739.936988 -301.77369 
L 740.447559 -294.299616 
L 740.854539 -286.825542 
L 741.143334 -279.351468 
L 741.303371 -271.877394 
L 741.328669 -264.40332 
L 741.21817 -256.929246 
L 740.975772 -249.455172 
L 740.610085 -241.981098 
L 740.133902 -234.507024 
L 739.563451 -227.03295 
L 738.917467 -219.558876 
L 738.216176 -212.084802 
L 737.480244 -204.610728 
L 736.729793 -197.136654 
L 735.983515 -189.66258 
L 735.257971 -182.188506 
L 734.567069 -174.714432 
L 733.921764 -167.240358 
L 733.329959 -159.766284 
L 732.79659 -152.29221 
L 732.323863 -144.818136 
L 731.911605 -137.344062 
L 731.557686 -129.869988 
L 731.25847 -122.395913 
L 731.009271 -114.921839 
z
" id="me70045fb78" style="stroke:#6a6a6a;stroke-width:1.5;"/>
    </defs>
    <g clip-path="url(#p297e9e6e93)">
     <use style="fill:#96cac1;stroke:#6a6a6a;stroke-width:1.5;" x="0" xlink:href="#me70045fb78" y="900.458203"/>
    </g>
   </g>
   <g id="PolyCollection_8">
    <defs>
     <path d="M 805.387206 -166.232992 
L 803.603419 -166.232992 
L 803.262965 -169.305408 
L 802.830075 -172.377823 
L 802.294237 -175.450238 
L 801.648759 -178.522654 
L 800.892359 -181.595069 
L 800.030476 -184.667484 
L 799.076034 -187.739899 
L 798.049427 -190.812315 
L 796.977563 -193.88473 
L 795.891932 -196.957145 
L 794.825817 -200.029561 
L 793.810904 -203.101976 
L 792.873669 -206.174391 
L 792.03198 -209.246806 
L 791.292353 -212.319222 
L 790.648237 -215.391637 
L 790.079585 -218.464052 
L 789.553849 -221.536468 
L 789.02837 -224.608883 
L 788.454005 -227.681298 
L 787.779726 -230.753713 
L 786.957805 -233.826129 
L 785.949132 -236.898544 
L 784.728166 -239.970959 
L 783.286984 -243.043375 
L 781.63795 -246.11579 
L 779.814606 -249.188205 
L 777.870553 -252.26062 
L 775.876311 -255.333036 
L 773.914365 -258.405451 
L 772.072862 -261.477866 
L 770.438586 -264.550282 
L 769.089951 -267.622697 
L 768.090745 -270.695112 
L 767.485265 -273.767527 
L 767.295312 -276.839943 
L 767.519299 -279.912358 
L 768.133458 -282.984773 
L 769.094967 -286.057189 
L 770.346576 -289.129604 
L 771.822225 -292.202019 
L 773.453057 -295.274434 
L 775.173212 -298.34685 
L 776.924839 -301.419265 
L 778.661831 -304.49168 
L 780.351975 -307.564096 
L 781.977345 -310.636511 
L 783.532998 -313.708926 
L 785.024249 -316.781341 
L 786.462959 -319.853757 
L 787.8634 -322.926172 
L 789.238315 -325.998587 
L 790.595704 -329.071003 
L 791.936771 -332.143418 
L 793.255235 -335.215833 
L 794.538007 -338.288249 
L 795.767009 -341.360664 
L 796.921755 -344.433079 
L 797.982241 -347.505494 
L 798.931665 -350.57791 
L 799.758589 -353.650325 
L 800.458276 -356.72274 
L 801.033067 -359.795156 
L 801.491853 -362.867571 
L 801.84877 -365.939986 
L 802.121385 -369.012401 
L 802.328644 -372.084817 
L 802.488872 -375.157232 
L 802.618066 -378.229647 
L 802.728672 -381.302063 
L 802.828939 -384.374478 
L 802.922883 -387.446893 
L 803.010785 -390.519308 
L 803.090123 -393.591724 
L 803.156765 -396.664139 
L 803.206253 -399.736554 
L 803.234991 -402.80897 
L 803.241198 -405.881385 
L 803.225511 -408.9538 
L 803.191182 -412.026215 
L 803.143857 -415.098631 
L 803.091006 -418.171046 
L 803.041072 -421.243461 
L 803.002497 -424.315877 
L 802.982742 -427.388292 
L 802.987447 -430.460707 
L 803.019852 -433.533122 
L 803.080531 -436.605538 
L 803.167466 -439.677953 
L 803.276437 -442.750368 
L 803.401633 -445.822784 
L 803.536392 -448.895199 
L 803.673958 -451.967614 
L 803.808146 -455.040029 
L 803.933839 -458.112445 
L 804.04729 -461.18486 
L 804.14621 -464.257275 
L 804.229685 -467.329691 
L 804.297956 -470.402106 
L 804.692669 -470.402106 
L 804.692669 -470.402106 
L 804.76094 -467.329691 
L 804.844415 -464.257275 
L 804.943335 -461.18486 
L 805.056786 -458.112445 
L 805.182479 -455.040029 
L 805.316667 -451.967614 
L 805.454233 -448.895199 
L 805.588992 -445.822784 
L 805.714188 -442.750368 
L 805.823159 -439.677953 
L 805.910094 -436.605538 
L 805.970773 -433.533122 
L 806.003178 -430.460707 
L 806.007883 -427.388292 
L 805.988128 -424.315877 
L 805.949553 -421.243461 
L 805.899619 -418.171046 
L 805.846768 -415.098631 
L 805.799443 -412.026215 
L 805.765114 -408.9538 
L 805.749427 -405.881385 
L 805.755634 -402.80897 
L 805.784372 -399.736554 
L 805.83386 -396.664139 
L 805.900502 -393.591724 
L 805.97984 -390.519308 
L 806.067742 -387.446893 
L 806.161686 -384.374478 
L 806.261953 -381.302063 
L 806.372559 -378.229647 
L 806.501753 -375.157232 
L 806.661981 -372.084817 
L 806.86924 -369.012401 
L 807.141855 -365.939986 
L 807.498772 -362.867571 
L 807.957558 -359.795156 
L 808.532349 -356.72274 
L 809.232036 -353.650325 
L 810.05896 -350.57791 
L 811.008384 -347.505494 
L 812.06887 -344.433079 
L 813.223616 -341.360664 
L 814.452618 -338.288249 
L 815.73539 -335.215833 
L 817.053854 -332.143418 
L 818.394921 -329.071003 
L 819.75231 -325.998587 
L 821.127225 -322.926172 
L 822.527666 -319.853757 
L 823.966376 -316.781341 
L 825.457627 -313.708926 
L 827.01328 -310.636511 
L 828.63865 -307.564096 
L 830.328794 -304.49168 
L 832.065786 -301.419265 
L 833.817413 -298.34685 
L 835.537568 -295.274434 
L 837.1684 -292.202019 
L 838.644049 -289.129604 
L 839.895658 -286.057189 
L 840.857167 -282.984773 
L 841.471326 -279.912358 
L 841.695312 -276.839943 
L 841.50536 -273.767527 
L 840.89988 -270.695112 
L 839.900674 -267.622697 
L 838.552039 -264.550282 
L 836.917763 -261.477866 
L 835.07626 -258.405451 
L 833.114314 -255.333036 
L 831.120072 -252.26062 
L 829.176019 -249.188205 
L 827.352675 -246.11579 
L 825.703641 -243.043375 
L 824.262459 -239.970959 
L 823.041493 -236.898544 
L 822.03282 -233.826129 
L 821.210899 -230.753713 
L 820.53662 -227.681298 
L 819.962255 -224.608883 
L 819.436776 -221.536468 
L 818.91104 -218.464052 
L 818.342388 -215.391637 
L 817.698272 -212.319222 
L 816.958645 -209.246806 
L 816.116956 -206.174391 
L 815.179721 -203.101976 
L 814.164808 -200.029561 
L 813.098693 -196.957145 
L 812.013062 -193.88473 
L 810.941198 -190.812315 
L 809.914591 -187.739899 
L 808.960149 -184.667484 
L 808.098266 -181.595069 
L 807.341866 -178.522654 
L 806.696388 -175.450238 
L 806.16055 -172.377823 
L 805.72766 -169.305408 
L 805.387206 -166.232992 
z
" id="m2ddc1d0f92" style="stroke:#6a6a6a;stroke-width:1.5;"/>
    </defs>
    <g clip-path="url(#p297e9e6e93)">
     <use style="fill:#f6f6bc;stroke:#6a6a6a;stroke-width:1.5;" x="0" xlink:href="#m2ddc1d0f92" y="900.458203"/>
    </g>
   </g>
   <g id="PolyCollection_9">
    <defs>
     <path d="M 879.272109 -126.08293 
L 878.518516 -126.08293 
L 878.38899 -133.457795 
L 878.224628 -140.83266 
L 878.019492 -148.207525 
L 877.767712 -155.58239 
L 877.463872 -162.957255 
L 877.103449 -170.33212 
L 876.683317 -177.706985 
L 876.202263 -185.08185 
L 875.661486 -192.456715 
L 875.065025 -199.83158 
L 874.42008 -207.206445 
L 873.737158 -214.58131 
L 873.030021 -221.956175 
L 872.315399 -229.33104 
L 871.612465 -236.705906 
L 870.942073 -244.080771 
L 870.3258 -251.455636 
L 869.784842 -258.830501 
L 869.338845 -266.205366 
L 869.004742 -273.580231 
L 868.795695 -280.955096 
L 868.720236 -288.329961 
L 868.781655 -295.704826 
L 868.977709 -303.079691 
L 869.300669 -310.454556 
L 869.737683 -317.829421 
L 870.271434 -325.204286 
L 870.881009 -332.579151 
L 871.5429 -339.954016 
L 872.232021 -347.328881 
L 872.922658 -354.703746 
L 873.589249 -362.078611 
L 874.206942 -369.453476 
L 874.751884 -376.828341 
L 875.20127 -384.203206 
L 875.533185 -391.578071 
L 875.726328 -398.952936 
L 875.759739 -406.327801 
L 875.612645 -413.702666 
L 875.264569 -421.077531 
L 874.695801 -428.452396 
L 873.888293 -435.827261 
L 872.827013 -443.202126 
L 871.50169 -450.576991 
L 869.908825 -457.951856 
L 868.053788 -465.326721 
L 865.952737 -472.701586 
L 863.634115 -480.076451 
L 861.139423 -487.451316 
L 858.523085 -494.826181 
L 855.851222 -502.201046 
L 853.199326 -509.575911 
L 850.648906 -516.950776 
L 848.283319 -524.325641 
L 846.183119 -531.700506 
L 844.421301 -539.075371 
L 843.058879 -546.450236 
L 842.1412 -553.825101 
L 841.695312 -561.199966 
L 841.728627 -568.574831 
L 842.228948 -575.949696 
L 843.165828 -583.324561 
L 844.49307 -590.699426 
L 846.152102 -598.074291 
L 848.0759 -605.449156 
L 850.193111 -612.824021 
L 852.432044 -620.198886 
L 854.724265 -627.573751 
L 857.007583 -634.948616 
L 859.228304 -642.323481 
L 861.342701 -649.698346 
L 863.317719 -657.073211 
L 865.130969 -664.448076 
L 866.770131 -671.822941 
L 868.231876 -679.197806 
L 869.520457 -686.572671 
L 870.646092 -693.947536 
L 871.62327 -701.322401 
L 872.469103 -708.697266 
L 873.201812 -716.072131 
L 873.839421 -723.446996 
L 874.398721 -730.821862 
L 874.894522 -738.196727 
L 875.339202 -745.571592 
L 875.742534 -752.946457 
L 876.111744 -760.321322 
L 876.45177 -767.696187 
L 876.76564 -775.071052 
L 877.054933 -782.445917 
L 877.320243 -789.820782 
L 877.56162 -797.195647 
L 877.778951 -804.570512 
L 877.972238 -811.945377 
L 878.1418 -819.320242 
L 878.288367 -826.695107 
L 878.413106 -834.069972 
L 878.517574 -841.444837 
L 878.603638 -848.819702 
L 878.673365 -856.194567 
L 879.11726 -856.194567 
L 879.11726 -856.194567 
L 879.186987 -848.819702 
L 879.273051 -841.444837 
L 879.377519 -834.069972 
L 879.502258 -826.695107 
L 879.648825 -819.320242 
L 879.818387 -811.945377 
L 880.011674 -804.570512 
L 880.229005 -797.195647 
L 880.470382 -789.820782 
L 880.735692 -782.445917 
L 881.024985 -775.071052 
L 881.338855 -767.696187 
L 881.678881 -760.321322 
L 882.048091 -752.946457 
L 882.451423 -745.571592 
L 882.896103 -738.196727 
L 883.391904 -730.821862 
L 883.951204 -723.446996 
L 884.588813 -716.072131 
L 885.321522 -708.697266 
L 886.167355 -701.322401 
L 887.144533 -693.947536 
L 888.270168 -686.572671 
L 889.558749 -679.197806 
L 891.020494 -671.822941 
L 892.659656 -664.448076 
L 894.472906 -657.073211 
L 896.447924 -649.698346 
L 898.562321 -642.323481 
L 900.783042 -634.948616 
L 903.06636 -627.573751 
L 905.358581 -620.198886 
L 907.597514 -612.824021 
L 909.714725 -605.449156 
L 911.638523 -598.074291 
L 913.297555 -590.699426 
L 914.624797 -583.324561 
L 915.561677 -575.949696 
L 916.061998 -568.574831 
L 916.095313 -561.199966 
L 915.649425 -553.825101 
L 914.731746 -546.450236 
L 913.369324 -539.075371 
L 911.607506 -531.700506 
L 909.507306 -524.325641 
L 907.141719 -516.950776 
L 904.591299 -509.575911 
L 901.939403 -502.201046 
L 899.26754 -494.826181 
L 896.651202 -487.451316 
L 894.15651 -480.076451 
L 891.837888 -472.701586 
L 889.736837 -465.326721 
L 887.8818 -457.951856 
L 886.288935 -450.576991 
L 884.963612 -443.202126 
L 883.902332 -435.827261 
L 883.094824 -428.452396 
L 882.526056 -421.077531 
L 882.17798 -413.702666 
L 882.030886 -406.327801 
L 882.064297 -398.952936 
L 882.25744 -391.578071 
L 882.589355 -384.203206 
L 883.038741 -376.828341 
L 883.583683 -369.453476 
L 884.201376 -362.078611 
L 884.867967 -354.703746 
L 885.558604 -347.328881 
L 886.247725 -339.954016 
L 886.909616 -332.579151 
L 887.519191 -325.204286 
L 888.052942 -317.829421 
L 888.489956 -310.454556 
L 888.812916 -303.079691 
L 889.00897 -295.704826 
L 889.070389 -288.329961 
L 888.99493 -280.955096 
L 888.785883 -273.580231 
L 888.45178 -266.205366 
L 888.005783 -258.830501 
L 887.464825 -251.455636 
L 886.848552 -244.080771 
L 886.17816 -236.705906 
L 885.475226 -229.33104 
L 884.760604 -221.956175 
L 884.053467 -214.58131 
L 883.370545 -207.206445 
L 882.7256 -199.83158 
L 882.129139 -192.456715 
L 881.588362 -185.08185 
L 881.107308 -177.706985 
L 880.687176 -170.33212 
L 880.326753 -162.957255 
L 880.022913 -155.58239 
L 879.771133 -148.207525 
L 879.565997 -140.83266 
L 879.401635 -133.457795 
L 879.272109 -126.08293 
z
" id="mdbbe631d53" style="stroke:#6a6a6a;stroke-width:1.5;"/>
    </defs>
    <g clip-path="url(#p297e9e6e93)">
     <use style="fill:#c1bed6;stroke:#6a6a6a;stroke-width:1.5;" x="0" xlink:href="#mdbbe631d53" y="900.458203"/>
    </g>
   </g>
   <g id="patch_3">
    <path clip-path="url(#p297e9e6e93)" d="M 246.495313 701.261972 
L 246.495313 701.261972 
L 246.495313 701.261972 
L 246.495313 701.261972 
z
" style="fill:#96cac1;stroke:#6a6a6a;stroke-linejoin:miter;stroke-width:0.75;"/>
   </g>
   <g id="patch_4">
    <path clip-path="url(#p297e9e6e93)" d="M 246.495313 701.261972 
L 246.495313 701.261972 
L 246.495313 701.261972 
L 246.495313 701.261972 
z
" style="fill:#f6f6bc;stroke:#6a6a6a;stroke-linejoin:miter;stroke-width:0.75;"/>
   </g>
   <g id="patch_5">
    <path clip-path="url(#p297e9e6e93)" d="M 246.495313 701.261972 
L 246.495313 701.261972 
L 246.495313 701.261972 
L 246.495313 701.261972 
z
" style="fill:#c1bed6;stroke:#6a6a6a;stroke-linejoin:miter;stroke-width:0.75;"/>
   </g>
   <g id="line2d_1">
    <path clip-path="url(#p297e9e6e93)" d="M 172.095312 431.791388 
L 172.095312 290.447796 
" style="fill:none;stroke:#6a6a6a;stroke-linecap:round;stroke-width:1.5;"/>
   </g>
   <g id="line2d_2">
    <path clip-path="url(#p297e9e6e93)" d="M 172.095312 405.1942 
L 172.095312 357.419113 
" style="fill:none;stroke:#6a6a6a;stroke-linecap:round;stroke-width:4.5;"/>
   </g>
   <g id="line2d_3">
    <path clip-path="url(#p297e9e6e93)" d="M 246.495313 697.043911 
L 246.495313 626.313922 
" style="fill:none;stroke:#6a6a6a;stroke-linecap:round;stroke-width:1.5;"/>
   </g>
   <g id="line2d_4">
    <path clip-path="url(#p297e9e6e93)" d="M 246.495313 671.189084 
L 246.495313 651.835061 
" style="fill:none;stroke:#6a6a6a;stroke-linecap:round;stroke-width:4.5;"/>
   </g>
   <g id="line2d_5">
    <path clip-path="url(#p297e9e6e93)" d="M 320.895313 381.058306 
L 320.895313 272.38125 
" style="fill:none;stroke:#6a6a6a;stroke-linecap:round;stroke-width:1.5;"/>
   </g>
   <g id="line2d_6">
    <path clip-path="url(#p297e9e6e93)" d="M 320.895313 373.08489 
L 320.895313 318.032891 
" style="fill:none;stroke:#6a6a6a;stroke-linecap:round;stroke-width:4.5;"/>
   </g>
   <g id="line2d_7">
    <path clip-path="url(#p297e9e6e93)" d="M 451.095312 431.034354 
L 451.095312 309.72987 
" style="fill:none;stroke:#6a6a6a;stroke-linecap:round;stroke-width:1.5;"/>
   </g>
   <g id="line2d_8">
    <path clip-path="url(#p297e9e6e93)" d="M 451.095312 398.802941 
L 451.095312 357.560382 
" style="fill:none;stroke:#6a6a6a;stroke-linecap:round;stroke-width:4.5;"/>
   </g>
   <g id="line2d_9">
    <path clip-path="url(#p297e9e6e93)" d="M 525.495312 693.136235 
L 525.495312 617.774168 
" style="fill:none;stroke:#6a6a6a;stroke-linecap:round;stroke-width:1.5;"/>
   </g>
   <g id="line2d_10">
    <path clip-path="url(#p297e9e6e93)" d="M 525.495312 663.753929 
L 525.495312 643.226482 
" style="fill:none;stroke:#6a6a6a;stroke-linecap:round;stroke-width:4.5;"/>
   </g>
   <g id="line2d_11">
    <path clip-path="url(#p297e9e6e93)" d="M 599.895313 372.037744 
L 599.895313 266.86689 
" style="fill:none;stroke:#6a6a6a;stroke-linecap:round;stroke-width:1.5;"/>
   </g>
   <g id="line2d_12">
    <path clip-path="url(#p297e9e6e93)" d="M 599.895313 364.405256 
L 599.895313 310.355865 
" style="fill:none;stroke:#6a6a6a;stroke-linecap:round;stroke-width:4.5;"/>
   </g>
   <g id="line2d_13">
    <path clip-path="url(#p297e9e6e93)" d="M 730.095313 354.126287 
L 730.095313 179.263444 
" style="fill:none;stroke:#6a6a6a;stroke-linecap:round;stroke-width:1.5;"/>
   </g>
   <g id="line2d_14">
    <path clip-path="url(#p297e9e6e93)" d="M 730.095313 349.259763 
L 730.095313 266.767158 
" style="fill:none;stroke:#6a6a6a;stroke-linecap:round;stroke-width:4.5;"/>
   </g>
   <g id="line2d_15">
    <path clip-path="url(#p297e9e6e93)" d="M 804.495312 694.442726 
L 804.495312 564.753525 
" style="fill:none;stroke:#6a6a6a;stroke-linecap:round;stroke-width:1.5;"/>
   </g>
   <g id="line2d_16">
    <path clip-path="url(#p297e9e6e93)" d="M 804.495312 641.02925 
L 804.495312 605.415329 
" style="fill:none;stroke:#6a6a6a;stroke-linecap:round;stroke-width:4.5;"/>
   </g>
   <g id="line2d_17">
    <path clip-path="url(#p297e9e6e93)" d="M 878.895313 369.907532 
L 878.895313 265.154988 
" style="fill:none;stroke:#6a6a6a;stroke-linecap:round;stroke-width:1.5;"/>
   </g>
   <g id="line2d_18">
    <path clip-path="url(#p297e9e6e93)" d="M 878.895313 364.178136 
L 878.895313 312.28575 
" style="fill:none;stroke:#6a6a6a;stroke-linecap:round;stroke-width:4.5;"/>
   </g>
   <g id="line2d_19">
    <path clip-path="url(#p297e9e6e93)" d="M 385.995313 822.6 
L 385.995313 7.2 
" style="fill:none;stroke:#555555;stroke-dasharray:7.4,3.2;stroke-dashoffset:0;stroke-width:2;"/>
   </g>
   <g id="line2d_20">
    <path clip-path="url(#p297e9e6e93)" d="M 664.995312 822.6 
L 664.995312 7.2 
" style="fill:none;stroke:#555555;stroke-dasharray:7.4,3.2;stroke-dashoffset:0;stroke-width:2;"/>
   </g>
   <g id="patch_6">
    <path d="M 106.995312 822.6 
L 106.995312 7.2 
" style="fill:none;stroke:#262626;stroke-linecap:square;stroke-linejoin:miter;stroke-width:1.25;"/>
   </g>
   <g id="patch_7">
    <path d="M 943.995312 822.6 
L 943.995312 7.2 
" style="fill:none;stroke:#262626;stroke-linecap:square;stroke-linejoin:miter;stroke-width:1.25;"/>
   </g>
   <g id="patch_8">
    <path d="M 106.995313 822.6 
L 943.995312 822.6 
" style="fill:none;stroke:#262626;stroke-linecap:square;stroke-linejoin:miter;stroke-width:1.25;"/>
   </g>
   <g id="patch_9">
    <path d="M 106.995313 7.2 
L 943.995312 7.2 
" style="fill:none;stroke:#262626;stroke-linecap:square;stroke-linejoin:miter;stroke-width:1.25;"/>
   </g>
   <g id="PathCollection_1">
    <defs>
     <path d="M 0 1.5 
C 0.397805 1.5 0.77937 1.341951 1.06066 1.06066 
C 1.341951 0.77937 1.5 0.397805 1.5 0 
C 1.5 -0.397805 1.341951 -0.77937 1.06066 -1.06066 
C 0.77937 -1.341951 0.397805 -1.5 0 -1.5 
C -0.397805 -1.5 -0.77937 -1.341951 -1.06066 -1.06066 
C -1.341951 -0.77937 -1.5 -0.397805 -1.5 0 
C -1.5 0.397805 -1.341951 0.77937 -1.06066 1.06066 
C -0.77937 1.341951 -0.397805 1.5 0 1.5 
z
" id="m0c49e8e929" style="stroke:#6a6a6a;"/>
    </defs>
    <g clip-path="url(#p297e9e6e93)">
     <use style="fill:#ffffff;stroke:#6a6a6a;" x="172.095312" xlink:href="#m0c49e8e929" y="380.505934"/>
    </g>
   </g>
   <g id="PathCollection_2">
    <g clip-path="url(#p297e9e6e93)">
     <use style="fill:#ffffff;stroke:#6a6a6a;" x="246.495313" xlink:href="#m0c49e8e929" y="662.095084"/>
    </g>
   </g>
   <g id="PathCollection_3">
    <g clip-path="url(#p297e9e6e93)">
     <use style="fill:#ffffff;stroke:#6a6a6a;" x="320.895313" xlink:href="#m0c49e8e929" y="359.810549"/>
    </g>
   </g>
   <g id="PathCollection_4">
    <g clip-path="url(#p297e9e6e93)">
     <use style="fill:#ffffff;stroke:#6a6a6a;" x="451.095312" xlink:href="#m0c49e8e929" y="378.566525"/>
    </g>
   </g>
   <g id="PathCollection_5">
    <g clip-path="url(#p297e9e6e93)">
     <use style="fill:#ffffff;stroke:#6a6a6a;" x="525.495312" xlink:href="#m0c49e8e929" y="655.104448"/>
    </g>
   </g>
   <g id="PathCollection_6">
    <g clip-path="url(#p297e9e6e93)">
     <use style="fill:#ffffff;stroke:#6a6a6a;" x="599.895313" xlink:href="#m0c49e8e929" y="350.317302"/>
    </g>
   </g>
   <g id="PathCollection_7">
    <g clip-path="url(#p297e9e6e93)">
     <use style="fill:#ffffff;stroke:#6a6a6a;" x="730.095313" xlink:href="#m0c49e8e929" y="305.099812"/>
    </g>
   </g>
   <g id="PathCollection_8">
    <g clip-path="url(#p297e9e6e93)">
     <use style="fill:#ffffff;stroke:#6a6a6a;" x="804.495312" xlink:href="#m0c49e8e929" y="623.055729"/>
    </g>
   </g>
   <g id="PathCollection_9">
    <g clip-path="url(#p297e9e6e93)">
     <use style="fill:#ffffff;stroke:#6a6a6a;" x="878.895313" xlink:href="#m0c49e8e929" y="347.662438"/>
    </g>
   </g>
   <g id="legend_1">
    <g id="patch_10">
     <path d="M 728.350781 133.594531 
L 926.495312 133.594531 
Q 931.495312 133.594531 931.495312 128.594531 
L 931.495312 24.7 
Q 931.495312 19.7 926.495312 19.7 
L 728.350781 19.7 
Q 723.350781 19.7 723.350781 24.7 
L 723.350781 128.594531 
Q 723.350781 133.594531 728.350781 133.594531 
z
" style="fill:#ffffff;opacity:0.8;stroke:#cccccc;stroke-linejoin:miter;"/>
    </g>
    <g id="patch_11">
     <path d="M 733.350781 47.594531 
L 783.350781 47.594531 
L 783.350781 30.094531 
L 733.350781 30.094531 
z
" style="fill:#96cac1;stroke:#6a6a6a;stroke-linejoin:miter;stroke-width:0.75;"/>
    </g>
    <g id="text_13">
     <!-- Pconsc4 -->
     <g style="fill:#262626;" transform="translate(803.350781 47.594531)scale(0.25 -0.25)">
      <use xlink:href="#ArialMT-50"/>
      <use x="66.699219" xlink:href="#ArialMT-63"/>
      <use x="116.699219" xlink:href="#ArialMT-6f"/>
      <use x="172.314453" xlink:href="#ArialMT-6e"/>
      <use x="227.929688" xlink:href="#ArialMT-73"/>
      <use x="277.929688" xlink:href="#ArialMT-63"/>
      <use x="327.929688" xlink:href="#ArialMT-34"/>
     </g>
    </g>
    <g id="patch_12">
     <path d="M 733.350781 82.957812 
L 783.350781 82.957812 
L 783.350781 65.457812 
L 733.350781 65.457812 
z
" style="fill:#f6f6bc;stroke:#6a6a6a;stroke-linejoin:miter;stroke-width:0.75;"/>
    </g>
    <g id="text_14">
     <!-- ESM -->
     <g style="fill:#262626;" transform="translate(803.350781 82.957812)scale(0.25 -0.25)">
      <defs>
       <path d="M 506 0 
L 506 4581 
L 3819 4581 
L 3819 4041 
L 1113 4041 
L 1113 2638 
L 3647 2638 
L 3647 2100 
L 1113 2100 
L 1113 541 
L 3925 541 
L 3925 0 
L 506 0 
z
" id="ArialMT-45" transform="scale(0.015625)"/>
      </defs>
      <use xlink:href="#ArialMT-45"/>
      <use x="66.699219" xlink:href="#ArialMT-53"/>
      <use x="133.398438" xlink:href="#ArialMT-4d"/>
     </g>
    </g>
    <g id="patch_13">
     <path d="M 733.350781 118.625781 
L 783.350781 118.625781 
L 783.350781 101.125781 
L 733.350781 101.125781 
z
" style="fill:#c1bed6;stroke:#6a6a6a;stroke-linejoin:miter;stroke-width:0.75;"/>
    </g>
    <g id="text_15">
     <!-- Alphafold2 -->
     <g style="fill:#262626;" transform="translate(803.350781 118.625781)scale(0.25 -0.25)">
      <defs>
       <path d="M -9 0 
L 1750 4581 
L 2403 4581 
L 4278 0 
L 3588 0 
L 3053 1388 
L 1138 1388 
L 634 0 
L -9 0 
z
M 1313 1881 
L 2866 1881 
L 2388 3150 
Q 2169 3728 2063 4100 
Q 1975 3659 1816 3225 
L 1313 1881 
z
" id="ArialMT-41" transform="scale(0.015625)"/>
       <path d="M 409 0 
L 409 4581 
L 972 4581 
L 972 0 
L 409 0 
z
" id="ArialMT-6c" transform="scale(0.015625)"/>
       <path d="M 422 -1272 
L 422 3319 
L 934 3319 
L 934 2888 
Q 1116 3141 1344 3267 
Q 1572 3394 1897 3394 
Q 2322 3394 2647 3175 
Q 2972 2956 3137 2557 
Q 3303 2159 3303 1684 
Q 3303 1175 3120 767 
Q 2938 359 2589 142 
Q 2241 -75 1856 -75 
Q 1575 -75 1351 44 
Q 1128 163 984 344 
L 984 -1272 
L 422 -1272 
z
M 931 1641 
Q 931 1000 1190 694 
Q 1450 388 1819 388 
Q 2194 388 2461 705 
Q 2728 1022 2728 1688 
Q 2728 2322 2467 2637 
Q 2206 2953 1844 2953 
Q 1484 2953 1207 2617 
Q 931 2281 931 1641 
z
" id="ArialMT-70" transform="scale(0.015625)"/>
       <path d="M 422 0 
L 422 4581 
L 984 4581 
L 984 2938 
Q 1378 3394 1978 3394 
Q 2347 3394 2619 3248 
Q 2891 3103 3008 2847 
Q 3125 2591 3125 2103 
L 3125 0 
L 2563 0 
L 2563 2103 
Q 2563 2525 2380 2717 
Q 2197 2909 1863 2909 
Q 1613 2909 1392 2779 
Q 1172 2650 1078 2428 
Q 984 2206 984 1816 
L 984 0 
L 422 0 
z
" id="ArialMT-68" transform="scale(0.015625)"/>
       <path d="M 2588 409 
Q 2275 144 1986 34 
Q 1697 -75 1366 -75 
Q 819 -75 525 192 
Q 231 459 231 875 
Q 231 1119 342 1320 
Q 453 1522 633 1644 
Q 813 1766 1038 1828 
Q 1203 1872 1538 1913 
Q 2219 1994 2541 2106 
Q 2544 2222 2544 2253 
Q 2544 2597 2384 2738 
Q 2169 2928 1744 2928 
Q 1347 2928 1158 2789 
Q 969 2650 878 2297 
L 328 2372 
Q 403 2725 575 2942 
Q 747 3159 1072 3276 
Q 1397 3394 1825 3394 
Q 2250 3394 2515 3294 
Q 2781 3194 2906 3042 
Q 3031 2891 3081 2659 
Q 3109 2516 3109 2141 
L 3109 1391 
Q 3109 606 3145 398 
Q 3181 191 3288 0 
L 2700 0 
Q 2613 175 2588 409 
z
M 2541 1666 
Q 2234 1541 1622 1453 
Q 1275 1403 1131 1340 
Q 988 1278 909 1158 
Q 831 1038 831 891 
Q 831 666 1001 516 
Q 1172 366 1500 366 
Q 1825 366 2078 508 
Q 2331 650 2450 897 
Q 2541 1088 2541 1459 
L 2541 1666 
z
" id="ArialMT-61" transform="scale(0.015625)"/>
       <path d="M 556 0 
L 556 2881 
L 59 2881 
L 59 3319 
L 556 3319 
L 556 3672 
Q 556 4006 616 4169 
Q 697 4388 901 4523 
Q 1106 4659 1475 4659 
Q 1713 4659 2000 4603 
L 1916 4113 
Q 1741 4144 1584 4144 
Q 1328 4144 1222 4034 
Q 1116 3925 1116 3625 
L 1116 3319 
L 1763 3319 
L 1763 2881 
L 1116 2881 
L 1116 0 
L 556 0 
z
" id="ArialMT-66" transform="scale(0.015625)"/>
       <path d="M 2575 0 
L 2575 419 
Q 2259 -75 1647 -75 
Q 1250 -75 917 144 
Q 584 363 401 755 
Q 219 1147 219 1656 
Q 219 2153 384 2558 
Q 550 2963 881 3178 
Q 1213 3394 1622 3394 
Q 1922 3394 2156 3267 
Q 2391 3141 2538 2938 
L 2538 4581 
L 3097 4581 
L 3097 0 
L 2575 0 
z
M 797 1656 
Q 797 1019 1065 703 
Q 1334 388 1700 388 
Q 2069 388 2326 689 
Q 2584 991 2584 1609 
Q 2584 2291 2321 2609 
Q 2059 2928 1675 2928 
Q 1300 2928 1048 2622 
Q 797 2316 797 1656 
z
" id="ArialMT-64" transform="scale(0.015625)"/>
      </defs>
      <use xlink:href="#ArialMT-41"/>
      <use x="66.699219" xlink:href="#ArialMT-6c"/>
      <use x="88.916016" xlink:href="#ArialMT-70"/>
      <use x="144.53125" xlink:href="#ArialMT-68"/>
      <use x="200.146484" xlink:href="#ArialMT-61"/>
      <use x="255.761719" xlink:href="#ArialMT-66"/>
      <use x="283.544922" xlink:href="#ArialMT-6f"/>
      <use x="339.160156" xlink:href="#ArialMT-6c"/>
      <use x="361.376953" xlink:href="#ArialMT-64"/>
      <use x="416.992188" xlink:href="#ArialMT-32"/>
     </g>
    </g>
   </g>
  </g>
 </g>
 <defs>
  <clipPath id="p297e9e6e93">
   <rect height="815.4" width="837" x="106.995312" y="7.2"/>
  </clipPath>
 </defs>
</svg>
