<?xml version="1.0" encoding="utf-8" standalone="no"?>
<!DOCTYPE svg PUBLIC "-//W3C//DTD SVG 1.1//EN"
  "http://www.w3.org/Graphics/SVG/1.1/DTD/svg11.dtd">
<svg height="905.890312pt" version="1.1" viewBox="0 0 942.778594 905.890312" width="942.778594pt" xmlns="http://www.w3.org/2000/svg" xmlns:xlink="http://www.w3.org/1999/xlink">
 <metadata>
  <rdf:RDF xmlns:cc="http://creativecommons.org/ns#" xmlns:dc="http://purl.org/dc/elements/1.1/" xmlns:rdf="http://www.w3.org/1999/02/22-rdf-syntax-ns#">
   <cc:Work>
    <dc:type rdf:resource="http://purl.org/dc/dcmitype/StillImage"/>
    <dc:date>2023-03-23T10:48:42.070875</dc:date>
    <dc:format>image/svg+xml</dc:format>
    <dc:creator>
     <cc:Agent>
      <dc:title>Matplotlib v3.4.3, https://matplotlib.org/</dc:title>
     </cc:Agent>
    </dc:creator>
   </cc:Work>
  </rdf:RDF>
 </metadata>
 <defs>
  <style type="text/css">*{stroke-linecap:butt;stroke-linejoin:round;}</style>
 </defs>
 <g id="figure_1">
  <g id="patch_1">
   <path d="M 0 905.890312 
L 942.778594 905.890312 
L 942.778594 -0 
L 0 -0 
z
" style="fill:#ffffff;"/>
  </g>
  <g id="axes_1">
   <g id="patch_2">
    <path d="M 98.578594 822.6 
L 935.578594 822.6 
L 935.578594 7.2 
L 98.578594 7.2 
z
" style="fill:#ffffff;"/>
   </g>
   <g id="matplotlib.axis_1">
    <g id="xtick_1">
     <g id="text_1">
      <!-- CI -->
      <g style="fill:#262626;" transform="translate(186.703594 855.720781)scale(0.33 -0.33)">
       <defs>
        <path d="M 3763 1606 
L 4369 1453 
Q 4178 706 3683 314 
Q 3188 -78 2472 -78 
Q 1731 -78 1267 223 
Q 803 525 561 1097 
Q 319 1669 319 2325 
Q 319 3041 592 3573 
Q 866 4106 1370 4382 
Q 1875 4659 2481 4659 
Q 3169 4659 3637 4309 
Q 4106 3959 4291 3325 
L 3694 3184 
Q 3534 3684 3231 3912 
Q 2928 4141 2469 4141 
Q 1941 4141 1586 3887 
Q 1231 3634 1087 3207 
Q 944 2781 944 2328 
Q 944 1744 1114 1308 
Q 1284 872 1643 656 
Q 2003 441 2422 441 
Q 2931 441 3284 734 
Q 3638 1028 3763 1606 
z
" id="ArialMT-43" transform="scale(0.015625)"/>
        <path d="M 597 0 
L 597 4581 
L 1203 4581 
L 1203 0 
L 597 0 
z
" id="ArialMT-49" transform="scale(0.015625)"/>
       </defs>
       <use xlink:href="#ArialMT-43"/>
       <use x="72.216797" xlink:href="#ArialMT-49"/>
      </g>
     </g>
    </g>
    <g id="xtick_2">
     <g id="text_2">
      <!-- Pearson -->
      <g style="fill:#262626;" transform="translate(351.001406 855.720781)scale(0.33 -0.33)">
       <defs>
        <path d="M 494 0 
L 494 4581 
L 2222 4581 
Q 2678 4581 2919 4538 
Q 3256 4481 3484 4323 
Q 3713 4166 3852 3881 
Q 3991 3597 3991 3256 
Q 3991 2672 3619 2267 
Q 3247 1863 2275 1863 
L 1100 1863 
L 1100 0 
L 494 0 
z
M 1100 2403 
L 2284 2403 
Q 2872 2403 3119 2622 
Q 3366 2841 3366 3238 
Q 3366 3525 3220 3729 
Q 3075 3934 2838 4000 
Q 2684 4041 2272 4041 
L 1100 4041 
L 1100 2403 
z
" id="ArialMT-50" transform="scale(0.015625)"/>
        <path d="M 2694 1069 
L 3275 997 
Q 3138 488 2766 206 
Q 2394 -75 1816 -75 
Q 1088 -75 661 373 
Q 234 822 234 1631 
Q 234 2469 665 2931 
Q 1097 3394 1784 3394 
Q 2450 3394 2872 2941 
Q 3294 2488 3294 1666 
Q 3294 1616 3291 1516 
L 816 1516 
Q 847 969 1125 678 
Q 1403 388 1819 388 
Q 2128 388 2347 550 
Q 2566 713 2694 1069 
z
M 847 1978 
L 2700 1978 
Q 2663 2397 2488 2606 
Q 2219 2931 1791 2931 
Q 1403 2931 1139 2672 
Q 875 2413 847 1978 
z
" id="ArialMT-65" transform="scale(0.015625)"/>
        <path d="M 2588 409 
Q 2275 144 1986 34 
Q 1697 -75 1366 -75 
Q 819 -75 525 192 
Q 231 459 231 875 
Q 231 1119 342 1320 
Q 453 1522 633 1644 
Q 813 1766 1038 1828 
Q 1203 1872 1538 1913 
Q 2219 1994 2541 2106 
Q 2544 2222 2544 2253 
Q 2544 2597 2384 2738 
Q 2169 2928 1744 2928 
Q 1347 2928 1158 2789 
Q 969 2650 878 2297 
L 328 2372 
Q 403 2725 575 2942 
Q 747 3159 1072 3276 
Q 1397 3394 1825 3394 
Q 2250 3394 2515 3294 
Q 2781 3194 2906 3042 
Q 3031 2891 3081 2659 
Q 3109 2516 3109 2141 
L 3109 1391 
Q 3109 606 3145 398 
Q 3181 191 3288 0 
L 2700 0 
Q 2613 175 2588 409 
z
M 2541 1666 
Q 2234 1541 1622 1453 
Q 1275 1403 1131 1340 
Q 988 1278 909 1158 
Q 831 1038 831 891 
Q 831 666 1001 516 
Q 1172 366 1500 366 
Q 1825 366 2078 508 
Q 2331 650 2450 897 
Q 2541 1088 2541 1459 
L 2541 1666 
z
" id="ArialMT-61" transform="scale(0.015625)"/>
        <path d="M 416 0 
L 416 3319 
L 922 3319 
L 922 2816 
Q 1116 3169 1280 3281 
Q 1444 3394 1641 3394 
Q 1925 3394 2219 3213 
L 2025 2691 
Q 1819 2813 1613 2813 
Q 1428 2813 1281 2702 
Q 1134 2591 1072 2394 
Q 978 2094 978 1738 
L 978 0 
L 416 0 
z
" id="ArialMT-72" transform="scale(0.015625)"/>
        <path d="M 197 991 
L 753 1078 
Q 800 744 1014 566 
Q 1228 388 1613 388 
Q 2000 388 2187 545 
Q 2375 703 2375 916 
Q 2375 1106 2209 1216 
Q 2094 1291 1634 1406 
Q 1016 1563 777 1677 
Q 538 1791 414 1992 
Q 291 2194 291 2438 
Q 291 2659 392 2848 
Q 494 3038 669 3163 
Q 800 3259 1026 3326 
Q 1253 3394 1513 3394 
Q 1903 3394 2198 3281 
Q 2494 3169 2634 2976 
Q 2775 2784 2828 2463 
L 2278 2388 
Q 2241 2644 2061 2787 
Q 1881 2931 1553 2931 
Q 1166 2931 1000 2803 
Q 834 2675 834 2503 
Q 834 2394 903 2306 
Q 972 2216 1119 2156 
Q 1203 2125 1616 2013 
Q 2213 1853 2448 1751 
Q 2684 1650 2818 1456 
Q 2953 1263 2953 975 
Q 2953 694 2789 445 
Q 2625 197 2315 61 
Q 2006 -75 1616 -75 
Q 969 -75 630 194 
Q 291 463 197 991 
z
" id="ArialMT-73" transform="scale(0.015625)"/>
        <path d="M 213 1659 
Q 213 2581 725 3025 
Q 1153 3394 1769 3394 
Q 2453 3394 2887 2945 
Q 3322 2497 3322 1706 
Q 3322 1066 3130 698 
Q 2938 331 2570 128 
Q 2203 -75 1769 -75 
Q 1072 -75 642 372 
Q 213 819 213 1659 
z
M 791 1659 
Q 791 1022 1069 705 
Q 1347 388 1769 388 
Q 2188 388 2466 706 
Q 2744 1025 2744 1678 
Q 2744 2294 2464 2611 
Q 2184 2928 1769 2928 
Q 1347 2928 1069 2612 
Q 791 2297 791 1659 
z
" id="ArialMT-6f" transform="scale(0.015625)"/>
        <path d="M 422 0 
L 422 3319 
L 928 3319 
L 928 2847 
Q 1294 3394 1984 3394 
Q 2284 3394 2536 3286 
Q 2788 3178 2913 3003 
Q 3038 2828 3088 2588 
Q 3119 2431 3119 2041 
L 3119 0 
L 2556 0 
L 2556 2019 
Q 2556 2363 2490 2533 
Q 2425 2703 2258 2804 
Q 2091 2906 1866 2906 
Q 1506 2906 1245 2678 
Q 984 2450 984 1813 
L 984 0 
L 422 0 
z
" id="ArialMT-6e" transform="scale(0.015625)"/>
       </defs>
       <use xlink:href="#ArialMT-50"/>
       <use x="66.699219" xlink:href="#ArialMT-65"/>
       <use x="122.314453" xlink:href="#ArialMT-61"/>
       <use x="177.929688" xlink:href="#ArialMT-72"/>
       <use x="211.230469" xlink:href="#ArialMT-73"/>
       <use x="261.230469" xlink:href="#ArialMT-6f"/>
       <use x="316.845703" xlink:href="#ArialMT-6e"/>
      </g>
     </g>
    </g>
    <g id="xtick_3">
     <g id="text_3">
      <!-- Spearman -->
      <g style="fill:#262626;" transform="translate(545.581875 856.122969)scale(0.33 -0.33)">
       <defs>
        <path d="M 288 1472 
L 859 1522 
Q 900 1178 1048 958 
Q 1197 738 1509 602 
Q 1822 466 2213 466 
Q 2559 466 2825 569 
Q 3091 672 3220 851 
Q 3350 1031 3350 1244 
Q 3350 1459 3225 1620 
Q 3100 1781 2813 1891 
Q 2628 1963 1997 2114 
Q 1366 2266 1113 2400 
Q 784 2572 623 2826 
Q 463 3081 463 3397 
Q 463 3744 659 4045 
Q 856 4347 1234 4503 
Q 1613 4659 2075 4659 
Q 2584 4659 2973 4495 
Q 3363 4331 3572 4012 
Q 3781 3694 3797 3291 
L 3216 3247 
Q 3169 3681 2898 3903 
Q 2628 4125 2100 4125 
Q 1550 4125 1298 3923 
Q 1047 3722 1047 3438 
Q 1047 3191 1225 3031 
Q 1400 2872 2139 2705 
Q 2878 2538 3153 2413 
Q 3553 2228 3743 1945 
Q 3934 1663 3934 1294 
Q 3934 928 3725 604 
Q 3516 281 3123 101 
Q 2731 -78 2241 -78 
Q 1619 -78 1198 103 
Q 778 284 539 648 
Q 300 1013 288 1472 
z
" id="ArialMT-53" transform="scale(0.015625)"/>
        <path d="M 422 -1272 
L 422 3319 
L 934 3319 
L 934 2888 
Q 1116 3141 1344 3267 
Q 1572 3394 1897 3394 
Q 2322 3394 2647 3175 
Q 2972 2956 3137 2557 
Q 3303 2159 3303 1684 
Q 3303 1175 3120 767 
Q 2938 359 2589 142 
Q 2241 -75 1856 -75 
Q 1575 -75 1351 44 
Q 1128 163 984 344 
L 984 -1272 
L 422 -1272 
z
M 931 1641 
Q 931 1000 1190 694 
Q 1450 388 1819 388 
Q 2194 388 2461 705 
Q 2728 1022 2728 1688 
Q 2728 2322 2467 2637 
Q 2206 2953 1844 2953 
Q 1484 2953 1207 2617 
Q 931 2281 931 1641 
z
" id="ArialMT-70" transform="scale(0.015625)"/>
        <path d="M 422 0 
L 422 3319 
L 925 3319 
L 925 2853 
Q 1081 3097 1340 3245 
Q 1600 3394 1931 3394 
Q 2300 3394 2536 3241 
Q 2772 3088 2869 2813 
Q 3263 3394 3894 3394 
Q 4388 3394 4653 3120 
Q 4919 2847 4919 2278 
L 4919 0 
L 4359 0 
L 4359 2091 
Q 4359 2428 4304 2576 
Q 4250 2725 4106 2815 
Q 3963 2906 3769 2906 
Q 3419 2906 3187 2673 
Q 2956 2441 2956 1928 
L 2956 0 
L 2394 0 
L 2394 2156 
Q 2394 2531 2256 2718 
Q 2119 2906 1806 2906 
Q 1569 2906 1367 2781 
Q 1166 2656 1075 2415 
Q 984 2175 984 1722 
L 984 0 
L 422 0 
z
" id="ArialMT-6d" transform="scale(0.015625)"/>
       </defs>
       <use xlink:href="#ArialMT-53"/>
       <use x="66.699219" xlink:href="#ArialMT-70"/>
       <use x="122.314453" xlink:href="#ArialMT-65"/>
       <use x="177.929688" xlink:href="#ArialMT-61"/>
       <use x="233.544922" xlink:href="#ArialMT-72"/>
       <use x="266.845703" xlink:href="#ArialMT-6d"/>
       <use x="350.146484" xlink:href="#ArialMT-61"/>
       <use x="405.761719" xlink:href="#ArialMT-6e"/>
      </g>
     </g>
    </g>
    <g id="xtick_4">
     <g id="text_4">
      <!-- RMSE -->
      <g style="fill:#262626;" transform="translate(783.281484 855.720781)scale(0.33 -0.33)">
       <defs>
        <path d="M 503 0 
L 503 4581 
L 2534 4581 
Q 3147 4581 3465 4457 
Q 3784 4334 3975 4021 
Q 4166 3709 4166 3331 
Q 4166 2844 3850 2509 
Q 3534 2175 2875 2084 
Q 3116 1969 3241 1856 
Q 3506 1613 3744 1247 
L 4541 0 
L 3778 0 
L 3172 953 
Q 2906 1366 2734 1584 
Q 2563 1803 2427 1890 
Q 2291 1978 2150 2013 
Q 2047 2034 1813 2034 
L 1109 2034 
L 1109 0 
L 503 0 
z
M 1109 2559 
L 2413 2559 
Q 2828 2559 3062 2645 
Q 3297 2731 3419 2920 
Q 3541 3109 3541 3331 
Q 3541 3656 3305 3865 
Q 3069 4075 2559 4075 
L 1109 4075 
L 1109 2559 
z
" id="ArialMT-52" transform="scale(0.015625)"/>
        <path d="M 475 0 
L 475 4581 
L 1388 4581 
L 2472 1338 
Q 2622 884 2691 659 
Q 2769 909 2934 1394 
L 4031 4581 
L 4847 4581 
L 4847 0 
L 4263 0 
L 4263 3834 
L 2931 0 
L 2384 0 
L 1059 3900 
L 1059 0 
L 475 0 
z
" id="ArialMT-4d" transform="scale(0.015625)"/>
        <path d="M 506 0 
L 506 4581 
L 3819 4581 
L 3819 4041 
L 1113 4041 
L 1113 2638 
L 3647 2638 
L 3647 2100 
L 1113 2100 
L 1113 541 
L 3925 541 
L 3925 0 
L 506 0 
z
" id="ArialMT-45" transform="scale(0.015625)"/>
       </defs>
       <use xlink:href="#ArialMT-52"/>
       <use x="72.216797" xlink:href="#ArialMT-4d"/>
       <use x="155.517578" xlink:href="#ArialMT-53"/>
       <use x="222.216797" xlink:href="#ArialMT-45"/>
      </g>
     </g>
    </g>
    <g id="text_5">
     <!-- Metrics -->
     <g style="fill:#262626;" transform="translate(460.693047 891.734062)scale(0.35 -0.35)">
      <defs>
       <path d="M 1650 503 
L 1731 6 
Q 1494 -44 1306 -44 
Q 1000 -44 831 53 
Q 663 150 594 308 
Q 525 466 525 972 
L 525 2881 
L 113 2881 
L 113 3319 
L 525 3319 
L 525 4141 
L 1084 4478 
L 1084 3319 
L 1650 3319 
L 1650 2881 
L 1084 2881 
L 1084 941 
Q 1084 700 1114 631 
Q 1144 563 1211 522 
Q 1278 481 1403 481 
Q 1497 481 1650 503 
z
" id="ArialMT-74" transform="scale(0.015625)"/>
       <path d="M 425 3934 
L 425 4581 
L 988 4581 
L 988 3934 
L 425 3934 
z
M 425 0 
L 425 3319 
L 988 3319 
L 988 0 
L 425 0 
z
" id="ArialMT-69" transform="scale(0.015625)"/>
       <path d="M 2588 1216 
L 3141 1144 
Q 3050 572 2676 248 
Q 2303 -75 1759 -75 
Q 1078 -75 664 370 
Q 250 816 250 1647 
Q 250 2184 428 2587 
Q 606 2991 970 3192 
Q 1334 3394 1763 3394 
Q 2303 3394 2647 3120 
Q 2991 2847 3088 2344 
L 2541 2259 
Q 2463 2594 2264 2762 
Q 2066 2931 1784 2931 
Q 1359 2931 1093 2626 
Q 828 2322 828 1663 
Q 828 994 1084 691 
Q 1341 388 1753 388 
Q 2084 388 2306 591 
Q 2528 794 2588 1216 
z
" id="ArialMT-63" transform="scale(0.015625)"/>
      </defs>
      <use xlink:href="#ArialMT-4d"/>
      <use x="83.300781" xlink:href="#ArialMT-65"/>
      <use x="138.916016" xlink:href="#ArialMT-74"/>
      <use x="166.699219" xlink:href="#ArialMT-72"/>
      <use x="200" xlink:href="#ArialMT-69"/>
      <use x="222.216797" xlink:href="#ArialMT-63"/>
      <use x="272.216797" xlink:href="#ArialMT-73"/>
     </g>
    </g>
   </g>
   <g id="matplotlib.axis_2">
    <g id="ytick_1">
     <g id="text_6">
      <!-- 0.4 -->
      <g style="fill:#262626;" transform="translate(43.208594 814.881278)scale(0.33 -0.33)">
       <defs>
        <path d="M 266 2259 
Q 266 3072 433 3567 
Q 600 4063 929 4331 
Q 1259 4600 1759 4600 
Q 2128 4600 2406 4451 
Q 2684 4303 2865 4023 
Q 3047 3744 3150 3342 
Q 3253 2941 3253 2259 
Q 3253 1453 3087 958 
Q 2922 463 2592 192 
Q 2263 -78 1759 -78 
Q 1097 -78 719 397 
Q 266 969 266 2259 
z
M 844 2259 
Q 844 1131 1108 757 
Q 1372 384 1759 384 
Q 2147 384 2411 759 
Q 2675 1134 2675 2259 
Q 2675 3391 2411 3762 
Q 2147 4134 1753 4134 
Q 1366 4134 1134 3806 
Q 844 3388 844 2259 
z
" id="ArialMT-30" transform="scale(0.015625)"/>
        <path d="M 581 0 
L 581 641 
L 1222 641 
L 1222 0 
L 581 0 
z
" id="ArialMT-2e" transform="scale(0.015625)"/>
        <path d="M 2069 0 
L 2069 1097 
L 81 1097 
L 81 1613 
L 2172 4581 
L 2631 4581 
L 2631 1613 
L 3250 1613 
L 3250 1097 
L 2631 1097 
L 2631 0 
L 2069 0 
z
M 2069 1613 
L 2069 3678 
L 634 1613 
L 2069 1613 
z
" id="ArialMT-34" transform="scale(0.015625)"/>
       </defs>
       <use xlink:href="#ArialMT-30"/>
       <use x="55.615234" xlink:href="#ArialMT-2e"/>
       <use x="83.398438" xlink:href="#ArialMT-34"/>
      </g>
     </g>
    </g>
    <g id="ytick_2">
     <g id="text_7">
      <!-- 0.5 -->
      <g style="fill:#262626;" transform="translate(43.208594 654.355295)scale(0.33 -0.33)">
       <defs>
        <path d="M 266 1200 
L 856 1250 
Q 922 819 1161 601 
Q 1400 384 1738 384 
Q 2144 384 2425 690 
Q 2706 997 2706 1503 
Q 2706 1984 2436 2262 
Q 2166 2541 1728 2541 
Q 1456 2541 1237 2417 
Q 1019 2294 894 2097 
L 366 2166 
L 809 4519 
L 3088 4519 
L 3088 3981 
L 1259 3981 
L 1013 2750 
Q 1425 3038 1878 3038 
Q 2478 3038 2890 2622 
Q 3303 2206 3303 1553 
Q 3303 931 2941 478 
Q 2500 -78 1738 -78 
Q 1113 -78 717 272 
Q 322 622 266 1200 
z
" id="ArialMT-35" transform="scale(0.015625)"/>
       </defs>
       <use xlink:href="#ArialMT-30"/>
       <use x="55.615234" xlink:href="#ArialMT-2e"/>
       <use x="83.398438" xlink:href="#ArialMT-35"/>
      </g>
     </g>
    </g>
    <g id="ytick_3">
     <g id="text_8">
      <!-- 0.6 -->
      <g style="fill:#262626;" transform="translate(43.208594 493.829313)scale(0.33 -0.33)">
       <defs>
        <path d="M 3184 3459 
L 2625 3416 
Q 2550 3747 2413 3897 
Q 2184 4138 1850 4138 
Q 1581 4138 1378 3988 
Q 1113 3794 959 3422 
Q 806 3050 800 2363 
Q 1003 2672 1297 2822 
Q 1591 2972 1913 2972 
Q 2475 2972 2870 2558 
Q 3266 2144 3266 1488 
Q 3266 1056 3080 686 
Q 2894 316 2569 119 
Q 2244 -78 1831 -78 
Q 1128 -78 684 439 
Q 241 956 241 2144 
Q 241 3472 731 4075 
Q 1159 4600 1884 4600 
Q 2425 4600 2770 4297 
Q 3116 3994 3184 3459 
z
M 888 1484 
Q 888 1194 1011 928 
Q 1134 663 1356 523 
Q 1578 384 1822 384 
Q 2178 384 2434 671 
Q 2691 959 2691 1453 
Q 2691 1928 2437 2201 
Q 2184 2475 1800 2475 
Q 1419 2475 1153 2201 
Q 888 1928 888 1484 
z
" id="ArialMT-36" transform="scale(0.015625)"/>
       </defs>
       <use xlink:href="#ArialMT-30"/>
       <use x="55.615234" xlink:href="#ArialMT-2e"/>
       <use x="83.398438" xlink:href="#ArialMT-36"/>
      </g>
     </g>
    </g>
    <g id="ytick_4">
     <g id="text_9">
      <!-- 0.7 -->
      <g style="fill:#262626;" transform="translate(43.208594 333.30333)scale(0.33 -0.33)">
       <defs>
        <path d="M 303 3981 
L 303 4522 
L 3269 4522 
L 3269 4084 
Q 2831 3619 2401 2847 
Q 1972 2075 1738 1259 
Q 1569 684 1522 0 
L 944 0 
Q 953 541 1156 1306 
Q 1359 2072 1739 2783 
Q 2119 3494 2547 3981 
L 303 3981 
z
" id="ArialMT-37" transform="scale(0.015625)"/>
       </defs>
       <use xlink:href="#ArialMT-30"/>
       <use x="55.615234" xlink:href="#ArialMT-2e"/>
       <use x="83.398438" xlink:href="#ArialMT-37"/>
      </g>
     </g>
    </g>
    <g id="ytick_5">
     <g id="text_10">
      <!-- 0.8 -->
      <g style="fill:#262626;" transform="translate(43.208594 172.777348)scale(0.33 -0.33)">
       <defs>
        <path d="M 1131 2484 
Q 781 2613 612 2850 
Q 444 3088 444 3419 
Q 444 3919 803 4259 
Q 1163 4600 1759 4600 
Q 2359 4600 2725 4251 
Q 3091 3903 3091 3403 
Q 3091 3084 2923 2848 
Q 2756 2613 2416 2484 
Q 2838 2347 3058 2040 
Q 3278 1734 3278 1309 
Q 3278 722 2862 322 
Q 2447 -78 1769 -78 
Q 1091 -78 675 323 
Q 259 725 259 1325 
Q 259 1772 486 2073 
Q 713 2375 1131 2484 
z
M 1019 3438 
Q 1019 3113 1228 2906 
Q 1438 2700 1772 2700 
Q 2097 2700 2305 2904 
Q 2513 3109 2513 3406 
Q 2513 3716 2298 3927 
Q 2084 4138 1766 4138 
Q 1444 4138 1231 3931 
Q 1019 3725 1019 3438 
z
M 838 1322 
Q 838 1081 952 856 
Q 1066 631 1291 507 
Q 1516 384 1775 384 
Q 2178 384 2440 643 
Q 2703 903 2703 1303 
Q 2703 1709 2433 1975 
Q 2163 2241 1756 2241 
Q 1359 2241 1098 1978 
Q 838 1716 838 1322 
z
" id="ArialMT-38" transform="scale(0.015625)"/>
       </defs>
       <use xlink:href="#ArialMT-30"/>
       <use x="55.615234" xlink:href="#ArialMT-2e"/>
       <use x="83.398438" xlink:href="#ArialMT-38"/>
      </g>
     </g>
    </g>
    <g id="text_11">
     <!-- Scores -->
     <g style="fill:#262626;" transform="translate(32.252344 469.363281)rotate(-90)scale(0.35 -0.35)">
      <use xlink:href="#ArialMT-53"/>
      <use x="66.699219" xlink:href="#ArialMT-63"/>
      <use x="116.699219" xlink:href="#ArialMT-6f"/>
      <use x="172.314453" xlink:href="#ArialMT-72"/>
      <use x="205.615234" xlink:href="#ArialMT-65"/>
      <use x="261.230469" xlink:href="#ArialMT-73"/>
     </g>
    </g>
   </g>
   <g id="patch_3">
    <path clip-path="url(#pe345f30a76)" d="M 119.922094 93.487132 
L 160.935094 93.487132 
L 160.935094 70.657515 
L 119.922094 70.657515 
L 119.922094 93.487132 
z
" style="fill:#72b6a1;stroke:#595959;stroke-linejoin:miter;stroke-width:1.5;"/>
   </g>
   <g id="patch_4">
    <path clip-path="url(#pe345f30a76)" d="M 161.772094 88.794856 
L 202.785094 88.794856 
L 202.785094 67.914136 
L 161.772094 67.914136 
L 161.772094 88.794856 
z
" style="fill:#e99675;stroke:#595959;stroke-linejoin:miter;stroke-width:1.5;"/>
   </g>
   <g id="patch_5">
    <path clip-path="url(#pe345f30a76)" d="M 203.622094 98.871284 
L 244.635094 98.871284 
L 244.635094 76.015823 
L 203.622094 76.015823 
L 203.622094 98.871284 
z
" style="fill:#95a3c3;stroke:#595959;stroke-linejoin:miter;stroke-width:1.5;"/>
   </g>
   <g id="patch_6">
    <path clip-path="url(#pe345f30a76)" d="M 245.472094 94.411131 
L 286.485094 94.411131 
L 286.485094 77.735752 
L 245.472094 77.735752 
L 245.472094 94.411131 
z
" style="fill:#db96c0;stroke:#595959;stroke-linejoin:miter;stroke-width:1.5;"/>
   </g>
   <g id="patch_7">
    <path clip-path="url(#pe345f30a76)" d="M 329.172094 156.887249 
L 370.185094 156.887249 
L 370.185094 108.489528 
L 329.172094 108.489528 
L 329.172094 156.887249 
z
" style="fill:#72b6a1;stroke:#595959;stroke-linejoin:miter;stroke-width:1.5;"/>
   </g>
   <g id="patch_8">
    <path clip-path="url(#pe345f30a76)" d="M 371.022094 142.772251 
L 412.035094 142.772251 
L 412.035094 114.947355 
L 371.022094 114.947355 
L 371.022094 142.772251 
z
" style="fill:#e99675;stroke:#595959;stroke-linejoin:miter;stroke-width:1.5;"/>
   </g>
   <g id="patch_9">
    <path clip-path="url(#pe345f30a76)" d="M 412.872094 157.294509 
L 453.885094 157.294509 
L 453.885094 117.797809 
L 412.872094 117.797809 
L 412.872094 157.294509 
z
" style="fill:#95a3c3;stroke:#595959;stroke-linejoin:miter;stroke-width:1.5;"/>
   </g>
   <g id="patch_10">
    <path clip-path="url(#pe345f30a76)" d="M 454.722094 158.136354 
L 495.735094 158.136354 
L 495.735094 126.441437 
L 454.722094 126.441437 
L 454.722094 158.136354 
z
" style="fill:#db96c0;stroke:#595959;stroke-linejoin:miter;stroke-width:1.5;"/>
   </g>
   <g id="patch_11">
    <path clip-path="url(#pe345f30a76)" d="M 538.422094 150.312623 
L 579.435094 150.312623 
L 579.435094 122.800246 
L 538.422094 122.800246 
L 538.422094 150.312623 
z
" style="fill:#72b6a1;stroke:#595959;stroke-linejoin:miter;stroke-width:1.5;"/>
   </g>
   <g id="patch_12">
    <path clip-path="url(#pe345f30a76)" d="M 580.272094 142.287981 
L 621.285094 142.287981 
L 621.285094 117.158872 
L 580.272094 117.158872 
L 580.272094 142.287981 
z
" style="fill:#e99675;stroke:#595959;stroke-linejoin:miter;stroke-width:1.5;"/>
   </g>
   <g id="patch_13">
    <path clip-path="url(#pe345f30a76)" d="M 622.122094 154.306922 
L 663.135094 154.306922 
L 663.135094 128.994484 
L 622.122094 128.994484 
L 622.122094 154.306922 
z
" style="fill:#95a3c3;stroke:#595959;stroke-linejoin:miter;stroke-width:1.5;"/>
   </g>
   <g id="patch_14">
    <path clip-path="url(#pe345f30a76)" d="M 663.972094 165.180024 
L 704.985094 165.180024 
L 704.985094 129.266341 
L 663.972094 129.266341 
L 663.972094 165.180024 
z
" style="fill:#db96c0;stroke:#595959;stroke-linejoin:miter;stroke-width:1.5;"/>
   </g>
   <g id="patch_15">
    <path clip-path="url(#pe345f30a76)" d="M 747.672094 711.555474 
L 788.685094 711.555474 
L 788.685094 663.914443 
L 747.672094 663.914443 
L 747.672094 711.555474 
z
" style="fill:#72b6a1;stroke:#595959;stroke-linejoin:miter;stroke-width:1.5;"/>
   </g>
   <g id="patch_16">
    <path clip-path="url(#pe345f30a76)" d="M 789.522094 714.112107 
L 830.535094 714.112107 
L 830.535094 672.659759 
L 789.522094 672.659759 
L 789.522094 714.112107 
z
" style="fill:#e99675;stroke:#595959;stroke-linejoin:miter;stroke-width:1.5;"/>
   </g>
   <g id="patch_17">
    <path clip-path="url(#pe345f30a76)" d="M 831.372094 714.209119 
L 872.385094 714.209119 
L 872.385094 654.428511 
L 831.372094 654.428511 
L 831.372094 714.209119 
z
" style="fill:#95a3c3;stroke:#595959;stroke-linejoin:miter;stroke-width:1.5;"/>
   </g>
   <g id="patch_18">
    <path clip-path="url(#pe345f30a76)" d="M 873.222094 702.18325 
L 914.235094 702.18325 
L 914.235094 642.676823 
L 873.222094 642.676823 
L 873.222094 702.18325 
z
" style="fill:#db96c0;stroke:#595959;stroke-linejoin:miter;stroke-width:1.5;"/>
   </g>
   <g id="patch_19">
    <path clip-path="url(#pe345f30a76)" d="M 203.203594 1445.174817 
L 203.203594 1445.174817 
L 203.203594 1445.174817 
L 203.203594 1445.174817 
z
" style="fill:#72b6a1;stroke:#595959;stroke-linejoin:miter;stroke-width:0.75;"/>
   </g>
   <g id="patch_20">
    <path clip-path="url(#pe345f30a76)" d="M 203.203594 1445.174817 
L 203.203594 1445.174817 
L 203.203594 1445.174817 
L 203.203594 1445.174817 
z
" style="fill:#e99675;stroke:#595959;stroke-linejoin:miter;stroke-width:0.75;"/>
   </g>
   <g id="patch_21">
    <path clip-path="url(#pe345f30a76)" d="M 203.203594 1445.174817 
L 203.203594 1445.174817 
L 203.203594 1445.174817 
L 203.203594 1445.174817 
z
" style="fill:#95a3c3;stroke:#595959;stroke-linejoin:miter;stroke-width:0.75;"/>
   </g>
   <g id="patch_22">
    <path clip-path="url(#pe345f30a76)" d="M 203.203594 1445.174817 
L 203.203594 1445.174817 
L 203.203594 1445.174817 
L 203.203594 1445.174817 
z
" style="fill:#db96c0;stroke:#595959;stroke-linejoin:miter;stroke-width:0.75;"/>
   </g>
   <g id="line2d_1">
    <path clip-path="url(#pe345f30a76)" d="M 140.428594 93.487132 
L 140.428594 115.326812 
" style="fill:none;stroke:#595959;stroke-linecap:round;stroke-width:1.5;"/>
   </g>
   <g id="line2d_2">
    <path clip-path="url(#pe345f30a76)" d="M 140.428594 70.657515 
L 140.428594 51.161402 
" style="fill:none;stroke:#595959;stroke-linecap:round;stroke-width:1.5;"/>
   </g>
   <g id="line2d_3">
    <path clip-path="url(#pe345f30a76)" d="M 130.175344 115.326812 
L 150.681844 115.326812 
" style="fill:none;stroke:#595959;stroke-linecap:round;stroke-width:1.5;"/>
   </g>
   <g id="line2d_4">
    <path clip-path="url(#pe345f30a76)" d="M 130.175344 51.161402 
L 150.681844 51.161402 
" style="fill:none;stroke:#595959;stroke-linecap:round;stroke-width:1.5;"/>
   </g>
   <g id="line2d_5"/>
   <g id="line2d_6">
    <path clip-path="url(#pe345f30a76)" d="M 182.278594 88.794856 
L 182.278594 110.302722 
" style="fill:none;stroke:#595959;stroke-linecap:round;stroke-width:1.5;"/>
   </g>
   <g id="line2d_7">
    <path clip-path="url(#pe345f30a76)" d="M 182.278594 67.914136 
L 182.278594 44.263636 
" style="fill:none;stroke:#595959;stroke-linecap:round;stroke-width:1.5;"/>
   </g>
   <g id="line2d_8">
    <path clip-path="url(#pe345f30a76)" d="M 172.025344 110.302722 
L 192.531844 110.302722 
" style="fill:none;stroke:#595959;stroke-linecap:round;stroke-width:1.5;"/>
   </g>
   <g id="line2d_9">
    <path clip-path="url(#pe345f30a76)" d="M 172.025344 44.263636 
L 192.531844 44.263636 
" style="fill:none;stroke:#595959;stroke-linecap:round;stroke-width:1.5;"/>
   </g>
   <g id="line2d_10"/>
   <g id="line2d_11">
    <path clip-path="url(#pe345f30a76)" d="M 224.128594 98.871284 
L 224.128594 111.63741 
" style="fill:none;stroke:#595959;stroke-linecap:round;stroke-width:1.5;"/>
   </g>
   <g id="line2d_12">
    <path clip-path="url(#pe345f30a76)" d="M 224.128594 76.015823 
L 224.128594 58.003007 
" style="fill:none;stroke:#595959;stroke-linecap:round;stroke-width:1.5;"/>
   </g>
   <g id="line2d_13">
    <path clip-path="url(#pe345f30a76)" d="M 213.875344 111.63741 
L 234.381844 111.63741 
" style="fill:none;stroke:#595959;stroke-linecap:round;stroke-width:1.5;"/>
   </g>
   <g id="line2d_14">
    <path clip-path="url(#pe345f30a76)" d="M 213.875344 58.003007 
L 234.381844 58.003007 
" style="fill:none;stroke:#595959;stroke-linecap:round;stroke-width:1.5;"/>
   </g>
   <g id="line2d_15"/>
   <g id="line2d_16">
    <path clip-path="url(#pe345f30a76)" d="M 265.978594 94.411131 
L 265.978594 113.687643 
" style="fill:none;stroke:#595959;stroke-linecap:round;stroke-width:1.5;"/>
   </g>
   <g id="line2d_17">
    <path clip-path="url(#pe345f30a76)" d="M 265.978594 77.735752 
L 265.978594 58.509489 
" style="fill:none;stroke:#595959;stroke-linecap:round;stroke-width:1.5;"/>
   </g>
   <g id="line2d_18">
    <path clip-path="url(#pe345f30a76)" d="M 255.725344 113.687643 
L 276.231844 113.687643 
" style="fill:none;stroke:#595959;stroke-linecap:round;stroke-width:1.5;"/>
   </g>
   <g id="line2d_19">
    <path clip-path="url(#pe345f30a76)" d="M 255.725344 58.509489 
L 276.231844 58.509489 
" style="fill:none;stroke:#595959;stroke-linecap:round;stroke-width:1.5;"/>
   </g>
   <g id="line2d_20"/>
   <g id="line2d_21">
    <path clip-path="url(#pe345f30a76)" d="M 349.678594 156.887249 
L 349.678594 212.703148 
" style="fill:none;stroke:#595959;stroke-linecap:round;stroke-width:1.5;"/>
   </g>
   <g id="line2d_22">
    <path clip-path="url(#pe345f30a76)" d="M 349.678594 108.489528 
L 349.678594 86.351373 
" style="fill:none;stroke:#595959;stroke-linecap:round;stroke-width:1.5;"/>
   </g>
   <g id="line2d_23">
    <path clip-path="url(#pe345f30a76)" d="M 339.425344 212.703148 
L 359.931844 212.703148 
" style="fill:none;stroke:#595959;stroke-linecap:round;stroke-width:1.5;"/>
   </g>
   <g id="line2d_24">
    <path clip-path="url(#pe345f30a76)" d="M 339.425344 86.351373 
L 359.931844 86.351373 
" style="fill:none;stroke:#595959;stroke-linecap:round;stroke-width:1.5;"/>
   </g>
   <g id="line2d_25"/>
   <g id="line2d_26">
    <path clip-path="url(#pe345f30a76)" d="M 391.528594 142.772251 
L 391.528594 180.818575 
" style="fill:none;stroke:#595959;stroke-linecap:round;stroke-width:1.5;"/>
   </g>
   <g id="line2d_27">
    <path clip-path="url(#pe345f30a76)" d="M 391.528594 114.947355 
L 391.528594 83.894697 
" style="fill:none;stroke:#595959;stroke-linecap:round;stroke-width:1.5;"/>
   </g>
   <g id="line2d_28">
    <path clip-path="url(#pe345f30a76)" d="M 381.275344 180.818575 
L 401.781844 180.818575 
" style="fill:none;stroke:#595959;stroke-linecap:round;stroke-width:1.5;"/>
   </g>
   <g id="line2d_29">
    <path clip-path="url(#pe345f30a76)" d="M 381.275344 83.894697 
L 401.781844 83.894697 
" style="fill:none;stroke:#595959;stroke-linecap:round;stroke-width:1.5;"/>
   </g>
   <g id="line2d_30">
    <defs>
     <path d="M -0 3.535534 
L 2.12132 0 
L -0 -3.535534 
L -2.12132 -0 
z
" id="m020a21f918" style="stroke:#595959;stroke-linejoin:miter;"/>
    </defs>
    <g clip-path="url(#pe345f30a76)">
     <use style="fill:#595959;stroke:#595959;stroke-linejoin:miter;" x="391.528594" xlink:href="#m020a21f918" y="190.054032"/>
     <use style="fill:#595959;stroke:#595959;stroke-linejoin:miter;" x="391.528594" xlink:href="#m020a21f918" y="188.354606"/>
     <use style="fill:#595959;stroke:#595959;stroke-linejoin:miter;" x="391.528594" xlink:href="#m020a21f918" y="212.573312"/>
    </g>
   </g>
   <g id="line2d_31">
    <path clip-path="url(#pe345f30a76)" d="M 433.378594 157.294509 
L 433.378594 192.702207 
" style="fill:none;stroke:#595959;stroke-linecap:round;stroke-width:1.5;"/>
   </g>
   <g id="line2d_32">
    <path clip-path="url(#pe345f30a76)" d="M 433.378594 117.797809 
L 433.378594 79.899802 
" style="fill:none;stroke:#595959;stroke-linecap:round;stroke-width:1.5;"/>
   </g>
   <g id="line2d_33">
    <path clip-path="url(#pe345f30a76)" d="M 423.125344 192.702207 
L 443.631844 192.702207 
" style="fill:none;stroke:#595959;stroke-linecap:round;stroke-width:1.5;"/>
   </g>
   <g id="line2d_34">
    <path clip-path="url(#pe345f30a76)" d="M 423.125344 79.899802 
L 443.631844 79.899802 
" style="fill:none;stroke:#595959;stroke-linecap:round;stroke-width:1.5;"/>
   </g>
   <g id="line2d_35"/>
   <g id="line2d_36">
    <path clip-path="url(#pe345f30a76)" d="M 475.228594 158.136354 
L 475.228594 203.683074 
" style="fill:none;stroke:#595959;stroke-linecap:round;stroke-width:1.5;"/>
   </g>
   <g id="line2d_37">
    <path clip-path="url(#pe345f30a76)" d="M 475.228594 126.441437 
L 475.228594 104.263365 
" style="fill:none;stroke:#595959;stroke-linecap:round;stroke-width:1.5;"/>
   </g>
   <g id="line2d_38">
    <path clip-path="url(#pe345f30a76)" d="M 464.975344 203.683074 
L 485.481844 203.683074 
" style="fill:none;stroke:#595959;stroke-linecap:round;stroke-width:1.5;"/>
   </g>
   <g id="line2d_39">
    <path clip-path="url(#pe345f30a76)" d="M 464.975344 104.263365 
L 485.481844 104.263365 
" style="fill:none;stroke:#595959;stroke-linecap:round;stroke-width:1.5;"/>
   </g>
   <g id="line2d_40">
    <g clip-path="url(#pe345f30a76)">
     <use style="fill:#595959;stroke:#595959;stroke-linejoin:miter;" x="475.228594" xlink:href="#m020a21f918" y="216.657381"/>
     <use style="fill:#595959;stroke:#595959;stroke-linejoin:miter;" x="475.228594" xlink:href="#m020a21f918" y="214.905203"/>
    </g>
   </g>
   <g id="line2d_41">
    <path clip-path="url(#pe345f30a76)" d="M 558.928594 150.312623 
L 558.928594 187.805608 
" style="fill:none;stroke:#595959;stroke-linecap:round;stroke-width:1.5;"/>
   </g>
   <g id="line2d_42">
    <path clip-path="url(#pe345f30a76)" d="M 558.928594 122.800246 
L 558.928594 91.065097 
" style="fill:none;stroke:#595959;stroke-linecap:round;stroke-width:1.5;"/>
   </g>
   <g id="line2d_43">
    <path clip-path="url(#pe345f30a76)" d="M 548.675344 187.805608 
L 569.181844 187.805608 
" style="fill:none;stroke:#595959;stroke-linecap:round;stroke-width:1.5;"/>
   </g>
   <g id="line2d_44">
    <path clip-path="url(#pe345f30a76)" d="M 548.675344 91.065097 
L 569.181844 91.065097 
" style="fill:none;stroke:#595959;stroke-linecap:round;stroke-width:1.5;"/>
   </g>
   <g id="line2d_45"/>
   <g id="line2d_46">
    <path clip-path="url(#pe345f30a76)" d="M 600.778594 142.287981 
L 600.778594 169.849447 
" style="fill:none;stroke:#595959;stroke-linecap:round;stroke-width:1.5;"/>
   </g>
   <g id="line2d_47">
    <path clip-path="url(#pe345f30a76)" d="M 600.778594 117.158872 
L 600.778594 86.826426 
" style="fill:none;stroke:#595959;stroke-linecap:round;stroke-width:1.5;"/>
   </g>
   <g id="line2d_48">
    <path clip-path="url(#pe345f30a76)" d="M 590.525344 169.849447 
L 611.031844 169.849447 
" style="fill:none;stroke:#595959;stroke-linecap:round;stroke-width:1.5;"/>
   </g>
   <g id="line2d_49">
    <path clip-path="url(#pe345f30a76)" d="M 590.525344 86.826426 
L 611.031844 86.826426 
" style="fill:none;stroke:#595959;stroke-linecap:round;stroke-width:1.5;"/>
   </g>
   <g id="line2d_50">
    <g clip-path="url(#pe345f30a76)">
     <use style="fill:#595959;stroke:#595959;stroke-linejoin:miter;" x="600.778594" xlink:href="#m020a21f918" y="189.938544"/>
     <use style="fill:#595959;stroke:#595959;stroke-linejoin:miter;" x="600.778594" xlink:href="#m020a21f918" y="185.537886"/>
     <use style="fill:#595959;stroke:#595959;stroke-linejoin:miter;" x="600.778594" xlink:href="#m020a21f918" y="198.49125"/>
    </g>
   </g>
   <g id="line2d_51">
    <path clip-path="url(#pe345f30a76)" d="M 642.628594 154.306922 
L 642.628594 187.625231 
" style="fill:none;stroke:#595959;stroke-linecap:round;stroke-width:1.5;"/>
   </g>
   <g id="line2d_52">
    <path clip-path="url(#pe345f30a76)" d="M 642.628594 128.994484 
L 642.628594 96.115653 
" style="fill:none;stroke:#595959;stroke-linecap:round;stroke-width:1.5;"/>
   </g>
   <g id="line2d_53">
    <path clip-path="url(#pe345f30a76)" d="M 632.375344 187.625231 
L 652.881844 187.625231 
" style="fill:none;stroke:#595959;stroke-linecap:round;stroke-width:1.5;"/>
   </g>
   <g id="line2d_54">
    <path clip-path="url(#pe345f30a76)" d="M 632.375344 96.115653 
L 652.881844 96.115653 
" style="fill:none;stroke:#595959;stroke-linecap:round;stroke-width:1.5;"/>
   </g>
   <g id="line2d_55">
    <g clip-path="url(#pe345f30a76)">
     <use style="fill:#595959;stroke:#595959;stroke-linejoin:miter;" x="642.628594" xlink:href="#m020a21f918" y="197.978341"/>
    </g>
   </g>
   <g id="line2d_56">
    <path clip-path="url(#pe345f30a76)" d="M 684.478594 165.180024 
L 684.478594 190.519691 
" style="fill:none;stroke:#595959;stroke-linecap:round;stroke-width:1.5;"/>
   </g>
   <g id="line2d_57">
    <path clip-path="url(#pe345f30a76)" d="M 684.478594 129.266341 
L 684.478594 100.718816 
" style="fill:none;stroke:#595959;stroke-linecap:round;stroke-width:1.5;"/>
   </g>
   <g id="line2d_58">
    <path clip-path="url(#pe345f30a76)" d="M 674.225344 190.519691 
L 694.731844 190.519691 
" style="fill:none;stroke:#595959;stroke-linecap:round;stroke-width:1.5;"/>
   </g>
   <g id="line2d_59">
    <path clip-path="url(#pe345f30a76)" d="M 674.225344 100.718816 
L 694.731844 100.718816 
" style="fill:none;stroke:#595959;stroke-linecap:round;stroke-width:1.5;"/>
   </g>
   <g id="line2d_60"/>
   <g id="line2d_61">
    <path clip-path="url(#pe345f30a76)" d="M 768.178594 711.555474 
L 768.178594 738.880718 
" style="fill:none;stroke:#595959;stroke-linecap:round;stroke-width:1.5;"/>
   </g>
   <g id="line2d_62">
    <path clip-path="url(#pe345f30a76)" d="M 768.178594 663.914443 
L 768.178594 616.385937 
" style="fill:none;stroke:#595959;stroke-linecap:round;stroke-width:1.5;"/>
   </g>
   <g id="line2d_63">
    <path clip-path="url(#pe345f30a76)" d="M 757.925344 738.880718 
L 778.431844 738.880718 
" style="fill:none;stroke:#595959;stroke-linecap:round;stroke-width:1.5;"/>
   </g>
   <g id="line2d_64">
    <path clip-path="url(#pe345f30a76)" d="M 757.925344 616.385937 
L 778.431844 616.385937 
" style="fill:none;stroke:#595959;stroke-linecap:round;stroke-width:1.5;"/>
   </g>
   <g id="line2d_65"/>
   <g id="line2d_66">
    <path clip-path="url(#pe345f30a76)" d="M 810.028594 714.112107 
L 810.028594 758.732396 
" style="fill:none;stroke:#595959;stroke-linecap:round;stroke-width:1.5;"/>
   </g>
   <g id="line2d_67">
    <path clip-path="url(#pe345f30a76)" d="M 810.028594 672.659759 
L 810.028594 613.954074 
" style="fill:none;stroke:#595959;stroke-linecap:round;stroke-width:1.5;"/>
   </g>
   <g id="line2d_68">
    <path clip-path="url(#pe345f30a76)" d="M 799.775344 758.732396 
L 820.281844 758.732396 
" style="fill:none;stroke:#595959;stroke-linecap:round;stroke-width:1.5;"/>
   </g>
   <g id="line2d_69">
    <path clip-path="url(#pe345f30a76)" d="M 799.775344 613.954074 
L 820.281844 613.954074 
" style="fill:none;stroke:#595959;stroke-linecap:round;stroke-width:1.5;"/>
   </g>
   <g id="line2d_70">
    <g clip-path="url(#pe345f30a76)">
     <use style="fill:#595959;stroke:#595959;stroke-linejoin:miter;" x="810.028594" xlink:href="#m020a21f918" y="785.536364"/>
    </g>
   </g>
   <g id="line2d_71">
    <path clip-path="url(#pe345f30a76)" d="M 851.878594 714.209119 
L 851.878594 773.175105 
" style="fill:none;stroke:#595959;stroke-linecap:round;stroke-width:1.5;"/>
   </g>
   <g id="line2d_72">
    <path clip-path="url(#pe345f30a76)" d="M 851.878594 654.428511 
L 851.878594 619.982306 
" style="fill:none;stroke:#595959;stroke-linecap:round;stroke-width:1.5;"/>
   </g>
   <g id="line2d_73">
    <path clip-path="url(#pe345f30a76)" d="M 841.625344 773.175105 
L 862.131844 773.175105 
" style="fill:none;stroke:#595959;stroke-linecap:round;stroke-width:1.5;"/>
   </g>
   <g id="line2d_74">
    <path clip-path="url(#pe345f30a76)" d="M 841.625344 619.982306 
L 862.131844 619.982306 
" style="fill:none;stroke:#595959;stroke-linecap:round;stroke-width:1.5;"/>
   </g>
   <g id="line2d_75">
    <g clip-path="url(#pe345f30a76)">
     <use style="fill:#595959;stroke:#595959;stroke-linejoin:miter;" x="851.878594" xlink:href="#m020a21f918" y="555.493967"/>
    </g>
   </g>
   <g id="line2d_76">
    <path clip-path="url(#pe345f30a76)" d="M 893.728594 702.18325 
L 893.728594 732.872335 
" style="fill:none;stroke:#595959;stroke-linecap:round;stroke-width:1.5;"/>
   </g>
   <g id="line2d_77">
    <path clip-path="url(#pe345f30a76)" d="M 893.728594 642.676823 
L 893.728594 567.17241 
" style="fill:none;stroke:#595959;stroke-linecap:round;stroke-width:1.5;"/>
   </g>
   <g id="line2d_78">
    <path clip-path="url(#pe345f30a76)" d="M 883.475344 732.872335 
L 903.981844 732.872335 
" style="fill:none;stroke:#595959;stroke-linecap:round;stroke-width:1.5;"/>
   </g>
   <g id="line2d_79">
    <path clip-path="url(#pe345f30a76)" d="M 883.475344 567.17241 
L 903.981844 567.17241 
" style="fill:none;stroke:#595959;stroke-linecap:round;stroke-width:1.5;"/>
   </g>
   <g id="line2d_80"/>
   <g id="line2d_81">
    <path clip-path="url(#pe345f30a76)" d="M 307.828594 822.6 
L 307.828594 7.2 
" style="fill:none;stroke:#555555;stroke-dasharray:7.4,3.2;stroke-dashoffset:0;stroke-width:2;"/>
   </g>
   <g id="line2d_82">
    <path clip-path="url(#pe345f30a76)" d="M 517.078594 822.6 
L 517.078594 7.2 
" style="fill:none;stroke:#555555;stroke-dasharray:7.4,3.2;stroke-dashoffset:0;stroke-width:2;"/>
   </g>
   <g id="line2d_83">
    <path clip-path="url(#pe345f30a76)" d="M 726.328594 822.6 
L 726.328594 7.2 
" style="fill:none;stroke:#555555;stroke-dasharray:7.4,3.2;stroke-dashoffset:0;stroke-width:2;"/>
   </g>
   <g id="line2d_84">
    <path clip-path="url(#pe345f30a76)" d="M 119.922094 75.742274 
L 160.935094 75.742274 
" style="fill:none;stroke:#595959;stroke-linecap:round;stroke-width:1.5;"/>
   </g>
   <g id="line2d_85">
    <path clip-path="url(#pe345f30a76)" d="M 161.772094 77.27455 
L 202.785094 77.27455 
" style="fill:none;stroke:#595959;stroke-linecap:round;stroke-width:1.5;"/>
   </g>
   <g id="line2d_86">
    <path clip-path="url(#pe345f30a76)" d="M 203.622094 87.542677 
L 244.635094 87.542677 
" style="fill:none;stroke:#595959;stroke-linecap:round;stroke-width:1.5;"/>
   </g>
   <g id="line2d_87">
    <path clip-path="url(#pe345f30a76)" d="M 245.472094 88.247327 
L 286.485094 88.247327 
" style="fill:none;stroke:#595959;stroke-linecap:round;stroke-width:1.5;"/>
   </g>
   <g id="line2d_88">
    <path clip-path="url(#pe345f30a76)" d="M 329.172094 133.246736 
L 370.185094 133.246736 
" style="fill:none;stroke:#595959;stroke-linecap:round;stroke-width:1.5;"/>
   </g>
   <g id="line2d_89">
    <path clip-path="url(#pe345f30a76)" d="M 371.022094 129.709297 
L 412.035094 129.709297 
" style="fill:none;stroke:#595959;stroke-linecap:round;stroke-width:1.5;"/>
   </g>
   <g id="line2d_90">
    <path clip-path="url(#pe345f30a76)" d="M 412.872094 140.276623 
L 453.885094 140.276623 
" style="fill:none;stroke:#595959;stroke-linecap:round;stroke-width:1.5;"/>
   </g>
   <g id="line2d_91">
    <path clip-path="url(#pe345f30a76)" d="M 454.722094 139.111068 
L 495.735094 139.111068 
" style="fill:none;stroke:#595959;stroke-linecap:round;stroke-width:1.5;"/>
   </g>
   <g id="line2d_92">
    <path clip-path="url(#pe345f30a76)" d="M 538.422094 134.92532 
L 579.435094 134.92532 
" style="fill:none;stroke:#595959;stroke-linecap:round;stroke-width:1.5;"/>
   </g>
   <g id="line2d_93">
    <path clip-path="url(#pe345f30a76)" d="M 580.272094 130.524458 
L 621.285094 130.524458 
" style="fill:none;stroke:#595959;stroke-linecap:round;stroke-width:1.5;"/>
   </g>
   <g id="line2d_94">
    <path clip-path="url(#pe345f30a76)" d="M 622.122094 142.838386 
L 663.135094 142.838386 
" style="fill:none;stroke:#595959;stroke-linecap:round;stroke-width:1.5;"/>
   </g>
   <g id="line2d_95">
    <path clip-path="url(#pe345f30a76)" d="M 663.972094 146.032939 
L 704.985094 146.032939 
" style="fill:none;stroke:#595959;stroke-linecap:round;stroke-width:1.5;"/>
   </g>
   <g id="line2d_96">
    <path clip-path="url(#pe345f30a76)" d="M 747.672094 690.577688 
L 788.685094 690.577688 
" style="fill:none;stroke:#595959;stroke-linecap:round;stroke-width:1.5;"/>
   </g>
   <g id="line2d_97">
    <path clip-path="url(#pe345f30a76)" d="M 789.522094 691.013281 
L 830.535094 691.013281 
" style="fill:none;stroke:#595959;stroke-linecap:round;stroke-width:1.5;"/>
   </g>
   <g id="line2d_98">
    <path clip-path="url(#pe345f30a76)" d="M 831.372094 679.538424 
L 872.385094 679.538424 
" style="fill:none;stroke:#595959;stroke-linecap:round;stroke-width:1.5;"/>
   </g>
   <g id="line2d_99">
    <path clip-path="url(#pe345f30a76)" d="M 873.222094 680.334449 
L 914.235094 680.334449 
" style="fill:none;stroke:#595959;stroke-linecap:round;stroke-width:1.5;"/>
   </g>
   <g id="patch_23">
    <path d="M 98.578594 822.6 
L 98.578594 7.2 
" style="fill:none;stroke:#262626;stroke-linecap:square;stroke-linejoin:miter;stroke-width:1.25;"/>
   </g>
   <g id="patch_24">
    <path d="M 935.578594 822.6 
L 935.578594 7.2 
" style="fill:none;stroke:#262626;stroke-linecap:square;stroke-linejoin:miter;stroke-width:1.25;"/>
   </g>
   <g id="patch_25">
    <path d="M 98.578594 822.6 
L 935.578594 822.6 
" style="fill:none;stroke:#262626;stroke-linecap:square;stroke-linejoin:miter;stroke-width:1.25;"/>
   </g>
   <g id="patch_26">
    <path d="M 98.578594 7.2 
L 935.578594 7.2 
" style="fill:none;stroke:#262626;stroke-linecap:square;stroke-linejoin:miter;stroke-width:1.25;"/>
   </g>
   <g id="legend_1">
    <g id="patch_27">
     <path d="M 123.078594 805.1 
L 400.480937 805.1 
Q 407.480937 805.1 407.480937 798.1 
L 407.480937 603.139063 
Q 407.480937 596.139063 400.480937 596.139063 
L 123.078594 596.139063 
Q 116.078594 596.139063 116.078594 603.139063 
L 116.078594 798.1 
Q 116.078594 805.1 123.078594 805.1 
z
" style="fill:#ffffff;opacity:0.8;stroke:#cccccc;stroke-linejoin:miter;"/>
    </g>
    <g id="patch_28">
     <path d="M 130.078594 635.191406 
L 200.078594 635.191406 
L 200.078594 610.691406 
L 130.078594 610.691406 
z
" style="fill:#72b6a1;stroke:#595959;stroke-linejoin:miter;stroke-width:0.75;"/>
    </g>
    <g id="text_12">
     <!-- Pconsc4 -->
     <g style="fill:#262626;" transform="translate(228.078594 635.191406)scale(0.35 -0.35)">
      <use xlink:href="#ArialMT-50"/>
      <use x="66.699219" xlink:href="#ArialMT-63"/>
      <use x="116.699219" xlink:href="#ArialMT-6f"/>
      <use x="172.314453" xlink:href="#ArialMT-6e"/>
      <use x="227.929688" xlink:href="#ArialMT-73"/>
      <use x="277.929688" xlink:href="#ArialMT-63"/>
      <use x="327.929688" xlink:href="#ArialMT-34"/>
     </g>
    </g>
    <g id="patch_29">
     <path d="M 130.078594 684.7 
L 200.078594 684.7 
L 200.078594 660.2 
L 130.078594 660.2 
z
" style="fill:#e99675;stroke:#595959;stroke-linejoin:miter;stroke-width:0.75;"/>
    </g>
    <g id="text_13">
     <!-- ESM -->
     <g style="fill:#262626;" transform="translate(228.078594 684.7)scale(0.35 -0.35)">
      <use xlink:href="#ArialMT-45"/>
      <use x="66.699219" xlink:href="#ArialMT-53"/>
      <use x="133.398438" xlink:href="#ArialMT-4d"/>
     </g>
    </g>
    <g id="patch_30">
     <path d="M 130.078594 734.635156 
L 200.078594 734.635156 
L 200.078594 710.135156 
L 130.078594 710.135156 
z
" style="fill:#95a3c3;stroke:#595959;stroke-linejoin:miter;stroke-width:0.75;"/>
    </g>
    <g id="text_14">
     <!-- Alphafold2 -->
     <g style="fill:#262626;" transform="translate(228.078594 734.635156)scale(0.35 -0.35)">
      <defs>
       <path d="M -9 0 
L 1750 4581 
L 2403 4581 
L 4278 0 
L 3588 0 
L 3053 1388 
L 1138 1388 
L 634 0 
L -9 0 
z
M 1313 1881 
L 2866 1881 
L 2388 3150 
Q 2169 3728 2063 4100 
Q 1975 3659 1816 3225 
L 1313 1881 
z
" id="ArialMT-41" transform="scale(0.015625)"/>
       <path d="M 409 0 
L 409 4581 
L 972 4581 
L 972 0 
L 409 0 
z
" id="ArialMT-6c" transform="scale(0.015625)"/>
       <path d="M 422 0 
L 422 4581 
L 984 4581 
L 984 2938 
Q 1378 3394 1978 3394 
Q 2347 3394 2619 3248 
Q 2891 3103 3008 2847 
Q 3125 2591 3125 2103 
L 3125 0 
L 2563 0 
L 2563 2103 
Q 2563 2525 2380 2717 
Q 2197 2909 1863 2909 
Q 1613 2909 1392 2779 
Q 1172 2650 1078 2428 
Q 984 2206 984 1816 
L 984 0 
L 422 0 
z
" id="ArialMT-68" transform="scale(0.015625)"/>
       <path d="M 556 0 
L 556 2881 
L 59 2881 
L 59 3319 
L 556 3319 
L 556 3672 
Q 556 4006 616 4169 
Q 697 4388 901 4523 
Q 1106 4659 1475 4659 
Q 1713 4659 2000 4603 
L 1916 4113 
Q 1741 4144 1584 4144 
Q 1328 4144 1222 4034 
Q 1116 3925 1116 3625 
L 1116 3319 
L 1763 3319 
L 1763 2881 
L 1116 2881 
L 1116 0 
L 556 0 
z
" id="ArialMT-66" transform="scale(0.015625)"/>
       <path d="M 2575 0 
L 2575 419 
Q 2259 -75 1647 -75 
Q 1250 -75 917 144 
Q 584 363 401 755 
Q 219 1147 219 1656 
Q 219 2153 384 2558 
Q 550 2963 881 3178 
Q 1213 3394 1622 3394 
Q 1922 3394 2156 3267 
Q 2391 3141 2538 2938 
L 2538 4581 
L 3097 4581 
L 3097 0 
L 2575 0 
z
M 797 1656 
Q 797 1019 1065 703 
Q 1334 388 1700 388 
Q 2069 388 2326 689 
Q 2584 991 2584 1609 
Q 2584 2291 2321 2609 
Q 2059 2928 1675 2928 
Q 1300 2928 1048 2622 
Q 797 2316 797 1656 
z
" id="ArialMT-64" transform="scale(0.015625)"/>
       <path d="M 3222 541 
L 3222 0 
L 194 0 
Q 188 203 259 391 
Q 375 700 629 1000 
Q 884 1300 1366 1694 
Q 2113 2306 2375 2664 
Q 2638 3022 2638 3341 
Q 2638 3675 2398 3904 
Q 2159 4134 1775 4134 
Q 1369 4134 1125 3890 
Q 881 3647 878 3216 
L 300 3275 
Q 359 3922 746 4261 
Q 1134 4600 1788 4600 
Q 2447 4600 2831 4234 
Q 3216 3869 3216 3328 
Q 3216 3053 3103 2787 
Q 2991 2522 2730 2228 
Q 2469 1934 1863 1422 
Q 1356 997 1212 845 
Q 1069 694 975 541 
L 3222 541 
z
" id="ArialMT-32" transform="scale(0.015625)"/>
      </defs>
      <use xlink:href="#ArialMT-41"/>
      <use x="66.699219" xlink:href="#ArialMT-6c"/>
      <use x="88.916016" xlink:href="#ArialMT-70"/>
      <use x="144.53125" xlink:href="#ArialMT-68"/>
      <use x="200.146484" xlink:href="#ArialMT-61"/>
      <use x="255.761719" xlink:href="#ArialMT-66"/>
      <use x="283.544922" xlink:href="#ArialMT-6f"/>
      <use x="339.160156" xlink:href="#ArialMT-6c"/>
      <use x="361.376953" xlink:href="#ArialMT-64"/>
      <use x="416.992188" xlink:href="#ArialMT-32"/>
     </g>
    </g>
    <g id="patch_31">
     <path d="M 130.078594 784.14375 
L 200.078594 784.14375 
L 200.078594 759.64375 
L 130.078594 759.64375 
z
" style="fill:#db96c0;stroke:#595959;stroke-linejoin:miter;stroke-width:0.75;"/>
    </g>
    <g id="text_15">
     <!-- Random -->
     <g style="fill:#262626;" transform="translate(228.078594 784.14375)scale(0.35 -0.35)">
      <use xlink:href="#ArialMT-52"/>
      <use x="72.216797" xlink:href="#ArialMT-61"/>
      <use x="127.832031" xlink:href="#ArialMT-6e"/>
      <use x="183.447266" xlink:href="#ArialMT-64"/>
      <use x="239.0625" xlink:href="#ArialMT-6f"/>
      <use x="294.677734" xlink:href="#ArialMT-6d"/>
     </g>
    </g>
   </g>
  </g>
 </g>
 <defs>
  <clipPath id="pe345f30a76">
   <rect height="815.4" width="837" x="98.578594" y="7.2"/>
  </clipPath>
 </defs>
</svg>
