<?xml version="1.0" encoding="utf-8" standalone="no"?>
<!DOCTYPE svg PUBLIC "-//W3C//DTD SVG 1.1//EN"
  "http://www.w3.org/Graphics/SVG/1.1/DTD/svg11.dtd">
<svg height="907.423828pt" version="1.1" viewBox="0 0 1003.713281 907.423828" width="1003.713281pt" xmlns="http://www.w3.org/2000/svg" xmlns:xlink="http://www.w3.org/1999/xlink">
 <metadata>
  <rdf:RDF xmlns:cc="http://creativecommons.org/ns#" xmlns:dc="http://purl.org/dc/elements/1.1/" xmlns:rdf="http://www.w3.org/1999/02/22-rdf-syntax-ns#">
   <cc:Work>
    <dc:type rdf:resource="http://purl.org/dc/dcmitype/StillImage"/>
    <dc:date>2023-04-10T18:08:54.845343</dc:date>
    <dc:format>image/svg+xml</dc:format>
    <dc:creator>
     <cc:Agent>
      <dc:title>Matplotlib v3.4.3, https://matplotlib.org/</dc:title>
     </cc:Agent>
    </dc:creator>
   </cc:Work>
  </rdf:RDF>
 </metadata>
 <defs>
  <style type="text/css">*{stroke-linecap:butt;stroke-linejoin:round;}</style>
 </defs>
 <g id="figure_1">
  <g id="patch_1">
   <path d="M 0 907.423828 
L 1003.713281 907.423828 
L 1003.713281 0 
L 0 0 
z
" style="fill:#ffffff;"/>
  </g>
  <g id="axes_1">
   <g id="patch_2">
    <path d="M 101.360938 831.547266 
L 938.360937 831.547266 
L 938.360937 16.147266 
L 101.360938 16.147266 
z
" style="fill:#ffffff;"/>
   </g>
   <g id="matplotlib.axis_1">
    <g id="xtick_1">
     <g id="text_1">
      <!-- CI -->
      <g style="fill:#262626;" transform="translate(193.485938 858.941797)scale(0.25 -0.25)">
       <defs>
        <path d="M 3763 1606 
L 4369 1453 
Q 4178 706 3683 314 
Q 3188 -78 2472 -78 
Q 1731 -78 1267 223 
Q 803 525 561 1097 
Q 319 1669 319 2325 
Q 319 3041 592 3573 
Q 866 4106 1370 4382 
Q 1875 4659 2481 4659 
Q 3169 4659 3637 4309 
Q 4106 3959 4291 3325 
L 3694 3184 
Q 3534 3684 3231 3912 
Q 2928 4141 2469 4141 
Q 1941 4141 1586 3887 
Q 1231 3634 1087 3207 
Q 944 2781 944 2328 
Q 944 1744 1114 1308 
Q 1284 872 1643 656 
Q 2003 441 2422 441 
Q 2931 441 3284 734 
Q 3638 1028 3763 1606 
z
" id="ArialMT-43" transform="scale(0.015625)"/>
        <path d="M 597 0 
L 597 4581 
L 1203 4581 
L 1203 0 
L 597 0 
z
" id="ArialMT-49" transform="scale(0.015625)"/>
       </defs>
       <use xlink:href="#ArialMT-43"/>
       <use x="72.216797" xlink:href="#ArialMT-49"/>
      </g>
     </g>
    </g>
    <g id="xtick_2">
     <g id="text_2">
      <!-- Pearson -->
      <g style="fill:#262626;" transform="translate(368.68125 858.941797)scale(0.25 -0.25)">
       <defs>
        <path d="M 494 0 
L 494 4581 
L 2222 4581 
Q 2678 4581 2919 4538 
Q 3256 4481 3484 4323 
Q 3713 4166 3852 3881 
Q 3991 3597 3991 3256 
Q 3991 2672 3619 2267 
Q 3247 1863 2275 1863 
L 1100 1863 
L 1100 0 
L 494 0 
z
M 1100 2403 
L 2284 2403 
Q 2872 2403 3119 2622 
Q 3366 2841 3366 3238 
Q 3366 3525 3220 3729 
Q 3075 3934 2838 4000 
Q 2684 4041 2272 4041 
L 1100 4041 
L 1100 2403 
z
" id="ArialMT-50" transform="scale(0.015625)"/>
        <path d="M 2694 1069 
L 3275 997 
Q 3138 488 2766 206 
Q 2394 -75 1816 -75 
Q 1088 -75 661 373 
Q 234 822 234 1631 
Q 234 2469 665 2931 
Q 1097 3394 1784 3394 
Q 2450 3394 2872 2941 
Q 3294 2488 3294 1666 
Q 3294 1616 3291 1516 
L 816 1516 
Q 847 969 1125 678 
Q 1403 388 1819 388 
Q 2128 388 2347 550 
Q 2566 713 2694 1069 
z
M 847 1978 
L 2700 1978 
Q 2663 2397 2488 2606 
Q 2219 2931 1791 2931 
Q 1403 2931 1139 2672 
Q 875 2413 847 1978 
z
" id="ArialMT-65" transform="scale(0.015625)"/>
        <path d="M 2588 409 
Q 2275 144 1986 34 
Q 1697 -75 1366 -75 
Q 819 -75 525 192 
Q 231 459 231 875 
Q 231 1119 342 1320 
Q 453 1522 633 1644 
Q 813 1766 1038 1828 
Q 1203 1872 1538 1913 
Q 2219 1994 2541 2106 
Q 2544 2222 2544 2253 
Q 2544 2597 2384 2738 
Q 2169 2928 1744 2928 
Q 1347 2928 1158 2789 
Q 969 2650 878 2297 
L 328 2372 
Q 403 2725 575 2942 
Q 747 3159 1072 3276 
Q 1397 3394 1825 3394 
Q 2250 3394 2515 3294 
Q 2781 3194 2906 3042 
Q 3031 2891 3081 2659 
Q 3109 2516 3109 2141 
L 3109 1391 
Q 3109 606 3145 398 
Q 3181 191 3288 0 
L 2700 0 
Q 2613 175 2588 409 
z
M 2541 1666 
Q 2234 1541 1622 1453 
Q 1275 1403 1131 1340 
Q 988 1278 909 1158 
Q 831 1038 831 891 
Q 831 666 1001 516 
Q 1172 366 1500 366 
Q 1825 366 2078 508 
Q 2331 650 2450 897 
Q 2541 1088 2541 1459 
L 2541 1666 
z
" id="ArialMT-61" transform="scale(0.015625)"/>
        <path d="M 416 0 
L 416 3319 
L 922 3319 
L 922 2816 
Q 1116 3169 1280 3281 
Q 1444 3394 1641 3394 
Q 1925 3394 2219 3213 
L 2025 2691 
Q 1819 2813 1613 2813 
Q 1428 2813 1281 2702 
Q 1134 2591 1072 2394 
Q 978 2094 978 1738 
L 978 0 
L 416 0 
z
" id="ArialMT-72" transform="scale(0.015625)"/>
        <path d="M 197 991 
L 753 1078 
Q 800 744 1014 566 
Q 1228 388 1613 388 
Q 2000 388 2187 545 
Q 2375 703 2375 916 
Q 2375 1106 2209 1216 
Q 2094 1291 1634 1406 
Q 1016 1563 777 1677 
Q 538 1791 414 1992 
Q 291 2194 291 2438 
Q 291 2659 392 2848 
Q 494 3038 669 3163 
Q 800 3259 1026 3326 
Q 1253 3394 1513 3394 
Q 1903 3394 2198 3281 
Q 2494 3169 2634 2976 
Q 2775 2784 2828 2463 
L 2278 2388 
Q 2241 2644 2061 2787 
Q 1881 2931 1553 2931 
Q 1166 2931 1000 2803 
Q 834 2675 834 2503 
Q 834 2394 903 2306 
Q 972 2216 1119 2156 
Q 1203 2125 1616 2013 
Q 2213 1853 2448 1751 
Q 2684 1650 2818 1456 
Q 2953 1263 2953 975 
Q 2953 694 2789 445 
Q 2625 197 2315 61 
Q 2006 -75 1616 -75 
Q 969 -75 630 194 
Q 291 463 197 991 
z
" id="ArialMT-73" transform="scale(0.015625)"/>
        <path d="M 213 1659 
Q 213 2581 725 3025 
Q 1153 3394 1769 3394 
Q 2453 3394 2887 2945 
Q 3322 2497 3322 1706 
Q 3322 1066 3130 698 
Q 2938 331 2570 128 
Q 2203 -75 1769 -75 
Q 1072 -75 642 372 
Q 213 819 213 1659 
z
M 791 1659 
Q 791 1022 1069 705 
Q 1347 388 1769 388 
Q 2188 388 2466 706 
Q 2744 1025 2744 1678 
Q 2744 2294 2464 2611 
Q 2184 2928 1769 2928 
Q 1347 2928 1069 2612 
Q 791 2297 791 1659 
z
" id="ArialMT-6f" transform="scale(0.015625)"/>
        <path d="M 422 0 
L 422 3319 
L 928 3319 
L 928 2847 
Q 1294 3394 1984 3394 
Q 2284 3394 2536 3286 
Q 2788 3178 2913 3003 
Q 3038 2828 3088 2588 
Q 3119 2431 3119 2041 
L 3119 0 
L 2556 0 
L 2556 2019 
Q 2556 2363 2490 2533 
Q 2425 2703 2258 2804 
Q 2091 2906 1866 2906 
Q 1506 2906 1245 2678 
Q 984 2450 984 1813 
L 984 0 
L 422 0 
z
" id="ArialMT-6e" transform="scale(0.015625)"/>
       </defs>
       <use xlink:href="#ArialMT-50"/>
       <use x="66.699219" xlink:href="#ArialMT-65"/>
       <use x="122.314453" xlink:href="#ArialMT-61"/>
       <use x="177.929688" xlink:href="#ArialMT-72"/>
       <use x="211.230469" xlink:href="#ArialMT-73"/>
       <use x="261.230469" xlink:href="#ArialMT-6f"/>
       <use x="316.845703" xlink:href="#ArialMT-6e"/>
      </g>
     </g>
    </g>
    <g id="xtick_3">
     <g id="text_3">
      <!-- Spearman -->
      <g style="fill:#262626;" transform="translate(566.817969 859.246484)scale(0.25 -0.25)">
       <defs>
        <path d="M 288 1472 
L 859 1522 
Q 900 1178 1048 958 
Q 1197 738 1509 602 
Q 1822 466 2213 466 
Q 2559 466 2825 569 
Q 3091 672 3220 851 
Q 3350 1031 3350 1244 
Q 3350 1459 3225 1620 
Q 3100 1781 2813 1891 
Q 2628 1963 1997 2114 
Q 1366 2266 1113 2400 
Q 784 2572 623 2826 
Q 463 3081 463 3397 
Q 463 3744 659 4045 
Q 856 4347 1234 4503 
Q 1613 4659 2075 4659 
Q 2584 4659 2973 4495 
Q 3363 4331 3572 4012 
Q 3781 3694 3797 3291 
L 3216 3247 
Q 3169 3681 2898 3903 
Q 2628 4125 2100 4125 
Q 1550 4125 1298 3923 
Q 1047 3722 1047 3438 
Q 1047 3191 1225 3031 
Q 1400 2872 2139 2705 
Q 2878 2538 3153 2413 
Q 3553 2228 3743 1945 
Q 3934 1663 3934 1294 
Q 3934 928 3725 604 
Q 3516 281 3123 101 
Q 2731 -78 2241 -78 
Q 1619 -78 1198 103 
Q 778 284 539 648 
Q 300 1013 288 1472 
z
" id="ArialMT-53" transform="scale(0.015625)"/>
        <path d="M 422 -1272 
L 422 3319 
L 934 3319 
L 934 2888 
Q 1116 3141 1344 3267 
Q 1572 3394 1897 3394 
Q 2322 3394 2647 3175 
Q 2972 2956 3137 2557 
Q 3303 2159 3303 1684 
Q 3303 1175 3120 767 
Q 2938 359 2589 142 
Q 2241 -75 1856 -75 
Q 1575 -75 1351 44 
Q 1128 163 984 344 
L 984 -1272 
L 422 -1272 
z
M 931 1641 
Q 931 1000 1190 694 
Q 1450 388 1819 388 
Q 2194 388 2461 705 
Q 2728 1022 2728 1688 
Q 2728 2322 2467 2637 
Q 2206 2953 1844 2953 
Q 1484 2953 1207 2617 
Q 931 2281 931 1641 
z
" id="ArialMT-70" transform="scale(0.015625)"/>
        <path d="M 422 0 
L 422 3319 
L 925 3319 
L 925 2853 
Q 1081 3097 1340 3245 
Q 1600 3394 1931 3394 
Q 2300 3394 2536 3241 
Q 2772 3088 2869 2813 
Q 3263 3394 3894 3394 
Q 4388 3394 4653 3120 
Q 4919 2847 4919 2278 
L 4919 0 
L 4359 0 
L 4359 2091 
Q 4359 2428 4304 2576 
Q 4250 2725 4106 2815 
Q 3963 2906 3769 2906 
Q 3419 2906 3187 2673 
Q 2956 2441 2956 1928 
L 2956 0 
L 2394 0 
L 2394 2156 
Q 2394 2531 2256 2718 
Q 2119 2906 1806 2906 
Q 1569 2906 1367 2781 
Q 1166 2656 1075 2415 
Q 984 2175 984 1722 
L 984 0 
L 422 0 
z
" id="ArialMT-6d" transform="scale(0.015625)"/>
       </defs>
       <use xlink:href="#ArialMT-53"/>
       <use x="66.699219" xlink:href="#ArialMT-70"/>
       <use x="122.314453" xlink:href="#ArialMT-65"/>
       <use x="177.929688" xlink:href="#ArialMT-61"/>
       <use x="233.544922" xlink:href="#ArialMT-72"/>
       <use x="266.845703" xlink:href="#ArialMT-6d"/>
       <use x="350.146484" xlink:href="#ArialMT-61"/>
       <use x="405.761719" xlink:href="#ArialMT-6e"/>
      </g>
     </g>
    </g>
    <g id="xtick_4">
     <g id="text_4">
      <!-- RMSE -->
      <g style="fill:#262626;" transform="translate(797.620703 858.941797)scale(0.25 -0.25)">
       <defs>
        <path d="M 503 0 
L 503 4581 
L 2534 4581 
Q 3147 4581 3465 4457 
Q 3784 4334 3975 4021 
Q 4166 3709 4166 3331 
Q 4166 2844 3850 2509 
Q 3534 2175 2875 2084 
Q 3116 1969 3241 1856 
Q 3506 1613 3744 1247 
L 4541 0 
L 3778 0 
L 3172 953 
Q 2906 1366 2734 1584 
Q 2563 1803 2427 1890 
Q 2291 1978 2150 2013 
Q 2047 2034 1813 2034 
L 1109 2034 
L 1109 0 
L 503 0 
z
M 1109 2559 
L 2413 2559 
Q 2828 2559 3062 2645 
Q 3297 2731 3419 2920 
Q 3541 3109 3541 3331 
Q 3541 3656 3305 3865 
Q 3069 4075 2559 4075 
L 1109 4075 
L 1109 2559 
z
" id="ArialMT-52" transform="scale(0.015625)"/>
        <path d="M 475 0 
L 475 4581 
L 1388 4581 
L 2472 1338 
Q 2622 884 2691 659 
Q 2769 909 2934 1394 
L 4031 4581 
L 4847 4581 
L 4847 0 
L 4263 0 
L 4263 3834 
L 2931 0 
L 2384 0 
L 1059 3900 
L 1059 0 
L 475 0 
z
" id="ArialMT-4d" transform="scale(0.015625)"/>
        <path d="M 506 0 
L 506 4581 
L 3819 4581 
L 3819 4041 
L 1113 4041 
L 1113 2638 
L 3647 2638 
L 3647 2100 
L 1113 2100 
L 1113 541 
L 3925 541 
L 3925 0 
L 506 0 
z
" id="ArialMT-45" transform="scale(0.015625)"/>
       </defs>
       <use xlink:href="#ArialMT-52"/>
       <use x="72.216797" xlink:href="#ArialMT-4d"/>
       <use x="155.517578" xlink:href="#ArialMT-53"/>
       <use x="222.216797" xlink:href="#ArialMT-45"/>
      </g>
     </g>
    </g>
    <g id="text_5">
     <!-- Metrics -->
     <g style="fill:#262626;" transform="translate(463.475391 893.267578)scale(0.35 -0.35)">
      <defs>
       <path d="M 1650 503 
L 1731 6 
Q 1494 -44 1306 -44 
Q 1000 -44 831 53 
Q 663 150 594 308 
Q 525 466 525 972 
L 525 2881 
L 113 2881 
L 113 3319 
L 525 3319 
L 525 4141 
L 1084 4478 
L 1084 3319 
L 1650 3319 
L 1650 2881 
L 1084 2881 
L 1084 941 
Q 1084 700 1114 631 
Q 1144 563 1211 522 
Q 1278 481 1403 481 
Q 1497 481 1650 503 
z
" id="ArialMT-74" transform="scale(0.015625)"/>
       <path d="M 425 3934 
L 425 4581 
L 988 4581 
L 988 3934 
L 425 3934 
z
M 425 0 
L 425 3319 
L 988 3319 
L 988 0 
L 425 0 
z
" id="ArialMT-69" transform="scale(0.015625)"/>
       <path d="M 2588 1216 
L 3141 1144 
Q 3050 572 2676 248 
Q 2303 -75 1759 -75 
Q 1078 -75 664 370 
Q 250 816 250 1647 
Q 250 2184 428 2587 
Q 606 2991 970 3192 
Q 1334 3394 1763 3394 
Q 2303 3394 2647 3120 
Q 2991 2847 3088 2344 
L 2541 2259 
Q 2463 2594 2264 2762 
Q 2066 2931 1784 2931 
Q 1359 2931 1093 2626 
Q 828 2322 828 1663 
Q 828 994 1084 691 
Q 1341 388 1753 388 
Q 2084 388 2306 591 
Q 2528 794 2588 1216 
z
" id="ArialMT-63" transform="scale(0.015625)"/>
      </defs>
      <use xlink:href="#ArialMT-4d"/>
      <use x="83.300781" xlink:href="#ArialMT-65"/>
      <use x="138.916016" xlink:href="#ArialMT-74"/>
      <use x="166.699219" xlink:href="#ArialMT-72"/>
      <use x="200" xlink:href="#ArialMT-69"/>
      <use x="222.216797" xlink:href="#ArialMT-63"/>
      <use x="272.216797" xlink:href="#ArialMT-73"/>
     </g>
    </g>
   </g>
   <g id="matplotlib.axis_2">
    <g id="ytick_1">
     <g id="line2d_1">
      <defs>
       <path d="M 0 0 
L -6 0 
" id="md055e775c4" style="stroke:#262626;stroke-width:1.25;"/>
      </defs>
      <g>
       <use style="fill:#262626;stroke:#262626;stroke-width:1.25;" x="101.360938" xlink:href="#md055e775c4" y="831.547266"/>
      </g>
     </g>
     <g id="text_6">
      <!-- 0.60 -->
      <g style="fill:#262626;" transform="translate(43.208594 840.494531)scale(0.25 -0.25)">
       <defs>
        <path d="M 266 2259 
Q 266 3072 433 3567 
Q 600 4063 929 4331 
Q 1259 4600 1759 4600 
Q 2128 4600 2406 4451 
Q 2684 4303 2865 4023 
Q 3047 3744 3150 3342 
Q 3253 2941 3253 2259 
Q 3253 1453 3087 958 
Q 2922 463 2592 192 
Q 2263 -78 1759 -78 
Q 1097 -78 719 397 
Q 266 969 266 2259 
z
M 844 2259 
Q 844 1131 1108 757 
Q 1372 384 1759 384 
Q 2147 384 2411 759 
Q 2675 1134 2675 2259 
Q 2675 3391 2411 3762 
Q 2147 4134 1753 4134 
Q 1366 4134 1134 3806 
Q 844 3388 844 2259 
z
" id="ArialMT-30" transform="scale(0.015625)"/>
        <path d="M 581 0 
L 581 641 
L 1222 641 
L 1222 0 
L 581 0 
z
" id="ArialMT-2e" transform="scale(0.015625)"/>
        <path d="M 3184 3459 
L 2625 3416 
Q 2550 3747 2413 3897 
Q 2184 4138 1850 4138 
Q 1581 4138 1378 3988 
Q 1113 3794 959 3422 
Q 806 3050 800 2363 
Q 1003 2672 1297 2822 
Q 1591 2972 1913 2972 
Q 2475 2972 2870 2558 
Q 3266 2144 3266 1488 
Q 3266 1056 3080 686 
Q 2894 316 2569 119 
Q 2244 -78 1831 -78 
Q 1128 -78 684 439 
Q 241 956 241 2144 
Q 241 3472 731 4075 
Q 1159 4600 1884 4600 
Q 2425 4600 2770 4297 
Q 3116 3994 3184 3459 
z
M 888 1484 
Q 888 1194 1011 928 
Q 1134 663 1356 523 
Q 1578 384 1822 384 
Q 2178 384 2434 671 
Q 2691 959 2691 1453 
Q 2691 1928 2437 2201 
Q 2184 2475 1800 2475 
Q 1419 2475 1153 2201 
Q 888 1928 888 1484 
z
" id="ArialMT-36" transform="scale(0.015625)"/>
       </defs>
       <use xlink:href="#ArialMT-30"/>
       <use x="55.615234" xlink:href="#ArialMT-2e"/>
       <use x="83.398438" xlink:href="#ArialMT-36"/>
       <use x="139.013672" xlink:href="#ArialMT-30"/>
      </g>
     </g>
    </g>
    <g id="ytick_2">
     <g id="line2d_2">
      <g>
       <use style="fill:#262626;stroke:#262626;stroke-width:1.25;" x="101.360938" xlink:href="#md055e775c4" y="715.061551"/>
      </g>
     </g>
     <g id="text_7">
      <!-- 0.65 -->
      <g style="fill:#262626;" transform="translate(43.208594 724.008817)scale(0.25 -0.25)">
       <defs>
        <path d="M 266 1200 
L 856 1250 
Q 922 819 1161 601 
Q 1400 384 1738 384 
Q 2144 384 2425 690 
Q 2706 997 2706 1503 
Q 2706 1984 2436 2262 
Q 2166 2541 1728 2541 
Q 1456 2541 1237 2417 
Q 1019 2294 894 2097 
L 366 2166 
L 809 4519 
L 3088 4519 
L 3088 3981 
L 1259 3981 
L 1013 2750 
Q 1425 3038 1878 3038 
Q 2478 3038 2890 2622 
Q 3303 2206 3303 1553 
Q 3303 931 2941 478 
Q 2500 -78 1738 -78 
Q 1113 -78 717 272 
Q 322 622 266 1200 
z
" id="ArialMT-35" transform="scale(0.015625)"/>
       </defs>
       <use xlink:href="#ArialMT-30"/>
       <use x="55.615234" xlink:href="#ArialMT-2e"/>
       <use x="83.398438" xlink:href="#ArialMT-36"/>
       <use x="139.013672" xlink:href="#ArialMT-35"/>
      </g>
     </g>
    </g>
    <g id="ytick_3">
     <g id="line2d_3">
      <g>
       <use style="fill:#262626;stroke:#262626;stroke-width:1.25;" x="101.360938" xlink:href="#md055e775c4" y="598.575837"/>
      </g>
     </g>
     <g id="text_8">
      <!-- 0.70 -->
      <g style="fill:#262626;" transform="translate(43.208594 607.523103)scale(0.25 -0.25)">
       <defs>
        <path d="M 303 3981 
L 303 4522 
L 3269 4522 
L 3269 4084 
Q 2831 3619 2401 2847 
Q 1972 2075 1738 1259 
Q 1569 684 1522 0 
L 944 0 
Q 953 541 1156 1306 
Q 1359 2072 1739 2783 
Q 2119 3494 2547 3981 
L 303 3981 
z
" id="ArialMT-37" transform="scale(0.015625)"/>
       </defs>
       <use xlink:href="#ArialMT-30"/>
       <use x="55.615234" xlink:href="#ArialMT-2e"/>
       <use x="83.398438" xlink:href="#ArialMT-37"/>
       <use x="139.013672" xlink:href="#ArialMT-30"/>
      </g>
     </g>
    </g>
    <g id="ytick_4">
     <g id="line2d_4">
      <g>
       <use style="fill:#262626;stroke:#262626;stroke-width:1.25;" x="101.360938" xlink:href="#md055e775c4" y="482.090123"/>
      </g>
     </g>
     <g id="text_9">
      <!-- 0.75 -->
      <g style="fill:#262626;" transform="translate(43.208594 491.037388)scale(0.25 -0.25)">
       <use xlink:href="#ArialMT-30"/>
       <use x="55.615234" xlink:href="#ArialMT-2e"/>
       <use x="83.398438" xlink:href="#ArialMT-37"/>
       <use x="139.013672" xlink:href="#ArialMT-35"/>
      </g>
     </g>
    </g>
    <g id="ytick_5">
     <g id="line2d_5">
      <g>
       <use style="fill:#262626;stroke:#262626;stroke-width:1.25;" x="101.360938" xlink:href="#md055e775c4" y="365.604408"/>
      </g>
     </g>
     <g id="text_10">
      <!-- 0.80 -->
      <g style="fill:#262626;" transform="translate(43.208594 374.551674)scale(0.25 -0.25)">
       <defs>
        <path d="M 1131 2484 
Q 781 2613 612 2850 
Q 444 3088 444 3419 
Q 444 3919 803 4259 
Q 1163 4600 1759 4600 
Q 2359 4600 2725 4251 
Q 3091 3903 3091 3403 
Q 3091 3084 2923 2848 
Q 2756 2613 2416 2484 
Q 2838 2347 3058 2040 
Q 3278 1734 3278 1309 
Q 3278 722 2862 322 
Q 2447 -78 1769 -78 
Q 1091 -78 675 323 
Q 259 725 259 1325 
Q 259 1772 486 2073 
Q 713 2375 1131 2484 
z
M 1019 3438 
Q 1019 3113 1228 2906 
Q 1438 2700 1772 2700 
Q 2097 2700 2305 2904 
Q 2513 3109 2513 3406 
Q 2513 3716 2298 3927 
Q 2084 4138 1766 4138 
Q 1444 4138 1231 3931 
Q 1019 3725 1019 3438 
z
M 838 1322 
Q 838 1081 952 856 
Q 1066 631 1291 507 
Q 1516 384 1775 384 
Q 2178 384 2440 643 
Q 2703 903 2703 1303 
Q 2703 1709 2433 1975 
Q 2163 2241 1756 2241 
Q 1359 2241 1098 1978 
Q 838 1716 838 1322 
z
" id="ArialMT-38" transform="scale(0.015625)"/>
       </defs>
       <use xlink:href="#ArialMT-30"/>
       <use x="55.615234" xlink:href="#ArialMT-2e"/>
       <use x="83.398438" xlink:href="#ArialMT-38"/>
       <use x="139.013672" xlink:href="#ArialMT-30"/>
      </g>
     </g>
    </g>
    <g id="ytick_6">
     <g id="line2d_6">
      <g>
       <use style="fill:#262626;stroke:#262626;stroke-width:1.25;" x="101.360938" xlink:href="#md055e775c4" y="249.118694"/>
      </g>
     </g>
     <g id="text_11">
      <!-- 0.85 -->
      <g style="fill:#262626;" transform="translate(43.208594 258.06596)scale(0.25 -0.25)">
       <use xlink:href="#ArialMT-30"/>
       <use x="55.615234" xlink:href="#ArialMT-2e"/>
       <use x="83.398438" xlink:href="#ArialMT-38"/>
       <use x="139.013672" xlink:href="#ArialMT-35"/>
      </g>
     </g>
    </g>
    <g id="ytick_7">
     <g id="line2d_7">
      <g>
       <use style="fill:#262626;stroke:#262626;stroke-width:1.25;" x="101.360938" xlink:href="#md055e775c4" y="132.63298"/>
      </g>
     </g>
     <g id="text_12">
      <!-- 0.90 -->
      <g style="fill:#262626;" transform="translate(43.208594 141.580246)scale(0.25 -0.25)">
       <defs>
        <path d="M 350 1059 
L 891 1109 
Q 959 728 1153 556 
Q 1347 384 1650 384 
Q 1909 384 2104 503 
Q 2300 622 2425 820 
Q 2550 1019 2634 1356 
Q 2719 1694 2719 2044 
Q 2719 2081 2716 2156 
Q 2547 1888 2255 1720 
Q 1963 1553 1622 1553 
Q 1053 1553 659 1965 
Q 266 2378 266 3053 
Q 266 3750 677 4175 
Q 1088 4600 1706 4600 
Q 2153 4600 2523 4359 
Q 2894 4119 3086 3673 
Q 3278 3228 3278 2384 
Q 3278 1506 3087 986 
Q 2897 466 2520 194 
Q 2144 -78 1638 -78 
Q 1100 -78 759 220 
Q 419 519 350 1059 
z
M 2653 3081 
Q 2653 3566 2395 3850 
Q 2138 4134 1775 4134 
Q 1400 4134 1122 3828 
Q 844 3522 844 3034 
Q 844 2597 1108 2323 
Q 1372 2050 1759 2050 
Q 2150 2050 2401 2323 
Q 2653 2597 2653 3081 
z
" id="ArialMT-39" transform="scale(0.015625)"/>
       </defs>
       <use xlink:href="#ArialMT-30"/>
       <use x="55.615234" xlink:href="#ArialMT-2e"/>
       <use x="83.398438" xlink:href="#ArialMT-39"/>
       <use x="139.013672" xlink:href="#ArialMT-30"/>
      </g>
     </g>
    </g>
    <g id="ytick_8">
     <g id="line2d_8">
      <g>
       <use style="fill:#262626;stroke:#262626;stroke-width:1.25;" x="101.360938" xlink:href="#md055e775c4" y="16.147266"/>
      </g>
     </g>
     <g id="text_13">
      <!-- 0.95 -->
      <g style="fill:#262626;" transform="translate(43.208594 25.094531)scale(0.25 -0.25)">
       <use xlink:href="#ArialMT-30"/>
       <use x="55.615234" xlink:href="#ArialMT-2e"/>
       <use x="83.398438" xlink:href="#ArialMT-39"/>
       <use x="139.013672" xlink:href="#ArialMT-35"/>
      </g>
     </g>
    </g>
    <g id="text_14">
     <!-- Scores -->
     <g style="fill:#262626;" transform="translate(32.252344 478.310547)rotate(-90)scale(0.35 -0.35)">
      <use xlink:href="#ArialMT-53"/>
      <use x="66.699219" xlink:href="#ArialMT-63"/>
      <use x="116.699219" xlink:href="#ArialMT-6f"/>
      <use x="172.314453" xlink:href="#ArialMT-72"/>
      <use x="205.615234" xlink:href="#ArialMT-65"/>
      <use x="261.230469" xlink:href="#ArialMT-73"/>
     </g>
    </g>
   </g>
   <g id="patch_3">
    <path clip-path="url(#p5dee095463)" d="M 122.843937 267.670909 
L 177.527938 267.670909 
L 177.527938 234.538275 
L 122.843937 234.538275 
L 122.843937 267.670909 
z
" style="fill:#9cd2bf;stroke:#6e6e6e;stroke-linejoin:miter;stroke-width:1.5;"/>
   </g>
   <g id="patch_4">
    <path clip-path="url(#p5dee095463)" d="M 178.643937 265.524908 
L 233.327938 265.524908 
L 233.327938 235.346422 
L 178.643937 235.346422 
L 178.643937 265.524908 
z
" style="fill:#d2a0d2;stroke:#6e6e6e;stroke-linejoin:miter;stroke-width:1.5;"/>
   </g>
   <g id="patch_5">
    <path clip-path="url(#p5dee095463)" d="M 234.443938 247.870286 
L 289.127938 247.870286 
L 289.127938 225.240369 
L 234.443938 225.240369 
L 234.443938 247.870286 
z
" style="fill:#a2b9d1;stroke:#6e6e6e;stroke-linejoin:miter;stroke-width:1.5;"/>
   </g>
   <g id="patch_6">
    <path clip-path="url(#p5dee095463)" d="M 332.093938 359.683526 
L 386.777938 359.683526 
L 386.777938 289.443892 
L 332.093938 289.443892 
L 332.093938 359.683526 
z
" style="fill:#9cd2bf;stroke:#6e6e6e;stroke-linejoin:miter;stroke-width:1.5;"/>
   </g>
   <g id="patch_7">
    <path clip-path="url(#p5dee095463)" d="M 387.893937 361.074149 
L 442.577938 361.074149 
L 442.577938 301.026843 
L 387.893937 301.026843 
L 387.893937 361.074149 
z
" style="fill:#d2a0d2;stroke:#6e6e6e;stroke-linejoin:miter;stroke-width:1.5;"/>
   </g>
   <g id="patch_8">
    <path clip-path="url(#p5dee095463)" d="M 443.693937 350.363441 
L 498.377938 350.363441 
L 498.377938 295.866767 
L 443.693937 295.866767 
L 443.693937 350.363441 
z
" style="fill:#a2b9d1;stroke:#6e6e6e;stroke-linejoin:miter;stroke-width:1.5;"/>
   </g>
   <g id="patch_9">
    <path clip-path="url(#p5dee095463)" d="M 541.343938 350.141769 
L 596.027938 350.141769 
L 596.027938 310.213044 
L 541.343938 310.213044 
L 541.343938 350.141769 
z
" style="fill:#9cd2bf;stroke:#6e6e6e;stroke-linejoin:miter;stroke-width:1.5;"/>
   </g>
   <g id="patch_10">
    <path clip-path="url(#p5dee095463)" d="M 597.143937 340.92763 
L 651.827937 340.92763 
L 651.827937 309.757034 
L 597.143937 309.757034 
L 597.143937 340.92763 
z
" style="fill:#d2a0d2;stroke:#6e6e6e;stroke-linejoin:miter;stroke-width:1.5;"/>
   </g>
   <g id="patch_11">
    <path clip-path="url(#p5dee095463)" d="M 652.943938 343.535217 
L 707.627937 343.535217 
L 707.627937 283.260954 
L 652.943938 283.260954 
L 652.943938 343.535217 
z
" style="fill:#a2b9d1;stroke:#6e6e6e;stroke-linejoin:miter;stroke-width:1.5;"/>
   </g>
   <g id="patch_12">
    <path clip-path="url(#p5dee095463)" d="M 205.985938 2229.375837 
L 205.985938 2229.375837 
L 205.985938 2229.375837 
L 205.985938 2229.375837 
z
" style="fill:#9cd2bf;stroke:#6e6e6e;stroke-linejoin:miter;stroke-width:0.75;"/>
   </g>
   <g id="patch_13">
    <path clip-path="url(#p5dee095463)" d="M 205.985938 2229.375837 
L 205.985938 2229.375837 
L 205.985938 2229.375837 
L 205.985938 2229.375837 
z
" style="fill:#d2a0d2;stroke:#6e6e6e;stroke-linejoin:miter;stroke-width:0.75;"/>
   </g>
   <g id="patch_14">
    <path clip-path="url(#p5dee095463)" d="M 205.985938 2229.375837 
L 205.985938 2229.375837 
L 205.985938 2229.375837 
L 205.985938 2229.375837 
z
" style="fill:#a2b9d1;stroke:#6e6e6e;stroke-linejoin:miter;stroke-width:0.75;"/>
   </g>
   <g id="line2d_9">
    <path clip-path="url(#p5dee095463)" d="M 150.185937 267.670909 
L 150.185937 299.366846 
" style="fill:none;stroke:#6e6e6e;stroke-linecap:round;stroke-width:1.5;"/>
   </g>
   <g id="line2d_10">
    <path clip-path="url(#p5dee095463)" d="M 150.185937 234.538275 
L 150.185937 206.243558 
" style="fill:none;stroke:#6e6e6e;stroke-linecap:round;stroke-width:1.5;"/>
   </g>
   <g id="line2d_11">
    <path clip-path="url(#p5dee095463)" d="M 136.514937 299.366846 
L 163.856937 299.366846 
" style="fill:none;stroke:#6e6e6e;stroke-linecap:round;stroke-width:1.5;"/>
   </g>
   <g id="line2d_12">
    <path clip-path="url(#p5dee095463)" d="M 136.514937 206.243558 
L 163.856937 206.243558 
" style="fill:none;stroke:#6e6e6e;stroke-linecap:round;stroke-width:1.5;"/>
   </g>
   <g id="line2d_13"/>
   <g id="line2d_14">
    <path clip-path="url(#p5dee095463)" d="M 205.985938 265.524908 
L 205.985938 286.683545 
" style="fill:none;stroke:#6e6e6e;stroke-linecap:round;stroke-width:1.5;"/>
   </g>
   <g id="line2d_15">
    <path clip-path="url(#p5dee095463)" d="M 205.985938 235.346422 
L 205.985938 207.193633 
" style="fill:none;stroke:#6e6e6e;stroke-linecap:round;stroke-width:1.5;"/>
   </g>
   <g id="line2d_16">
    <path clip-path="url(#p5dee095463)" d="M 192.314938 286.683545 
L 219.656937 286.683545 
" style="fill:none;stroke:#6e6e6e;stroke-linecap:round;stroke-width:1.5;"/>
   </g>
   <g id="line2d_17">
    <path clip-path="url(#p5dee095463)" d="M 192.314938 207.193633 
L 219.656937 207.193633 
" style="fill:none;stroke:#6e6e6e;stroke-linecap:round;stroke-width:1.5;"/>
   </g>
   <g id="line2d_18"/>
   <g id="line2d_19">
    <path clip-path="url(#p5dee095463)" d="M 261.785938 247.870286 
L 261.785938 277.242715 
" style="fill:none;stroke:#6e6e6e;stroke-linecap:round;stroke-width:1.5;"/>
   </g>
   <g id="line2d_20">
    <path clip-path="url(#p5dee095463)" d="M 261.785938 225.240369 
L 261.785938 196.824991 
" style="fill:none;stroke:#6e6e6e;stroke-linecap:round;stroke-width:1.5;"/>
   </g>
   <g id="line2d_21">
    <path clip-path="url(#p5dee095463)" d="M 248.114938 277.242715 
L 275.456938 277.242715 
" style="fill:none;stroke:#6e6e6e;stroke-linecap:round;stroke-width:1.5;"/>
   </g>
   <g id="line2d_22">
    <path clip-path="url(#p5dee095463)" d="M 248.114938 196.824991 
L 275.456938 196.824991 
" style="fill:none;stroke:#6e6e6e;stroke-linecap:round;stroke-width:1.5;"/>
   </g>
   <g id="line2d_23">
    <defs>
     <path d="M -0 3.535534 
L 2.12132 0 
L -0 -3.535534 
L -2.12132 -0 
z
" id="m04972ad298" style="stroke:#6e6e6e;stroke-linejoin:miter;"/>
    </defs>
    <g clip-path="url(#p5dee095463)">
     <use style="fill:#6e6e6e;stroke:#6e6e6e;stroke-linejoin:miter;" x="261.785938" xlink:href="#m04972ad298" y="319.694364"/>
     <use style="fill:#6e6e6e;stroke:#6e6e6e;stroke-linejoin:miter;" x="261.785938" xlink:href="#m04972ad298" y="286.270533"/>
    </g>
   </g>
   <g id="line2d_24">
    <path clip-path="url(#p5dee095463)" d="M 359.435938 359.683526 
L 359.435938 440.689165 
" style="fill:none;stroke:#6e6e6e;stroke-linecap:round;stroke-width:1.5;"/>
   </g>
   <g id="line2d_25">
    <path clip-path="url(#p5dee095463)" d="M 359.435938 289.443892 
L 359.435938 257.314778 
" style="fill:none;stroke:#6e6e6e;stroke-linecap:round;stroke-width:1.5;"/>
   </g>
   <g id="line2d_26">
    <path clip-path="url(#p5dee095463)" d="M 345.764937 440.689165 
L 373.106937 440.689165 
" style="fill:none;stroke:#6e6e6e;stroke-linecap:round;stroke-width:1.5;"/>
   </g>
   <g id="line2d_27">
    <path clip-path="url(#p5dee095463)" d="M 345.764937 257.314778 
L 373.106937 257.314778 
" style="fill:none;stroke:#6e6e6e;stroke-linecap:round;stroke-width:1.5;"/>
   </g>
   <g id="line2d_28"/>
   <g id="line2d_29">
    <path clip-path="url(#p5dee095463)" d="M 415.235937 361.074149 
L 415.235937 421.378138 
" style="fill:none;stroke:#6e6e6e;stroke-linecap:round;stroke-width:1.5;"/>
   </g>
   <g id="line2d_30">
    <path clip-path="url(#p5dee095463)" d="M 415.235937 301.026843 
L 415.235937 235.580535 
" style="fill:none;stroke:#6e6e6e;stroke-linecap:round;stroke-width:1.5;"/>
   </g>
   <g id="line2d_31">
    <path clip-path="url(#p5dee095463)" d="M 401.564938 421.378138 
L 428.906938 421.378138 
" style="fill:none;stroke:#6e6e6e;stroke-linecap:round;stroke-width:1.5;"/>
   </g>
   <g id="line2d_32">
    <path clip-path="url(#p5dee095463)" d="M 401.564938 235.580535 
L 428.906938 235.580535 
" style="fill:none;stroke:#6e6e6e;stroke-linecap:round;stroke-width:1.5;"/>
   </g>
   <g id="line2d_33">
    <g clip-path="url(#p5dee095463)">
     <use style="fill:#6e6e6e;stroke:#6e6e6e;stroke-linejoin:miter;" x="415.235937" xlink:href="#m04972ad298" y="458.277011"/>
    </g>
   </g>
   <g id="line2d_34">
    <path clip-path="url(#p5dee095463)" d="M 471.035938 350.363441 
L 471.035938 427.357927 
" style="fill:none;stroke:#6e6e6e;stroke-linecap:round;stroke-width:1.5;"/>
   </g>
   <g id="line2d_35">
    <path clip-path="url(#p5dee095463)" d="M 471.035938 295.866767 
L 471.035938 227.30552 
" style="fill:none;stroke:#6e6e6e;stroke-linecap:round;stroke-width:1.5;"/>
   </g>
   <g id="line2d_36">
    <path clip-path="url(#p5dee095463)" d="M 457.364937 427.357927 
L 484.706937 427.357927 
" style="fill:none;stroke:#6e6e6e;stroke-linecap:round;stroke-width:1.5;"/>
   </g>
   <g id="line2d_37">
    <path clip-path="url(#p5dee095463)" d="M 457.364937 227.30552 
L 484.706937 227.30552 
" style="fill:none;stroke:#6e6e6e;stroke-linecap:round;stroke-width:1.5;"/>
   </g>
   <g id="line2d_38"/>
   <g id="line2d_39">
    <path clip-path="url(#p5dee095463)" d="M 568.685938 350.141769 
L 568.685938 404.555354 
" style="fill:none;stroke:#6e6e6e;stroke-linecap:round;stroke-width:1.5;"/>
   </g>
   <g id="line2d_40">
    <path clip-path="url(#p5dee095463)" d="M 568.685938 310.213044 
L 568.685938 264.155807 
" style="fill:none;stroke:#6e6e6e;stroke-linecap:round;stroke-width:1.5;"/>
   </g>
   <g id="line2d_41">
    <path clip-path="url(#p5dee095463)" d="M 555.014938 404.555354 
L 582.356937 404.555354 
" style="fill:none;stroke:#6e6e6e;stroke-linecap:round;stroke-width:1.5;"/>
   </g>
   <g id="line2d_42">
    <path clip-path="url(#p5dee095463)" d="M 555.014938 264.155807 
L 582.356937 264.155807 
" style="fill:none;stroke:#6e6e6e;stroke-linecap:round;stroke-width:1.5;"/>
   </g>
   <g id="line2d_43"/>
   <g id="line2d_44">
    <path clip-path="url(#p5dee095463)" d="M 624.485937 340.92763 
L 624.485937 386.18128 
" style="fill:none;stroke:#6e6e6e;stroke-linecap:round;stroke-width:1.5;"/>
   </g>
   <g id="line2d_45">
    <path clip-path="url(#p5dee095463)" d="M 624.485937 309.757034 
L 624.485937 279.963733 
" style="fill:none;stroke:#6e6e6e;stroke-linecap:round;stroke-width:1.5;"/>
   </g>
   <g id="line2d_46">
    <path clip-path="url(#p5dee095463)" d="M 610.814938 386.18128 
L 638.156938 386.18128 
" style="fill:none;stroke:#6e6e6e;stroke-linecap:round;stroke-width:1.5;"/>
   </g>
   <g id="line2d_47">
    <path clip-path="url(#p5dee095463)" d="M 610.814938 279.963733 
L 638.156938 279.963733 
" style="fill:none;stroke:#6e6e6e;stroke-linecap:round;stroke-width:1.5;"/>
   </g>
   <g id="line2d_48">
    <g clip-path="url(#p5dee095463)">
     <use style="fill:#6e6e6e;stroke:#6e6e6e;stroke-linejoin:miter;" x="624.485937" xlink:href="#m04972ad298" y="397.433709"/>
     <use style="fill:#6e6e6e;stroke:#6e6e6e;stroke-linejoin:miter;" x="624.485937" xlink:href="#m04972ad298" y="251.904421"/>
    </g>
   </g>
   <g id="line2d_49">
    <path clip-path="url(#p5dee095463)" d="M 680.285938 343.535217 
L 680.285938 385.537689 
" style="fill:none;stroke:#6e6e6e;stroke-linecap:round;stroke-width:1.5;"/>
   </g>
   <g id="line2d_50">
    <path clip-path="url(#p5dee095463)" d="M 680.285938 283.260954 
L 680.285938 249.981974 
" style="fill:none;stroke:#6e6e6e;stroke-linecap:round;stroke-width:1.5;"/>
   </g>
   <g id="line2d_51">
    <path clip-path="url(#p5dee095463)" d="M 666.614937 385.537689 
L 693.956937 385.537689 
" style="fill:none;stroke:#6e6e6e;stroke-linecap:round;stroke-width:1.5;"/>
   </g>
   <g id="line2d_52">
    <path clip-path="url(#p5dee095463)" d="M 666.614937 249.981974 
L 693.956937 249.981974 
" style="fill:none;stroke:#6e6e6e;stroke-linecap:round;stroke-width:1.5;"/>
   </g>
   <g id="line2d_53"/>
   <g id="line2d_54">
    <path clip-path="url(#p5dee095463)" d="M 310.610937 831.547266 
L 310.610937 16.147266 
" style="fill:none;stroke:#000000;stroke-dasharray:7.4,3.2;stroke-dashoffset:0;stroke-width:2;"/>
   </g>
   <g id="line2d_55">
    <path clip-path="url(#p5dee095463)" d="M 519.860937 831.547266 
L 519.860937 16.147266 
" style="fill:none;stroke:#000000;stroke-dasharray:7.4,3.2;stroke-dashoffset:0;stroke-width:2;"/>
   </g>
   <g id="line2d_56">
    <path clip-path="url(#p5dee095463)" d="M 729.110937 831.547266 
L 729.110937 16.147266 
" style="fill:none;stroke:#000000;stroke-dasharray:7.4,3.2;stroke-dashoffset:0;stroke-width:2;"/>
   </g>
   <g id="line2d_57">
    <path clip-path="url(#p5dee095463)" d="M 734.342187 831.547266 
L 734.342187 16.147266 
" style="fill:none;stroke:#000000;stroke-dasharray:7.4,3.2;stroke-dashoffset:0;stroke-width:2;"/>
   </g>
   <g id="line2d_58">
    <path clip-path="url(#p5dee095463)" d="M 122.843937 241.917789 
L 177.527938 241.917789 
" style="fill:none;stroke:#6e6e6e;stroke-linecap:round;stroke-width:1.5;"/>
   </g>
   <g id="line2d_59">
    <path clip-path="url(#p5dee095463)" d="M 178.643937 248.47419 
L 233.327938 248.47419 
" style="fill:none;stroke:#6e6e6e;stroke-linecap:round;stroke-width:1.5;"/>
   </g>
   <g id="line2d_60">
    <path clip-path="url(#p5dee095463)" d="M 234.443938 233.581693 
L 289.127938 233.581693 
" style="fill:none;stroke:#6e6e6e;stroke-linecap:round;stroke-width:1.5;"/>
   </g>
   <g id="line2d_61">
    <path clip-path="url(#p5dee095463)" d="M 332.093938 325.374039 
L 386.777938 325.374039 
" style="fill:none;stroke:#6e6e6e;stroke-linecap:round;stroke-width:1.5;"/>
   </g>
   <g id="line2d_62">
    <path clip-path="url(#p5dee095463)" d="M 387.893937 328.343803 
L 442.577938 328.343803 
" style="fill:none;stroke:#6e6e6e;stroke-linecap:round;stroke-width:1.5;"/>
   </g>
   <g id="line2d_63">
    <path clip-path="url(#p5dee095463)" d="M 443.693937 317.273166 
L 498.377938 317.273166 
" style="fill:none;stroke:#6e6e6e;stroke-linecap:round;stroke-width:1.5;"/>
   </g>
   <g id="line2d_64">
    <path clip-path="url(#p5dee095463)" d="M 541.343938 327.810168 
L 596.027938 327.810168 
" style="fill:none;stroke:#6e6e6e;stroke-linecap:round;stroke-width:1.5;"/>
   </g>
   <g id="line2d_65">
    <path clip-path="url(#p5dee095463)" d="M 597.143937 323.018483 
L 651.827937 323.018483 
" style="fill:none;stroke:#6e6e6e;stroke-linecap:round;stroke-width:1.5;"/>
   </g>
   <g id="line2d_66">
    <path clip-path="url(#p5dee095463)" d="M 652.943938 317.605664 
L 707.627937 317.605664 
" style="fill:none;stroke:#6e6e6e;stroke-linecap:round;stroke-width:1.5;"/>
   </g>
   <g id="patch_15">
    <path d="M 101.360938 831.547266 
L 101.360938 16.147266 
" style="fill:none;stroke:#262626;stroke-linecap:square;stroke-linejoin:miter;stroke-width:1.25;"/>
   </g>
   <g id="patch_16">
    <path d="M 938.360937 831.547266 
L 938.360937 16.147266 
" style="fill:none;stroke:#262626;stroke-linecap:square;stroke-linejoin:miter;stroke-width:1.25;"/>
   </g>
   <g id="patch_17">
    <path d="M 101.360938 831.547266 
L 938.360937 831.547266 
" style="fill:none;stroke:#262626;stroke-linecap:square;stroke-linejoin:miter;stroke-width:1.25;"/>
   </g>
   <g id="patch_18">
    <path d="M 101.360938 16.147266 
L 938.360937 16.147266 
" style="fill:none;stroke:#262626;stroke-linecap:square;stroke-linejoin:miter;stroke-width:1.25;"/>
   </g>
   <g id="legend_1">
    <g id="patch_19">
     <path d="M 122.360938 816.547266 
L 434.314062 816.547266 
Q 440.314062 816.547266 440.314062 810.547266 
L 440.314062 686.239453 
Q 440.314062 680.239453 434.314062 680.239453 
L 122.360938 680.239453 
Q 116.360938 680.239453 116.360938 686.239453 
L 116.360938 810.547266 
Q 116.360938 816.547266 122.360938 816.547266 
z
" style="fill:#ffffff;opacity:0.8;stroke:#cccccc;stroke-linejoin:miter;"/>
    </g>
    <g id="patch_20">
     <path d="M 128.360938 713.712891 
L 188.360938 713.712891 
L 188.360938 692.712891 
L 128.360938 692.712891 
z
" style="fill:#9cd2bf;stroke:#6e6e6e;stroke-linejoin:miter;stroke-width:0.75;"/>
    </g>
    <g id="text_15">
     <!-- Concat -->
     <g style="fill:#262626;" transform="translate(212.360938 713.712891)scale(0.3 -0.3)">
      <use xlink:href="#ArialMT-43"/>
      <use x="72.216797" xlink:href="#ArialMT-6f"/>
      <use x="127.832031" xlink:href="#ArialMT-6e"/>
      <use x="183.447266" xlink:href="#ArialMT-63"/>
      <use x="233.447266" xlink:href="#ArialMT-61"/>
      <use x="289.0625" xlink:href="#ArialMT-74"/>
     </g>
    </g>
    <g id="patch_21">
     <path d="M 128.360938 756.148828 
L 188.360938 756.148828 
L 188.360938 735.148828 
L 128.360938 735.148828 
z
" style="fill:#d2a0d2;stroke:#6e6e6e;stroke-linejoin:miter;stroke-width:0.75;"/>
    </g>
    <g id="text_16">
     <!-- Product -->
     <g style="fill:#262626;" transform="translate(212.360938 756.148828)scale(0.3 -0.3)">
      <defs>
       <path d="M 2575 0 
L 2575 419 
Q 2259 -75 1647 -75 
Q 1250 -75 917 144 
Q 584 363 401 755 
Q 219 1147 219 1656 
Q 219 2153 384 2558 
Q 550 2963 881 3178 
Q 1213 3394 1622 3394 
Q 1922 3394 2156 3267 
Q 2391 3141 2538 2938 
L 2538 4581 
L 3097 4581 
L 3097 0 
L 2575 0 
z
M 797 1656 
Q 797 1019 1065 703 
Q 1334 388 1700 388 
Q 2069 388 2326 689 
Q 2584 991 2584 1609 
Q 2584 2291 2321 2609 
Q 2059 2928 1675 2928 
Q 1300 2928 1048 2622 
Q 797 2316 797 1656 
z
" id="ArialMT-64" transform="scale(0.015625)"/>
       <path d="M 2597 0 
L 2597 488 
Q 2209 -75 1544 -75 
Q 1250 -75 995 37 
Q 741 150 617 320 
Q 494 491 444 738 
Q 409 903 409 1263 
L 409 3319 
L 972 3319 
L 972 1478 
Q 972 1038 1006 884 
Q 1059 663 1231 536 
Q 1403 409 1656 409 
Q 1909 409 2131 539 
Q 2353 669 2445 892 
Q 2538 1116 2538 1541 
L 2538 3319 
L 3100 3319 
L 3100 0 
L 2597 0 
z
" id="ArialMT-75" transform="scale(0.015625)"/>
      </defs>
      <use xlink:href="#ArialMT-50"/>
      <use x="66.699219" xlink:href="#ArialMT-72"/>
      <use x="100" xlink:href="#ArialMT-6f"/>
      <use x="155.615234" xlink:href="#ArialMT-64"/>
      <use x="211.230469" xlink:href="#ArialMT-75"/>
      <use x="266.845703" xlink:href="#ArialMT-63"/>
      <use x="316.845703" xlink:href="#ArialMT-74"/>
     </g>
    </g>
    <g id="patch_22">
     <path d="M 128.360938 798.584766 
L 188.360938 798.584766 
L 188.360938 777.584766 
L 128.360938 777.584766 
z
" style="fill:#a2b9d1;stroke:#6e6e6e;stroke-linejoin:miter;stroke-width:0.75;"/>
    </g>
    <g id="text_17">
     <!-- Concat+Product -->
     <g style="fill:#262626;" transform="translate(212.360938 798.584766)scale(0.3 -0.3)">
      <defs>
       <path d="M 1603 741 
L 1603 1997 
L 356 1997 
L 356 2522 
L 1603 2522 
L 1603 3769 
L 2134 3769 
L 2134 2522 
L 3381 2522 
L 3381 1997 
L 2134 1997 
L 2134 741 
L 1603 741 
z
" id="ArialMT-2b" transform="scale(0.015625)"/>
      </defs>
      <use xlink:href="#ArialMT-43"/>
      <use x="72.216797" xlink:href="#ArialMT-6f"/>
      <use x="127.832031" xlink:href="#ArialMT-6e"/>
      <use x="183.447266" xlink:href="#ArialMT-63"/>
      <use x="233.447266" xlink:href="#ArialMT-61"/>
      <use x="289.0625" xlink:href="#ArialMT-74"/>
      <use x="316.845703" xlink:href="#ArialMT-2b"/>
      <use x="375.244141" xlink:href="#ArialMT-50"/>
      <use x="441.943359" xlink:href="#ArialMT-72"/>
      <use x="475.244141" xlink:href="#ArialMT-6f"/>
      <use x="530.859375" xlink:href="#ArialMT-64"/>
      <use x="586.474609" xlink:href="#ArialMT-75"/>
      <use x="642.089844" xlink:href="#ArialMT-63"/>
      <use x="692.089844" xlink:href="#ArialMT-74"/>
     </g>
    </g>
   </g>
  </g>
  <g id="axes_2">
   <g id="matplotlib.axis_3">
    <g id="ytick_9">
     <g id="line2d_67">
      <defs>
       <path d="M 0 0 
L 6 0 
" id="m7c2d1a1b9b" style="stroke:#262626;stroke-width:1.25;"/>
      </defs>
      <g>
       <use style="fill:#262626;stroke:#262626;stroke-width:1.25;" x="938.360937" xlink:href="#m7c2d1a1b9b" y="831.547266"/>
      </g>
     </g>
     <g id="text_18">
      <!-- 0.30 -->
      <g style="fill:#262626;" transform="translate(947.860937 840.494531)scale(0.25 -0.25)">
       <defs>
        <path d="M 269 1209 
L 831 1284 
Q 928 806 1161 595 
Q 1394 384 1728 384 
Q 2125 384 2398 659 
Q 2672 934 2672 1341 
Q 2672 1728 2419 1979 
Q 2166 2231 1775 2231 
Q 1616 2231 1378 2169 
L 1441 2663 
Q 1497 2656 1531 2656 
Q 1891 2656 2178 2843 
Q 2466 3031 2466 3422 
Q 2466 3731 2256 3934 
Q 2047 4138 1716 4138 
Q 1388 4138 1169 3931 
Q 950 3725 888 3313 
L 325 3413 
Q 428 3978 793 4289 
Q 1159 4600 1703 4600 
Q 2078 4600 2393 4439 
Q 2709 4278 2876 4000 
Q 3044 3722 3044 3409 
Q 3044 3113 2884 2869 
Q 2725 2625 2413 2481 
Q 2819 2388 3044 2092 
Q 3269 1797 3269 1353 
Q 3269 753 2831 336 
Q 2394 -81 1725 -81 
Q 1122 -81 723 278 
Q 325 638 269 1209 
z
" id="ArialMT-33" transform="scale(0.015625)"/>
       </defs>
       <use xlink:href="#ArialMT-30"/>
       <use x="55.615234" xlink:href="#ArialMT-2e"/>
       <use x="83.398438" xlink:href="#ArialMT-33"/>
       <use x="139.013672" xlink:href="#ArialMT-30"/>
      </g>
     </g>
    </g>
    <g id="ytick_10">
     <g id="line2d_68">
      <g>
       <use style="fill:#262626;stroke:#262626;stroke-width:1.25;" x="938.360937" xlink:href="#m7c2d1a1b9b" y="715.061551"/>
      </g>
     </g>
     <g id="text_19">
      <!-- 0.35 -->
      <g style="fill:#262626;" transform="translate(947.860937 724.008817)scale(0.25 -0.25)">
       <use xlink:href="#ArialMT-30"/>
       <use x="55.615234" xlink:href="#ArialMT-2e"/>
       <use x="83.398438" xlink:href="#ArialMT-33"/>
       <use x="139.013672" xlink:href="#ArialMT-35"/>
      </g>
     </g>
    </g>
    <g id="ytick_11">
     <g id="line2d_69">
      <g>
       <use style="fill:#262626;stroke:#262626;stroke-width:1.25;" x="938.360937" xlink:href="#m7c2d1a1b9b" y="598.575837"/>
      </g>
     </g>
     <g id="text_20">
      <!-- 0.40 -->
      <g style="fill:#262626;" transform="translate(947.860937 607.523103)scale(0.25 -0.25)">
       <defs>
        <path d="M 2069 0 
L 2069 1097 
L 81 1097 
L 81 1613 
L 2172 4581 
L 2631 4581 
L 2631 1613 
L 3250 1613 
L 3250 1097 
L 2631 1097 
L 2631 0 
L 2069 0 
z
M 2069 1613 
L 2069 3678 
L 634 1613 
L 2069 1613 
z
" id="ArialMT-34" transform="scale(0.015625)"/>
       </defs>
       <use xlink:href="#ArialMT-30"/>
       <use x="55.615234" xlink:href="#ArialMT-2e"/>
       <use x="83.398438" xlink:href="#ArialMT-34"/>
       <use x="139.013672" xlink:href="#ArialMT-30"/>
      </g>
     </g>
    </g>
    <g id="ytick_12">
     <g id="line2d_70">
      <g>
       <use style="fill:#262626;stroke:#262626;stroke-width:1.25;" x="938.360937" xlink:href="#m7c2d1a1b9b" y="482.090123"/>
      </g>
     </g>
     <g id="text_21">
      <!-- 0.45 -->
      <g style="fill:#262626;" transform="translate(947.860937 491.037388)scale(0.25 -0.25)">
       <use xlink:href="#ArialMT-30"/>
       <use x="55.615234" xlink:href="#ArialMT-2e"/>
       <use x="83.398438" xlink:href="#ArialMT-34"/>
       <use x="139.013672" xlink:href="#ArialMT-35"/>
      </g>
     </g>
    </g>
    <g id="ytick_13">
     <g id="line2d_71">
      <g>
       <use style="fill:#262626;stroke:#262626;stroke-width:1.25;" x="938.360937" xlink:href="#m7c2d1a1b9b" y="365.604408"/>
      </g>
     </g>
     <g id="text_22">
      <!-- 0.50 -->
      <g style="fill:#262626;" transform="translate(947.860937 374.551674)scale(0.25 -0.25)">
       <use xlink:href="#ArialMT-30"/>
       <use x="55.615234" xlink:href="#ArialMT-2e"/>
       <use x="83.398438" xlink:href="#ArialMT-35"/>
       <use x="139.013672" xlink:href="#ArialMT-30"/>
      </g>
     </g>
    </g>
    <g id="ytick_14">
     <g id="line2d_72">
      <g>
       <use style="fill:#262626;stroke:#262626;stroke-width:1.25;" x="938.360937" xlink:href="#m7c2d1a1b9b" y="249.118694"/>
      </g>
     </g>
     <g id="text_23">
      <!-- 0.55 -->
      <g style="fill:#262626;" transform="translate(947.860937 258.06596)scale(0.25 -0.25)">
       <use xlink:href="#ArialMT-30"/>
       <use x="55.615234" xlink:href="#ArialMT-2e"/>
       <use x="83.398438" xlink:href="#ArialMT-35"/>
       <use x="139.013672" xlink:href="#ArialMT-35"/>
      </g>
     </g>
    </g>
    <g id="ytick_15">
     <g id="line2d_73">
      <g>
       <use style="fill:#262626;stroke:#262626;stroke-width:1.25;" x="938.360937" xlink:href="#m7c2d1a1b9b" y="132.63298"/>
      </g>
     </g>
     <g id="text_24">
      <!-- 0.60 -->
      <g style="fill:#262626;" transform="translate(947.860937 141.580246)scale(0.25 -0.25)">
       <use xlink:href="#ArialMT-30"/>
       <use x="55.615234" xlink:href="#ArialMT-2e"/>
       <use x="83.398438" xlink:href="#ArialMT-36"/>
       <use x="139.013672" xlink:href="#ArialMT-30"/>
      </g>
     </g>
    </g>
    <g id="ytick_16">
     <g id="line2d_74">
      <g>
       <use style="fill:#262626;stroke:#262626;stroke-width:1.25;" x="938.360937" xlink:href="#m7c2d1a1b9b" y="16.147266"/>
      </g>
     </g>
     <g id="text_25">
      <!-- 0.65 -->
      <g style="fill:#262626;" transform="translate(947.860937 25.094531)scale(0.25 -0.25)">
       <use xlink:href="#ArialMT-30"/>
       <use x="55.615234" xlink:href="#ArialMT-2e"/>
       <use x="83.398438" xlink:href="#ArialMT-36"/>
       <use x="139.013672" xlink:href="#ArialMT-35"/>
      </g>
     </g>
    </g>
   </g>
   <g id="patch_23">
    <path clip-path="url(#p5dee095463)" d="M 750.593938 465.759478 
L 805.277938 465.759478 
L 805.277938 396.618029 
L 750.593938 396.618029 
L 750.593938 465.759478 
z
" style="fill:#9cd2bf;stroke:#6e6e6e;stroke-linejoin:miter;stroke-width:1.5;"/>
   </g>
   <g id="patch_24">
    <path clip-path="url(#p5dee095463)" d="M 806.393937 477.432522 
L 861.077937 477.432522 
L 861.077937 368.933705 
L 806.393937 368.933705 
L 806.393937 477.432522 
z
" style="fill:#d2a0d2;stroke:#6e6e6e;stroke-linejoin:miter;stroke-width:1.5;"/>
   </g>
   <g id="patch_25">
    <path clip-path="url(#p5dee095463)" d="M 862.193937 478.654788 
L 916.877937 478.654788 
L 916.877937 396.432059 
L 862.193937 396.432059 
L 862.193937 478.654788 
z
" style="fill:#a2b9d1;stroke:#6e6e6e;stroke-linejoin:miter;stroke-width:1.5;"/>
   </g>
   <g id="patch_26">
    <path clip-path="url(#p5dee095463)" d="M 205.985938 1530.461551 
L 205.985938 1530.461551 
L 205.985938 1530.461551 
L 205.985938 1530.461551 
z
" style="fill:#9cd2bf;stroke:#6e6e6e;stroke-linejoin:miter;stroke-width:0.75;"/>
   </g>
   <g id="patch_27">
    <path clip-path="url(#p5dee095463)" d="M 205.985938 1530.461551 
L 205.985938 1530.461551 
L 205.985938 1530.461551 
L 205.985938 1530.461551 
z
" style="fill:#d2a0d2;stroke:#6e6e6e;stroke-linejoin:miter;stroke-width:0.75;"/>
   </g>
   <g id="patch_28">
    <path clip-path="url(#p5dee095463)" d="M 205.985938 1530.461551 
L 205.985938 1530.461551 
L 205.985938 1530.461551 
L 205.985938 1530.461551 
z
" style="fill:#a2b9d1;stroke:#6e6e6e;stroke-linejoin:miter;stroke-width:0.75;"/>
   </g>
   <g id="line2d_75">
    <path clip-path="url(#p5dee095463)" d="M 777.935938 465.759478 
L 777.935938 505.416616 
" style="fill:none;stroke:#6e6e6e;stroke-linecap:round;stroke-width:1.5;"/>
   </g>
   <g id="line2d_76">
    <path clip-path="url(#p5dee095463)" d="M 777.935938 396.618029 
L 777.935938 327.639887 
" style="fill:none;stroke:#6e6e6e;stroke-linecap:round;stroke-width:1.5;"/>
   </g>
   <g id="line2d_77">
    <path clip-path="url(#p5dee095463)" d="M 764.264937 505.416616 
L 791.606937 505.416616 
" style="fill:none;stroke:#6e6e6e;stroke-linecap:round;stroke-width:1.5;"/>
   </g>
   <g id="line2d_78">
    <path clip-path="url(#p5dee095463)" d="M 764.264937 327.639887 
L 791.606937 327.639887 
" style="fill:none;stroke:#6e6e6e;stroke-linecap:round;stroke-width:1.5;"/>
   </g>
   <g id="line2d_79"/>
   <g id="line2d_80">
    <path clip-path="url(#p5dee095463)" d="M 833.735937 477.432522 
L 833.735937 525.735673 
" style="fill:none;stroke:#6e6e6e;stroke-linecap:round;stroke-width:1.5;"/>
   </g>
   <g id="line2d_81">
    <path clip-path="url(#p5dee095463)" d="M 833.735937 368.933705 
L 833.735937 296.959244 
" style="fill:none;stroke:#6e6e6e;stroke-linecap:round;stroke-width:1.5;"/>
   </g>
   <g id="line2d_82">
    <path clip-path="url(#p5dee095463)" d="M 820.064938 525.735673 
L 847.406937 525.735673 
" style="fill:none;stroke:#6e6e6e;stroke-linecap:round;stroke-width:1.5;"/>
   </g>
   <g id="line2d_83">
    <path clip-path="url(#p5dee095463)" d="M 820.064938 296.959244 
L 847.406937 296.959244 
" style="fill:none;stroke:#6e6e6e;stroke-linecap:round;stroke-width:1.5;"/>
   </g>
   <g id="line2d_84"/>
   <g id="line2d_85">
    <path clip-path="url(#p5dee095463)" d="M 889.535937 478.654788 
L 889.535937 591.511007 
" style="fill:none;stroke:#6e6e6e;stroke-linecap:round;stroke-width:1.5;"/>
   </g>
   <g id="line2d_86">
    <path clip-path="url(#p5dee095463)" d="M 889.535937 396.432059 
L 889.535937 317.037466 
" style="fill:none;stroke:#6e6e6e;stroke-linecap:round;stroke-width:1.5;"/>
   </g>
   <g id="line2d_87">
    <path clip-path="url(#p5dee095463)" d="M 875.864937 591.511007 
L 903.206937 591.511007 
" style="fill:none;stroke:#6e6e6e;stroke-linecap:round;stroke-width:1.5;"/>
   </g>
   <g id="line2d_88">
    <path clip-path="url(#p5dee095463)" d="M 875.864937 317.037466 
L 903.206937 317.037466 
" style="fill:none;stroke:#6e6e6e;stroke-linecap:round;stroke-width:1.5;"/>
   </g>
   <g id="line2d_89"/>
   <g id="line2d_90">
    <path clip-path="url(#p5dee095463)" d="M 750.593938 435.314408 
L 805.277938 435.314408 
" style="fill:none;stroke:#6e6e6e;stroke-linecap:round;stroke-width:1.5;"/>
   </g>
   <g id="line2d_91">
    <path clip-path="url(#p5dee095463)" d="M 806.393937 417.538153 
L 861.077937 417.538153 
" style="fill:none;stroke:#6e6e6e;stroke-linecap:round;stroke-width:1.5;"/>
   </g>
   <g id="line2d_92">
    <path clip-path="url(#p5dee095463)" d="M 862.193937 445.355543 
L 916.877937 445.355543 
" style="fill:none;stroke:#6e6e6e;stroke-linecap:round;stroke-width:1.5;"/>
   </g>
   <g id="patch_29">
    <path d="M 101.360938 831.547266 
L 101.360938 16.147266 
" style="fill:none;stroke:#262626;stroke-linecap:square;stroke-linejoin:miter;stroke-width:1.25;"/>
   </g>
   <g id="patch_30">
    <path d="M 938.360937 831.547266 
L 938.360937 16.147266 
" style="fill:none;stroke:#262626;stroke-linecap:square;stroke-linejoin:miter;stroke-width:1.25;"/>
   </g>
   <g id="patch_31">
    <path d="M 101.360938 831.547266 
L 938.360937 831.547266 
" style="fill:none;stroke:#262626;stroke-linecap:square;stroke-linejoin:miter;stroke-width:1.25;"/>
   </g>
   <g id="patch_32">
    <path d="M 101.360938 16.147266 
L 938.360937 16.147266 
" style="fill:none;stroke:#262626;stroke-linecap:square;stroke-linejoin:miter;stroke-width:1.25;"/>
   </g>
  </g>
 </g>
 <defs>
  <clipPath id="p5dee095463">
   <rect height="815.4" width="837" x="101.360938" y="16.147266"/>
  </clipPath>
 </defs>
</svg>
