<?xml version="1.0" encoding="utf-8" standalone="no"?>
<!DOCTYPE svg PUBLIC "-//W3C//DTD SVG 1.1//EN"
  "http://www.w3.org/Graphics/SVG/1.1/DTD/svg11.dtd">
<svg height="905.890312pt" version="1.1" viewBox="0 0 942.778594 905.890312" width="942.778594pt" xmlns="http://www.w3.org/2000/svg" xmlns:xlink="http://www.w3.org/1999/xlink">
 <metadata>
  <rdf:RDF xmlns:cc="http://creativecommons.org/ns#" xmlns:dc="http://purl.org/dc/elements/1.1/" xmlns:rdf="http://www.w3.org/1999/02/22-rdf-syntax-ns#">
   <cc:Work>
    <dc:type rdf:resource="http://purl.org/dc/dcmitype/StillImage"/>
    <dc:date>2023-03-23T12:43:10.253452</dc:date>
    <dc:format>image/svg+xml</dc:format>
    <dc:creator>
     <cc:Agent>
      <dc:title>Matplotlib v3.4.3, https://matplotlib.org/</dc:title>
     </cc:Agent>
    </dc:creator>
   </cc:Work>
  </rdf:RDF>
 </metadata>
 <defs>
  <style type="text/css">*{stroke-linecap:butt;stroke-linejoin:round;}</style>
 </defs>
 <g id="figure_1">
  <g id="patch_1">
   <path d="M 0 905.890312 
L 942.778594 905.890312 
L 942.778594 -0 
L 0 -0 
z
" style="fill:#ffffff;"/>
  </g>
  <g id="axes_1">
   <g id="patch_2">
    <path d="M 98.578594 822.6 
L 935.578594 822.6 
L 935.578594 7.2 
L 98.578594 7.2 
z
" style="fill:#ffffff;"/>
   </g>
   <g id="matplotlib.axis_1">
    <g id="xtick_1">
     <g id="text_1">
      <!-- CI -->
      <g style="fill:#262626;" transform="translate(186.703594 855.720781)scale(0.33 -0.33)">
       <defs>
        <path d="M 3763 1606 
L 4369 1453 
Q 4178 706 3683 314 
Q 3188 -78 2472 -78 
Q 1731 -78 1267 223 
Q 803 525 561 1097 
Q 319 1669 319 2325 
Q 319 3041 592 3573 
Q 866 4106 1370 4382 
Q 1875 4659 2481 4659 
Q 3169 4659 3637 4309 
Q 4106 3959 4291 3325 
L 3694 3184 
Q 3534 3684 3231 3912 
Q 2928 4141 2469 4141 
Q 1941 4141 1586 3887 
Q 1231 3634 1087 3207 
Q 944 2781 944 2328 
Q 944 1744 1114 1308 
Q 1284 872 1643 656 
Q 2003 441 2422 441 
Q 2931 441 3284 734 
Q 3638 1028 3763 1606 
z
" id="ArialMT-43" transform="scale(0.015625)"/>
        <path d="M 597 0 
L 597 4581 
L 1203 4581 
L 1203 0 
L 597 0 
z
" id="ArialMT-49" transform="scale(0.015625)"/>
       </defs>
       <use xlink:href="#ArialMT-43"/>
       <use x="72.216797" xlink:href="#ArialMT-49"/>
      </g>
     </g>
    </g>
    <g id="xtick_2">
     <g id="text_2">
      <!-- Pearson -->
      <g style="fill:#262626;" transform="translate(351.001406 855.720781)scale(0.33 -0.33)">
       <defs>
        <path d="M 494 0 
L 494 4581 
L 2222 4581 
Q 2678 4581 2919 4538 
Q 3256 4481 3484 4323 
Q 3713 4166 3852 3881 
Q 3991 3597 3991 3256 
Q 3991 2672 3619 2267 
Q 3247 1863 2275 1863 
L 1100 1863 
L 1100 0 
L 494 0 
z
M 1100 2403 
L 2284 2403 
Q 2872 2403 3119 2622 
Q 3366 2841 3366 3238 
Q 3366 3525 3220 3729 
Q 3075 3934 2838 4000 
Q 2684 4041 2272 4041 
L 1100 4041 
L 1100 2403 
z
" id="ArialMT-50" transform="scale(0.015625)"/>
        <path d="M 2694 1069 
L 3275 997 
Q 3138 488 2766 206 
Q 2394 -75 1816 -75 
Q 1088 -75 661 373 
Q 234 822 234 1631 
Q 234 2469 665 2931 
Q 1097 3394 1784 3394 
Q 2450 3394 2872 2941 
Q 3294 2488 3294 1666 
Q 3294 1616 3291 1516 
L 816 1516 
Q 847 969 1125 678 
Q 1403 388 1819 388 
Q 2128 388 2347 550 
Q 2566 713 2694 1069 
z
M 847 1978 
L 2700 1978 
Q 2663 2397 2488 2606 
Q 2219 2931 1791 2931 
Q 1403 2931 1139 2672 
Q 875 2413 847 1978 
z
" id="ArialMT-65" transform="scale(0.015625)"/>
        <path d="M 2588 409 
Q 2275 144 1986 34 
Q 1697 -75 1366 -75 
Q 819 -75 525 192 
Q 231 459 231 875 
Q 231 1119 342 1320 
Q 453 1522 633 1644 
Q 813 1766 1038 1828 
Q 1203 1872 1538 1913 
Q 2219 1994 2541 2106 
Q 2544 2222 2544 2253 
Q 2544 2597 2384 2738 
Q 2169 2928 1744 2928 
Q 1347 2928 1158 2789 
Q 969 2650 878 2297 
L 328 2372 
Q 403 2725 575 2942 
Q 747 3159 1072 3276 
Q 1397 3394 1825 3394 
Q 2250 3394 2515 3294 
Q 2781 3194 2906 3042 
Q 3031 2891 3081 2659 
Q 3109 2516 3109 2141 
L 3109 1391 
Q 3109 606 3145 398 
Q 3181 191 3288 0 
L 2700 0 
Q 2613 175 2588 409 
z
M 2541 1666 
Q 2234 1541 1622 1453 
Q 1275 1403 1131 1340 
Q 988 1278 909 1158 
Q 831 1038 831 891 
Q 831 666 1001 516 
Q 1172 366 1500 366 
Q 1825 366 2078 508 
Q 2331 650 2450 897 
Q 2541 1088 2541 1459 
L 2541 1666 
z
" id="ArialMT-61" transform="scale(0.015625)"/>
        <path d="M 416 0 
L 416 3319 
L 922 3319 
L 922 2816 
Q 1116 3169 1280 3281 
Q 1444 3394 1641 3394 
Q 1925 3394 2219 3213 
L 2025 2691 
Q 1819 2813 1613 2813 
Q 1428 2813 1281 2702 
Q 1134 2591 1072 2394 
Q 978 2094 978 1738 
L 978 0 
L 416 0 
z
" id="ArialMT-72" transform="scale(0.015625)"/>
        <path d="M 197 991 
L 753 1078 
Q 800 744 1014 566 
Q 1228 388 1613 388 
Q 2000 388 2187 545 
Q 2375 703 2375 916 
Q 2375 1106 2209 1216 
Q 2094 1291 1634 1406 
Q 1016 1563 777 1677 
Q 538 1791 414 1992 
Q 291 2194 291 2438 
Q 291 2659 392 2848 
Q 494 3038 669 3163 
Q 800 3259 1026 3326 
Q 1253 3394 1513 3394 
Q 1903 3394 2198 3281 
Q 2494 3169 2634 2976 
Q 2775 2784 2828 2463 
L 2278 2388 
Q 2241 2644 2061 2787 
Q 1881 2931 1553 2931 
Q 1166 2931 1000 2803 
Q 834 2675 834 2503 
Q 834 2394 903 2306 
Q 972 2216 1119 2156 
Q 1203 2125 1616 2013 
Q 2213 1853 2448 1751 
Q 2684 1650 2818 1456 
Q 2953 1263 2953 975 
Q 2953 694 2789 445 
Q 2625 197 2315 61 
Q 2006 -75 1616 -75 
Q 969 -75 630 194 
Q 291 463 197 991 
z
" id="ArialMT-73" transform="scale(0.015625)"/>
        <path d="M 213 1659 
Q 213 2581 725 3025 
Q 1153 3394 1769 3394 
Q 2453 3394 2887 2945 
Q 3322 2497 3322 1706 
Q 3322 1066 3130 698 
Q 2938 331 2570 128 
Q 2203 -75 1769 -75 
Q 1072 -75 642 372 
Q 213 819 213 1659 
z
M 791 1659 
Q 791 1022 1069 705 
Q 1347 388 1769 388 
Q 2188 388 2466 706 
Q 2744 1025 2744 1678 
Q 2744 2294 2464 2611 
Q 2184 2928 1769 2928 
Q 1347 2928 1069 2612 
Q 791 2297 791 1659 
z
" id="ArialMT-6f" transform="scale(0.015625)"/>
        <path d="M 422 0 
L 422 3319 
L 928 3319 
L 928 2847 
Q 1294 3394 1984 3394 
Q 2284 3394 2536 3286 
Q 2788 3178 2913 3003 
Q 3038 2828 3088 2588 
Q 3119 2431 3119 2041 
L 3119 0 
L 2556 0 
L 2556 2019 
Q 2556 2363 2490 2533 
Q 2425 2703 2258 2804 
Q 2091 2906 1866 2906 
Q 1506 2906 1245 2678 
Q 984 2450 984 1813 
L 984 0 
L 422 0 
z
" id="ArialMT-6e" transform="scale(0.015625)"/>
       </defs>
       <use xlink:href="#ArialMT-50"/>
       <use x="66.699219" xlink:href="#ArialMT-65"/>
       <use x="122.314453" xlink:href="#ArialMT-61"/>
       <use x="177.929688" xlink:href="#ArialMT-72"/>
       <use x="211.230469" xlink:href="#ArialMT-73"/>
       <use x="261.230469" xlink:href="#ArialMT-6f"/>
       <use x="316.845703" xlink:href="#ArialMT-6e"/>
      </g>
     </g>
    </g>
    <g id="xtick_3">
     <g id="text_3">
      <!-- Spearman -->
      <g style="fill:#262626;" transform="translate(545.581875 856.122969)scale(0.33 -0.33)">
       <defs>
        <path d="M 288 1472 
L 859 1522 
Q 900 1178 1048 958 
Q 1197 738 1509 602 
Q 1822 466 2213 466 
Q 2559 466 2825 569 
Q 3091 672 3220 851 
Q 3350 1031 3350 1244 
Q 3350 1459 3225 1620 
Q 3100 1781 2813 1891 
Q 2628 1963 1997 2114 
Q 1366 2266 1113 2400 
Q 784 2572 623 2826 
Q 463 3081 463 3397 
Q 463 3744 659 4045 
Q 856 4347 1234 4503 
Q 1613 4659 2075 4659 
Q 2584 4659 2973 4495 
Q 3363 4331 3572 4012 
Q 3781 3694 3797 3291 
L 3216 3247 
Q 3169 3681 2898 3903 
Q 2628 4125 2100 4125 
Q 1550 4125 1298 3923 
Q 1047 3722 1047 3438 
Q 1047 3191 1225 3031 
Q 1400 2872 2139 2705 
Q 2878 2538 3153 2413 
Q 3553 2228 3743 1945 
Q 3934 1663 3934 1294 
Q 3934 928 3725 604 
Q 3516 281 3123 101 
Q 2731 -78 2241 -78 
Q 1619 -78 1198 103 
Q 778 284 539 648 
Q 300 1013 288 1472 
z
" id="ArialMT-53" transform="scale(0.015625)"/>
        <path d="M 422 -1272 
L 422 3319 
L 934 3319 
L 934 2888 
Q 1116 3141 1344 3267 
Q 1572 3394 1897 3394 
Q 2322 3394 2647 3175 
Q 2972 2956 3137 2557 
Q 3303 2159 3303 1684 
Q 3303 1175 3120 767 
Q 2938 359 2589 142 
Q 2241 -75 1856 -75 
Q 1575 -75 1351 44 
Q 1128 163 984 344 
L 984 -1272 
L 422 -1272 
z
M 931 1641 
Q 931 1000 1190 694 
Q 1450 388 1819 388 
Q 2194 388 2461 705 
Q 2728 1022 2728 1688 
Q 2728 2322 2467 2637 
Q 2206 2953 1844 2953 
Q 1484 2953 1207 2617 
Q 931 2281 931 1641 
z
" id="ArialMT-70" transform="scale(0.015625)"/>
        <path d="M 422 0 
L 422 3319 
L 925 3319 
L 925 2853 
Q 1081 3097 1340 3245 
Q 1600 3394 1931 3394 
Q 2300 3394 2536 3241 
Q 2772 3088 2869 2813 
Q 3263 3394 3894 3394 
Q 4388 3394 4653 3120 
Q 4919 2847 4919 2278 
L 4919 0 
L 4359 0 
L 4359 2091 
Q 4359 2428 4304 2576 
Q 4250 2725 4106 2815 
Q 3963 2906 3769 2906 
Q 3419 2906 3187 2673 
Q 2956 2441 2956 1928 
L 2956 0 
L 2394 0 
L 2394 2156 
Q 2394 2531 2256 2718 
Q 2119 2906 1806 2906 
Q 1569 2906 1367 2781 
Q 1166 2656 1075 2415 
Q 984 2175 984 1722 
L 984 0 
L 422 0 
z
" id="ArialMT-6d" transform="scale(0.015625)"/>
       </defs>
       <use xlink:href="#ArialMT-53"/>
       <use x="66.699219" xlink:href="#ArialMT-70"/>
       <use x="122.314453" xlink:href="#ArialMT-65"/>
       <use x="177.929688" xlink:href="#ArialMT-61"/>
       <use x="233.544922" xlink:href="#ArialMT-72"/>
       <use x="266.845703" xlink:href="#ArialMT-6d"/>
       <use x="350.146484" xlink:href="#ArialMT-61"/>
       <use x="405.761719" xlink:href="#ArialMT-6e"/>
      </g>
     </g>
    </g>
    <g id="xtick_4">
     <g id="text_4">
      <!-- RMSE -->
      <g style="fill:#262626;" transform="translate(783.281484 855.720781)scale(0.33 -0.33)">
       <defs>
        <path d="M 503 0 
L 503 4581 
L 2534 4581 
Q 3147 4581 3465 4457 
Q 3784 4334 3975 4021 
Q 4166 3709 4166 3331 
Q 4166 2844 3850 2509 
Q 3534 2175 2875 2084 
Q 3116 1969 3241 1856 
Q 3506 1613 3744 1247 
L 4541 0 
L 3778 0 
L 3172 953 
Q 2906 1366 2734 1584 
Q 2563 1803 2427 1890 
Q 2291 1978 2150 2013 
Q 2047 2034 1813 2034 
L 1109 2034 
L 1109 0 
L 503 0 
z
M 1109 2559 
L 2413 2559 
Q 2828 2559 3062 2645 
Q 3297 2731 3419 2920 
Q 3541 3109 3541 3331 
Q 3541 3656 3305 3865 
Q 3069 4075 2559 4075 
L 1109 4075 
L 1109 2559 
z
" id="ArialMT-52" transform="scale(0.015625)"/>
        <path d="M 475 0 
L 475 4581 
L 1388 4581 
L 2472 1338 
Q 2622 884 2691 659 
Q 2769 909 2934 1394 
L 4031 4581 
L 4847 4581 
L 4847 0 
L 4263 0 
L 4263 3834 
L 2931 0 
L 2384 0 
L 1059 3900 
L 1059 0 
L 475 0 
z
" id="ArialMT-4d" transform="scale(0.015625)"/>
        <path d="M 506 0 
L 506 4581 
L 3819 4581 
L 3819 4041 
L 1113 4041 
L 1113 2638 
L 3647 2638 
L 3647 2100 
L 1113 2100 
L 1113 541 
L 3925 541 
L 3925 0 
L 506 0 
z
" id="ArialMT-45" transform="scale(0.015625)"/>
       </defs>
       <use xlink:href="#ArialMT-52"/>
       <use x="72.216797" xlink:href="#ArialMT-4d"/>
       <use x="155.517578" xlink:href="#ArialMT-53"/>
       <use x="222.216797" xlink:href="#ArialMT-45"/>
      </g>
     </g>
    </g>
    <g id="text_5">
     <!-- Metrics -->
     <g style="fill:#262626;" transform="translate(460.693047 891.734062)scale(0.35 -0.35)">
      <defs>
       <path d="M 1650 503 
L 1731 6 
Q 1494 -44 1306 -44 
Q 1000 -44 831 53 
Q 663 150 594 308 
Q 525 466 525 972 
L 525 2881 
L 113 2881 
L 113 3319 
L 525 3319 
L 525 4141 
L 1084 4478 
L 1084 3319 
L 1650 3319 
L 1650 2881 
L 1084 2881 
L 1084 941 
Q 1084 700 1114 631 
Q 1144 563 1211 522 
Q 1278 481 1403 481 
Q 1497 481 1650 503 
z
" id="ArialMT-74" transform="scale(0.015625)"/>
       <path d="M 425 3934 
L 425 4581 
L 988 4581 
L 988 3934 
L 425 3934 
z
M 425 0 
L 425 3319 
L 988 3319 
L 988 0 
L 425 0 
z
" id="ArialMT-69" transform="scale(0.015625)"/>
       <path d="M 2588 1216 
L 3141 1144 
Q 3050 572 2676 248 
Q 2303 -75 1759 -75 
Q 1078 -75 664 370 
Q 250 816 250 1647 
Q 250 2184 428 2587 
Q 606 2991 970 3192 
Q 1334 3394 1763 3394 
Q 2303 3394 2647 3120 
Q 2991 2847 3088 2344 
L 2541 2259 
Q 2463 2594 2264 2762 
Q 2066 2931 1784 2931 
Q 1359 2931 1093 2626 
Q 828 2322 828 1663 
Q 828 994 1084 691 
Q 1341 388 1753 388 
Q 2084 388 2306 591 
Q 2528 794 2588 1216 
z
" id="ArialMT-63" transform="scale(0.015625)"/>
      </defs>
      <use xlink:href="#ArialMT-4d"/>
      <use x="83.300781" xlink:href="#ArialMT-65"/>
      <use x="138.916016" xlink:href="#ArialMT-74"/>
      <use x="166.699219" xlink:href="#ArialMT-72"/>
      <use x="200" xlink:href="#ArialMT-69"/>
      <use x="222.216797" xlink:href="#ArialMT-63"/>
      <use x="272.216797" xlink:href="#ArialMT-73"/>
     </g>
    </g>
   </g>
   <g id="matplotlib.axis_2">
    <g id="ytick_1">
     <g id="text_6">
      <!-- 0.5 -->
      <g style="fill:#262626;" transform="translate(43.208594 682.263583)scale(0.33 -0.33)">
       <defs>
        <path d="M 266 2259 
Q 266 3072 433 3567 
Q 600 4063 929 4331 
Q 1259 4600 1759 4600 
Q 2128 4600 2406 4451 
Q 2684 4303 2865 4023 
Q 3047 3744 3150 3342 
Q 3253 2941 3253 2259 
Q 3253 1453 3087 958 
Q 2922 463 2592 192 
Q 2263 -78 1759 -78 
Q 1097 -78 719 397 
Q 266 969 266 2259 
z
M 844 2259 
Q 844 1131 1108 757 
Q 1372 384 1759 384 
Q 2147 384 2411 759 
Q 2675 1134 2675 2259 
Q 2675 3391 2411 3762 
Q 2147 4134 1753 4134 
Q 1366 4134 1134 3806 
Q 844 3388 844 2259 
z
" id="ArialMT-30" transform="scale(0.015625)"/>
        <path d="M 581 0 
L 581 641 
L 1222 641 
L 1222 0 
L 581 0 
z
" id="ArialMT-2e" transform="scale(0.015625)"/>
        <path d="M 266 1200 
L 856 1250 
Q 922 819 1161 601 
Q 1400 384 1738 384 
Q 2144 384 2425 690 
Q 2706 997 2706 1503 
Q 2706 1984 2436 2262 
Q 2166 2541 1728 2541 
Q 1456 2541 1237 2417 
Q 1019 2294 894 2097 
L 366 2166 
L 809 4519 
L 3088 4519 
L 3088 3981 
L 1259 3981 
L 1013 2750 
Q 1425 3038 1878 3038 
Q 2478 3038 2890 2622 
Q 3303 2206 3303 1553 
Q 3303 931 2941 478 
Q 2500 -78 1738 -78 
Q 1113 -78 717 272 
Q 322 622 266 1200 
z
" id="ArialMT-35" transform="scale(0.015625)"/>
       </defs>
       <use xlink:href="#ArialMT-30"/>
       <use x="55.615234" xlink:href="#ArialMT-2e"/>
       <use x="83.398438" xlink:href="#ArialMT-35"/>
      </g>
     </g>
    </g>
    <g id="ytick_2">
     <g id="text_7">
      <!-- 0.6 -->
      <g style="fill:#262626;" transform="translate(43.208594 509.672117)scale(0.33 -0.33)">
       <defs>
        <path d="M 3184 3459 
L 2625 3416 
Q 2550 3747 2413 3897 
Q 2184 4138 1850 4138 
Q 1581 4138 1378 3988 
Q 1113 3794 959 3422 
Q 806 3050 800 2363 
Q 1003 2672 1297 2822 
Q 1591 2972 1913 2972 
Q 2475 2972 2870 2558 
Q 3266 2144 3266 1488 
Q 3266 1056 3080 686 
Q 2894 316 2569 119 
Q 2244 -78 1831 -78 
Q 1128 -78 684 439 
Q 241 956 241 2144 
Q 241 3472 731 4075 
Q 1159 4600 1884 4600 
Q 2425 4600 2770 4297 
Q 3116 3994 3184 3459 
z
M 888 1484 
Q 888 1194 1011 928 
Q 1134 663 1356 523 
Q 1578 384 1822 384 
Q 2178 384 2434 671 
Q 2691 959 2691 1453 
Q 2691 1928 2437 2201 
Q 2184 2475 1800 2475 
Q 1419 2475 1153 2201 
Q 888 1928 888 1484 
z
" id="ArialMT-36" transform="scale(0.015625)"/>
       </defs>
       <use xlink:href="#ArialMT-30"/>
       <use x="55.615234" xlink:href="#ArialMT-2e"/>
       <use x="83.398438" xlink:href="#ArialMT-36"/>
      </g>
     </g>
    </g>
    <g id="ytick_3">
     <g id="text_8">
      <!-- 0.7 -->
      <g style="fill:#262626;" transform="translate(43.208594 337.08065)scale(0.33 -0.33)">
       <defs>
        <path d="M 303 3981 
L 303 4522 
L 3269 4522 
L 3269 4084 
Q 2831 3619 2401 2847 
Q 1972 2075 1738 1259 
Q 1569 684 1522 0 
L 944 0 
Q 953 541 1156 1306 
Q 1359 2072 1739 2783 
Q 2119 3494 2547 3981 
L 303 3981 
z
" id="ArialMT-37" transform="scale(0.015625)"/>
       </defs>
       <use xlink:href="#ArialMT-30"/>
       <use x="55.615234" xlink:href="#ArialMT-2e"/>
       <use x="83.398438" xlink:href="#ArialMT-37"/>
      </g>
     </g>
    </g>
    <g id="ytick_4">
     <g id="text_9">
      <!-- 0.8 -->
      <g style="fill:#262626;" transform="translate(43.208594 164.489184)scale(0.33 -0.33)">
       <defs>
        <path d="M 1131 2484 
Q 781 2613 612 2850 
Q 444 3088 444 3419 
Q 444 3919 803 4259 
Q 1163 4600 1759 4600 
Q 2359 4600 2725 4251 
Q 3091 3903 3091 3403 
Q 3091 3084 2923 2848 
Q 2756 2613 2416 2484 
Q 2838 2347 3058 2040 
Q 3278 1734 3278 1309 
Q 3278 722 2862 322 
Q 2447 -78 1769 -78 
Q 1091 -78 675 323 
Q 259 725 259 1325 
Q 259 1772 486 2073 
Q 713 2375 1131 2484 
z
M 1019 3438 
Q 1019 3113 1228 2906 
Q 1438 2700 1772 2700 
Q 2097 2700 2305 2904 
Q 2513 3109 2513 3406 
Q 2513 3716 2298 3927 
Q 2084 4138 1766 4138 
Q 1444 4138 1231 3931 
Q 1019 3725 1019 3438 
z
M 838 1322 
Q 838 1081 952 856 
Q 1066 631 1291 507 
Q 1516 384 1775 384 
Q 2178 384 2440 643 
Q 2703 903 2703 1303 
Q 2703 1709 2433 1975 
Q 2163 2241 1756 2241 
Q 1359 2241 1098 1978 
Q 838 1716 838 1322 
z
" id="ArialMT-38" transform="scale(0.015625)"/>
       </defs>
       <use xlink:href="#ArialMT-30"/>
       <use x="55.615234" xlink:href="#ArialMT-2e"/>
       <use x="83.398438" xlink:href="#ArialMT-38"/>
      </g>
     </g>
    </g>
    <g id="text_10">
     <!-- Scores -->
     <g style="fill:#262626;" transform="translate(32.252344 469.363281)rotate(-90)scale(0.35 -0.35)">
      <use xlink:href="#ArialMT-53"/>
      <use x="66.699219" xlink:href="#ArialMT-63"/>
      <use x="116.699219" xlink:href="#ArialMT-6f"/>
      <use x="172.314453" xlink:href="#ArialMT-72"/>
      <use x="205.615234" xlink:href="#ArialMT-65"/>
      <use x="261.230469" xlink:href="#ArialMT-73"/>
     </g>
    </g>
   </g>
   <g id="patch_3">
    <path clip-path="url(#pa400a74136)" d="M 120.340594 145.651737 
L 202.366594 145.651737 
L 202.366594 122.939319 
L 120.340594 122.939319 
L 120.340594 145.651737 
z
" style="fill:#5a7c88;stroke:#444444;stroke-linejoin:miter;stroke-width:1.5;"/>
   </g>
   <g id="patch_4">
    <path clip-path="url(#pa400a74136)" d="M 204.040594 82.844819 
L 286.066594 82.844819 
L 286.066594 62.42076 
L 204.040594 62.42076 
L 204.040594 82.844819 
z
" style="fill:#cecd80;stroke:#444444;stroke-linejoin:miter;stroke-width:1.5;"/>
   </g>
   <g id="patch_5">
    <path clip-path="url(#pa400a74136)" d="M 329.590594 235.215547 
L 411.616594 235.215547 
L 411.616594 188.552599 
L 329.590594 188.552599 
L 329.590594 235.215547 
z
" style="fill:#5a7c88;stroke:#444444;stroke-linejoin:miter;stroke-width:1.5;"/>
   </g>
   <g id="patch_6">
    <path clip-path="url(#pa400a74136)" d="M 413.290594 147.515824 
L 495.316594 147.515824 
L 495.316594 99.713224 
L 413.290594 99.713224 
L 413.290594 147.515824 
z
" style="fill:#cecd80;stroke:#444444;stroke-linejoin:miter;stroke-width:1.5;"/>
   </g>
   <g id="patch_7">
    <path clip-path="url(#pa400a74136)" d="M 538.840594 248.131299 
L 620.866594 248.131299 
L 620.866594 216.115341 
L 538.840594 216.115341 
L 538.840594 248.131299 
z
" style="fill:#5a7c88;stroke:#444444;stroke-linejoin:miter;stroke-width:1.5;"/>
   </g>
   <g id="patch_8">
    <path clip-path="url(#pa400a74136)" d="M 622.540594 148.589883 
L 704.566594 148.589883 
L 704.566594 118.49922 
L 622.540594 118.49922 
L 622.540594 148.589883 
z
" style="fill:#cecd80;stroke:#444444;stroke-linejoin:miter;stroke-width:1.5;"/>
   </g>
   <g id="patch_9">
    <path clip-path="url(#pa400a74136)" d="M 748.090594 645.640773 
L 830.116594 645.640773 
L 830.116594 601.819465 
L 748.090594 601.819465 
L 748.090594 645.640773 
z
" style="fill:#5a7c88;stroke:#444444;stroke-linejoin:miter;stroke-width:1.5;"/>
   </g>
   <g id="patch_10">
    <path clip-path="url(#pa400a74136)" d="M 831.790594 733.712061 
L 913.816594 733.712061 
L 913.816594 680.630995 
L 831.790594 680.630995 
L 831.790594 733.712061 
z
" style="fill:#cecd80;stroke:#444444;stroke-linejoin:miter;stroke-width:1.5;"/>
   </g>
   <g id="patch_11">
    <path clip-path="url(#pa400a74136)" d="M 203.203594 1533.410525 
L 203.203594 1533.410525 
L 203.203594 1533.410525 
L 203.203594 1533.410525 
z
" style="fill:#5a7c88;stroke:#444444;stroke-linejoin:miter;stroke-width:0.75;"/>
   </g>
   <g id="patch_12">
    <path clip-path="url(#pa400a74136)" d="M 203.203594 1533.410525 
L 203.203594 1533.410525 
L 203.203594 1533.410525 
L 203.203594 1533.410525 
z
" style="fill:#cecd80;stroke:#444444;stroke-linejoin:miter;stroke-width:0.75;"/>
   </g>
   <g id="line2d_1">
    <path clip-path="url(#pa400a74136)" d="M 161.353594 145.651737 
L 161.353594 164.661326 
" style="fill:none;stroke:#444444;stroke-linecap:round;stroke-width:1.5;"/>
   </g>
   <g id="line2d_2">
    <path clip-path="url(#pa400a74136)" d="M 161.353594 122.939319 
L 161.353594 100.325564 
" style="fill:none;stroke:#444444;stroke-linecap:round;stroke-width:1.5;"/>
   </g>
   <g id="line2d_3">
    <path clip-path="url(#pa400a74136)" d="M 140.847094 164.661326 
L 181.860094 164.661326 
" style="fill:none;stroke:#444444;stroke-linecap:round;stroke-width:1.5;"/>
   </g>
   <g id="line2d_4">
    <path clip-path="url(#pa400a74136)" d="M 140.847094 100.325564 
L 181.860094 100.325564 
" style="fill:none;stroke:#444444;stroke-linecap:round;stroke-width:1.5;"/>
   </g>
   <g id="line2d_5"/>
   <g id="line2d_6">
    <path clip-path="url(#pa400a74136)" d="M 245.053594 82.844819 
L 245.053594 96.097292 
" style="fill:none;stroke:#444444;stroke-linecap:round;stroke-width:1.5;"/>
   </g>
   <g id="line2d_7">
    <path clip-path="url(#pa400a74136)" d="M 245.053594 62.42076 
L 245.053594 44.263636 
" style="fill:none;stroke:#444444;stroke-linecap:round;stroke-width:1.5;"/>
   </g>
   <g id="line2d_8">
    <path clip-path="url(#pa400a74136)" d="M 224.547094 96.097292 
L 265.560094 96.097292 
" style="fill:none;stroke:#444444;stroke-linecap:round;stroke-width:1.5;"/>
   </g>
   <g id="line2d_9">
    <path clip-path="url(#pa400a74136)" d="M 224.547094 44.263636 
L 265.560094 44.263636 
" style="fill:none;stroke:#444444;stroke-linecap:round;stroke-width:1.5;"/>
   </g>
   <g id="line2d_10">
    <defs>
     <path d="M -0 3.535534 
L 2.12132 0 
L -0 -3.535534 
L -2.12132 -0 
z
" id="mf4d35b398d" style="stroke:#444444;stroke-linejoin:miter;"/>
    </defs>
    <g clip-path="url(#pa400a74136)">
     <use style="fill:#444444;stroke:#444444;stroke-linejoin:miter;" x="245.053594" xlink:href="#mf4d35b398d" y="131.012796"/>
    </g>
   </g>
   <g id="line2d_11">
    <path clip-path="url(#pa400a74136)" d="M 370.603594 235.215547 
L 370.603594 277.095912 
" style="fill:none;stroke:#444444;stroke-linecap:round;stroke-width:1.5;"/>
   </g>
   <g id="line2d_12">
    <path clip-path="url(#pa400a74136)" d="M 370.603594 188.552599 
L 370.603594 159.257014 
" style="fill:none;stroke:#444444;stroke-linecap:round;stroke-width:1.5;"/>
   </g>
   <g id="line2d_13">
    <path clip-path="url(#pa400a74136)" d="M 350.097094 277.095912 
L 391.110094 277.095912 
" style="fill:none;stroke:#444444;stroke-linecap:round;stroke-width:1.5;"/>
   </g>
   <g id="line2d_14">
    <path clip-path="url(#pa400a74136)" d="M 350.097094 159.257014 
L 391.110094 159.257014 
" style="fill:none;stroke:#444444;stroke-linecap:round;stroke-width:1.5;"/>
   </g>
   <g id="line2d_15">
    <g clip-path="url(#pa400a74136)">
     <use style="fill:#444444;stroke:#444444;stroke-linejoin:miter;" x="370.603594" xlink:href="#mf4d35b398d" y="98.726332"/>
    </g>
   </g>
   <g id="line2d_16">
    <path clip-path="url(#pa400a74136)" d="M 454.303594 147.515824 
L 454.303594 207.701996 
" style="fill:none;stroke:#444444;stroke-linecap:round;stroke-width:1.5;"/>
   </g>
   <g id="line2d_17">
    <path clip-path="url(#pa400a74136)" d="M 454.303594 99.713224 
L 454.303594 74.575544 
" style="fill:none;stroke:#444444;stroke-linecap:round;stroke-width:1.5;"/>
   </g>
   <g id="line2d_18">
    <path clip-path="url(#pa400a74136)" d="M 433.797094 207.701996 
L 474.810094 207.701996 
" style="fill:none;stroke:#444444;stroke-linecap:round;stroke-width:1.5;"/>
   </g>
   <g id="line2d_19">
    <path clip-path="url(#pa400a74136)" d="M 433.797094 74.575544 
L 474.810094 74.575544 
" style="fill:none;stroke:#444444;stroke-linecap:round;stroke-width:1.5;"/>
   </g>
   <g id="line2d_20">
    <g clip-path="url(#pa400a74136)">
     <use style="fill:#444444;stroke:#444444;stroke-linejoin:miter;" x="454.303594" xlink:href="#mf4d35b398d" y="229.148735"/>
    </g>
   </g>
   <g id="line2d_21">
    <path clip-path="url(#pa400a74136)" d="M 579.853594 248.131299 
L 579.853594 283.265596 
" style="fill:none;stroke:#444444;stroke-linecap:round;stroke-width:1.5;"/>
   </g>
   <g id="line2d_22">
    <path clip-path="url(#pa400a74136)" d="M 579.853594 216.115341 
L 579.853594 172.461078 
" style="fill:none;stroke:#444444;stroke-linecap:round;stroke-width:1.5;"/>
   </g>
   <g id="line2d_23">
    <path clip-path="url(#pa400a74136)" d="M 559.347094 283.265596 
L 600.360094 283.265596 
" style="fill:none;stroke:#444444;stroke-linecap:round;stroke-width:1.5;"/>
   </g>
   <g id="line2d_24">
    <path clip-path="url(#pa400a74136)" d="M 559.347094 172.461078 
L 600.360094 172.461078 
" style="fill:none;stroke:#444444;stroke-linecap:round;stroke-width:1.5;"/>
   </g>
   <g id="line2d_25">
    <g clip-path="url(#pa400a74136)">
     <use style="fill:#444444;stroke:#444444;stroke-linejoin:miter;" x="579.853594" xlink:href="#mf4d35b398d" y="161.48518"/>
    </g>
   </g>
   <g id="line2d_26">
    <path clip-path="url(#pa400a74136)" d="M 663.553594 148.589883 
L 663.553594 185.627304 
" style="fill:none;stroke:#444444;stroke-linecap:round;stroke-width:1.5;"/>
   </g>
   <g id="line2d_27">
    <path clip-path="url(#pa400a74136)" d="M 663.553594 118.49922 
L 663.553594 103.050934 
" style="fill:none;stroke:#444444;stroke-linecap:round;stroke-width:1.5;"/>
   </g>
   <g id="line2d_28">
    <path clip-path="url(#pa400a74136)" d="M 643.047094 185.627304 
L 684.060094 185.627304 
" style="fill:none;stroke:#444444;stroke-linecap:round;stroke-width:1.5;"/>
   </g>
   <g id="line2d_29">
    <path clip-path="url(#pa400a74136)" d="M 643.047094 103.050934 
L 684.060094 103.050934 
" style="fill:none;stroke:#444444;stroke-linecap:round;stroke-width:1.5;"/>
   </g>
   <g id="line2d_30">
    <g clip-path="url(#pa400a74136)">
     <use style="fill:#444444;stroke:#444444;stroke-linejoin:miter;" x="663.553594" xlink:href="#mf4d35b398d" y="213.268081"/>
    </g>
   </g>
   <g id="line2d_31">
    <path clip-path="url(#pa400a74136)" d="M 789.103594 645.640773 
L 789.103594 685.029065 
" style="fill:none;stroke:#444444;stroke-linecap:round;stroke-width:1.5;"/>
   </g>
   <g id="line2d_32">
    <path clip-path="url(#pa400a74136)" d="M 789.103594 601.819465 
L 789.103594 557.115278 
" style="fill:none;stroke:#444444;stroke-linecap:round;stroke-width:1.5;"/>
   </g>
   <g id="line2d_33">
    <path clip-path="url(#pa400a74136)" d="M 768.597094 685.029065 
L 809.610094 685.029065 
" style="fill:none;stroke:#444444;stroke-linecap:round;stroke-width:1.5;"/>
   </g>
   <g id="line2d_34">
    <path clip-path="url(#pa400a74136)" d="M 768.597094 557.115278 
L 809.610094 557.115278 
" style="fill:none;stroke:#444444;stroke-linecap:round;stroke-width:1.5;"/>
   </g>
   <g id="line2d_35">
    <g clip-path="url(#pa400a74136)">
     <use style="fill:#444444;stroke:#444444;stroke-linejoin:miter;" x="789.103594" xlink:href="#mf4d35b398d" y="716.882824"/>
     <use style="fill:#444444;stroke:#444444;stroke-linejoin:miter;" x="789.103594" xlink:href="#mf4d35b398d" y="533.065459"/>
    </g>
   </g>
   <g id="line2d_36">
    <path clip-path="url(#pa400a74136)" d="M 872.803594 733.712061 
L 872.803594 785.536364 
" style="fill:none;stroke:#444444;stroke-linecap:round;stroke-width:1.5;"/>
   </g>
   <g id="line2d_37">
    <path clip-path="url(#pa400a74136)" d="M 872.803594 680.630995 
L 872.803594 601.887001 
" style="fill:none;stroke:#444444;stroke-linecap:round;stroke-width:1.5;"/>
   </g>
   <g id="line2d_38">
    <path clip-path="url(#pa400a74136)" d="M 852.297094 785.536364 
L 893.310094 785.536364 
" style="fill:none;stroke:#444444;stroke-linecap:round;stroke-width:1.5;"/>
   </g>
   <g id="line2d_39">
    <path clip-path="url(#pa400a74136)" d="M 852.297094 601.887001 
L 893.310094 601.887001 
" style="fill:none;stroke:#444444;stroke-linecap:round;stroke-width:1.5;"/>
   </g>
   <g id="line2d_40"/>
   <g id="line2d_41">
    <path clip-path="url(#pa400a74136)" d="M 307.828594 822.6 
L 307.828594 7.2 
" style="fill:none;stroke:#555555;stroke-dasharray:7.4,3.2;stroke-dashoffset:0;stroke-width:2;"/>
   </g>
   <g id="line2d_42">
    <path clip-path="url(#pa400a74136)" d="M 517.078594 822.6 
L 517.078594 7.2 
" style="fill:none;stroke:#555555;stroke-dasharray:7.4,3.2;stroke-dashoffset:0;stroke-width:2;"/>
   </g>
   <g id="line2d_43">
    <path clip-path="url(#pa400a74136)" d="M 726.328594 822.6 
L 726.328594 7.2 
" style="fill:none;stroke:#555555;stroke-dasharray:7.4,3.2;stroke-dashoffset:0;stroke-width:2;"/>
   </g>
   <g id="line2d_44">
    <path clip-path="url(#pa400a74136)" d="M 120.340594 134.447695 
L 202.366594 134.447695 
" style="fill:none;stroke:#444444;stroke-linecap:round;stroke-width:1.5;"/>
   </g>
   <g id="line2d_45">
    <path clip-path="url(#pa400a74136)" d="M 204.040594 72.892735 
L 286.066594 72.892735 
" style="fill:none;stroke:#444444;stroke-linecap:round;stroke-width:1.5;"/>
   </g>
   <g id="line2d_46">
    <path clip-path="url(#pa400a74136)" d="M 329.590594 208.314142 
L 411.616594 208.314142 
" style="fill:none;stroke:#444444;stroke-linecap:round;stroke-width:1.5;"/>
   </g>
   <g id="line2d_47">
    <path clip-path="url(#pa400a74136)" d="M 413.290594 134.986622 
L 495.316594 134.986622 
" style="fill:none;stroke:#444444;stroke-linecap:round;stroke-width:1.5;"/>
   </g>
   <g id="line2d_48">
    <path clip-path="url(#pa400a74136)" d="M 538.840594 236.626498 
L 620.866594 236.626498 
" style="fill:none;stroke:#444444;stroke-linecap:round;stroke-width:1.5;"/>
   </g>
   <g id="line2d_49">
    <path clip-path="url(#pa400a74136)" d="M 622.540594 131.854785 
L 704.566594 131.854785 
" style="fill:none;stroke:#444444;stroke-linecap:round;stroke-width:1.5;"/>
   </g>
   <g id="line2d_50">
    <path clip-path="url(#pa400a74136)" d="M 748.090594 624.503564 
L 830.116594 624.503564 
" style="fill:none;stroke:#444444;stroke-linecap:round;stroke-width:1.5;"/>
   </g>
   <g id="line2d_51">
    <path clip-path="url(#pa400a74136)" d="M 831.790594 704.89437 
L 913.816594 704.89437 
" style="fill:none;stroke:#444444;stroke-linecap:round;stroke-width:1.5;"/>
   </g>
   <g id="patch_13">
    <path d="M 98.578594 822.6 
L 98.578594 7.2 
" style="fill:none;stroke:#262626;stroke-linecap:square;stroke-linejoin:miter;stroke-width:1.25;"/>
   </g>
   <g id="patch_14">
    <path d="M 935.578594 822.6 
L 935.578594 7.2 
" style="fill:none;stroke:#262626;stroke-linecap:square;stroke-linejoin:miter;stroke-width:1.25;"/>
   </g>
   <g id="patch_15">
    <path d="M 98.578594 822.6 
L 935.578594 822.6 
" style="fill:none;stroke:#262626;stroke-linecap:square;stroke-linejoin:miter;stroke-width:1.25;"/>
   </g>
   <g id="patch_16">
    <path d="M 98.578594 7.2 
L 935.578594 7.2 
" style="fill:none;stroke:#262626;stroke-linecap:square;stroke-linejoin:miter;stroke-width:1.25;"/>
   </g>
   <g id="legend_1">
    <g id="patch_17">
     <path d="M 116.078594 810.1 
L 265.547344 810.1 
Q 270.547344 810.1 270.547344 805.1 
L 270.547344 736.873437 
Q 270.547344 731.873437 265.547344 731.873437 
L 116.078594 731.873437 
Q 111.078594 731.873437 111.078594 736.873437 
L 111.078594 805.1 
Q 111.078594 810.1 116.078594 810.1 
z
" style="fill:#ffffff;opacity:0.8;stroke:#cccccc;stroke-linejoin:miter;"/>
    </g>
    <g id="patch_18">
     <path d="M 121.078594 759.767969 
L 171.078594 759.767969 
L 171.078594 742.267969 
L 121.078594 742.267969 
z
" style="fill:#5a7c88;stroke:#444444;stroke-linejoin:miter;stroke-width:0.75;"/>
    </g>
    <g id="text_11">
     <!-- KLIFS -->
     <g style="fill:#262626;" transform="translate(191.078594 759.767969)scale(0.25 -0.25)">
      <defs>
       <path d="M 469 0 
L 469 4581 
L 1075 4581 
L 1075 2309 
L 3350 4581 
L 4172 4581 
L 2250 2725 
L 4256 0 
L 3456 0 
L 1825 2319 
L 1075 1588 
L 1075 0 
L 469 0 
z
" id="ArialMT-4b" transform="scale(0.015625)"/>
       <path d="M 469 0 
L 469 4581 
L 1075 4581 
L 1075 541 
L 3331 541 
L 3331 0 
L 469 0 
z
" id="ArialMT-4c" transform="scale(0.015625)"/>
       <path d="M 525 0 
L 525 4581 
L 3616 4581 
L 3616 4041 
L 1131 4041 
L 1131 2622 
L 3281 2622 
L 3281 2081 
L 1131 2081 
L 1131 0 
L 525 0 
z
" id="ArialMT-46" transform="scale(0.015625)"/>
      </defs>
      <use xlink:href="#ArialMT-4b"/>
      <use x="66.699219" xlink:href="#ArialMT-4c"/>
      <use x="122.314453" xlink:href="#ArialMT-49"/>
      <use x="150.097656" xlink:href="#ArialMT-46"/>
      <use x="211.181641" xlink:href="#ArialMT-53"/>
     </g>
    </g>
    <g id="patch_19">
     <path d="M 121.078594 795.13125 
L 171.078594 795.13125 
L 171.078594 777.63125 
L 121.078594 777.63125 
z
" style="fill:#cecd80;stroke:#444444;stroke-linejoin:miter;stroke-width:0.75;"/>
    </g>
    <g id="text_12">
     <!-- ESM -->
     <g style="fill:#262626;" transform="translate(191.078594 795.13125)scale(0.25 -0.25)">
      <use xlink:href="#ArialMT-45"/>
      <use x="66.699219" xlink:href="#ArialMT-53"/>
      <use x="133.398438" xlink:href="#ArialMT-4d"/>
     </g>
    </g>
   </g>
  </g>
 </g>
 <defs>
  <clipPath id="pa400a74136">
   <rect height="815.4" width="837" x="98.578594" y="7.2"/>
  </clipPath>
 </defs>
</svg>
